<?xml version="1.0" encoding="utf-8"?>
<!-- Generator: Adobe Illustrator 16.0.0, SVG Export Plug-In . SVG Version: 6.00 Build 0)  -->
<!DOCTYPE svg PUBLIC "-//W3C//DTD SVG 1.1//EN" "http://www.w3.org/Graphics/SVG/1.1/DTD/svg11.dtd">
<svg version="1.1" id="Layer_1" xmlns="http://www.w3.org/2000/svg" xmlns:xlink="http://www.w3.org/1999/xlink" x="0px" y="0px"
	 width="87.713px" height="102.417px" viewBox="0 0 87.713 102.417" enable-background="new 0 0 87.713 102.417"
	 xml:space="preserve">
<g>
	<path d="M82.932,20.746c-5.431-5.346-10.833-10.721-16.2-16.131C63.645,1.504,59.96-0.003,55.596,0
		C39.317,0.014,23.039,0.006,6.761,0.006c-4.858,0-6.757,1.883-6.759,6.726c-0.004,14.815-0.001,29.63,0,44.446
		c0,14.814-0.002,29.63,0.002,44.445c0,4.863,1.905,6.793,6.699,6.794c24.813,0.001,49.628,0.001,74.441-0.001
		c4.581,0,6.558-1.965,6.559-6.569c0.008-21.217-0.004-42.434,0.01-63.649C87.715,27.697,86.146,23.91,82.932,20.746z M58.547,7.66
		c1.074,0.697,20.879,20.465,21.592,21.52c-7.424,0-14.453,0-21.592,0C58.547,22.108,58.547,15.131,58.547,7.66z M80.369,95.047
		c-24.359,0-48.602,0-72.997,0c0-29.184,0-58.338,0-87.687c14.612,0,29.106,0,43.846,0c0,0.716,0,1.367,0,2.019
		c0,6.889-0.009,13.775,0.003,20.663c0.008,4.573,1.992,6.521,6.604,6.522c6.826,0.001,13.652,0,20.479,0c0.657,0,1.314,0,2.065,0
		C80.369,56.146,80.369,75.557,80.369,95.047z"/>
	<path d="M24.996,57.828c-3.303,0-5.891,0.998-7.766,2.994c-1.874,1.996-2.811,4.759-2.811,8.291c0,3.519,0.93,6.273,2.791,8.262
		c1.862,1.989,4.444,2.984,7.746,2.984c1.25,0,2.417-0.137,3.5-0.411c1.084-0.274,2.098-0.686,3.042-1.234v-5.145
		c-0.842,0.739-1.734,1.291-2.678,1.654c-0.944,0.363-1.958,0.545-3.041,0.545c-1.823,0-3.226-0.574-4.208-1.721
		S20.1,71.254,20.1,69.112s0.49-3.793,1.473-4.954s2.385-1.741,4.208-1.741c1.046,0,2.056,0.188,3.031,0.564
		s1.871,0.915,2.688,1.616v-5.126c-1.059-0.561-2.12-0.976-3.185-1.243S26.144,57.828,24.996,57.828z"/>
	<path d="M47.328,67.027l-1.607-0.382l-0.21-0.058c-2.729-0.637-4.093-1.466-4.093-2.486c0-0.714,0.318-1.252,0.956-1.616
		c0.638-0.363,1.581-0.545,2.831-0.545c1.121,0,2.24,0.169,3.355,0.507c1.116,0.338,2.19,0.838,3.224,1.501v-4.896
		c-1.136-0.395-2.305-0.691-3.51-0.889s-2.413-0.296-3.624-0.296c-2.703,0-4.801,0.574-6.293,1.721s-2.238,2.754-2.238,4.82
		c0,1.734,0.491,3.118,1.473,4.15c0.982,1.033,2.545,1.792,4.687,2.276l1.55,0.344c1.797,0.434,2.936,0.842,3.414,1.224
		c0.478,0.383,0.717,0.931,0.717,1.645c0,0.727-0.338,1.281-1.014,1.664c-0.676,0.382-1.671,0.574-2.984,0.574
		c-1.198,0-2.438-0.185-3.72-0.555c-1.281-0.37-2.54-0.905-3.777-1.607v4.896c1.39,0.446,2.761,0.781,4.112,1.004
		c1.352,0.223,2.671,0.335,3.959,0.335c2.907,0,5.084-0.552,6.531-1.654c1.447-1.103,2.172-2.757,2.172-4.963
		c0-1.836-0.477-3.292-1.426-4.37S49.367,67.512,47.328,67.027z"/>
	<polygon points="66.236,75.099 61.664,58.382 55.984,58.382 62.793,79.804 69.697,79.804 76.506,58.382 70.826,58.382 	"/>
</g>
</svg>
