<?xml version="1.0" encoding="utf-8"?>
<!-- Generator: Adobe Illustrator 16.0.0, SVG Export Plug-In . SVG Version: 6.00 Build 0)  -->
<!DOCTYPE svg PUBLIC "-//W3C//DTD SVG 1.1//EN" "http://www.w3.org/Graphics/SVG/1.1/DTD/svg11.dtd">
<svg version="1.1" id="Layer_1" xmlns="http://www.w3.org/2000/svg" xmlns:xlink="http://www.w3.org/1999/xlink" x="0px" y="0px"
	 width="87.711px" height="102.418px" viewBox="0 0 87.711 102.418" enable-background="new 0 0 87.711 102.418"
	 xml:space="preserve">
<g>
	<path fill-rule="evenodd" clip-rule="evenodd" d="M58.507,8.049c0,7.471,0,14.447,0,21.52c7.137,0,14.166,0,21.592,0L58.507,8.049z
		"/>
	<path fill-rule="evenodd" clip-rule="evenodd" d="M78.263,36.953c-6.826,0-13.654,0-20.48,0c-4.611-0.002-6.596-1.949-6.602-6.523
		c-0.014-6.887-0.004-13.774-0.004-20.662c0-0.651,0-1.304,0-2.019c-14.738,0-29.234,0-43.846,0c0,29.349,0,58.503,0,87.687
		c24.395,0,48.637,0,72.998,0c0-19.49,0-38.9,0-58.482C79.577,36.953,78.919,36.953,78.263,36.953z M31.473,64.684
		c-0.816-0.701-1.711-1.24-2.688-1.616c-0.975-0.376-1.985-0.564-3.031-0.564c-1.823,0-3.226,0.58-4.207,1.74
		c-0.982,1.16-1.473,2.813-1.473,4.954s0.49,3.787,1.473,4.935c0.981,1.147,2.384,1.721,4.207,1.721
		c1.084,0,2.098-0.182,3.041-0.545s1.836-0.914,2.678-1.654v5.145c-0.943,0.549-1.957,0.961-3.041,1.234s-2.25,0.411-3.5,0.411
		c-3.303,0-5.885-0.995-7.746-2.983c-1.861-1.989-2.792-4.744-2.792-8.263c0-3.532,0.937-6.296,2.812-8.291
		c1.874-1.995,4.463-2.993,7.766-2.993c1.146,0,2.253,0.134,3.318,0.401c1.064,0.268,2.125,0.683,3.184,1.243V64.684z
		 M51.041,78.789c-1.447,1.103-3.625,1.654-6.531,1.654c-1.289,0-2.607-0.112-3.959-0.335s-2.723-0.558-4.113-1.004v-4.896
		c1.237,0.701,2.496,1.237,3.777,1.607c1.282,0.369,2.521,0.555,3.721,0.555c1.313,0,2.308-0.191,2.984-0.574
		c0.675-0.383,1.014-0.938,1.014-1.664c0-0.714-0.24-1.262-0.718-1.645c-0.479-0.383-1.616-0.791-3.414-1.225l-1.55-0.344
		c-2.142-0.484-3.703-1.244-4.686-2.276s-1.473-2.416-1.473-4.15c0-2.065,0.746-3.673,2.238-4.819
		c1.491-1.148,3.589-1.722,6.292-1.722c1.212,0,2.419,0.099,3.624,0.296c1.205,0.198,2.375,0.494,3.51,0.89v4.896
		c-1.033-0.663-2.107-1.163-3.223-1.501s-2.234-0.508-3.356-0.508c-1.249,0-2.193,0.182-2.831,0.545
		c-0.637,0.364-0.956,0.902-0.956,1.617c0,1.02,1.364,1.849,4.093,2.486l0.211,0.057l1.606,0.383
		c2.04,0.484,3.535,1.266,4.485,2.344c0.949,1.077,1.425,2.533,1.425,4.369C53.212,76.032,52.488,77.687,51.041,78.789z
		 M69.672,79.889h-6.904l-6.809-21.421h5.68l4.571,16.716l4.591-16.716h5.68L69.672,79.889z"/>
</g>
</svg>
