<?xml version="1.0" encoding="utf-8"?>
<!-- Generator: Adobe Illustrator 16.0.0, SVG Export Plug-In . SVG Version: 6.00 Build 0)  -->
<!DOCTYPE svg PUBLIC "-//W3C//DTD SVG 1.1//EN" "http://www.w3.org/Graphics/SVG/1.1/DTD/svg11.dtd">
<svg version="1.1" id="Layer_1" xmlns="http://www.w3.org/2000/svg" xmlns:xlink="http://www.w3.org/1999/xlink" x="0px" y="0px"
	 width="87.713px" height="102.417px" viewBox="0 0 87.713 102.417" enable-background="new 0 0 87.713 102.417"
	 xml:space="preserve">
<g>
	<path d="M82.932,20.746c-5.431-5.346-10.833-10.721-16.2-16.131C63.645,1.504,59.96-0.003,55.596,0
		C39.317,0.014,23.039,0.006,6.761,0.006c-4.858,0-6.757,1.883-6.759,6.726c-0.004,14.815-0.001,29.63,0,44.446
		c0,14.814-0.002,29.63,0.002,44.445c0,4.863,1.905,6.793,6.699,6.794c24.813,0.001,49.628,0.001,74.441-0.001
		c4.581,0,6.558-1.965,6.559-6.569c0.008-21.217-0.004-42.434,0.01-63.649C87.715,27.697,86.146,23.91,82.932,20.746z M58.547,7.66
		c1.074,0.697,20.879,20.465,21.592,21.52c-7.424,0-14.453,0-21.592,0C58.547,22.108,58.547,15.131,58.547,7.66z M80.369,95.047
		c-24.359,0-48.602,0-72.997,0c0-29.184,0-58.338,0-87.687c14.612,0,29.106,0,43.846,0c0,0.716,0,1.367,0,2.019
		c0,6.889-0.009,13.775,0.003,20.663c0.008,4.573,1.992,6.521,6.604,6.522c6.826,0.001,13.652,0,20.479,0c0.657,0,1.314,0,2.065,0
		C80.369,56.146,80.369,75.557,80.369,95.047z"/>
	<path d="M25.555,59.083c-1.288,0-2.41,0.313-3.366,0.938c-0.956,0.624-1.728,1.556-2.314,2.792V59.6h-5.585v29.568h5.585V77.999
		c0.688,1.198,1.489,2.094,2.4,2.687s1.941,0.89,3.089,0.89c2.537,0,4.491-0.969,5.862-2.907c1.37-1.938,2.056-4.718,2.056-8.339
		c0-3.57-0.676-6.337-2.027-8.301S28.003,59.083,25.555,59.083z M26.645,75.148c-0.688,1.174-1.639,1.76-2.85,1.76
		s-2.168-0.586-2.869-1.76c-0.701-1.173-1.052-2.792-1.052-4.857s0.351-3.685,1.052-4.858c0.701-1.173,1.658-1.76,2.869-1.76
		s2.161,0.587,2.85,1.76c0.689,1.174,1.033,2.793,1.033,4.858S27.334,73.976,26.645,75.148z"/>
	<path d="M48.174,62.641c-0.689-1.187-1.49-2.075-2.4-2.668c-0.912-0.594-1.941-0.89-3.09-0.89c-2.537,0-4.491,0.969-5.861,2.907
		c-1.371,1.938-2.057,4.718-2.057,8.339c0,3.57,0.676,6.337,2.027,8.301s3.252,2.945,5.699,2.945c1.288,0,2.407-0.313,3.357-0.938
		c0.949-0.624,1.725-1.556,2.324-2.792v3.175h5.584v-29.76h-5.584V62.641z M47.121,75.226c-0.701,1.173-1.658,1.76-2.869,1.76
		s-2.161-0.587-2.85-1.76s-1.033-2.793-1.033-4.858s0.345-3.685,1.033-4.858c0.688-1.173,1.639-1.759,2.85-1.759
		s2.168,0.586,2.869,1.759c0.701,1.174,1.053,2.793,1.053,4.858S47.822,74.053,47.121,75.226z"/>
	<path d="M64.805,52.752c-1.07,0.995-1.605,2.78-1.605,5.355V59.6h-5.203v4.303h5.203v17.118h5.604V63.902h6.579V59.6h-6.579v-1.875
		c0.025-0.828,0.188-1.396,0.488-1.702c0.299-0.306,0.869-0.459,1.711-0.459h4.38v-4.303h-4.609
		C67.865,51.261,65.877,51.758,64.805,52.752z"/>
</g>
</svg>
