<?xml version="1.0" encoding="utf-8"?>
<!-- Generator: Adobe Illustrator 16.0.0, SVG Export Plug-In . SVG Version: 6.00 Build 0)  -->
<!DOCTYPE svg PUBLIC "-//W3C//DTD SVG 1.1//EN" "http://www.w3.org/Graphics/SVG/1.1/DTD/svg11.dtd">
<svg version="1.1" id="Layer_1" xmlns="http://www.w3.org/2000/svg" xmlns:xlink="http://www.w3.org/1999/xlink" x="0px" y="0px"
	 width="87.713px" height="102.417px" viewBox="0 0 87.713 102.417" enable-background="new 0 0 87.713 102.417"
	 xml:space="preserve">
<g>
	<path fill-rule="evenodd" clip-rule="evenodd" d="M58.672,7.802c0,7.471,0,14.447,0,21.521c7.137,0,14.166,0,21.592,0L58.672,7.802
		z"/>
	<path fill-rule="evenodd" clip-rule="evenodd" d="M23.936,63.512c-1.211,0-2.168,0.587-2.869,1.76
		c-0.701,1.174-1.052,2.793-1.052,4.858s0.351,3.685,1.052,4.857c0.701,1.174,1.658,1.76,2.869,1.76s2.161-0.586,2.85-1.76
		c0.689-1.173,1.033-2.792,1.033-4.857s-0.344-3.685-1.033-4.858C26.097,64.099,25.146,63.512,23.936,63.512z"/>
	<path fill-rule="evenodd" clip-rule="evenodd" d="M44.393,63.589c-1.211,0-2.161,0.586-2.85,1.759
		c-0.688,1.174-1.033,2.793-1.033,4.858s0.345,3.686,1.033,4.858s1.639,1.76,2.85,1.76s2.168-0.587,2.869-1.76
		s1.053-2.793,1.053-4.858s-0.352-3.685-1.053-4.858C46.561,64.175,45.604,63.589,44.393,63.589z"/>
	<path fill-rule="evenodd" clip-rule="evenodd" d="M78.428,36.708c-6.826,0-13.654,0-20.48,0c-4.611-0.002-6.596-1.949-6.602-6.523
		c-0.014-6.889-0.004-13.775-0.004-20.664c0-0.65,0-1.303,0-2.018c-14.738,0-29.234,0-43.846,0c0,29.35,0,58.504,0,87.688
		c24.395,0,48.637,0,72.998,0c0-19.49,0-38.9,0-58.482C79.742,36.708,79.084,36.708,78.428,36.708z M31.366,78.507
		c-1.371,1.938-3.325,2.907-5.862,2.907c-1.147,0-2.178-0.297-3.089-0.89s-1.712-1.488-2.4-2.687v11.169H14.43V59.438h5.585v3.213
		c0.587-1.236,1.358-2.168,2.314-2.792c0.956-0.625,2.078-0.938,3.366-0.938c2.448,0,4.348,0.981,5.699,2.945
		s2.027,4.73,2.027,8.301C33.422,73.789,32.736,76.569,31.366,78.507z M53.898,80.859h-5.584v-3.175
		c-0.6,1.236-1.375,2.168-2.324,2.792c-0.95,0.625-2.069,0.938-3.357,0.938c-2.447,0-4.348-0.981-5.699-2.945
		s-2.027-4.73-2.027-8.301c0-3.621,0.686-6.4,2.057-8.339c1.37-1.938,3.324-2.907,5.861-2.907c1.148,0,2.178,0.296,3.09,0.89
		c0.91,0.593,1.711,1.481,2.4,2.668V51.1h5.584V80.859z M75.522,55.402h-4.38c-0.842,0-1.412,0.153-1.711,0.459
		c-0.301,0.307-0.463,0.874-0.488,1.702v1.875h6.579v4.303h-6.579v17.118H63.34V63.741h-5.203v-4.303h5.203v-1.492
		c0-2.575,0.535-4.36,1.605-5.355c1.072-0.994,3.061-1.491,5.968-1.491h4.609V55.402z"/>
</g>
</svg>
