<?xml version="1.0" encoding="utf-8"?>
<!-- Generator: Adobe Illustrator 16.0.0, SVG Export Plug-In . SVG Version: 6.00 Build 0)  -->
<!DOCTYPE svg PUBLIC "-//W3C//DTD SVG 1.1//EN" "http://www.w3.org/Graphics/SVG/1.1/DTD/svg11.dtd">
<svg version="1.1" id="Layer_1" xmlns="http://www.w3.org/2000/svg" xmlns:xlink="http://www.w3.org/1999/xlink" x="0px" y="0px"
	 width="87.713px" height="102.417px" viewBox="0 0 87.713 102.417" enable-background="new 0 0 87.713 102.417"
	 xml:space="preserve">
<g>
	<path d="M82.932,20.746c-5.431-5.346-10.833-10.721-16.2-16.131C63.645,1.504,59.96-0.003,55.596,0
		C39.317,0.014,23.039,0.006,6.761,0.006c-4.858,0-6.757,1.883-6.759,6.726c-0.004,14.815-0.001,29.63,0,44.446
		c0,14.814-0.002,29.63,0.002,44.445c0,4.863,1.905,6.793,6.699,6.794c24.813,0.001,49.628,0.001,74.441-0.001
		c4.581,0,6.558-1.965,6.559-6.569c0.008-21.217-0.004-42.434,0.01-63.649C87.715,27.697,86.146,23.91,82.932,20.746z M58.547,7.66
		c1.074,0.697,20.879,20.465,21.592,21.52c-7.424,0-14.453,0-21.592,0C58.547,22.108,58.547,15.131,58.547,7.66z M80.369,95.047
		c-24.359,0-48.602,0-72.997,0c0-29.184,0-58.338,0-87.687c14.612,0,29.106,0,43.846,0c0,0.716,0,1.367,0,2.019
		c0,6.889-0.009,13.775,0.003,20.663c0.008,4.573,1.992,6.521,6.604,6.522c6.826,0.001,13.652,0,20.479,0c0.657,0,1.314,0,2.065,0
		C80.369,56.146,80.369,75.557,80.369,95.047z"/>
	<path d="M23.149,52.3h-5.605v6.082h-5.469v4.304h5.469v9.869c0,2.78,0.568,4.683,1.703,5.709s3.309,1.54,6.521,1.54h4.705V75.5
		h-4.303c-1.084,0-1.859-0.207-2.324-0.622s-0.697-1.1-0.697-2.056V62.686h7.324v-4.304h-7.324V52.3z"/>
	<path d="M46.499,57.866c-1.148,0-2.178,0.296-3.09,0.889c-0.912,0.593-1.711,1.482-2.4,2.668v-11.38h-5.584v29.76h5.584v-3.175
		c0.586,1.237,1.357,2.167,2.314,2.792c0.957,0.625,2.078,0.937,3.365,0.937c2.449,0,4.35-0.982,5.701-2.945s2.027-4.73,2.027-8.301
		c0-3.621-0.686-6.401-2.057-8.339S49.036,57.866,46.499,57.866z M47.78,74.008c-0.689,1.173-1.639,1.76-2.85,1.76
		c-1.213,0-2.168-0.586-2.869-1.76c-0.701-1.173-1.053-2.792-1.053-4.858c0-2.065,0.352-3.685,1.053-4.858
		c0.701-1.173,1.656-1.76,2.869-1.76c1.211,0,2.16,0.587,2.85,1.76c0.688,1.173,1.031,2.792,1.031,4.858
		C48.812,71.216,48.468,72.835,47.78,74.008z"/>
	<polygon points="77.058,58.382 70.517,58.382 66.938,64.771 63.382,58.382 56.841,58.382 64.128,68.634 56.21,79.804 
		62.751,79.804 66.938,72.593 71.147,79.804 77.688,79.804 69.847,68.634 	"/>
</g>
</svg>
