<?xml version="1.0" encoding="utf-8"?>
<!-- Generator: Adobe Illustrator 16.0.0, SVG Export Plug-In . SVG Version: 6.00 Build 0)  -->
<!DOCTYPE svg PUBLIC "-//W3C//DTD SVG 1.1//EN" "http://www.w3.org/Graphics/SVG/1.1/DTD/svg11.dtd">
<svg version="1.1" id="Layer_1" xmlns="http://www.w3.org/2000/svg" xmlns:xlink="http://www.w3.org/1999/xlink" x="0px" y="0px"
	 width="87.711px" height="102.418px" viewBox="0 0 87.711 102.418" enable-background="new 0 0 87.711 102.418"
	 xml:space="preserve">
<g>
	<path fill-rule="evenodd" clip-rule="evenodd" d="M58.429,7.821c0,7.471,0,14.447,0,21.52c7.137,0,14.166,0,21.592,0L58.429,7.821z
		"/>
	<path fill-rule="evenodd" clip-rule="evenodd" d="M78.185,36.726c-6.826,0-13.654,0-20.48,0c-4.611-0.002-6.596-1.949-6.602-6.523
		c-0.014-6.887-0.004-13.774-0.004-20.662c0-0.651,0-1.304,0-2.019c-14.738,0-29.234,0-43.846,0c0,29.349,0,58.503,0,87.687
		c24.395,0,48.637,0,72.998,0c0-19.49,0-38.9,0-58.482C79.499,36.726,78.841,36.726,78.185,36.726z M30.369,62.544h-7.325v10.137
		c0,0.955,0.232,1.641,0.698,2.056c0.465,0.415,1.239,0.622,2.323,0.622h4.304v4.303h-4.705c-3.213,0-5.388-0.514-6.522-1.539
		c-1.135-1.027-1.702-2.93-1.702-5.709v-9.869h-5.47v-4.305h5.47v-6.082h5.604v6.082h7.325V62.544z M52.284,77.271
		c-1.352,1.963-3.252,2.945-5.7,2.945c-1.288,0-2.409-0.313-3.366-0.938c-0.956-0.625-1.728-1.555-2.313-2.792v3.175h-5.585v-29.76
		h5.585V61.28c0.688-1.186,1.488-2.074,2.4-2.668c0.911-0.592,1.94-0.889,3.089-0.889c2.537,0,4.491,0.969,5.861,2.907
		c1.371,1.938,2.057,4.718,2.057,8.339C54.312,72.54,53.636,75.308,52.284,77.271z M71.042,79.661l-4.208-7.211l-4.188,7.211h-6.541
		l7.918-11.17l-7.287-10.252h6.542l3.557,6.389l3.577-6.389h6.541l-7.211,10.252l7.842,11.17H71.042z"/>
	<path fill-rule="evenodd" clip-rule="evenodd" d="M44.825,62.39c-1.212,0-2.168,0.588-2.869,1.76
		c-0.701,1.174-1.052,2.793-1.052,4.858s0.351,3.685,1.052,4.858c0.701,1.173,1.657,1.76,2.869,1.76c1.211,0,2.161-0.587,2.85-1.76
		c0.688-1.174,1.032-2.793,1.032-4.858s-0.344-3.685-1.032-4.858C46.986,62.978,46.036,62.39,44.825,62.39z"/>
</g>
</svg>
