<?xml version="1.0" encoding="utf-8"?>
<!-- Generator: Adobe Illustrator 16.0.0, SVG Export Plug-In . SVG Version: 6.00 Build 0)  -->
<!DOCTYPE svg PUBLIC "-//W3C//DTD SVG 1.1//EN" "http://www.w3.org/Graphics/SVG/1.1/DTD/svg11.dtd">
<svg version="1.1" id="Layer_1" xmlns="http://www.w3.org/2000/svg" xmlns:xlink="http://www.w3.org/1999/xlink" x="0px" y="0px"
	 width="87.713px" height="102.417px" viewBox="0 0 87.713 102.417" enable-background="new 0 0 87.713 102.417"
	 xml:space="preserve">
<g>
	<path d="M82.932,20.746c-5.431-5.346-10.833-10.721-16.2-16.131C63.645,1.504,59.96-0.003,55.596,0
		C39.317,0.014,23.039,0.006,6.761,0.006c-4.858,0-6.757,1.883-6.759,6.726c-0.004,14.815-0.001,29.63,0,44.446
		c0,14.814-0.002,29.63,0.002,44.445c0,4.863,1.905,6.793,6.699,6.794c24.813,0.001,49.628,0.001,74.441-0.001
		c4.581,0,6.558-1.965,6.559-6.569c0.008-21.217-0.004-42.434,0.01-63.649C87.715,27.697,86.146,23.91,82.932,20.746z M58.547,7.66
		c1.074,0.697,20.879,20.465,21.592,21.52c-7.424,0-14.453,0-21.592,0C58.547,22.108,58.547,15.131,58.547,7.66z M80.369,95.047
		c-24.359,0-48.602,0-72.997,0c0-29.184,0-58.338,0-87.687c14.612,0,29.106,0,43.846,0c0,0.716,0,1.367,0,2.019
		c0,6.889-0.009,13.775,0.003,20.663c0.008,4.573,1.992,6.521,6.604,6.522c6.826,0.001,13.652,0,20.479,0c0.657,0,1.314,0,2.065,0
		C80.369,56.146,80.369,75.557,80.369,95.047z"/>
	<path d="M20.917,53.855H15.48v5.9h-5.307v4.175h5.307v9.574c0,2.697,0.551,4.543,1.651,5.539c1.101,0.996,3.21,1.494,6.327,1.494
		h4.564v-4.175h-4.175c-1.052,0-1.804-0.201-2.255-0.603c-0.451-0.402-0.677-1.067-0.677-1.995v-9.834h7.106v-4.175h-7.106V53.855z"
		/>
	<path d="M48.623,59.255c-0.916,0-1.688,0.21-2.318,0.631c-0.631,0.421-1.15,1.07-1.559,1.948c-0.148-0.717-0.57-1.327-1.262-1.828
		c-0.693-0.501-1.461-0.751-2.302-0.751s-1.603,0.238-2.282,0.714c-0.681,0.477-1.176,1.123-1.484,1.939v-2.152h-3.952v20.781h4.453
		V67.196c0-1.546,0.117-2.579,0.353-3.099c0.234-0.52,0.662-0.779,1.28-0.779s1.052,0.266,1.299,0.798
		c0.247,0.532,0.371,1.559,0.371,3.08v13.341h4.397V67.196c0-1.521,0.123-2.548,0.371-3.08c0.248-0.532,0.68-0.798,1.299-0.798
		s1.045,0.26,1.281,0.779c0.234,0.52,0.352,1.553,0.352,3.099v13.341h4.453V68.829c0-3.909-0.342-6.481-1.029-7.719
		C51.658,59.874,50.416,59.255,48.623,59.255z"/>
	<polygon points="77.016,59.756 70.67,59.756 67.199,65.953 63.748,59.756 57.402,59.756 64.473,69.701 56.791,80.537 
		63.137,80.537 67.199,73.542 71.281,80.537 77.627,80.537 70.02,69.701 	"/>
</g>
</svg>
