<?xml version="1.0" encoding="utf-8"?>
<!-- Generator: Adobe Illustrator 16.0.0, SVG Export Plug-In . SVG Version: 6.00 Build 0)  -->
<!DOCTYPE svg PUBLIC "-//W3C//DTD SVG 1.1//EN" "http://www.w3.org/Graphics/SVG/1.1/DTD/svg11.dtd">
<svg version="1.1" id="Layer_1" xmlns="http://www.w3.org/2000/svg" xmlns:xlink="http://www.w3.org/1999/xlink" x="0px" y="0px"
	 width="87.711px" height="102.418px" viewBox="0 0 87.711 102.418" enable-background="new 0 0 87.711 102.418"
	 xml:space="preserve">
<g>
	<path fill-rule="evenodd" clip-rule="evenodd" d="M58.64,7.84c0,7.471,0,14.447,0,21.52c7.137,0,14.166,0,21.592,0L58.64,7.84z"/>
	<path fill-rule="evenodd" clip-rule="evenodd" d="M78.396,36.744c-6.826,0-13.654,0-20.48,0c-4.611-0.002-6.596-1.949-6.602-6.523
		C51.3,23.334,51.31,16.446,51.31,9.559c0-0.651,0-1.304,0-2.019c-14.738,0-29.234,0-43.846,0c0,29.349,0,58.503,0,87.687
		c24.395,0,48.637,0,72.998,0c0-19.49,0-38.9,0-58.482C79.71,36.744,79.052,36.744,78.396,36.744z M28.131,63.807h-7.107v9.834
		c0,0.928,0.227,1.593,0.678,1.995s1.203,0.603,2.254,0.603h4.176v4.175h-4.564c-3.117,0-5.227-0.498-6.328-1.494
		c-1.101-0.995-1.65-2.842-1.65-5.538v-9.574h-5.307v-4.175h5.307v-5.9h5.436v5.9h7.107V63.807z M53.479,80.413h-4.453V67.072
		c0-1.546-0.117-2.579-0.352-3.099c-0.236-0.52-0.662-0.779-1.281-0.779s-1.051,0.266-1.299,0.798s-0.371,1.559-0.371,3.08v13.341
		h-4.397V67.072c0-1.521-0.123-2.548-0.371-3.08c-0.247-0.532-0.68-0.798-1.299-0.798c-0.618,0-1.045,0.26-1.279,0.779
		c-0.236,0.52-0.354,1.553-0.354,3.099v13.341H33.57V59.632h3.953v2.152c0.309-0.816,0.803-1.463,1.484-1.939
		c0.68-0.476,1.44-0.714,2.281-0.714c0.842,0,1.608,0.251,2.302,0.751c0.691,0.502,1.113,1.111,1.262,1.828
		c0.408-0.878,0.928-1.527,1.559-1.948s1.402-0.631,2.318-0.631c1.793,0,3.035,0.618,3.721,1.855
		c0.688,1.237,1.029,3.81,1.029,7.719V80.413z M71.389,80.413l-4.082-6.995l-4.063,6.995h-6.346l7.682-10.836l-7.069-9.945h6.346
		l3.451,6.197l3.47-6.197h6.346l-6.995,9.945l7.607,10.836H71.389z"/>
</g>
</svg>
