<?xml version="1.0" encoding="utf-8"?>
<!-- Generator: Adobe Illustrator 16.0.0, SVG Export Plug-In . SVG Version: 6.00 Build 0)  -->
<!DOCTYPE svg PUBLIC "-//W3C//DTD SVG 1.1//EN" "http://www.w3.org/Graphics/SVG/1.1/DTD/svg11.dtd">
<svg version="1.1" id="Layer_1" xmlns="http://www.w3.org/2000/svg" xmlns:xlink="http://www.w3.org/1999/xlink" x="0px" y="0px"
	 width="87.713px" height="102.417px" viewBox="0 0 87.713 102.417" enable-background="new 0 0 87.713 102.417"
	 xml:space="preserve">
<g>
	<path d="M82.932,20.746C77.502,15.4,72.1,10.025,66.732,4.615C63.645,1.504,59.961-0.003,55.596,0
		C39.318,0.014,23.039,0.006,6.762,0.006c-4.859,0-6.758,1.883-6.76,6.726c-0.004,14.815,0,29.63,0,44.446
		c0,14.814-0.002,29.63,0.002,44.445c0,4.863,1.906,6.793,6.699,6.794c24.814,0.001,49.629,0.001,74.441-0.001
		c4.582,0,6.559-1.965,6.559-6.569c0.008-21.217-0.004-42.434,0.01-63.649C87.715,27.697,86.146,23.91,82.932,20.746z M58.547,7.66
		c1.074,0.697,20.879,20.465,21.592,21.52c-7.424,0-14.453,0-21.592,0C58.547,22.108,58.547,15.131,58.547,7.66z M80.369,95.047
		c-24.359,0-48.602,0-72.996,0c0-29.184,0-58.338,0-87.687c14.611,0,29.105,0,43.846,0c0,0.716,0,1.367,0,2.019
		c0,6.889-0.01,13.775,0.002,20.663c0.008,4.573,1.992,6.521,6.604,6.522c6.826,0.001,13.652,0,20.48,0c0.656,0,1.314,0,2.064,0
		C80.369,56.146,80.369,75.557,80.369,95.047z"/>
	<path d="M24.618,52.3h-5.604v6.082h-5.47v4.304h5.47v9.869c0,2.78,0.567,4.683,1.702,5.709s3.31,1.54,6.522,1.54h4.705V75.5H27.64
		c-1.084,0-1.858-0.207-2.323-0.622c-0.466-0.415-0.698-1.1-0.698-2.056V62.686h7.325v-4.304h-7.325V52.3z"/>
	<polygon points="54.944,58.382 48.403,58.382 44.826,64.771 41.27,58.382 34.728,58.382 42.015,68.634 34.097,79.804 
		40.638,79.804 44.826,72.593 49.034,79.804 55.575,79.804 47.733,68.634 	"/>
	<path d="M67.866,52.3h-5.604v6.082h-5.47v4.304h5.47v9.869c0,2.78,0.567,4.683,1.702,5.709s3.31,1.54,6.522,1.54h4.705V75.5h-4.304
		c-1.084,0-1.858-0.207-2.323-0.622c-0.466-0.415-0.698-1.1-0.698-2.056V62.686h7.325v-4.304h-7.325V52.3z"/>
</g>
</svg>
