<?xml version="1.0" encoding="utf-8"?>
<!-- Generator: Adobe Illustrator 16.0.0, SVG Export Plug-In . SVG Version: 6.00 Build 0)  -->
<!DOCTYPE svg PUBLIC "-//W3C//DTD SVG 1.1//EN" "http://www.w3.org/Graphics/SVG/1.1/DTD/svg11.dtd">
<svg version="1.1" id="Layer_1" xmlns="http://www.w3.org/2000/svg" xmlns:xlink="http://www.w3.org/1999/xlink" x="0px" y="0px"
	 width="87.711px" height="102.418px" viewBox="0 0 87.711 102.418" enable-background="new 0 0 87.711 102.418"
	 xml:space="preserve">
<g>
	<path fill-rule="evenodd" clip-rule="evenodd" d="M58.527,7.788c0,7.471,0,14.447,0,21.52c7.137,0,14.166,0,21.592,0L58.527,7.788z
		"/>
	<path fill-rule="evenodd" clip-rule="evenodd" d="M78.283,36.692c-6.826,0-13.654,0-20.48,0c-4.611-0.002-6.596-1.949-6.602-6.524
		c-0.014-6.887-0.004-13.774-0.004-20.662c0-0.651,0-1.304,0-2.019c-14.738,0-29.234,0-43.846,0c0,29.349,0,58.503,0,87.687
		c24.395,0,48.637,0,72.998,0c0-19.49,0-38.9,0-58.482C79.598,36.692,78.939,36.692,78.283,36.692z M31.938,62.51h-7.326v10.137
		c0,0.956,0.232,1.642,0.699,2.056c0.465,0.415,1.238,0.622,2.322,0.622h4.305v4.304h-4.705c-3.213,0-5.389-0.514-6.523-1.54
		s-1.701-2.929-1.701-5.709V62.51h-5.471v-4.304h5.471v-6.082h5.604v6.082h7.326V62.51z M49.027,79.628l-4.207-7.211l-4.189,7.211
		H34.09l7.918-11.17l-7.287-10.252h6.543l3.557,6.389l3.576-6.389h6.541l-7.211,10.252l7.842,11.17H49.027z M75.186,62.51h-7.326
		v10.137c0,0.956,0.232,1.642,0.699,2.056c0.465,0.415,1.238,0.622,2.322,0.622h4.305v4.304H70.48c-3.213,0-5.389-0.514-6.523-1.54
		s-1.701-2.929-1.701-5.709V62.51h-5.471v-4.304h5.471v-6.082h5.604v6.082h7.326V62.51z"/>
</g>
</svg>
