<?xml version="1.0" encoding="utf-8"?>
<!-- Generator: Adobe Illustrator 16.0.0, SVG Export Plug-In . SVG Version: 6.00 Build 0)  -->
<!DOCTYPE svg PUBLIC "-//W3C//DTD SVG 1.1//EN" "http://www.w3.org/Graphics/SVG/1.1/DTD/svg11.dtd">
<svg version="1.1" id="Layer_1" xmlns="http://www.w3.org/2000/svg" xmlns:xlink="http://www.w3.org/1999/xlink" x="0px" y="0px"
	 width="87.713px" height="102.417px" viewBox="0 0 87.713 102.417" enable-background="new 0 0 87.713 102.417"
	 xml:space="preserve">
<g>
	<path d="M82.932,20.746c-5.431-5.346-10.833-10.721-16.2-16.131C63.645,1.504,59.96-0.003,55.596,0
		C39.317,0.014,23.039,0.006,6.761,0.006c-4.858,0-6.757,1.883-6.759,6.726c-0.004,14.815-0.001,29.63,0,44.446
		c0,14.814-0.002,29.63,0.002,44.445c0,4.863,1.905,6.793,6.699,6.794c24.813,0.001,49.628,0.001,74.441-0.001
		c4.581,0,6.558-1.965,6.559-6.569c0.008-21.217-0.004-42.434,0.01-63.649C87.715,27.697,86.146,23.91,82.932,20.746z M58.547,7.66
		c1.074,0.697,20.879,20.465,21.592,21.52c-7.424,0-14.453,0-21.592,0C58.547,22.108,58.547,15.131,58.547,7.66z M80.369,95.047
		c-24.359,0-48.602,0-72.997,0c0-29.184,0-58.338,0-87.687c14.612,0,29.106,0,43.846,0c0,0.716,0,1.367,0,2.019
		c0,6.889-0.009,13.775,0.003,20.663c0.008,4.573,1.992,6.521,6.604,6.522c6.826,0.001,13.652,0,20.479,0c0.657,0,1.314,0,2.065,0
		C80.369,56.146,80.369,75.557,80.369,95.047z"/>
	<polygon points="34.789,58.673 28.248,58.673 24.672,65.061 21.114,58.673 14.573,58.673 21.86,68.924 13.941,80.094 
		20.483,80.094 24.672,72.883 28.879,80.094 35.42,80.094 27.579,68.924 	"/>
	<path d="M47.324,74.738c-0.522-0.701-0.783-1.894-0.783-3.576V50.334H35.256v4.303h5.681v16.525c0,3.2,0.58,5.489,1.74,6.866
		s3.073,2.065,5.737,2.065h6.045V75.79h-4.477C48.733,75.79,47.848,75.439,47.324,74.738z"/>
	<path d="M68.678,67.317l-1.607-0.383l-0.21-0.057c-2.729-0.638-4.093-1.467-4.093-2.486c0-0.714,0.318-1.253,0.956-1.616
		s1.581-0.545,2.831-0.545c1.121,0,2.24,0.169,3.355,0.507c1.116,0.338,2.19,0.838,3.224,1.501v-4.896
		c-1.136-0.395-2.305-0.691-3.51-0.89c-1.205-0.197-2.413-0.296-3.624-0.296c-2.703,0-4.801,0.573-6.293,1.722
		c-1.492,1.147-2.238,2.754-2.238,4.819c0,1.734,0.491,3.117,1.473,4.15c0.982,1.033,2.545,1.792,4.687,2.276l1.55,0.344
		c1.797,0.434,2.936,0.842,3.414,1.225c0.478,0.382,0.717,0.931,0.717,1.645c0,0.727-0.338,1.281-1.014,1.664
		c-0.676,0.382-1.671,0.573-2.984,0.573c-1.198,0-2.438-0.185-3.72-0.555c-1.281-0.369-2.54-0.905-3.777-1.606v4.896
		c1.39,0.446,2.761,0.781,4.112,1.004c1.352,0.224,2.671,0.335,3.959,0.335c2.907,0,5.084-0.552,6.531-1.654
		s2.172-2.757,2.172-4.963c0-1.837-0.477-3.293-1.426-4.371C72.213,68.583,70.717,67.803,68.678,67.317z"/>
</g>
</svg>
