<?xml version="1.0" encoding="utf-8"?>
<!-- Generator: Adobe Illustrator 16.0.0, SVG Export Plug-In . SVG Version: 6.00 Build 0)  -->
<!DOCTYPE svg PUBLIC "-//W3C//DTD SVG 1.1//EN" "http://www.w3.org/Graphics/SVG/1.1/DTD/svg11.dtd">
<svg version="1.1" id="Layer_1" xmlns="http://www.w3.org/2000/svg" xmlns:xlink="http://www.w3.org/1999/xlink" x="0px" y="0px"
	 width="87.711px" height="102.418px" viewBox="0 0 87.711 102.418" enable-background="new 0 0 87.711 102.418"
	 xml:space="preserve">
<g>
	<path fill-rule="evenodd" clip-rule="evenodd" d="M58.744,7.817v21.52c7.137,0,14.166,0,21.592,0L58.744,7.817z"/>
	<path fill-rule="evenodd" clip-rule="evenodd" d="M78.5,36.721c-6.826,0-13.654,0-20.48,0c-4.611-0.002-6.596-1.949-6.602-6.523
		c-0.014-6.886-0.004-13.774-0.004-20.662c0-0.651,0-1.304,0-2.019c-14.738,0-29.234,0-43.846,0c0,29.349,0,58.503,0,87.687
		c24.395,0,48.637,0,72.998,0c0-19.49,0-38.9,0-58.482C79.814,36.721,79.156,36.721,78.5,36.721z M29.09,80.247l-4.207-7.211
		l-4.189,7.211h-6.541l7.918-11.17l-7.287-10.252h6.541l3.559,6.389l3.576-6.389H35l-7.211,10.252l7.842,11.17H29.09z M54.67,80.247
		h-6.045c-2.664,0-4.578-0.689-5.738-2.066s-1.74-3.666-1.74-6.865V54.79h-5.68v-4.303h11.285v20.828
		c0,1.682,0.26,2.875,0.783,3.576s1.408,1.051,2.658,1.051h4.477V80.247z M72.627,79.147c-1.447,1.102-3.625,1.654-6.531,1.654
		c-1.289,0-2.607-0.111-3.959-0.336c-1.352-0.223-2.723-0.557-4.113-1.004v-4.896c1.238,0.701,2.496,1.238,3.777,1.607
		c1.283,0.369,2.521,0.555,3.721,0.555c1.313,0,2.309-0.191,2.984-0.574s1.014-0.938,1.014-1.664c0-0.713-0.24-1.262-0.717-1.645
		c-0.479-0.383-1.617-0.791-3.414-1.225l-1.551-0.344c-2.141-0.484-3.703-1.242-4.686-2.275s-1.473-2.416-1.473-4.15
		c0-2.066,0.746-3.672,2.238-4.82s3.59-1.721,6.293-1.721c1.211,0,2.418,0.098,3.623,0.295c1.205,0.199,2.375,0.496,3.51,0.891
		v4.896c-1.033-0.664-2.107-1.164-3.223-1.502s-2.234-0.506-3.355-0.506c-1.25,0-2.193,0.182-2.832,0.545
		c-0.637,0.363-0.955,0.902-0.955,1.615c0,1.02,1.363,1.85,4.092,2.486l0.211,0.057l1.607,0.383
		c2.039,0.486,3.535,1.266,4.484,2.344s1.426,2.533,1.426,4.371C74.799,76.389,74.074,78.043,72.627,79.147z"/>
</g>
</svg>
