<?xml version="1.0" encoding="utf-8"?>
<!-- Generator: Adobe Illustrator 16.0.0, SVG Export Plug-In . SVG Version: 6.00 Build 0)  -->
<!DOCTYPE svg PUBLIC "-//W3C//DTD SVG 1.1//EN" "http://www.w3.org/Graphics/SVG/1.1/DTD/svg11.dtd">
<svg version="1.1" id="Layer_1" xmlns="http://www.w3.org/2000/svg" xmlns:xlink="http://www.w3.org/1999/xlink" x="0px" y="0px"
	 width="87.713px" height="102.417px" viewBox="0 0 87.713 102.417" enable-background="new 0 0 87.713 102.417"
	 xml:space="preserve">
<g>
	<path d="M0.002,6.731c-0.004,14.815-0.001,29.63,0,44.446c0,14.814-0.002,29.63,0.002,44.445C0,80.808,0.002,65.992,0.002,51.178
		C0.001,36.361-0.002,21.547,0.002,6.731z"/>
	<path d="M82.932,20.746c-5.431-5.346-10.833-10.721-16.2-16.131C63.645,1.504,59.96-0.003,55.596,0
		C39.317,0.014,23.039,0.006,6.761,0.006c-4.858,0-6.757,1.883-6.759,6.726c-0.004,14.815-0.001,29.63,0,44.446
		c0,14.814-0.002,29.63,0.002,44.445c0,4.863,1.905,6.793,6.699,6.794c24.813,0.001,49.628,0.001,74.441-0.001
		c4.581,0,6.558-1.965,6.559-6.569c0.008-21.217-0.004-42.434,0.01-63.649C87.715,27.697,86.146,23.91,82.932,20.746z M58.547,7.66
		c1.074,0.697,20.879,20.465,21.592,21.52c-7.424,0-14.453,0-21.592,0C58.547,22.108,58.547,15.131,58.547,7.66z M80.369,95.047
		c-24.359,0-48.602,0-72.997,0c0-29.184,0-58.338,0-87.687c14.612,0,29.106,0,43.846,0c0,0.716,0,1.367,0,2.019
		c0,6.889-0.009,13.775,0.003,20.663c0.008,4.573,1.992,6.521,6.604,6.522c6.826,0.001,13.652,0,20.479,0c0.657,0,1.314,0,2.065,0
		C80.369,56.146,80.369,75.557,80.369,95.047z"/>
</g>
<g>
	<path d="M29.36,59.023l-6.995,9.945l7.607,10.836h-6.346l-4.082-6.995l-4.063,6.995H9.136l7.682-10.836l-7.069-9.945h6.346
		l3.451,6.197l3.47-6.197H29.36z"/>
	<path d="M44.746,61.101c0.408-0.878,0.928-1.527,1.559-1.948c0.631-0.42,1.403-0.631,2.319-0.631c1.793,0,3.034,0.619,3.72,1.855
		c0.688,1.237,1.03,3.81,1.03,7.719v11.708h-4.453V66.463c0-1.546-0.118-2.579-0.353-3.099c-0.235-0.52-0.662-0.779-1.28-0.779
		c-0.619,0-1.052,0.266-1.299,0.798c-0.248,0.532-0.371,1.559-0.371,3.08v13.341h-4.397V66.463c0-1.521-0.124-2.548-0.371-3.08
		c-0.248-0.532-0.681-0.798-1.299-0.798c-0.619,0-1.046,0.26-1.28,0.779c-0.235,0.52-0.353,1.553-0.353,3.099v13.341h-4.453V59.023
		h3.952v2.152c0.309-0.816,0.804-1.462,1.484-1.939c0.68-0.476,1.44-0.714,2.282-0.714c0.841,0,1.607,0.25,2.301,0.751
		C44.177,59.774,44.598,60.384,44.746,61.101z"/>
	<path d="M62.952,71.139V55.108h-5.511v-4.175h10.947v20.206c0,1.633,0.253,2.79,0.761,3.47c0.507,0.681,1.366,1.021,2.579,1.021
		h4.342v4.175h-5.863c-2.586,0-4.441-0.668-5.566-2.004C63.515,76.464,62.952,74.244,62.952,71.139z"/>
</g>
</svg>
