<?xml version="1.0" encoding="utf-8"?>
<!-- Generator: Adobe Illustrator 16.0.0, SVG Export Plug-In . SVG Version: 6.00 Build 0)  -->
<!DOCTYPE svg PUBLIC "-//W3C//DTD SVG 1.1//EN" "http://www.w3.org/Graphics/SVG/1.1/DTD/svg11.dtd">
<svg version="1.1" id="Layer_1" xmlns="http://www.w3.org/2000/svg" xmlns:xlink="http://www.w3.org/1999/xlink" x="0px" y="0px"
	 width="87.711px" height="102.418px" viewBox="0 0 87.711 102.418" enable-background="new 0 0 87.711 102.418"
	 xml:space="preserve">
<g>
	<path fill-rule="evenodd" clip-rule="evenodd" d="M58.682,7.563c0,7.471,0,14.447,0,21.52c7.137,0,14.166,0,21.592,0L58.682,7.563z
		"/>
	<path fill-rule="evenodd" clip-rule="evenodd" d="M78.438,36.468c-6.826,0-13.654,0-20.48,0c-4.611-0.002-6.596-1.949-6.602-6.523
		c-0.014-6.887-0.004-13.774-0.004-20.662c0-0.651,0-1.304,0-2.019c-14.738,0-29.234,0-43.846,0c0,29.349,0,58.503,0,87.687
		c24.395,0,48.637,0,72.998,0c0-19.49,0-38.9,0-58.482C79.752,36.468,79.094,36.468,78.438,36.468z M24.775,79.403l-4.082-6.994
		l-4.063,6.994h-6.346l7.682-10.836l-7.069-9.945h6.346l3.451,6.197l3.47-6.197h6.346l-6.995,9.945l7.607,10.836H24.775z
		 M54.522,79.403h-4.453v-13.34c0-1.547-0.118-2.58-0.353-3.1c-0.235-0.52-0.662-0.779-1.28-0.779c-0.619,0-1.052,0.267-1.299,0.799
		c-0.248,0.531-0.371,1.559-0.371,3.08v13.34h-4.397v-13.34c0-1.521-0.124-2.549-0.371-3.08c-0.248-0.532-0.681-0.799-1.299-0.799
		c-0.619,0-1.046,0.26-1.28,0.779c-0.235,0.52-0.353,1.553-0.353,3.1v13.34h-4.453V58.622h3.952v2.152
		c0.309-0.816,0.804-1.462,1.484-1.938c0.68-0.476,1.44-0.714,2.282-0.714c0.841,0,1.607,0.25,2.301,0.751
		c0.692,0.501,1.113,1.11,1.262,1.827c0.408-0.877,0.928-1.527,1.559-1.947c0.631-0.421,1.403-0.631,2.319-0.631
		c1.793,0,3.034,0.618,3.72,1.855c0.688,1.236,1.03,3.81,1.03,7.719V79.403z M77.219,79.403h-5.863
		c-2.586,0-4.441-0.668-5.566-2.004c-1.126-1.336-1.688-3.556-1.688-6.66V54.708H58.59v-4.176h10.947v20.207
		c0,1.633,0.253,2.789,0.761,3.469c0.507,0.682,1.366,1.021,2.579,1.021h4.342V79.403z"/>
</g>
</svg>
