<?xml version="1.0" encoding="UTF-8" standalone="no"?>
<!-- Generator: Adobe Illustrator 16.0.0, SVG Export Plug-In . SVG Version: 6.00 Build 0)  -->

<svg
   xmlns:dc="http://purl.org/dc/elements/1.1/"
   xmlns:cc="http://creativecommons.org/ns#"
   xmlns:rdf="http://www.w3.org/1999/02/22-rdf-syntax-ns#"
   xmlns:svg="http://www.w3.org/2000/svg"
   xmlns="http://www.w3.org/2000/svg"
   xmlns:sodipodi="http://sodipodi.sourceforge.net/DTD/sodipodi-0.dtd"
   xmlns:inkscape="http://www.inkscape.org/namespaces/inkscape"
   version="1.1"
   id="Layer_1"
   x="0px"
   y="0px"
   width="123.338"
   height="123.338"
   viewBox="0 0 123.338 123.338"
   enable-background="new 0 0 150.89 169.849"
   xml:space="preserve"
   sodipodi:docname="pin.svg"
   inkscape:version="0.92.2 (5c3e80d, 2017-08-06)"><metadata
     id="metadata109"><rdf:RDF><cc:Work
         rdf:about=""><dc:format>image/svg+xml</dc:format><dc:type
           rdf:resource="http://purl.org/dc/dcmitype/StillImage" /><dc:title></dc:title></cc:Work></rdf:RDF></metadata><defs
     id="defs107" /><sodipodi:namedview
     pagecolor="#ffffff"
     bordercolor="#666666"
     borderopacity="1"
     objecttolerance="10"
     gridtolerance="10"
     guidetolerance="10"
     inkscape:pageopacity="0"
     inkscape:pageshadow="2"
     inkscape:window-width="2560"
     inkscape:window-height="1377"
     id="namedview105"
     showgrid="false"
     inkscape:zoom="5.557878"
     inkscape:cx="38.873805"
     inkscape:cy="66.625797"
     inkscape:window-x="0"
     inkscape:window-y="0"
     inkscape:window-maximized="1"
     inkscape:current-layer="Layer_1" /><path
     d="m 115.65162,24.67727 c -1.87068,-2.195047 -3.72033,-4.414765 -5.68753,-6.523461 C 104.889,12.711544 99.570096,7.5174463 93.152577,3.6490845 91.029368,2.3697894 88.682664,1.4453301 86.386754,0.47805819 84.320144,-0.39197855 83.319493,0.18199898 83.069149,2.4191326 82.68819,5.8310699 82.297799,9.2567942 82.221607,12.68397 c -0.03556,1.515852 -0.518829,2.586164 -1.444014,3.624548 -3.702192,4.147732 -7.408011,8.291835 -11.091336,12.454079 -5.541677,6.261507 -11.061585,12.539704 -16.604713,18.796857 -0.584136,0.660328 -1.224872,1.290905 -1.921482,1.82715 -1.549232,1.186413 -3.320507,0.925185 -5.113552,0.746678 -4.135396,-0.41216 -8.275145,-0.283723 -12.115933,1.430228 -1.808283,0.807632 -3.369125,2.196498 -4.981486,3.401778 -0.902691,0.676292 -0.843189,1.608733 -0.236558,2.487478 0.359916,0.521732 0.761192,1.020243 1.190768,1.485375 4.382112,4.733319 8.775833,9.458657 13.162299,14.188348 0.169799,0.18286 0.310572,0.389666 0.515927,0.650169 -12.232035,16.492965 -24.445203,32.958352 -36.657645,49.422292 0.055148,0.0464 0.1088453,0.0951 0.1647192,0.14005 C 21.276948,108.52588 35.466021,93.711311 49.710968,78.840141 c 3.715978,2.908346 7.352863,5.755739 10.990472,8.602407 1.036208,0.810534 2.052097,1.649369 3.116604,2.419268 0.429576,0.310572 0.944052,0.560916 1.458527,0.690079 2.761042,0.694433 3.769676,0.229301 4.980035,-2.311874 2.613739,-5.477821 2.512875,-11.155192 1.146504,-16.902224 -0.441912,-1.859803 -0.202452,-3.522233 1.043464,-5.008334 5.827577,-6.963197 11.639916,-13.938729 17.484908,-20.887413 3.085401,-3.670989 6.23611,-7.286104 9.330944,-10.946934 0.768444,-0.908496 1.675494,-1.189316 2.856104,-1.342425 4.21811,-0.547129 8.33464,-1.543427 11.98749,-3.858929 0.73579,-0.465132 1.37363,-1.149406 1.90915,-1.845291 0.7503,-0.978882 0.33524,-1.951959 -0.36355,-2.771201 z"
     id="path100"
     inkscape:connector-curvature="0"
     style="clip-rule:evenodd;fill-rule:evenodd;stroke-width:0.72563529" /></svg>