<?xml version="1.0" encoding="UTF-8" standalone="no"?>
<!-- Generator: Adobe Illustrator 16.0.0, SVG Export Plug-In . SVG Version: 6.00 Build 0)  -->

<svg
   xmlns:dc="http://purl.org/dc/elements/1.1/"
   xmlns:cc="http://creativecommons.org/ns#"
   xmlns:rdf="http://www.w3.org/1999/02/22-rdf-syntax-ns#"
   xmlns:svg="http://www.w3.org/2000/svg"
   xmlns="http://www.w3.org/2000/svg"
   xmlns:sodipodi="http://sodipodi.sourceforge.net/DTD/sodipodi-0.dtd"
   xmlns:inkscape="http://www.inkscape.org/namespaces/inkscape"
   version="1.1"
   id="Layer_1"
   x="0px"
   y="0px"
   width="123.338"
   height="123.338"
   viewBox="0 0 123.338 123.338"
   enable-background="new 0 0 150.89 169.849"
   xml:space="preserve"
   sodipodi:docname="pin_active.svg"
   inkscape:version="0.92.2 (5c3e80d, 2017-08-06)"><metadata
     id="metadata109"><rdf:RDF><cc:Work
         rdf:about=""><dc:format>image/svg+xml</dc:format><dc:type
           rdf:resource="http://purl.org/dc/dcmitype/StillImage" /><dc:title></dc:title></cc:Work></rdf:RDF></metadata><defs
     id="defs107" /><sodipodi:namedview
     pagecolor="#ffffff"
     bordercolor="#666666"
     borderopacity="1"
     objecttolerance="10"
     gridtolerance="10"
     guidetolerance="10"
     inkscape:pageopacity="0"
     inkscape:pageshadow="2"
     inkscape:window-width="2560"
     inkscape:window-height="1377"
     id="namedview105"
     showgrid="false"
     inkscape:zoom="7.8600264"
     inkscape:cx="89.384785"
     inkscape:cy="53.804891"
     inkscape:window-x="0"
     inkscape:window-y="0"
     inkscape:window-maximized="1"
     inkscape:current-layer="Layer_1" /><path
     d="M 83.650674,66.483174 C 82.283541,61.608947 79.10325,58.100037 75.090218,55.242314 73.791474,54.317578 73.029535,53.142293 72.995039,51.524611 72.831032,43.953642 72.650079,36.382674 72.504227,28.811704 72.425553,24.813798 72.418289,20.81347 72.351719,16.816168 72.335982,15.824255 72.750541,15.15007 73.407781,14.406288 75.755326,11.746464 77.793008,8.8609006 78.815179,5.401616 79.02155,4.7062485 79.046362,3.9261541 79.000973,3.195081 78.936819,2.1686731 78.140993,1.78498 77.252569,1.6542583 74.872349,1.3032465 72.493334,0.92500071 70.100399,0.68171304 63.926217,0.0511016 57.734484,-0.28901713 51.582089,0.80517244 49.546824,1.1676832 47.56542,1.8757592 45.593095,2.5293679 c -1.775032,0.5882479 -2.087917,1.4978536 -1.01733,3.0392811 1.634023,2.3517811 3.26986,4.716273 5.103596,6.910097 0.810354,0.970731 1.094794,1.908176 1.083295,3.068331 -0.0466,4.635781 -0.09804,9.272772 -0.125274,13.907948 -0.04115,6.973039 -0.06051,13.946076 -0.104699,20.917298 -0.0042,0.73531 -0.05991,1.482723 -0.203345,2.202298 -0.321358,1.595289 -1.576528,2.404433 -2.800229,3.276516 -2.823227,2.011058 -5.35112,4.365261 -6.821739,7.549788 -0.691737,1.500274 -0.908396,3.228706 -1.260013,4.870596 -0.195477,0.920501 0.354038,1.473042 1.217648,1.691518 0.512599,0.130116 1.037908,0.22271 1.56261,0.278993 5.350514,0.565858 10.702844,1.120216 16.052753,1.681229 0.207582,0.02118 0.409112,0.07383 0.681448,0.124671 1.250935,15.528652 2.500054,31.033108 3.748568,46.536338 -4.247247,0.0267 -7.662959,1.0482 -7.662959,2.30821 0,1.27515 3.505885,2.30942 7.830597,2.30942 0.06839,0 0.135564,-0.003 0.203345,-0.004 6.05e-4,8.6e-4 6.05e-4,0.002 6.05e-4,0.004 0.06052,-6e-4 0.120434,0 0.180348,-0.002 0,-8.6e-4 0,-0.003 0,-0.005 4.146785,-0.0593 7.448114,-1.06696 7.448114,-2.30397 0,-1.21765 -3.190578,-2.21199 -7.238717,-2.30215 0.704445,-15.55408 1.409495,-31.113001 2.118176,-46.728802 3.929521,-0.214238 7.77613,-0.42303 11.623339,-0.633638 1.096005,-0.05991 2.194431,-0.09078 3.284989,-0.191847 0.440582,-0.04055 0.900528,-0.165216 1.295114,-0.366748 2.113941,-1.079665 2.492791,-1.925121 1.857339,-4.18552 z"
     id="path102"
     inkscape:connector-curvature="0"
     style="clip-rule:evenodd;fill-rule:evenodd;stroke-width:0.60519332" /></svg>