<?xml version="1.0" standalone="no"?>
<!DOCTYPE svg PUBLIC "-//W3C//DTD SVG 1.1//EN" "http://www.w3.org/Graphics/SVG/1.1/DTD/svg11.dtd" >
<svg xmlns="http://www.w3.org/2000/svg" xmlns:xlink="http://www.w3.org/1999/xlink" version="1.1">
<metadata>
Created by FontForge 20170731 at Thu Mar 10 04:59:19 2016
 By Aleksey,,,
Copyright 2013 Google Inc. All Rights Reserved.
</metadata>
<defs>
<font id="NotoSansGurmukhi" horiz-adv-x="0" >
  <font-face 
    font-family="Noto Sans Gurmukhi"
    font-weight="400"
    font-stretch="normal"
    units-per-em="2048"
    panose-1="2 11 5 2 4 5 4 2 2 4"
    ascent="1638"
    descent="-410"
    bbox="-1083 -806 3137 1836"
    underline-thickness="102"
    underline-position="-307"
    unicode-range="U+000D-A839"
  />
<missing-glyph horiz-adv-x="1229" 
d="M193 1462h841v-1462h-841v1462zM297 104h633v1254h-633v-1254z" />
    <glyph glyph-name=".notdef" horiz-adv-x="1229" 
d="M193 1462h841v-1462h-841v1462zM297 104h633v1254h-633v-1254z" />
    <glyph glyph-name=".null" 
 />
    <glyph glyph-name="nonmarkingreturn" unicode="&#xd;" horiz-adv-x="532" 
 />
    <glyph glyph-name="NULL" 
 />
    <glyph glyph-name="NULL" 
 />
    <glyph glyph-name="space" unicode=" " horiz-adv-x="532" 
 />
    <glyph glyph-name="space" unicode="&#xa0;" horiz-adv-x="532" 
 />
    <glyph glyph-name="exclam.guru" unicode="!" horiz-adv-x="785" 
d="M488 414h-121l-51 1048h223zM426 250q61 0 94 -35.5t33 -103.5q0 -67 -33.5 -103.5t-93.5 -36.5t-93.5 37t-33.5 103q0 67 33 103t94 36z" />
    <glyph glyph-name="quotedbl.guru" unicode="&#x22;" horiz-adv-x="1028" 
d="M462 1493l-51 -528h-125l-51 528h227zM822 1493l-51 -528h-124l-51 528h226zM510 1274zM556 1836z" />
    <glyph glyph-name="numbersign.guru" unicode="#" horiz-adv-x="1337" 
d="M983 807l-59 -311h272v-135h-299l-69 -361h-144l71 361h-285l-70 -361h-141l66 361h-255v135h281l62 311h-269v134h293l68 354h144l-67 -354h287l69 354h141l-69 -354h257v-134h-284zM495 496h286l60 311h-285z" />
    <glyph glyph-name="percent.guru" unicode="%" horiz-adv-x="1695" 
d="M413 554q-142 0 -219 95.5t-77 275.5q0 184 74 276.5t222 92.5q145 0 223 -95t78 -274q0 -184 -75.5 -277.5t-225.5 -93.5zM413 685q76 0 114.5 60t38.5 180t-38.5 180t-114.5 60q-78 0 -113 -60t-35 -180t35 -180t113 -60zM1324 1274l-789 -1274h-160l791 1274h158z
M1278 -20q-143 0 -219.5 97t-76.5 274q0 184 74 276.5t222 92.5q146 0 223 -95t77 -274q0 -187 -76.5 -279t-223.5 -92zM1278 112q76 0 114.5 59.5t38.5 179.5t-38.5 180t-114.5 60q-78 0 -113 -59.5t-35 -180.5q0 -120 35 -179.5t113 -59.5z" />
    <glyph glyph-name="quotesingle.guru" unicode="'" horiz-adv-x="668" 
d="M462 1493l-51 -528h-125l-51 528h227zM487 1274zM480 1836z" />
    <glyph glyph-name="parenleft.guru" unicode="(" horiz-adv-x="724" 
d="M436 1703h166q-287 -456 -287 -1014q0 -279 73 -542.5t216 -484.5h-168q-143 197 -219.5 462t-76.5 567q0 304 76.5 561.5t219.5 450.5zM506 1274zM691 1836zM500 -555z" />
    <glyph glyph-name="parenright.guru" unicode=")" horiz-adv-x="724" 
d="M288 -338h-166q287 456 287 1014q0 279 -73 542.5t-216 484.5h168q143 -197 219.5 -462t76.5 -567q0 -304 -76.5 -561.5t-219.5 -450.5zM215 1836zM221 1274zM350 -555z" />
    <glyph glyph-name="asterisk.guru" unicode="*" horiz-adv-x="1243" 
d="M732 1525l-43 -393l397 111l26 -193l-378 -28l245 -326l-178 -96l-176 358l-158 -358l-184 96l242 326l-375 28l29 193l391 -111l-43 393h205zM453 1274zM448 1836z" />
    <glyph glyph-name="plus.guru" unicode="+" horiz-adv-x="1128" 
d="M489 585h-387v150h387v388h150v-388h387v-150h-387v-386h-150v386zM453 1274z" />
    <glyph glyph-name="comma.guru" unicode="," horiz-adv-x="512" 
d="M362 238l15 -23q-51 -197 -176 -479h-138q67 279 101 502h198zM414 250zM414 -29z" />
    <glyph glyph-name="hyphen.guru" unicode="-" horiz-adv-x="696" 
d="M100 524v168h496v-168h-496zM453 1274z" />
    <glyph glyph-name="period.guru" unicode="." horiz-adv-x="549" 
d="M274 250q61 0 94 -35.5t33 -103.5q0 -67 -33.5 -103.5t-93.5 -36.5t-93.5 37t-33.5 103q0 67 33 103t94 36z" />
    <glyph glyph-name="slash.guru" unicode="/" horiz-adv-x="879" 
d="M793 1705l-537 -2044h-170l539 2044h168zM453 1274zM448 1836zM479 -548z" />
    <glyph glyph-name="zero.guru" unicode="0" horiz-adv-x="1128" 
d="M563 -20q-229 0 -347 193.5t-118 559.5q0 382 114.5 567t350.5 185q232 0 350.5 -193.5t118.5 -558.5q0 -384 -116 -568.5t-353 -184.5zM563 135q147 0 216 140.5t69 457.5q0 315 -69 455.5t-216 140.5q-148 0 -214 -141t-66 -455q0 -315 66.5 -456.5t213.5 -141.5z" />
    <glyph glyph-name="one.guru" unicode="1" horiz-adv-x="1128" 
d="M711 0h-176v913q0 123 8 361q-39 -43 -121 -113l-148 -121l-96 123l383 299h150v-1462z" />
    <glyph glyph-name="two.guru" unicode="2" horiz-adv-x="1128" 
d="M1008 0h-912v156l350 381q118 128 161 179t75 102t50 95.5t26 85.5t8 86q0 114 -64 179t-172 65q-95 0 -171.5 -38.5t-145.5 -98.5l-102 119q191 172 421 172q194 0 306 -106t112 -285q0 -96 -36 -187.5t-100 -180.5t-214 -251l-281 -299v-8h689v-166z" />
    <glyph glyph-name="three.guru" unicode="3" horiz-adv-x="1128" 
d="M645 770v-6q177 -22 269 -112.5t92 -235.5q0 -203 -138 -319.5t-399 -116.5q-242 0 -387 79v170q87 -46 188.5 -71t194.5 -25q173 0 263.5 72t90.5 217q0 127 -96 192.5t-285 65.5h-133v151h133q160 0 248 76t88 201q0 102 -68 161.5t-182 59.5q-107 0 -188.5 -33.5
t-155.5 -87.5l-92 125q89 72 201.5 111t234.5 39q206 0 321.5 -99t115.5 -264q0 -138 -82 -230.5t-234 -119.5z" />
    <glyph glyph-name="four.guru" unicode="4" horiz-adv-x="1128" 
d="M1087 328h-213v-328h-176v328h-675v159l663 983h188v-976h213v-166zM698 494v356q0 153 10 347l3 85h-9q-17 -49 -44 -100.5t-46 -79.5l-411 -608h497z" />
    <glyph glyph-name="five.guru" unicode="5" horiz-adv-x="1128" 
d="M131 59v172q65 -45 169 -70.5t192 -25.5q167 0 251 81t84 233q0 143 -88 218.5t-256 75.5q-89 0 -231 -26l-90 57l55 688h690v-166h-532l-39 -419q107 20 209 20q210 0 339.5 -114.5t129.5 -313.5q0 -234 -138 -361.5t-389 -127.5q-103 0 -197 20t-159 59z" />
    <glyph glyph-name="six.guru" unicode="6" horiz-adv-x="1128" 
d="M924 1464v-155q-71 24 -166 24q-224 0 -336.5 -141t-122.5 -447h12q48 86 126.5 128t180.5 42q195 0 305.5 -119t110.5 -325q0 -228 -120.5 -359.5t-323.5 -131.5q-133 0 -240.5 68t-172 215t-64.5 362q0 436 160 647t479 211q104 0 172 -19zM858 471q0 145 -68.5 223
t-195.5 78q-86 0 -156.5 -40t-106.5 -101.5t-36 -124.5q0 -88 31.5 -173t99.5 -142.5t162 -57.5q126 0 198 86t72 252z" />
    <glyph glyph-name="seven.guru" unicode="7" horiz-adv-x="1128" 
d="M281 0l563 1296h-754v166h940v-145l-555 -1317h-194z" />
    <glyph glyph-name="eight.guru" unicode="8" horiz-adv-x="1128" 
d="M715 774q162 -86 235.5 -181.5t73.5 -211.5q0 -181 -126 -291t-333 -110q-217 0 -338 103.5t-121 289.5q0 128 70.5 226.5t212.5 166.5q-126 79 -180.5 170t-54.5 199q0 161 116.5 255.5t294.5 94.5q182 0 297 -94.5t115 -257.5q0 -114 -63 -202.5t-199 -156.5zM567 848
q126 57 179 123t53 155q0 101 -63 154t-173 53q-106 0 -168.5 -53t-62.5 -154q0 -90 49.5 -152.5t185.5 -125.5zM539 696q-126 -60 -190 -137.5t-64 -187.5q0 -116 71.5 -178t204.5 -62q136 0 210.5 65.5t74.5 182.5q0 90 -63 159.5t-214 143.5z" />
    <glyph glyph-name="nine.guru" unicode="9" horiz-adv-x="1128" 
d="M217 -2v156q67 -25 166 -25q167 0 266 74.5t141.5 197.5t51.5 316h-13q-95 -170 -307 -170q-195 0 -305.5 119t-110.5 325q0 226 119.5 359t325.5 133q220 0 348.5 -171t128.5 -474q0 -437 -160 -647.5t-479 -210.5q-51 0 -102.5 6t-69.5 12zM283 991q0 -145 68.5 -223
t195.5 -78q88 0 158 41t105.5 102t35.5 123q0 90 -32.5 176t-100 141.5t-160.5 55.5q-128 0 -199 -87t-71 -251z" />
    <glyph glyph-name="colon.guru" unicode=":" horiz-adv-x="603" 
d="M302 1126q63 0 95 -36t32 -103q0 -66 -34 -102.5t-93 -36.5q-60 0 -93.5 36.5t-33.5 102.5q0 67 31.5 103t95.5 36zM302 250q61 0 94 -35.5t33 -103.5q0 -67 -33.5 -103.5t-93.5 -36.5t-93.5 37t-33.5 103q0 67 33 103t94 36zM302 1274z" />
    <glyph glyph-name="semicolon.guru" unicode=";" horiz-adv-x="603" 
d="M302 1126q63 0 95 -36t32 -103q0 -66 -34 -102.5t-93 -36.5q-60 0 -93.5 36.5t-33.5 102.5q0 67 31.5 103t95.5 36zM390 238l15 -23q-51 -197 -176 -479h-138q67 279 101 502h198zM302 1274zM434 250zM434 -29z" />
    <glyph glyph-name="less.guru" unicode="&#x3c;" horiz-adv-x="1128" 
d="M1026 157l-924 424v102l924 481v-160l-735 -364l735 -322v-161zM453 1274z" />
    <glyph glyph-name="equal.guru" unicode="=" horiz-adv-x="1128" 
d="M102 791v149h924v-149h-924zM102 381v150h924v-150h-924zM453 1274z" />
    <glyph glyph-name="greater.guru" unicode="&#x3e;" horiz-adv-x="1128" 
d="M102 318l736 322l-736 364v160l924 -481v-102l-924 -424v161zM453 1274z" />
    <glyph glyph-name="question.guru" unicode="?" horiz-adv-x="1060" 
d="M390 414v37q0 129 39.5 200.5t130.5 147.5q81 69 114.5 110t49.5 88t16 111q0 97 -59.5 156t-168.5 59q-83 0 -158 -26t-145 -60l-63 145q199 101 366 101q187 0 294.5 -100t107.5 -273q0 -108 -39.5 -191.5t-175.5 -201.5q-109 -94 -139.5 -146.5t-30.5 -138.5v-18h-139
zM469 250q61 0 94 -35.5t33 -103.5q0 -67 -33.5 -103.5t-93.5 -36.5t-93.5 37t-33.5 103q0 67 33 103t94 36z" />
    <glyph glyph-name="bracketleft.guru" unicode="[" horiz-adv-x="729" 
d="M618 -339h-397v2043h397v-143h-232v-1757h232v-143zM453 1274zM448 1836zM479 -548z" />
    <glyph glyph-name="backslash.guru" unicode="\" horiz-adv-x="879" 
d="M254 1703l539 -2042h-168l-539 2042h168zM453 1274zM448 1836zM479 -548z" />
    <glyph glyph-name="bracketright.guru" unicode="]" horiz-adv-x="729" 
d="M110 -196h231v1756h-231v143h398v-2042h-398v143zM253 1274zM248 1836zM479 -548z" />
    <glyph glyph-name="asciicircum.guru" unicode="^" horiz-adv-x="1128" 
d="M60 549l459 924h102l447 -924h-161l-337 735l-349 -735h-161z" />
    <glyph glyph-name="underscore.guru" unicode="_" horiz-adv-x="842" 
d="M846 -324h-850v140h850v-140z" />
    <glyph glyph-name="braceleft.guru" unicode="{" horiz-adv-x="800" 
d="M507 -37q0 -78 39 -115.5t145 -39.5v-147q-172 3 -261 76.5t-89 211.5v472q0 101 -64.5 143t-186.5 42v152q122 0 186.5 42t64.5 143v473q0 136 89 210t261 77v-146q-106 -2 -145 -39.5t-39 -115.5v-471q0 -203 -216 -244v-11q216 -41 216 -243v-470zM253 1274zM248 1836
zM479 -548z" />
    <glyph glyph-name="bar.guru" unicode="|" horiz-adv-x="1105" 
d="M479 1703h147v-2042h-147v2042zM253 1274zM248 1836zM479 -548z" />
    <glyph glyph-name="braceright.guru" unicode="}" horiz-adv-x="770" 
d="M293 433q0 202 217 243v11q-217 41 -217 244v471q0 79 -38.5 116t-144.5 39v146q173 -3 261.5 -77t88.5 -210v-473q0 -98 61.5 -141.5t189.5 -43.5v-152q-123 0 -187 -42t-64 -143v-472q0 -137 -89 -211t-261 -77v147q106 2 144.5 39t38.5 116v470zM253 1274zM248 1836z
M479 -548z" />
    <glyph glyph-name="asciitilde.guru" unicode="~" horiz-adv-x="1128" 
d="M102 525v162q100 108 248 108q54 0 99.5 -9.5t148.5 -53.5q80 -34 118 -45t83 -11q51 0 112 32.5t115 88.5v-162q-99 -108 -248 -108q-59 0 -107 11.5t-141 51.5q-81 35 -117.5 45.5t-82.5 10.5q-50 0 -109.5 -31.5t-118.5 -89.5zM453 1274z" />
    <glyph glyph-name="sfthyphen.guru" unicode="&#xad;" horiz-adv-x="696" 
d="M100 524v168h496v-168h-496zM453 1274z" />
    <glyph glyph-name="multiply.guru" unicode="&#xd7;" horiz-adv-x="1128" 
d="M459 658l-318 319l105 105l317 -318l322 318l104 -103l-321 -321l319 -320l-102 -102l-322 317l-317 -315l-103 103zM453 1274z" />
    <glyph glyph-name="divide.guru" unicode="&#xf7;" horiz-adv-x="1128" 
d="M563 1143q55 0 85 -32t30 -93q0 -60 -31 -92.5t-84 -32.5q-54 0 -84 33.5t-30 91.5q0 61 29.5 93t84.5 32zM102 585v150h924v-150h-924zM563 445q55 0 85 -32t30 -93q0 -60 -31 -92.5t-84 -32.5q-54 0 -84 33.5t-30 91.5q0 61 29.5 93t84.5 32zM453 1274z" />
    <glyph glyph-name="danda.guru" unicode="&#x964;" horiz-adv-x="776" 
d="M398 0v1274h165v-1274h-165z" />
    <glyph glyph-name="dbldanda.guru" unicode="&#x965;" horiz-adv-x="1226" 
d="M848 0v1274h165v-1274h-165zM398 0v1274h165v-1274h-165z" />
    <glyph glyph-name="adakbindiguru" unicode="&#xa01;" 
d="M-266 1836q47 0 77 -30.5t30 -80.5q0 -51 -29.5 -81t-77.5 -30q-46 0 -76.5 30.5t-30.5 80.5t30 80.5t77 30.5zM116 1758q-22 -188 -119.5 -286t-260.5 -98q-168 0 -267.5 100.5t-115.5 283.5l148 19q15 -136 71 -200.5t162 -64.5q107 0 163.5 64.5t70.5 200.5z
M-183 1274z" />
    <glyph glyph-name="bindiguru" unicode="&#xa02;" 
d="M-266 1710q49 0 81 -32.5t32 -84.5q0 -53 -31 -85t-82 -32q-50 0 -81.5 32.5t-31.5 84.5t32 84.5t81 32.5zM-183 1274zM-266 1836z" />
    <glyph glyph-name="visargaguru" unicode="&#xa03;" horiz-adv-x="830" 
d="M415 1274q132 0 210.5 -72.5t78.5 -194.5q0 -123 -77.5 -195t-211.5 -72q-132 0 -210.5 72t-78.5 195q0 119 79 193t210 74zM415 870q65 0 103.5 38t38.5 99t-38.5 99t-103.5 38t-103.5 -37.5t-38.5 -99.5t38 -99.5t104 -37.5zM415 534q132 0 210.5 -72.5t78.5 -194.5
q0 -123 -77.5 -195t-211.5 -72q-132 0 -210.5 72t-78.5 195q0 119 79 193t210 74zM415 130q65 0 103.5 38t38.5 99t-38.5 99t-103.5 38t-103.5 -37.5t-38.5 -99.5t38 -99.5t104 -37.5z" />
    <glyph glyph-name="aguru" unicode="&#xa05;" horiz-adv-x="1520" 
d="M1172 723q-85 -22 -160.5 -56.5t-141.5 -82.5q-3 -173 -49 -267.5t-122 -94.5q-100 0 -100 118q0 74 36 160t94 149q-8 103 -24.5 179t-40.5 125q-159 -59 -278 -154q-5 -175 -50 -269.5t-124 -94.5q-51 0 -74.5 29.5t-23.5 89.5q0 74 35.5 159t92.5 146q-6 92 -23.5 159
t-47.5 110h-186v146h310q39 -90 59 -170.5t20 -150.5q61 53 171.5 105t220.5 76q38 -63 65 -174.5t32 -213.5q65 45 142 79t167 56v393h363v-146h-198v-1128h-165v723zM603 0zM766 988zM863 600zM1172 735zM374 807z" />
    <glyph glyph-name="aaguru" unicode="&#xa06;" horiz-adv-x="2001" 
d="M1172 723q-85 -22 -160.5 -56.5t-141.5 -82.5q-3 -173 -49 -267.5t-122 -94.5q-100 0 -100 118q0 74 36 160t94 149q-8 103 -24.5 179t-40.5 125q-159 -59 -278 -154q-5 -175 -50 -269.5t-124 -94.5q-51 0 -74.5 29.5t-23.5 89.5q0 74 35.5 159t92.5 146q-6 92 -23.5 159
t-47.5 110h-186v146h310q39 -90 59 -170.5t20 -150.5q61 53 171.5 105t220.5 76q38 -63 65 -174.5t32 -213.5q65 45 142 79t167 56v393h844v-146h-180v-593h-165v593h-334v-1128h-165v723zM1836 1274zM603 0zM766 988zM863 600zM1172 735zM374 807z" />
    <glyph glyph-name="iguru" unicode="&#xa07;" horiz-adv-x="1671" 
d="M182 1128h-197v146h197v94q0 164 37.5 259.5t121.5 152t215 56.5q160 0 252 -94t92 -265q0 -54 -13 -136l-160 16q11 59 11 125q0 106 -45.5 158t-138.5 52q-77 0 -125.5 -40t-65 -106.5t-16.5 -172.5v-99h1339v-146h-186v-472l-60 -60h-280q-95 0 -188.5 -48.5
t-174.5 -149.5q78 -133 163 -190.5t205 -57.5q93 0 171.5 19.5t182.5 69.5l57 -145q-190 -94 -414 -94q-185 0 -321.5 98.5t-236.5 310.5q52 81 124 143t164 105q-126 56 -189 173.5t-63 297.5h-293v-1128h-165v1128zM1335 1128h-527q0 -124 31 -210t97.5 -131.5
t195.5 -45.5h203v387zM1500 1274zM1100 0z" />
    <glyph glyph-name="iiguru" unicode="&#xa08;" horiz-adv-x="1671" 
d="M1488 0h-165v1128h-353v-472l-60 -60h-280q-95 0 -188.5 -48.5t-174.5 -149.5q78 -133 163 -190.5t205 -57.5q93 0 171.5 19.5t182.5 69.5l57 -145q-190 -94 -414 -94q-185 0 -321.5 98.5t-236.5 310.5q52 81 124 143t164 105q-126 56 -189 173.5t-63 297.5h-125v146
h1338v65q0 148 -17 214t-60.5 102.5t-117.5 36.5q-99 0 -148 -53t-49 -163q0 -51 12 -119l-160 -16q-14 97 -14 137q0 166 98 262t266 96q136 0 216.5 -59t109.5 -152.5t29 -256.5v-94h198v-146h-198v-1128zM805 1128h-527q0 -124 31 -210t97.5 -131.5t195.5 -45.5h203v387z
M570 0z" />
    <glyph glyph-name="uguru" unicode="&#xa09;" horiz-adv-x="1356" 
d="M1287 1128q-6 -180 -88.5 -302t-240.5 -172q93 -45 144 -124t51 -171q0 -172 -107.5 -265.5t-309.5 -93.5q-293 0 -447 219t-154 644v38q0 123 14 227h-164v146h191q65 239 219 358t377 119q213 0 347.5 -123t161.5 -354h90v-146h-84zM349 1274h767q-22 158 -113.5 242.5
t-243.5 84.5q-153 0 -257 -83t-153 -244zM303 869q0 -68 3 -128h269q147 0 244 14t164 58.5t102.5 118.5t37.5 196h-804q-16 -99 -16 -240v-19zM322 595q34 -223 135.5 -334.5t269.5 -111.5q132 0 195 51t63 161q0 46 -14.5 83.5t-39.5 62t-70.5 47.5t-118 32t-200.5 9h-220
zM836 1836zM295 -268l29 138q89 -51 176.5 -74t186.5 -23t186.5 23t177.5 74l29 -138q-82 -51 -184.5 -78t-208.5 -27t-207.5 27t-184.5 78zM688 0zM692 -555z" />
    <glyph glyph-name="uuguru" unicode="&#xa0a;" horiz-adv-x="1356" 
d="M1287 1128q-6 -180 -88.5 -302t-240.5 -172q93 -45 144 -124t51 -171q0 -172 -107.5 -265.5t-309.5 -93.5q-293 0 -447 219t-154 644v38q0 123 14 227h-164v146h191q65 239 219 358t377 119q213 0 347.5 -123t161.5 -354h90v-146h-84zM349 1274h767q-22 158 -113.5 242.5
t-243.5 84.5q-153 0 -257 -83t-153 -244zM303 869q0 -68 3 -128h269q147 0 244 14t164 58.5t102.5 118.5t37.5 196h-804q-16 -99 -16 -240v-19zM322 595q34 -223 135.5 -334.5t269.5 -111.5q132 0 195 51t63 161q0 46 -14.5 83.5t-39.5 62t-70.5 47.5t-118 32t-200.5 9h-220
zM836 1836zM295 -215l29 125q90 -52 177 -74.5t186 -22.5q100 0 186.5 22.5t177.5 74.5l29 -125q-82 -51 -184.5 -78t-208.5 -27t-208 27t-184 78zM295 -483l29 126q90 -52 177 -74.5t186 -22.5q100 0 186 22.5t178 74.5l29 -126q-83 -51 -185 -78t-208 -27t-207.5 27
t-184.5 78zM688 0zM702 -806z" />
    <glyph glyph-name="eeguru" unicode="&#xa0f;" horiz-adv-x="1141" 
d="M630 596q-95 0 -188.5 -48.5t-174.5 -149.5q78 -133 163 -190.5t205 -57.5q93 0 171.5 19.5t182.5 69.5l57 -145q-190 -94 -414 -94q-185 0 -321.5 98.5t-236.5 310.5q105 162 288 248q-126 56 -189 173.5t-63 297.5h-125v146h1171v-146h-186v-472l-60 -60h-280z
M805 1128h-527q0 -124 31 -210t97.5 -131.5t195.5 -45.5h203v387zM570 0zM800 1259q-49 208 -146 314.5t-262 106.5h-37q-12 0 -20 -1l-9 155q18 2 51 2q233 0 375 -143t205 -434h-157zM958 1274z" />
    <glyph glyph-name="aiguru" unicode="&#xa10;" horiz-adv-x="1520" 
d="M1172 723q-85 -22 -160.5 -56.5t-141.5 -82.5q-3 -173 -49 -267.5t-122 -94.5q-100 0 -100 118q0 74 36 160t94 149q-8 103 -24.5 179t-40.5 125q-159 -59 -278 -154q-5 -175 -50 -269.5t-124 -94.5q-51 0 -74.5 29.5t-23.5 89.5q0 74 35.5 159t92.5 146q-6 92 -23.5 159
t-47.5 110h-186v146h310q39 -90 59 -170.5t20 -150.5q61 53 171.5 105t220.5 76q38 -63 65 -174.5t32 -213.5q65 45 142 79t167 56v393h363v-146h-198v-1128h-165v723zM603 0zM766 988zM863 600zM1172 735zM374 807zM1195 1182q-68 113 -170.5 168t-269.5 55h-20
q-11 0 -20 -1l-10 150q20 2 42 2q146 0 258.5 -50.5t191.5 -150.5q-56 168 -152.5 248.5t-260.5 80.5h-15q-8 0 -15 -1l-9 151q18 2 39 2q238 0 373.5 -141t192.5 -436l-85 -7q8 -14 15 -28zM1337 1274z" />
    <glyph glyph-name="ooguru" unicode="&#xa13;" horiz-adv-x="1356" 
d="M1286 1128q-12 -188 -94.5 -306.5t-234.5 -167.5q94 -45 145 -123.5t51 -171.5q0 -172 -107.5 -265.5t-309.5 -93.5q-293 0 -447 219t-154 644v38q0 124 14 227h-164v146h192q38 139 105.5 228t159.5 139t204 68t283 18h315l-10 -146h-285q-235 0 -339.5 -31.5
t-166.5 -100t-95 -175.5h1023v-146h-85zM1122 1128h-805q-14 -97 -14 -240v-19q0 -68 3 -128h269q187 0 273.5 20t145.5 64t91.5 116.5t36.5 186.5zM322 595q34 -223 135.5 -334.5t269.5 -111.5q132 0 195 51t63 161q0 46 -14.5 83.5t-39.5 62t-70.5 47.5t-118 32t-200.5 9
h-220zM684 0zM836 1836z" />
    <glyph glyph-name="auguru" unicode="&#xa14;" horiz-adv-x="1520" 
d="M1172 723q-85 -22 -160.5 -56.5t-141.5 -82.5q-3 -173 -49 -267.5t-122 -94.5q-100 0 -100 118q0 74 36 160t94 149q-8 103 -24.5 179t-40.5 125q-159 -59 -278 -154q-5 -175 -50 -269.5t-124 -94.5q-51 0 -74.5 29.5t-23.5 89.5q0 74 35.5 159t92.5 146q-6 92 -23.5 159
t-47.5 110h-186v146h310q39 -90 59 -170.5t20 -150.5q61 53 171.5 105t220.5 76q38 -63 65 -174.5t32 -213.5q65 45 142 79t167 56v393h363v-146h-198v-1128h-165v723zM603 0zM766 988zM863 600zM1172 735zM374 807zM1367 1411q26 60 26 118q0 64 -36 97.5t-103 33.5
t-102.5 -34.5t-35.5 -96.5q0 -58 26 -118l-140 -21q-33 80 -33 156q0 11 1 22q-21 -4 -43 -4q-128 0 -199 61t-99 172l146 39q23 -75 55.5 -107t104.5 -32q36 0 61 6t60 28q79 62 197 62q130 0 208.5 -67t78.5 -181q0 -74 -33 -155zM1337 1274z" />
    <glyph glyph-name="kaguru" unicode="&#xa15;" horiz-adv-x="1273" 
d="M1000 0q-9 119 -30 222t-54 189q-85 -109 -198.5 -163.5t-247.5 -54.5q-185 0 -291.5 95t-106.5 260q0 163 112 259.5t288 96.5q135 0 241 -47.5t192 -146.5q26 94 26 228q0 91 -20 190h-926v146h1303v-146h-211q6 -28 12.5 -88.5t6.5 -100.5q0 -214 -85 -378
q58 -99 96.5 -239t58.5 -322h-166zM848 555q-74 101 -164.5 152t-198.5 51q-115 0 -180 -55.5t-65 -155.5q0 -97 62 -152.5t169 -55.5q120 0 214 54t163 162zM1050 1274z" />
    <glyph glyph-name="khaguru" unicode="&#xa16;" horiz-adv-x="1224" 
d="M876 337q-138 -66 -295 -66q-168 0 -294 102.5t-209 307.5q76 64 109.5 126t33.5 134q0 45 -13 96t-36 91h-187v146h305q44 -80 69 -167t25 -165v-13h492v345h363v-146h-198v-1128h-165v337zM876 513v275h-520q-27 -66 -85 -119q64 -132 137.5 -190t173.5 -58
q73 0 141 20t153 72z" />
    <glyph glyph-name="gaguru" unicode="&#xa17;" horiz-adv-x="1536" 
d="M718 836v292h-733v146h1566v-146h-198v-1128h-165v1128h-305v-790q0 -136 -40.5 -204.5t-107 -101t-172.5 -32.5q-118 0 -224.5 65.5t-184.5 192.5t-78 270q0 97 50.5 173t137.5 105.5t242 29.5h212zM718 690h-179q-121 0 -177.5 -11.5t-88.5 -50t-32 -111.5
q0 -81 51 -173.5t123.5 -145t146.5 -52.5q65 0 96 19t45.5 57.5t14.5 137.5v330z" />
    <glyph glyph-name="ghaguru" unicode="&#xa18;" horiz-adv-x="1550" 
d="M1565 1274v-146h-198v-1128h-165v307q-65 -35 -150 -35q-102 0 -173.5 46t-111.5 138q-46 -92 -120.5 -138t-176.5 -46q-147 0 -232 90t-160 319q76 64 109.5 126t33.5 134q0 45 -13 96t-36 91h-187v146h305q44 -80 69 -167t25 -165q0 -176 -123 -281q33 -120 88 -180
t132 -60q80 0 135 57t84 172q-33 232 -33 392q0 100 29 151.5t85 51.5q57 0 84.5 -48.5t27.5 -155.5q0 -152 -43 -396q29 -112 83 -168t132 -56q49 0 81 17t56 48v788h363z" />
    <glyph glyph-name="ngaguru" unicode="&#xa19;" horiz-adv-x="1185" 
d="M833 330q55 49 83 107.5t28 125.5q0 64 -31 103t-89.5 56.5t-206.5 17.5h-374l-60 60v328h-198v146h1215v-146h-852v-242h313q166 0 255 -31.5t141 -101t52 -184.5q0 -100 -49.5 -194.5t-140.5 -164.5q39 -59 97 -184l-159 -43q-37 90 -72 149q-69 -29 -144.5 -43
t-157.5 -14q-195 0 -296 66.5t-101 193.5q0 98 79.5 161.5t218.5 63.5q128 0 238 -54t211 -176zM701 253q-69 80 -148.5 120.5t-168.5 40.5q-66 0 -99.5 -23t-33.5 -63q0 -58 60 -84.5t177 -26.5q58 0 111 9t102 27zM848 0z" />
    <glyph glyph-name="caguru" unicode="&#xa1a;" horiz-adv-x="1345" 
d="M1162 1128v-775q0 -134 -43 -207t-118.5 -109.5t-198.5 -36.5q-242 0 -406 170.5t-190 425.5h-35q-52 0 -79 20.5t-27 57.5q0 46 34.5 100.5t88 93t96.5 38.5q42 0 65 -29t23 -85v-51h625v387h-1012v146h1375v-146h-198zM997 596h-625q11 -121 73.5 -225t159 -163
t203.5 -59q83 0 122.5 23.5t53 68t13.5 134.5v221zM897 0z" />
    <glyph glyph-name="chaguru" unicode="&#xa1b;" horiz-adv-x="1299" 
d="M803 587q213 0 315 -76t102 -211q0 -158 -139 -229t-434 -71q-287 0 -419.5 71t-132.5 224q0 63 38.5 115t115.5 86q-72 32 -108 82.5t-36 119.5q0 77 47 133.5t119 80.5t227 24h431v192h-944v146h1329v-146h-220v-278l-60 -60h-565q-113 0 -156 -23.5t-43 -74.5
q0 -54 46 -79.5t156 -25.5h331zM581 140v307h-78q-125 0 -184.5 -41t-59.5 -108q0 -81 80 -117.5t242 -40.5zM736 447v-307q167 4 243.5 41.5t76.5 120.5q0 44 -27.5 76t-81.5 50.5t-170 18.5h-41zM1094 1274zM649 0zM921 0z" />
    <glyph glyph-name="jaguru" unicode="&#xa1c;" horiz-adv-x="1253" 
d="M382 741h523v387h-920v146h1283v-146h-198v-1128h-165v596h-523v-596h-165v596h-36q-52 0 -79 20.5t-27 57.5q0 46 34.5 100.5t88 93t96.5 38.5q42 0 65 -29t23 -85v-51z" />
    <glyph glyph-name="jhaguru" unicode="&#xa1d;" horiz-adv-x="1216" 
d="M594 310q171 13 257 65.5t86 144.5q0 94 -84 137t-273 43q-227 0 -467 -80l-51 136q122 39 267 64q-63 51 -100 128t-49 180h-195v146h1246v-146h-181q-15 -112 -57.5 -193t-113.5 -131q113 -38 170 -109t57 -175q0 -128 -93.5 -214.5t-271.5 -120.5q74 -46 144 -107
l-113 -106q-142 132 -234 184q-39 -3 -118 -3q-119 0 -185 33t-66 91q0 46 41.5 71t116.5 25q63 0 122.5 -12.5t144.5 -50.5zM619 843q49 0 106.5 20.5t99.5 83t58 181.5h-536q9 -80 32.5 -136.5t63 -90.5t83 -46t93.5 -12zM420 299zM892 118z" />
    <glyph glyph-name="nyaguru" unicode="&#xa1e;" horiz-adv-x="1162" 
d="M1009 548v-146h-419q-116 0 -154 -30.5t-38 -82.5q0 -71 66 -106t199 -35q167 0 320 48l44 -150q-167 -46 -384 -46q-199 0 -304.5 73t-105.5 201q0 94 71 151q-101 24 -164.5 87.5t-63.5 175.5q0 93 54.5 153t155.5 80q-66 116 -135 207h-166v146h1192v-146h-198v-280
l-60 -60h-483q-71 0 -111 -8.5t-62 -34t-22 -63.5q0 -54 35 -83t99 -40t204 -11h430zM348 1128q68 -104 112 -194h354v194h-466zM598 0z" />
    <glyph glyph-name="ttaguru" unicode="&#xa1f;" horiz-adv-x="1178" 
d="M830 863v265h-845v146h1208v-146h-198v-351l-60 -60h-78q-152 0 -223.5 -8t-131 -34.5t-117 -74.5t-128.5 -135q86 -169 181.5 -242t221.5 -73q98 0 175.5 20t208.5 80l57 -145q-122 -57 -224 -81t-217 -24q-196 0 -335 111t-255 368q131 172 235 251t202.5 106t249.5 27
h73zM597 0z" />
    <glyph glyph-name="tthaguru" unicode="&#xa20;" horiz-adv-x="1352" 
d="M594 898v230h-609v146h1382v-146h-609v-230q249 -58 381.5 -191t132.5 -294q0 -205 -150.5 -309t-445.5 -104q-293 0 -444.5 104.5t-151.5 308.5q0 164 134 295.5t380 189.5zM676 775q-209 -48 -320.5 -145t-111.5 -222q0 -129 103.5 -193.5t328.5 -64.5
q223 0 327.5 65.5t104.5 194.5q0 122 -113 219.5t-319 145.5zM758 1274zM914 0zM664 752z" />
    <glyph glyph-name="ddaguru" unicode="&#xa21;" horiz-adv-x="1223" 
d="M856 223q44 34 66 81.5t22 109.5q0 82 -60.5 149.5t-169.5 99.5q-125 -24 -230 -24q-229 0 -229 116q0 104 179 104q148 0 297 -54q82 35 123 99.5t41 157.5q0 38 -4 66h-906v146h1253v-146h-183q6 -36 6 -67q0 -108 -41 -186t-136 -134q118 -61 173.5 -143t55.5 -193
q0 -192 -159.5 -298.5t-443.5 -106.5q-215 0 -326.5 66.5t-111.5 193.5q0 98 77.5 161.5t215.5 63.5q142 0 269 -68t222 -194zM718 162q-84 88 -170 132.5t-175 44.5q-69 0 -102.5 -22t-33.5 -62q0 -57 67.5 -85t202.5 -28q65 0 117.5 5t93.5 15zM576 0zM795 0z" />
    <glyph glyph-name="ddhaguru" unicode="&#xa22;" horiz-adv-x="1323" 
d="M207 656h-36q-52 0 -79 20.5t-27 57.5q0 46 34.5 100.5t88 93t96.5 38.5q42 0 65 -29t23 -85v-51h603v327h-990v146h1353v-146h-198v-412l-60 -60h-708v-22q0 -116 29.5 -206t89.5 -154q98 105 212.5 158t245.5 53q136 0 212.5 -63t76.5 -162q0 -127 -104.5 -193.5
t-307.5 -66.5q-191 0 -331 79.5t-214 226t-74 332.5v18zM606 191q49 -25 106.5 -37t122.5 -12q121 0 179.5 26.5t58.5 84.5q0 40 -34.5 63t-104.5 23q-85 0 -167 -37t-161 -111z" />
    <glyph glyph-name="nnaguru" unicode="&#xa23;" horiz-adv-x="1274" 
d="M702 747l61 122q-198 121 -346 259h-432v146h1304v-146h-653q215 -163 566 -313l-72 -140q-126 57 -231 115l-86 -169l-76 -32q-74 30 -158 30q-86 0 -157 -38t-162 -144q101 -166 204.5 -226.5t248.5 -60.5q113 0 200 20t236 80l57 -145q-132 -57 -245 -81t-241 -24
q-229 0 -378 99.5t-272 349.5q138 178 251 248.5t244 70.5q72 0 137 -21z" />
    <glyph glyph-name="taguru" unicode="&#xa24;" horiz-adv-x="1110" 
d="M26 132l67 150q98 -64 199.5 -98.5t215.5 -34.5q152 0 237.5 61t85.5 177q0 92 -57.5 161t-171.5 115q-125 -24 -231 -24q-229 0 -229 116q0 104 179 104q148 0 297 -54q82 33 123 93.5t41 149.5q0 44 -7 80h-790v146h1140v-146h-183q6 -43 6 -82q0 -105 -40 -177.5
t-136 -127.5q122 -67 175 -154t53 -202q0 -179 -132.5 -282t-355.5 -103q-131 0 -252.5 33t-233.5 99zM702 0z" />
    <glyph glyph-name="thaguru" unicode="&#xa25;" horiz-adv-x="1224" 
d="M876 338q-80 -38 -148.5 -52.5t-146.5 -14.5q-168 0 -294 102.5t-209 307.5q76 64 109.5 126t33.5 134q0 45 -13 96t-36 91h-187v146h1254v-146h-198v-1128h-165v338zM347 1128q37 -98 37 -186q0 -35 -5 -70h497v256h-529zM876 513v218h-551q-19 -29 -54 -62
q64 -132 137.5 -190t173.5 -58q73 0 141 20t153 72z" />
    <glyph glyph-name="daguru" unicode="&#xa26;" horiz-adv-x="1263" 
d="M372 741h543v387h-930v146h1293v-146h-198v-472l-60 -60h-648q1 -223 97 -334.5t287 -111.5q96 0 180.5 22.5t173.5 67.5l57 -146q-187 -94 -414 -94q-263 0 -404.5 151t-141.5 423v22h-36q-52 0 -79 20.5t-27 57.5q0 46 34.5 100.5t88 93t96.5 38.5q42 0 65 -29t23 -85
v-51z" />
    <glyph glyph-name="dhaguru" unicode="&#xa27;" horiz-adv-x="1214" 
d="M866 333q-135 -62 -285 -62q-168 0 -294 102.5t-209 307.5q76 64 109.5 126t33.5 134q0 45 -13 96t-36 91h-187v146h1244v-146h-198v-1128h-165v333zM347 1128q37 -98 37 -186q0 -171 -113 -273q64 -132 137.5 -190t173.5 -58q77 0 145.5 22t138.5 64v621h-519z" />
    <glyph glyph-name="naguru" unicode="&#xa28;" horiz-adv-x="1328" 
d="M664 775q-204 -52 -312 -150t-108 -226q0 -122 66 -186t191 -64l-10 -149q-131 0 -223 51t-140 144.5t-48 201.5q0 170 130.5 303.5t371.5 197.5v230h-597v146h1358v-146h-597v-230q242 -64 372 -197.5t130 -303.5q0 -106 -46.5 -199t-139 -145.5t-225.5 -52.5l-10 149
q125 0 191 64t66 186q0 128 -108 226t-312 150zM746 1274zM664 0zM930 0zM662 752z" />
    <glyph glyph-name="paguru" unicode="&#xa2a;" horiz-adv-x="1214" 
d="M866 333q-135 -62 -285 -62q-168 0 -294 102.5t-209 307.5q76 64 109.5 126t33.5 134q0 45 -13 96t-36 91h-187v146h305q44 -80 69 -167t25 -165q0 -171 -113 -273q64 -132 137.5 -190t173.5 -58q74 0 140 20t144 66v767h363v-146h-198v-1128h-165v333z" />
    <glyph glyph-name="phaguru" unicode="&#xa2b;" horiz-adv-x="1185" 
d="M837 861v267h-852v146h1215v-146h-198v-353l-60 -60h-361q-145 0 -208 -16.5t-97.5 -55.5t-34.5 -112q0 -63 28.5 -125t86.5 -124q98 101 211.5 152t242.5 51q135 0 212 -62.5t77 -162.5q0 -128 -101.5 -194t-302.5 -66q-171 0 -304.5 65.5t-224 195.5t-90.5 280
q0 69 27 131.5t87.5 108t143.5 63t215 17.5h288zM468 191q45 -25 101 -37t123 -12q119 0 180.5 26.5t61.5 84.5q0 42 -35.5 64t-104.5 22q-84 0 -165.5 -37t-160.5 -111z" />
    <glyph glyph-name="baguru" unicode="&#xa2c;" horiz-adv-x="1246" 
d="M1261 1274v-146h-198v-1128h-165v193q-123 -51 -270 -51q-184 0 -322 92t-222 273q42 61 109.5 114.5t159.5 99.5q-117 50 -175 151.5t-58 255.5h-135v146h1276zM898 802v326h-610q0 -119 35 -191t94.5 -103.5t181.5 -31.5h299zM898 352v309h-258q-85 0 -143.5 -16.5
t-114 -52.5t-105.5 -94q60 -106 145 -156t206 -50q154 0 270 60z" />
    <glyph glyph-name="bhaguru" unicode="&#xa2d;" horiz-adv-x="1182" 
d="M839 814q14 34 21.5 69.5t7.5 73.5q0 102 -31 171h-852v146h1212v-146h-190q23 -72 23 -180q0 -71 -20 -133.5t-59 -115.5q48 -67 72.5 -137.5t24.5 -145.5q0 -202 -136 -309t-389 -107q-137 0 -261 33t-236 99l67 150q109 -71 211.5 -102.5t223.5 -31.5q179 0 268.5 69
t89.5 207q0 43 -10.5 84t-30.5 80q-72 -63 -165.5 -94t-207.5 -31q-165 0 -255.5 64.5t-90.5 177.5q0 110 89 176.5t250 66.5q109 0 202.5 -33.5t171.5 -100.5zM756 698q-63 52 -135.5 78t-153.5 26q-88 0 -132 -26t-44 -69q0 -98 179 -98q91 0 162.5 22t123.5 67zM535 0z
M759 0z" />
    <glyph glyph-name="maguru" unicode="&#xa2e;" horiz-adv-x="1220" 
d="M267 1274q63 -162 95 -314t33 -280h477v594h363v-146h-198v-1128h-165v534h-479q-9 -183 -55.5 -276t-121.5 -93q-51 0 -74.5 29.5t-23.5 89.5q0 67 32 152.5t93 152.5q-14 289 -105 539h-153v146h282z" />
    <glyph glyph-name="yaguru" unicode="&#xa2f;" horiz-adv-x="1424" 
d="M1076 613h-266v-334q-101 -33 -229 -33q-168 0 -294 105.5t-209 317.5q77 68 110 131t33 136q0 46 -13 98.5t-36 93.5h-187v146h1454v-146h-198v-1128h-165v613zM645 759h431v369h-730q38 -102 38 -193q0 -174 -113 -278q63 -137 136.5 -199t174.5 -62q31 0 63 4v359z
" />
    <glyph glyph-name="raguru" unicode="&#xa30;" horiz-adv-x="1185" 
d="M837 836v292h-852v146h1215v-146h-198v-775q0 -137 -44.5 -209.5t-121 -108t-201.5 -35.5q-131 0 -253.5 62.5t-214 192.5t-91.5 273q0 107 56 177t149.5 100.5t275.5 30.5h280zM837 690h-260q-133 0 -198 -13t-101.5 -51.5t-36.5 -108.5q0 -83 65.5 -175t155 -142.5
t180.5 -50.5q85 0 125 23t55 65t15 138v315zM737 0z" />
    <glyph glyph-name="laguru" unicode="&#xa32;" horiz-adv-x="1380" 
d="M1141 1128q-31 -163 -128 -316q142 -79 214.5 -185.5t72.5 -229.5q0 -108 -50 -201.5t-146 -144.5t-232 -51h-12l-10 150h22q128 0 196 64.5t68 176.5q0 93 -53 171.5t-161 134.5q-106 -114 -232 -185q-128 72 -234 185q-101 -53 -156.5 -130t-55.5 -168
q0 -117 67.5 -183t196.5 -66h22l-10 -150h-12q-137 0 -233 51.5t-145.5 144.5t-49.5 200q0 123 73.5 232t214.5 184q-102 154 -129 316h-254v146h1410v-146h-254zM407 1128q44 -274 283 -441q116 77 188.5 191t94.5 250h-566zM1141 1274zM690 0zM982 0zM448 666zM690 658z
" />
    <glyph glyph-name="lanuktaguru" unicode="&#xa33;" horiz-adv-x="1380" 
d="M1141 1128q-31 -163 -128 -316q142 -79 214.5 -185.5t72.5 -229.5q0 -108 -50 -201.5t-146 -144.5t-232 -51h-12l-10 150h22q128 0 196 64.5t68 176.5q0 93 -53 171.5t-161 134.5q-106 -114 -232 -185q-128 72 -234 185q-101 -53 -156.5 -130t-55.5 -168
q0 -117 67.5 -183t196.5 -66h22l-10 -150h-12q-137 0 -233 51.5t-145.5 144.5t-49.5 200q0 123 73.5 232t214.5 184q-102 154 -129 316h-254v146h1410v-146h-254zM407 1128q44 -274 283 -441q116 77 188.5 191t94.5 250h-566zM1141 1274zM690 0zM982 0zM448 666zM690 658z
M248 -80q49 0 81 -32.5t32 -84.5q0 -53 -31 -85t-82 -32q-50 0 -81.5 32.5t-31.5 84.5t32 84.5t81 32.5zM248 78z" />
    <glyph glyph-name="vaguru" unicode="&#xa35;" horiz-adv-x="1162" 
d="M1009 548v-146h-365q-81 0 -118.5 -2.5t-66.5 -15t-45 -37t-16 -58.5q0 -71 66 -106t199 -35q167 0 320 48l44 -150q-167 -46 -384 -46q-199 0 -304.5 73t-105.5 201q0 94 71 151q-101 24 -164.5 87.5t-63.5 175.5q0 67 29 117.5t83 81t121 39t180 8.5h325v194h-829v146
h1192v-146h-198v-280l-60 -60h-483q-71 0 -111 -8.5t-62 -34t-22 -63.5q0 -54 35 -83t99 -40t204 -11h430zM598 0z" />
    <glyph glyph-name="sanuktaguru" unicode="&#xa36;" horiz-adv-x="1235" 
d="M-15 1274h1265v-146h-198v-1128h-165v534h-494q-9 -183 -55.5 -276t-121.5 -93q-51 0 -74.5 29.5t-23.5 89.5q0 67 32 152.5t93 152.5q-14 289 -105 539h-153v146zM313 1128q79 -246 82 -448h492v448h-574zM575 216q49 0 81 -32.5t32 -84.5q0 -53 -31 -85t-82 -32
q-50 0 -81.5 32.5t-31.5 84.5t32 84.5t81 32.5z" />
    <glyph glyph-name="saguru" unicode="&#xa38;" horiz-adv-x="1220" 
d="M-15 1274h1250v-146h-198v-1128h-165v534h-479q-9 -183 -55.5 -276t-121.5 -93q-51 0 -74.5 29.5t-23.5 89.5q0 67 32 152.5t93 152.5q-14 289 -105 539h-153v146zM313 1128q79 -246 82 -448h477v448h-559z" />
    <glyph glyph-name="haguru" unicode="&#xa39;" horiz-adv-x="1180" 
d="M540 683q-35 4 -78 4q-118 0 -169.5 -42t-51.5 -127q0 -84 66 -177t155.5 -142.5t187.5 -49.5q78 0 115.5 24.5t52 65.5t14.5 136v753h-847v146h1210v-146h-198v-775q0 -144 -49 -217t-123.5 -104.5t-192.5 -31.5q-132 0 -255.5 66t-212 192t-88.5 270q0 100 44.5 169.5
t125.5 104t221 34.5q48 0 85 -6zM732 0z" />
    <glyph glyph-name="nuktaguru" unicode="&#xa3c;" 
d="M-579 -158q49 0 81 -32.5t32 -84.5q0 -53 -31 -85t-82 -32q-50 0 -81.5 32.5t-31.5 84.5t32 84.5t81 32.5zM-579 0z" />
    <glyph glyph-name="aamatraguru" unicode="&#xa3e;" horiz-adv-x="481" 
d="M496 1128h-180v-593h-165v593h-166v146h511v-146zM316 1274z" />
    <glyph glyph-name="imatraguru" unicode="&#xa3f;" horiz-adv-x="530" 
d="M182 1128h-197v146h197v94q0 164 37.5 259.5t121.5 152t215 56.5q160 0 252 -94t92 -265q0 -54 -13 -136l-160 16q11 59 11 125q0 106 -45.5 158t-138.5 52q-77 0 -125.5 -40t-65 -106.5t-16.5 -172.5v-99h198v-146h-198v-1128h-165v1128z" />
    <glyph glyph-name="iimatraguru" unicode="&#xa40;" horiz-adv-x="530" 
d="M347 0h-165v1128h-197v146h197v65q0 148 -17 214t-60.5 102.5t-117.5 36.5q-99 0 -148 -53t-49 -163q0 -51 12 -119l-160 -16q-14 97 -14 137q0 166 98 262t266 96q136 0 216.5 -59t109.5 -152.5t29 -256.5v-94h198v-146h-198v-1128z" />
    <glyph glyph-name="umatraguru" unicode="&#xa41;" 
d="M-1017 -268l29 138q89 -51 176.5 -74t186.5 -23t186.5 23t177.5 74l29 -138q-82 -51 -184.5 -78t-208.5 -27t-207.5 27t-184.5 78zM-624 0zM-620 -555z" />
    <glyph glyph-name="uumatraguru" unicode="&#xa42;" 
d="M-1017 -215l29 125q90 -52 177 -74.5t186 -22.5q100 0 186.5 22.5t177.5 74.5l29 -125q-82 -51 -184.5 -78t-208.5 -27t-208 27t-184 78zM-1017 -483l29 126q90 -52 177 -74.5t186 -22.5q100 0 186 22.5t178 74.5l29 -126q-83 -51 -185 -78t-208 -27t-207.5 27t-184.5 78
zM-624 0zM-610 -806z" />
    <glyph glyph-name="eematraguru" unicode="&#xa47;" 
d="M-341 1259q-49 208 -146 314.5t-262 106.5h-37q-12 0 -20 -1l-9 155q18 2 51 2q233 0 375 -143t205 -434h-157zM-183 1274z" />
    <glyph glyph-name="aimatraguru" unicode="&#xa48;" 
d="M-325 1182q-68 113 -170.5 168t-269.5 55h-20q-11 0 -20 -1l-10 150q20 2 42 2q146 0 258.5 -50.5t191.5 -150.5q-56 168 -152.5 248.5t-260.5 80.5h-15q-8 0 -15 -1l-9 151q18 2 39 2q238 0 373.5 -141t192.5 -436l-85 -7q8 -14 15 -28zM-183 1274z" />
    <glyph glyph-name="oomatraguru" unicode="&#xa4b;" 
d="M-345 1259q-11 127 -46.5 181t-112.5 54q-20 0 -73 -5q-53 -6 -79 -6q-126 0 -197.5 78t-112.5 236l146 39q42 -134 78.5 -170.5t101.5 -36.5q26 0 76 5q49 5 76 5q143 0 215.5 -93.5t77.5 -286.5h-150zM-183 1274z" />
    <glyph glyph-name="aumatraguru" unicode="&#xa4c;" 
d="M-153 1411q26 60 26 118q0 64 -36 97.5t-103 33.5t-102.5 -34.5t-35.5 -96.5q0 -58 26 -118l-140 -21q-33 80 -33 156q0 11 1 22q-21 -4 -43 -4q-128 0 -199 61t-99 172l146 39q23 -75 55.5 -107t104.5 -32q36 0 61 6t60 28q79 62 197 62q130 0 208.5 -67t78.5 -181
q0 -74 -33 -155zM-183 1274z" />
    <glyph glyph-name="halantguru" unicode="&#xa4d;" 
d="M54 -503q-51 129 -139.5 202t-234.5 73h-26q-10 0 -19 -1l-9 155q18 2 51 2q192 0 320.5 -99t198.5 -289z" />
    <glyph glyph-name="udaatguru" unicode="&#xa51;" 
d="M-200 -61q50 -211 147 -316t261 -105h17q7 0 16 1l-18 -157q-224 0 -364 132t-206 400zM-348 0z" />
    <glyph glyph-name="khanuktaguru" unicode="&#xa59;" horiz-adv-x="1224" 
d="M876 337q-138 -66 -295 -66q-168 0 -294 102.5t-209 307.5q76 64 109.5 126t33.5 134q0 45 -13 96t-36 91h-187v146h305q44 -80 69 -167t25 -165v-13h492v345h363v-146h-198v-1128h-165v337zM876 513v275h-520q-27 -66 -85 -119q64 -132 137.5 -190t173.5 -58
q73 0 141 20t153 72zM340 216q49 0 81 -32.5t32 -84.5q0 -53 -31 -85t-82 -32q-50 0 -81.5 32.5t-31.5 84.5t32 84.5t81 32.5z" />
    <glyph glyph-name="ganuktaguru" unicode="&#xa5a;" horiz-adv-x="1536" 
d="M718 836v292h-733v146h1566v-146h-198v-1128h-165v1128h-305v-790q0 -136 -40.5 -204.5t-107 -101t-172.5 -32.5q-118 0 -224.5 65.5t-184.5 192.5t-78 270q0 97 50.5 173t137.5 105.5t242 29.5h212zM718 690h-179q-121 0 -177.5 -11.5t-88.5 -50t-32 -111.5
q0 -81 51 -173.5t123.5 -145t146.5 -52.5q65 0 96 19t45.5 57.5t14.5 137.5v330zM258 -46q49 0 81 -32.5t32 -84.5q0 -53 -31 -85t-82 -32q-50 0 -81.5 32.5t-31.5 84.5t32 84.5t81 32.5zM258 112z" />
    <glyph glyph-name="januktaguru" unicode="&#xa5b;" horiz-adv-x="1283" 
d="M382 741h553v387h-950v146h1313v-146h-198v-1128h-165v596h-553v-596h-165v596h-36q-52 0 -79 20.5t-27 57.5q0 46 34.5 100.5t88 93t96.5 38.5q42 0 65 -29t23 -85v-51zM658 216q49 0 81 -32.5t32 -84.5q0 -53 -31 -85t-82 -32q-50 0 -81.5 32.5t-31.5 84.5t32 84.5
t81 32.5z" />
    <glyph glyph-name="rraguru" unicode="&#xa5c;" horiz-adv-x="1165" 
d="M875 220q70 -85 140 -189l-152 -71q-59 106 -137 217q-69 -11 -146 -11q-123 0 -191 14.5t-118 37.5q69 -92 122 -189l-153 -67q-84 176 -187 346l75 116q119 -58 221 -84t218 -26q159 0 239 42t80 126q0 72 -59.5 123.5t-173.5 77.5q-125 -24 -227 -24q-229 0 -229 116
q0 104 179 104q148 0 297 -54q82 34 123 94.5t41 147.5q0 37 -4 61h-848v146h1195v-146h-182q5 -37 5 -63q0 -104 -40.5 -178.5t-130.5 -124.5q116 -49 169.5 -119t53.5 -168q0 -87 -45 -150.5t-135 -104.5z" />
    <glyph glyph-name="phanuktaguru" unicode="&#xa5e;" horiz-adv-x="1185" 
d="M837 861v267h-852v146h1215v-146h-198v-353l-60 -60h-361q-145 0 -208 -16.5t-97.5 -55.5t-34.5 -112q0 -63 28.5 -125t86.5 -124q98 101 211.5 152t242.5 51q135 0 212 -62.5t77 -162.5q0 -128 -101.5 -194t-302.5 -66q-171 0 -304.5 65.5t-224 195.5t-90.5 280
q0 69 27 131.5t87.5 108t143.5 63t215 17.5h288zM468 191q45 -25 101 -37t123 -12q119 0 180.5 26.5t61.5 84.5q0 42 -35.5 64t-104.5 22q-84 0 -165.5 -37t-160.5 -111zM209 36q49 0 81 -32.5t32 -84.5q0 -53 -31 -85t-82 -32q-50 0 -81.5 32.5t-31.5 84.5t32 84.5t81 32.5
zM209 194z" />
    <glyph glyph-name="zeroguru" unicode="&#xa66;" horiz-adv-x="1128" 
d="M563 1133q220 0 353.5 -133.5t133.5 -354.5t-132 -353t-353 -132q-223 0 -354.5 133t-131.5 355q0 140 60 251t171 172.5t253 61.5zM560 309q152 0 237 90.5t85 250.5q0 153 -84.5 243.5t-229.5 90.5q-150 0 -235.5 -92.5t-85.5 -249.5q0 -153 83.5 -243t229.5 -90z
M557 1274z" />
    <glyph glyph-name="oneguru" unicode="&#xa67;" horiz-adv-x="1128" 
d="M728 672q-106 -62 -245 -62q-164 0 -262 91t-98 249q0 148 104.5 246t277.5 98q142 0 232.5 -55.5t123 -125t32.5 -199.5v-594q0 -89 14.5 -125t45.5 -50t91 -14l-20 -149q-82 0 -136.5 21t-89.5 58.5t-52.5 95t-17.5 161.5v354zM728 842v81q0 89 -28 132.5t-79 67.5
t-123 24q-100 0 -154.5 -52.5t-54.5 -143.5t51 -142.5t143 -51.5q76 0 135 20t110 65z" />
    <glyph glyph-name="twoguru" unicode="&#xa68;" horiz-adv-x="1128" 
d="M681 357q215 -147 345 -285l-118 -108q-209 209 -425 343q-31 -4 -73 -4q-138 0 -207 33.5t-69 101.5q0 50 41 77.5t117 27.5q128 0 254 -73q129 40 198.5 133t69.5 220q0 156 -89.5 239t-257.5 83q-173 0 -321 -69l-58 133q183 85 392 85q237 0 369 -124t132 -342
q0 -162 -77.5 -285t-222.5 -186zM410 449zM1008 110z" />
    <glyph glyph-name="threeguru" unicode="&#xa69;" horiz-adv-x="1128" 
d="M871 -135q-202 194 -369 291q-46 -4 -112 -4q-137 0 -205.5 31t-68.5 93q0 46 41.5 71t116.5 25q140 0 282 -71q129 13 200 61t71 123q0 65 -53 113.5t-150 71.5q-108 -27 -211 -27q-108 0 -162 30t-54 86q0 51 44 77.5t120 26.5q59 0 119.5 -10t154.5 -45
q86 23 134.5 68t48.5 109q0 81 -76.5 120.5t-231.5 39.5q-198 0 -360 -69l-58 133q201 85 429 85q223 0 343.5 -79.5t120.5 -220.5q0 -74 -46 -139.5t-135 -114.5q95 -45 142.5 -109.5t47.5 -147.5q0 -107 -69 -180t-206 -112q144 -96 270 -219zM971 11z" />
    <glyph glyph-name="fourguru" unicode="&#xa6a;" horiz-adv-x="1128" 
d="M301 611q-102 47 -155.5 129.5t-53.5 189.5q0 126 93 228t263 126l20 -142q-103 -17 -157.5 -76t-54.5 -147q0 -107 76.5 -166.5t224.5 -59.5q157 0 236 56.5t79 169.5q0 91 -53 146.5t-159 76.5l20 142q174 -27 265 -127.5t91 -226.5q0 -107 -54 -189.5t-155 -129.5
q85 -43 127 -113t42 -160q0 -164 -115 -259.5t-315 -95.5q-203 0 -318.5 96t-115.5 262q0 92 43.5 160.5t125.5 109.5zM561 132q132 0 199.5 53.5t67.5 156.5q0 95 -69.5 149t-189.5 54q-130 0 -199.5 -55t-69.5 -153q0 -97 67.5 -151t193.5 -54zM560 1128zM551 1274z" />
    <glyph glyph-name="fiveguru" unicode="&#xa6b;" horiz-adv-x="1128" 
d="M797 366q-108 -44 -238 -44q-164 0 -286.5 98t-203.5 294q77 62 110 122t33 134q0 65 -18 126.5t-62 140.5l153 57q90 -169 90 -318q0 -84 -26.5 -150t-86.5 -124q62 -122 132.5 -176t168.5 -54q119 0 234 63v739h165v-1274h-165v366z" />
    <glyph glyph-name="sixguru" unicode="&#xa6c;" horiz-adv-x="1128" 
d="M622 1149q-57 92 -57 201q0 117 84.5 189.5t238.5 72.5q66 0 128 -9l-21 -140q-39 6 -93 6q-84 0 -128 -37.5t-44 -105.5q0 -101 69 -181q112 -11 168.5 -44.5t56.5 -90.5q0 -48 -37 -74t-102 -26q-118 0 -196 97q-182 0 -277 -48t-95 -135q0 -70 46.5 -109.5
t129.5 -59.5q107 27 219 27q108 0 162 -30t54 -86q0 -51 -44 -77.5t-120 -26.5q-130 0 -274 51q-82 -27 -127 -75.5t-45 -114.5q0 -100 76.5 -146.5t237.5 -46.5q200 0 354 69l58 -133q-197 -85 -429 -85q-225 0 -344.5 88t-119.5 250q0 79 42 145t126 119
q-85 41 -127 102.5t-42 143.5q0 139 124 223t348 97zM302 1295zM836 1836z" />
    <glyph glyph-name="sevenguru" unicode="&#xa6d;" horiz-adv-x="1128" 
d="M274 654q-63 72 -94 145.5t-31 161.5q0 90 50 167.5t142.5 121.5t214.5 44q219 0 347 -146.5t128 -392.5q0 -213 -119.5 -381.5t-342.5 -270.5t-508 -121v150q377 30 589.5 197t212.5 424q0 178 -83.5 285.5t-231.5 107.5q-110 0 -172 -53t-62 -149q0 -119 99 -216z
M161 128z" />
    <glyph glyph-name="eightguru" unicode="&#xa6e;" horiz-adv-x="1128" 
d="M1045 975h-655v-332q0 -216 49 -308t142 -139.5t301 -47.5q70 0 155 12l13 -149q-77 -11 -201 -11q-231 0 -359.5 64.5t-196.5 191.5t-68 352v367h-46q-52 0 -79 20.5t-27 57.5q0 51 38.5 109.5t92 95.5t98.5 37q42 0 65 -29t23 -85v-61h655v-145z" />
    <glyph glyph-name="nineguru" unicode="&#xa6f;" horiz-adv-x="1128" 
d="M1045 975h-655v-332q0 -216 49 -308t142 -139.5t301 -47.5q70 0 155 12l13 -149q-77 -11 -201 -11q-231 0 -359.5 64.5t-196.5 191.5t-68 352v367h-46q-52 0 -79 20.5t-27 57.5q0 51 38.5 109.5t92 95.5t98.5 37q42 0 65 -29t23 -85v-61h407q-76 106 -76 230
q0 117 84.5 189.5t238.5 72.5q66 0 128 -9l-21 -140q-39 6 -93 6q-84 0 -128 -37.5t-44 -105.5q0 -116 93 -206h66v-145zM1036 1836z" />
    <glyph glyph-name="tippiguru" unicode="&#xa70;" 
d="M-141 1411q26 60 26 118q0 64 -39 97.5t-112 33.5t-111.5 -34t-38.5 -97q0 -58 26 -118l-140 -21q-33 80 -33 156q0 111 82 179t214 68q136 0 217.5 -67.5t81.5 -180.5q0 -74 -33 -155zM-183 1274zM-164 1836z" />
    <glyph glyph-name="addakguru" unicode="&#xa71;" 
d="M38 1768q-6 -183 -81 -274t-221 -91q-147 0 -223.5 91t-81.5 274l154 9q0 -126 32.5 -181t116.5 -55q85 0 117.5 56.5t32.5 179.5zM-183 1274zM-164 1836z" />
    <glyph glyph-name="iriguru" unicode="&#xa72;" horiz-adv-x="1141" 
d="M630 596q-95 0 -188.5 -48.5t-174.5 -149.5q78 -133 163 -190.5t205 -57.5q93 0 171.5 19.5t182.5 69.5l57 -145q-190 -94 -414 -94q-185 0 -321.5 98.5t-236.5 310.5q105 162 288 248q-126 56 -189 173.5t-63 297.5h-125v146h1171v-146h-186v-472l-60 -60h-280z
M805 1128h-527q0 -124 31 -210t97.5 -131.5t195.5 -45.5h203v387zM570 0z" />
    <glyph glyph-name="uraguru" unicode="&#xa73;" horiz-adv-x="1356" 
d="M1287 1128q-6 -180 -88.5 -302t-240.5 -172q93 -45 144 -124t51 -171q0 -172 -107.5 -265.5t-309.5 -93.5q-293 0 -447 219t-154 644v38q0 123 14 227h-164v146h191q65 239 219 358t377 119q213 0 347.5 -123t161.5 -354h90v-146h-84zM349 1274h767q-22 158 -113.5 242.5
t-243.5 84.5q-153 0 -257 -83t-153 -244zM303 869q0 -68 3 -128h269q147 0 244 14t164 58.5t102.5 118.5t37.5 196h-804q-16 -99 -16 -240v-19zM322 595q34 -223 135.5 -334.5t269.5 -111.5q132 0 195 51t63 161q0 46 -14.5 83.5t-39.5 62t-70.5 47.5t-118 32t-200.5 9h-220
zM836 1836z" />
    <glyph glyph-name="ekonkarguru" unicode="&#xa74;" horiz-adv-x="3039" 
d="M2276 1128q-6 -178 -88 -300.5t-240 -173.5q93 -45 144 -124t51 -171q0 -172 -107.5 -265.5t-309.5 -93.5q-293 0 -447 219t-154 644v38q0 123 14 227h-94v146h124q64 234 216.5 355.5t375.5 121.5q131 0 235.5 -49.5t169.5 -143.5q84 124 201.5 186t267.5 62
q202 0 332.5 -111t169.5 -311l-164 -18q-33 142 -123.5 216t-226.5 74q-135 0 -227.5 -65.5t-161.5 -211.5l-139 -13q-46 117 -132.5 176t-213.5 59q-150 0 -253 -82.5t-154 -244.5h1031v-146h-97zM2112 1128h-803q-16 -99 -16 -240v-19q0 -68 3 -128h269q182 0 271 18.5
t153 66.5t92 119.5t31 182.5zM1312 595q36 -225 136.5 -335.5t268.5 -110.5q132 0 195 51t63 161q0 46 -14.5 83.5t-39.5 62t-70.5 47.5t-118 32t-200.5 9h-220zM728 671q-106 -61 -245 -61q-164 0 -262 91t-98 249q0 148 104.5 246t277.5 98q142 0 232.5 -55.5t123 -125
t32.5 -199.5v-594q0 -89 14.5 -125t45.5 -50t91 -14l-20 -149q-82 0 -136.5 21t-89.5 58.5t-52.5 95t-17.5 161.5v353zM728 842v81q0 89 -28 132.5t-79 67.5t-123 24q-100 0 -154.5 -52.5t-54.5 -143.5t51 -142.5t143 -51.5q151 0 245 85zM836 1836z" />
    <glyph glyph-name="yakashguru" unicode="&#xa75;" 
d="M-344 -100q-13 -92 -13 -203q0 -101 26 -149t84 -48q44 0 70.5 25t54.5 86l116 -61q-49 -102 -110.5 -145t-147.5 -43q-119 0 -184 84.5t-65 251.5q0 105 18 219zM-348 0z" />
    <glyph glyph-name="uni200B" unicode="&#x200b;" 
 />
    <glyph glyph-name="uni200B" unicode="&#xfeff;" 
 />
    <glyph glyph-name="uni200C" unicode="&#x200c;" 
d="M-54 -339v1952h108v-1952h-108z" />
    <glyph glyph-name="uni200D" unicode="&#x200d;" 
d="M74 1323l225 -220l-75 -73l-170 169v-1537h-108v1537l-170 -169l-75 73l225 220l-225 217l75 73l224 -220l224 220l75 -74z" />
    <glyph glyph-name="endash.guru" unicode="&#x2013;" horiz-adv-x="1024" 
d="M82 535v168h860v-168h-860zM453 1274z" />
    <glyph glyph-name="emdash.guru" unicode="&#x2014;" horiz-adv-x="2048" 
d="M82 535v168h1884v-168h-1884zM453 1274z" />
    <glyph glyph-name="quoteleft.guru" unicode="&#x2018;" horiz-adv-x="639" 
d="M182 992l-14 22q54 208 176 479h137q-62 -255 -100 -501h-199zM453 1274zM448 1836z" />
    <glyph glyph-name="quoteright.guru" unicode="&#x2019;" horiz-adv-x="638" 
d="M465 1493l14 -22q-50 -197 -176 -479h-137q70 303 100 501h199zM453 1274zM448 1836z" />
    <glyph glyph-name="quotedblleft.guru" unicode="&#x201c;" horiz-adv-x="1023" 
d="M568 992l-14 22q54 208 176 479h137q-62 -255 -100 -501h-199zM183 992l-14 22q54 208 176 479h137q-62 -255 -100 -501h-199zM453 1274zM448 1836z" />
    <glyph glyph-name="quotedblright.guru" unicode="&#x201d;" horiz-adv-x="1023" 
d="M465 1493l14 -22q-50 -197 -176 -479h-137q70 303 100 501h199zM850 1493l14 -22q-50 -197 -176 -479h-137q70 303 100 501h199zM453 1274zM448 1836z" />
    <glyph glyph-name="ellipsis.guru" unicode="&#x2026;" horiz-adv-x="1647" 
d="M274 250q61 0 94 -35.5t33 -103.5q0 -67 -33.5 -103.5t-93.5 -36.5t-93.5 37t-33.5 103q0 67 33 103t94 36zM823 250q61 0 94 -35.5t33 -103.5q0 -67 -33.5 -103.5t-93.5 -36.5t-93.5 37t-33.5 103q0 67 33 103t94 36zM1372 250q61 0 94 -35.5t33 -103.5
q0 -67 -33.5 -103.5t-93.5 -36.5q-54 0 -90.5 33t-36.5 107q0 70 33.5 104.5t93.5 34.5z" />
    <glyph glyph-name="uni20B9.guru" unicode="&#x20b9;" horiz-adv-x="1128" 
d="M718 824q-14 -133 -104.5 -212t-257.5 -104l433 -508h-210l-432 505l20 146h92q104 0 159.5 17.5t88.5 57t44 98.5h-404v146h402q-11 53 -43 90.5t-81.5 52.5t-141.5 15h-136v146h864v-146h-384q71 -52 90 -158h294v-146h-293z" />
    <glyph glyph-name="minus.guru" unicode="&#x2212;" horiz-adv-x="1128" 
d="M102 585v150h924v-150h-924zM453 1274z" />
    <glyph glyph-name="uni25CC" unicode="&#x25cc;" horiz-adv-x="1044" 
d="M581 995q0 -30 -14.5 -44.5t-45.5 -14.5q-58 0 -58 59q0 30 14 44t44 14q31 0 45.5 -14t14.5 -44zM316 893q0 -59 -59 -59t-59 59t59 59t59 -59zM846 893q0 -59 -59 -59t-59 59t59 59t59 -59zM938 638q0 -59 -60 -59q-59 0 -59 59t59 59q60 0 60 -59zM224 638
q0 -59 -59 -59t-59 59t59 59t59 -59zM316 383q0 -59 -59 -59t-59 59t59 59t59 -59zM846 383q0 -59 -59 -59t-59 59t59 59t59 -59zM581 281q0 -30 -14.5 -44.5t-45.5 -14.5q-58 0 -58 59t58 59q31 0 45.5 -14.5t14.5 -44.5z" />
    <glyph glyph-name="U262C" unicode="&#x262c;" horiz-adv-x="1944" 
d="M1205 1700v-57q-49 0 -70.5 -25.5t-31.5 -81.5q165 -49 263 -181.5t98 -296.5q0 -146 -79.5 -270.5t-213.5 -188.5q20 -39 43 -74q-64 -29 -170 -42v-160q173 13 303 98t200.5 228.5t70.5 309.5q0 154 -27.5 271.5t-97.5 239.5q140 -92 233.5 -269t93.5 -390
q0 -239 -63 -453.5t-186 -383.5q-9 117 -80 188t-182 71q-60 0 -122 -23q116 -95 189 -200t73 -166q0 -50 -25.5 -80.5t-73.5 -30.5q-49 0 -78 30t-29 75q0 21 4 35.5t17 34.5q4 7 4 15q0 43 -43 109.5t-113 140.5q-68 -54 -68 -122q0 -74 39 -150q38 -76 38 -146
q0 -67 -44.5 -114t-104.5 -47q-59 0 -103 47t-44 114q0 71 38 146t38 150q0 68 -68 122q-70 -74 -113 -140.5t-43 -109.5q0 -8 4 -15q13 -20 17 -34.5t4 -35.5q0 -45 -29 -75t-78 -30q-48 0 -73.5 30.5t-25.5 80.5q0 61 71.5 164.5t191.5 201.5q-65 23 -122 23
q-112 0 -183 -71t-80 -188q-124 173 -187 385.5t-63 451.5q0 213 94 390t235 269q-69 -119 -97 -238.5t-28 -272.5q0 -167 70 -309.5t200.5 -228.5t302.5 -98v160q-105 13 -170 42q31 47 43 74q-134 64 -213.5 188.5t-79.5 270.5q0 164 98.5 296.5t262.5 181.5
q-10 57 -32 82t-70 25v57q35 0 63 12.5t59 38.5q33 28 54.5 39.5t47.5 11.5q23 0 45.5 -10t64.5 -41q33 -24 63.5 -37.5t67.5 -13.5zM825 718q59 172 59 397q0 153 -19 293q-118 -38 -187 -134t-69 -216q0 -110 58 -202t158 -138zM1080 1408q-18 -132 -18 -293
q0 -231 59 -397q99 45 157 136.5t58 203.5q0 120 -69 216t-187 134z" />
    <glyph glyph-name="uniA830" unicode="&#xa830;" horiz-adv-x="485" 
d="M160 0v1274h165v-1274h-165z" />
    <glyph glyph-name="uniA831" unicode="&#xa831;" horiz-adv-x="895" 
d="M570 0v1274h165v-1274h-165zM160 0v1274h165v-1274h-165z" />
    <glyph glyph-name="uniA832" unicode="&#xa832;" horiz-adv-x="1305" 
d="M570 0v1274h165v-1274h-165zM160 0v1274h165v-1274h-165zM980 0v1274h165v-1274h-165z" />
    <glyph glyph-name="uniA833" unicode="&#xa833;" horiz-adv-x="1274" 
d="M81 1005l1072 268l40 -163l-1071 -267z" />
    <glyph glyph-name="uniA834" unicode="&#xa834;" horiz-adv-x="1274" 
d="M81 1005l1072 268l40 -163l-1071 -267zM81 602l1072 268l40 -163l-1071 -267z" />
    <glyph glyph-name="uniA835" unicode="&#xa835;" horiz-adv-x="1274" 
d="M81 1005l1072 268l40 -163l-1071 -267zM81 602l1072 268l40 -163l-1071 -267zM81 198l1072 268l40 -163l-1071 -267z" />
    <glyph glyph-name="uniA836" unicode="&#xa836;" horiz-adv-x="942" 
d="M472 342q-148 0 -241.5 88t-93.5 227q0 133 92.5 222.5t242.5 89.5q98 0 174 -40.5t117.5 -112t41.5 -159.5q0 -136 -92.5 -225.5t-240.5 -89.5zM471 827q-83 0 -130.5 -48t-47.5 -122q0 -79 48 -125.5t130 -46.5t130 46.5t48 125.5q0 74 -49 122t-129 48zM427 1274z" />
    <glyph glyph-name="uniA837" unicode="&#xa837;" horiz-adv-x="1042" 
d="M833 1008q-129 -102 -296 -216q117 -25 182.5 -105.5t65.5 -194.5q0 -136 -92.5 -225.5t-240.5 -89.5t-241.5 88.5t-93.5 226.5q0 93 48.5 162.5t158.5 154.5l603 467l95 -119zM451 662q-83 0 -130.5 -47.5t-47.5 -122.5q0 -79 47.5 -126t130.5 -47q82 0 130 47t48 126
q0 74 -49 122t-129 48zM427 804zM1027 1134z" />
    <glyph glyph-name="uniA838" unicode="&#xa838;" horiz-adv-x="628" 
d="M-310 -213q106 -22 181 -22q164 0 265.5 60t150.5 188t49 356q0 197 -34.5 432.5t-95.5 458.5l166 37q62 -221 97 -477t35 -458q0 -275 -68.5 -434.5t-208 -235.5t-352.5 -76q-89 0 -196 22z" />
    <glyph glyph-name="uniA839" unicode="&#xa839;" horiz-adv-x="691" 
d="M-317 -332q41 -6 105 -6q187 0 315 44.5t192.5 134t64.5 218.5q0 99 -30 199t-83 214q-56 119 -85 210t-29 180q0 165 127 273.5t382 161.5l49 -155q-205 -38 -299 -105.5t-94 -173.5q0 -64 25 -138t90 -214q51 -114 82.5 -226t31.5 -224q0 -261 -185 -406.5t-547 -145.5
q-59 0 -116 6zM637 1151zM-120 -555z" />
    <glyph glyph-name="unuktaguru" horiz-adv-x="1356" 
d="M1287 1128q-6 -180 -88.5 -302t-240.5 -172q93 -45 144 -124t51 -171q0 -172 -107.5 -265.5t-309.5 -93.5q-293 0 -447 219t-154 644v38q0 123 14 227h-164v146h191q65 239 219 358t377 119q213 0 347.5 -123t161.5 -354h90v-146h-84zM349 1274h767q-22 158 -113.5 242.5
t-243.5 84.5q-153 0 -257 -83t-153 -244zM303 869q0 -68 3 -128h269q147 0 244 14t164 58.5t102.5 118.5t37.5 196h-804q-16 -99 -16 -240v-19zM322 595q34 -223 135.5 -334.5t269.5 -111.5q132 0 195 51t63 161q0 46 -14.5 83.5t-39.5 62t-70.5 47.5t-118 32t-200.5 9h-220
zM836 1836zM345 -268l29 138q89 -51 176.5 -74t186.5 -23t186.5 23t177.5 74l29 -138q-82 -51 -184.5 -78t-208.5 -27t-207.5 27t-184.5 78zM738 0zM742 -555zM191 97q49 0 81 -32.5t32 -84.5q0 -53 -31 -85t-82 -32q-50 0 -81.5 32.5t-31.5 84.5t32 84.5t81 32.5zM191 255z
" />
    <glyph glyph-name="uunuktaguru" horiz-adv-x="1356" 
d="M1287 1128q-6 -180 -88.5 -302t-240.5 -172q93 -45 144 -124t51 -171q0 -172 -107.5 -265.5t-309.5 -93.5q-293 0 -447 219t-154 644v38q0 123 14 227h-164v146h191q65 239 219 358t377 119q213 0 347.5 -123t161.5 -354h90v-146h-84zM349 1274h767q-22 158 -113.5 242.5
t-243.5 84.5q-153 0 -257 -83t-153 -244zM303 869q0 -68 3 -128h269q147 0 244 14t164 58.5t102.5 118.5t37.5 196h-804q-16 -99 -16 -240v-19zM322 595q34 -223 135.5 -334.5t269.5 -111.5q132 0 195 51t63 161q0 46 -14.5 83.5t-39.5 62t-70.5 47.5t-118 32t-200.5 9h-220
zM836 1836zM355 -215l29 125q90 -52 177 -74.5t186 -22.5q100 0 186.5 22.5t177.5 74.5l29 -125q-82 -51 -184.5 -78t-208.5 -27t-208 27t-184 78zM355 -483l29 126q90 -52 177 -74.5t186 -22.5q100 0 186 22.5t178 74.5l29 -126q-83 -51 -185 -78t-208 -27t-207.5 27
t-184.5 78zM748 0zM762 -806zM191 97q49 0 81 -32.5t32 -84.5q0 -53 -31 -85t-82 -32q-50 0 -81.5 32.5t-31.5 84.5t32 84.5t81 32.5zM191 255z" />
    <glyph glyph-name="kanuktaguru" horiz-adv-x="1273" 
d="M1000 0q-9 119 -30 222t-54 189q-85 -109 -198.5 -163.5t-247.5 -54.5q-185 0 -291.5 95t-106.5 260q0 163 112 259.5t288 96.5q135 0 241 -47.5t192 -146.5q26 94 26 228q0 91 -20 190h-926v146h1303v-146h-211q6 -28 12.5 -88.5t6.5 -100.5q0 -214 -85 -378
q58 -99 96.5 -239t58.5 -322h-166zM848 555q-74 101 -164.5 152t-198.5 51q-115 0 -180 -55.5t-65 -155.5q0 -97 62 -152.5t169 -55.5q120 0 214 54t163 162zM1050 1274zM216 147q49 0 81 -32.5t32 -84.5q0 -53 -31 -85t-82 -32q-50 0 -81.5 32.5t-31.5 84.5t32 84.5
t81 32.5zM216 305z" />
    <glyph glyph-name="ghanuktaguru" horiz-adv-x="1550" 
d="M1565 1274v-146h-198v-1128h-165v307q-65 -35 -150 -35q-102 0 -173.5 46t-111.5 138q-46 -92 -120.5 -138t-176.5 -46q-147 0 -232 90t-160 319q76 64 109.5 126t33.5 134q0 45 -13 96t-36 91h-187v146h305q44 -80 69 -167t25 -165q0 -176 -123 -281q33 -120 88 -180
t132 -60q80 0 135 57t84 172q-33 232 -33 392q0 100 29 151.5t85 51.5q57 0 84.5 -48.5t27.5 -155.5q0 -152 -43 -396q29 -112 83 -168t132 -56q49 0 81 17t56 48v788h363zM386 134q49 0 81 -32.5t32 -84.5q0 -53 -31 -85t-82 -32q-50 0 -81.5 32.5t-31.5 84.5t32 84.5
t81 32.5zM386 292z" />
    <glyph glyph-name="nganuktaguru" horiz-adv-x="1185" 
d="M833 330q55 49 83 107.5t28 125.5q0 64 -31 103t-89.5 56.5t-206.5 17.5h-374l-60 60v328h-198v146h1215v-146h-852v-242h313q166 0 255 -31.5t141 -101t52 -184.5q0 -100 -49.5 -194.5t-140.5 -164.5q39 -59 97 -184l-159 -43q-37 90 -72 149q-69 -29 -144.5 -43
t-157.5 -14q-195 0 -296 66.5t-101 193.5q0 98 79.5 161.5t218.5 63.5q128 0 238 -54t211 -176zM701 253q-69 80 -148.5 120.5t-168.5 40.5q-66 0 -99.5 -23t-33.5 -63q0 -58 60 -84.5t177 -26.5q58 0 111 9t102 27zM848 0zM230 13q49 0 81 -32.5t32 -84.5q0 -53 -31 -85
t-82 -32q-50 0 -81.5 32.5t-31.5 84.5t32 84.5t81 32.5zM230 171z" />
    <glyph glyph-name="canuktaguru" horiz-adv-x="1345" 
d="M1162 1128v-775q0 -134 -43 -207t-118.5 -109.5t-198.5 -36.5q-242 0 -406 170.5t-190 425.5h-35q-52 0 -79 20.5t-27 57.5q0 46 34.5 100.5t88 93t96.5 38.5q42 0 65 -29t23 -85v-51h625v387h-1012v146h1375v-146h-198zM997 596h-625q11 -121 73.5 -225t159 -163
t203.5 -59q83 0 122.5 23.5t53 68t13.5 134.5v221zM897 0zM234 145q49 0 81 -32.5t32 -84.5q0 -53 -31 -85t-82 -32q-50 0 -81.5 32.5t-31.5 84.5t32 84.5t81 32.5zM234 303z" />
    <glyph glyph-name="chanuktaguru" horiz-adv-x="1299" 
d="M803 587q213 0 315 -76t102 -211q0 -158 -139 -229t-434 -71q-287 0 -419.5 71t-132.5 224q0 63 38.5 115t115.5 86q-72 32 -108 82.5t-36 119.5q0 77 47 133.5t119 80.5t227 24h431v192h-944v146h1329v-146h-220v-278l-60 -60h-565q-113 0 -156 -23.5t-43 -74.5
q0 -54 46 -79.5t156 -25.5h331zM581 140v307h-78q-125 0 -184.5 -41t-59.5 -108q0 -81 80 -117.5t242 -40.5zM736 447v-307q167 4 243.5 41.5t76.5 120.5q0 44 -27.5 76t-81.5 50.5t-170 18.5h-41zM1094 1274zM649 0zM921 0zM290 -52q49 0 81 -32.5t32 -84.5q0 -53 -31 -85
t-82 -32q-50 0 -81.5 32.5t-31.5 84.5t32 84.5t81 32.5zM290 106z" />
    <glyph glyph-name="jhanuktaguru" horiz-adv-x="1216" 
d="M594 310q171 13 257 65.5t86 144.5q0 94 -84 137t-273 43q-227 0 -467 -80l-51 136q122 39 267 64q-63 51 -100 128t-49 180h-195v146h1246v-146h-181q-15 -112 -57.5 -193t-113.5 -131q113 -38 170 -109t57 -175q0 -128 -93.5 -214.5t-271.5 -120.5q74 -46 144 -107
l-113 -106q-142 132 -234 184q-39 -3 -118 -3q-119 0 -185 33t-66 91q0 46 41.5 71t116.5 25q63 0 122.5 -12.5t144.5 -50.5zM619 843q49 0 106.5 20.5t99.5 83t58 181.5h-536q9 -80 32.5 -136.5t63 -90.5t83 -46t93.5 -12zM420 299zM892 118zM314 63q49 0 81 -32.5
t32 -84.5q0 -53 -31 -85t-82 -32q-50 0 -81.5 32.5t-31.5 84.5t32 84.5t81 32.5zM314 221z" />
    <glyph glyph-name="nyanuktaguru" horiz-adv-x="1162" 
d="M1009 548v-146h-419q-116 0 -154 -30.5t-38 -82.5q0 -71 66 -106t199 -35q167 0 320 48l44 -150q-167 -46 -384 -46q-199 0 -304.5 73t-105.5 201q0 94 71 151q-101 24 -164.5 87.5t-63.5 175.5q0 93 54.5 153t155.5 80q-66 116 -135 207h-166v146h1192v-146h-198v-280
l-60 -60h-483q-71 0 -111 -8.5t-62 -34t-22 -63.5q0 -54 35 -83t99 -40t204 -11h430zM348 1128q68 -104 112 -194h354v194h-466zM598 0zM251 -5q49 0 81 -32.5t32 -84.5q0 -53 -31 -85t-82 -32q-50 0 -81.5 32.5t-31.5 84.5t32 84.5t81 32.5zM251 153z" />
    <glyph glyph-name="ttanuktaguru" horiz-adv-x="1178" 
d="M830 863v265h-845v146h1208v-146h-198v-351l-60 -60h-78q-152 0 -223.5 -8t-131 -34.5t-117 -74.5t-128.5 -135q86 -169 181.5 -242t221.5 -73q98 0 175.5 20t208.5 80l57 -145q-122 -57 -224 -81t-217 -24q-196 0 -335 111t-255 368q131 172 235 251t202.5 106t249.5 27
h73zM597 0zM254 -17q49 0 81 -32.5t32 -84.5q0 -53 -31 -85t-82 -32q-50 0 -81.5 32.5t-31.5 84.5t32 84.5t81 32.5zM254 141z" />
    <glyph glyph-name="tthanuktaguru" horiz-adv-x="1352" 
d="M594 898v230h-609v146h1382v-146h-609v-230q249 -58 381.5 -191t132.5 -294q0 -205 -150.5 -309t-445.5 -104q-293 0 -444.5 104.5t-151.5 308.5q0 164 134 295.5t380 189.5zM676 775q-209 -48 -320.5 -145t-111.5 -222q0 -129 103.5 -193.5t328.5 -64.5
q223 0 327.5 65.5t104.5 194.5q0 122 -113 219.5t-319 145.5zM758 1274zM914 0zM664 752zM248 -80q49 0 81 -32.5t32 -84.5q0 -53 -31 -85t-82 -32q-50 0 -81.5 32.5t-31.5 84.5t32 84.5t81 32.5zM248 78z" />
    <glyph glyph-name="ddhanuktaguru" horiz-adv-x="1323" 
d="M207 656h-36q-52 0 -79 20.5t-27 57.5q0 46 34.5 100.5t88 93t96.5 38.5q42 0 65 -29t23 -85v-51h603v327h-990v146h1353v-146h-198v-412l-60 -60h-708v-22q0 -116 29.5 -206t89.5 -154q98 105 212.5 158t245.5 53q136 0 212.5 -63t76.5 -162q0 -127 -104.5 -193.5
t-307.5 -66.5q-191 0 -331 79.5t-214 226t-74 332.5v18zM606 191q49 -25 106.5 -37t122.5 -12q121 0 179.5 26.5t58.5 84.5q0 40 -34.5 63t-104.5 23q-85 0 -167 -37t-161 -111zM252 97q49 0 81 -32.5t32 -84.5q0 -53 -31 -85t-82 -32q-50 0 -81.5 32.5t-31.5 84.5t32 84.5
t81 32.5zM252 255z" />
    <glyph glyph-name="nnanuktaguru" horiz-adv-x="1274" 
d="M702 747l61 122q-198 121 -346 259h-432v146h1304v-146h-653q215 -163 566 -313l-72 -140q-126 57 -231 115l-86 -169l-76 -32q-74 30 -158 30q-86 0 -157 -38t-162 -144q101 -166 204.5 -226.5t248.5 -60.5q113 0 200 20t236 80l57 -145q-132 -57 -245 -81t-241 -24
q-229 0 -378 99.5t-272 349.5q138 178 251 248.5t244 70.5q72 0 137 -21zM254 -17q49 0 81 -32.5t32 -84.5q0 -53 -31 -85t-82 -32q-50 0 -81.5 32.5t-31.5 84.5t32 84.5t81 32.5zM254 141z" />
    <glyph glyph-name="tanuktaguru" horiz-adv-x="1110" 
d="M26 132l67 150q98 -64 199.5 -98.5t215.5 -34.5q152 0 237.5 61t85.5 177q0 92 -57.5 161t-171.5 115q-125 -24 -231 -24q-229 0 -229 116q0 104 179 104q148 0 297 -54q82 33 123 93.5t41 149.5q0 44 -7 80h-790v146h1140v-146h-183q6 -43 6 -82q0 -105 -40 -177.5
t-136 -127.5q122 -67 175 -154t53 -202q0 -179 -132.5 -282t-355.5 -103q-131 0 -252.5 33t-233.5 99zM702 0zM219 -51q49 0 81 -32.5t32 -84.5q0 -53 -31 -85t-82 -32q-50 0 -81.5 32.5t-31.5 84.5t32 84.5t81 32.5zM219 107z" />
    <glyph glyph-name="thanuktaguru" horiz-adv-x="1224" 
d="M876 338q-80 -38 -148.5 -52.5t-146.5 -14.5q-168 0 -294 102.5t-209 307.5q76 64 109.5 126t33.5 134q0 45 -13 96t-36 91h-187v146h1254v-146h-198v-1128h-165v338zM347 1128q37 -98 37 -186q0 -35 -5 -70h497v256h-529zM876 513v218h-551q-19 -29 -54 -62
q64 -132 137.5 -190t173.5 -58q73 0 141 20t153 72zM340 216q49 0 81 -32.5t32 -84.5q0 -53 -31 -85t-82 -32q-50 0 -81.5 32.5t-31.5 84.5t32 84.5t81 32.5z" />
    <glyph glyph-name="danuktaguru" horiz-adv-x="1263" 
d="M372 741h543v387h-930v146h1293v-146h-198v-472l-60 -60h-648q1 -223 97 -334.5t287 -111.5q96 0 180.5 22.5t173.5 67.5l57 -146q-187 -94 -414 -94q-263 0 -404.5 151t-141.5 423v22h-36q-52 0 -79 20.5t-27 57.5q0 46 34.5 100.5t88 93t96.5 38.5q42 0 65 -29t23 -85
v-51zM241 84q49 0 81 -32.5t32 -84.5q0 -53 -31 -85t-82 -32q-50 0 -81.5 32.5t-31.5 84.5t32 84.5t81 32.5zM241 242z" />
    <glyph glyph-name="dhanuktaguru" horiz-adv-x="1214" 
d="M866 333q-135 -62 -285 -62q-168 0 -294 102.5t-209 307.5q76 64 109.5 126t33.5 134q0 45 -13 96t-36 91h-187v146h1244v-146h-198v-1128h-165v333zM347 1128q37 -98 37 -186q0 -171 -113 -273q64 -132 137.5 -190t173.5 -58q77 0 145.5 22t138.5 64v621h-519zM340 216
q49 0 81 -32.5t32 -84.5q0 -53 -31 -85t-82 -32q-50 0 -81.5 32.5t-31.5 84.5t32 84.5t81 32.5z" />
    <glyph glyph-name="nanuktaguru" horiz-adv-x="1328" 
d="M664 775q-204 -52 -312 -150t-108 -226q0 -122 66 -186t191 -64l-10 -149q-131 0 -223 51t-140 144.5t-48 201.5q0 170 130.5 303.5t371.5 197.5v230h-597v146h1358v-146h-597v-230q242 -64 372 -197.5t130 -303.5q0 -106 -46.5 -199t-139 -145.5t-225.5 -52.5l-10 149
q125 0 191 64t66 186q0 128 -108 226t-312 150zM746 1274zM664 0zM930 0zM662 752zM248 -80q49 0 81 -32.5t32 -84.5q0 -53 -31 -85t-82 -32q-50 0 -81.5 32.5t-31.5 84.5t32 84.5t81 32.5zM248 78z" />
    <glyph glyph-name="panuktaguru" horiz-adv-x="1214" 
d="M866 333q-135 -62 -285 -62q-168 0 -294 102.5t-209 307.5q76 64 109.5 126t33.5 134q0 45 -13 96t-36 91h-187v146h305q44 -80 69 -167t25 -165q0 -171 -113 -273q64 -132 137.5 -190t173.5 -58q74 0 140 20t144 66v767h363v-146h-198v-1128h-165v333zM340 216
q49 0 81 -32.5t32 -84.5q0 -53 -31 -85t-82 -32q-50 0 -81.5 32.5t-31.5 84.5t32 84.5t81 32.5z" />
    <glyph glyph-name="banuktaguru" horiz-adv-x="1246" 
d="M1261 1274v-146h-198v-1128h-165v193q-123 -51 -270 -51q-184 0 -322 92t-222 273q42 61 109.5 114.5t159.5 99.5q-117 50 -175 151.5t-58 255.5h-135v146h1276zM898 802v326h-610q0 -119 35 -191t94.5 -103.5t181.5 -31.5h299zM898 352v309h-258q-85 0 -143.5 -16.5
t-114 -52.5t-105.5 -94q60 -106 145 -156t206 -50q154 0 270 60zM256 145q49 0 81 -32.5t32 -84.5q0 -53 -31 -85t-82 -32q-50 0 -81.5 32.5t-31.5 84.5t32 84.5t81 32.5zM256 303z" />
    <glyph glyph-name="bhanuktaguru" horiz-adv-x="1182" 
d="M839 814q14 34 21.5 69.5t7.5 73.5q0 102 -31 171h-852v146h1212v-146h-190q23 -72 23 -180q0 -71 -20 -133.5t-59 -115.5q48 -67 72.5 -137.5t24.5 -145.5q0 -202 -136 -309t-389 -107q-137 0 -261 33t-236 99l67 150q109 -71 211.5 -102.5t223.5 -31.5q179 0 268.5 69
t89.5 207q0 43 -10.5 84t-30.5 80q-72 -63 -165.5 -94t-207.5 -31q-165 0 -255.5 64.5t-90.5 177.5q0 110 89 176.5t250 66.5q109 0 202.5 -33.5t171.5 -100.5zM756 698q-63 52 -135.5 78t-153.5 26q-88 0 -132 -26t-44 -69q0 -98 179 -98q91 0 162.5 22t123.5 67zM535 0z
M759 0zM219 -51q49 0 81 -32.5t32 -84.5q0 -53 -31 -85t-82 -32q-50 0 -81.5 32.5t-31.5 84.5t32 84.5t81 32.5zM219 107z" />
    <glyph glyph-name="manuktaguru" horiz-adv-x="1220" 
d="M267 1274q63 -162 95 -314t33 -280h477v594h363v-146h-198v-1128h-165v534h-479q-9 -183 -55.5 -276t-121.5 -93q-51 0 -74.5 29.5t-23.5 89.5q0 67 32 152.5t93 152.5q-14 289 -105 539h-153v146h282zM562 216q49 0 81 -32.5t32 -84.5q0 -53 -31 -85t-82 -32
q-50 0 -81.5 32.5t-31.5 84.5t32 84.5t81 32.5z" />
    <glyph glyph-name="yanuktaguru" horiz-adv-x="1424" 
d="M1076 613h-266v-334q-101 -33 -229 -33q-168 0 -294 105.5t-209 317.5q77 68 110 131t33 136q0 46 -13 98.5t-36 93.5h-187v146h1454v-146h-198v-1128h-165v613zM645 759h431v369h-730q38 -102 38 -193q0 -174 -113 -278q63 -137 136.5 -199t174.5 -62q31 0 63 4v359z
M340 193q49 0 81 -32.5t32 -84.5q0 -53 -31 -85t-82 -32q-50 0 -81.5 32.5t-31.5 84.5t32 84.5t81 32.5zM340 351z" />
    <glyph glyph-name="ranuktaguru" horiz-adv-x="1185" 
d="M837 836v292h-852v146h1215v-146h-198v-775q0 -137 -44.5 -209.5t-121 -108t-201.5 -35.5q-131 0 -253.5 62.5t-214 192.5t-91.5 273q0 107 56 177t149.5 100.5t275.5 30.5h280zM837 690h-260q-133 0 -198 -13t-101.5 -51.5t-36.5 -108.5q0 -83 65.5 -175t155 -142.5
t180.5 -50.5q85 0 125 23t55 65t15 138v315zM737 0zM223 15q49 0 81 -32.5t32 -84.5q0 -53 -31 -85t-82 -32q-50 0 -81.5 32.5t-31.5 84.5t32 84.5t81 32.5zM223 173z" />
    <glyph glyph-name="vanuktaguru" horiz-adv-x="1162" 
d="M1009 548v-146h-365q-81 0 -118.5 -2.5t-66.5 -15t-45 -37t-16 -58.5q0 -71 66 -106t199 -35q167 0 320 48l44 -150q-167 -46 -384 -46q-199 0 -304.5 73t-105.5 201q0 94 71 151q-101 24 -164.5 87.5t-63.5 175.5q0 67 29 117.5t83 81t121 39t180 8.5h325v194h-829v146
h1192v-146h-198v-280l-60 -60h-483q-71 0 -111 -8.5t-62 -34t-22 -63.5q0 -54 35 -83t99 -40t204 -11h430zM598 0zM251 -5q49 0 81 -32.5t32 -84.5q0 -53 -31 -85t-82 -32q-50 0 -81.5 32.5t-31.5 84.5t32 84.5t81 32.5zM251 153z" />
    <glyph glyph-name="hanuktaguru" horiz-adv-x="1180" 
d="M540 683q-35 4 -78 4q-118 0 -169.5 -42t-51.5 -127q0 -84 66 -177t155.5 -142.5t187.5 -49.5q78 0 115.5 24.5t52 65.5t14.5 136v753h-847v146h1210v-146h-198v-775q0 -144 -49 -217t-123.5 -104.5t-192.5 -31.5q-132 0 -255.5 66t-212 192t-88.5 270q0 100 44.5 169.5
t125.5 104t221 34.5q48 0 85 -6zM732 0zM223 15q49 0 81 -32.5t32 -84.5q0 -53 -31 -85t-82 -32q-50 0 -81.5 32.5t-31.5 84.5t32 84.5t81 32.5zM223 173z" />
    <glyph glyph-name="rasubscriptguru" 
d="M-29 -548q-115 165 -247 232q-39 -40 -86.5 -60t-103.5 -20q-90 0 -137.5 32.5t-47.5 95.5q0 61 49 92.5t140 31.5q49 0 111 -11q3 20 3 41v114h165v-35q0 -117 -21 -164q149 -68 297 -269zM71 -402zM-274 -345z" />
    <glyph glyph-name="hasubscriptguru" 
d="M-183 -387q0 -106 -28.5 -154t-77.5 -72.5t-136 -24.5q-154 0 -259 92t-105 216q0 51 31 92.5t90.5 64t185.5 22.5l-5 -130q-67 0 -93 -5.5t-42 -21.5t-16 -45q0 -54 61 -107t133 -53q43 0 62.5 12t26.5 31.5t7 56.5v413h165v-387z" />
    <glyph glyph-name="vasubscriptguru" 
d="M-175 -278v-117h-259q-41 0 -57 -12.5t-16 -34.5q0 -67 155 -67q89 0 176 22l34 -112q-94 -28 -233 -28q-132 0 -199.5 43t-67.5 121q0 50 29 83q-69 18 -103.5 59.5t-34.5 106.5q0 54 30 91t79.5 50.5t140.5 13.5h153v59h165v-127l-49 -49h-299q-40 0 -52.5 -4t-22 -14
t-9.5 -29q0 -26 21 -40.5t100 -14.5h319z" />
    <glyph glyph-name="kaprehalfguru" horiz-adv-x="1273" 
d="M1000 0q-9 119 -30 222t-54 189q-85 -109 -198.5 -163.5t-247.5 -54.5q-185 0 -291.5 95t-106.5 260q0 163 112 259.5t288 96.5q135 0 241 -47.5t192 -146.5q26 94 26 228q0 91 -20 190h-926v146h1303v-146h-211q6 -28 12.5 -88.5t6.5 -100.5q0 -214 -85 -378
q58 -99 96.5 -239t58.5 -322h-166zM848 555q-74 101 -164.5 152t-198.5 51q-115 0 -180 -55.5t-65 -155.5q0 -97 62 -152.5t169 -55.5q120 0 214 54t163 162zM1050 1274zM1396 -503q-51 129 -139.5 202t-234.5 73h-26q-10 0 -19 -1l-9 155q18 2 51 2q192 0 320.5 -99
t198.5 -289z" />
    <glyph glyph-name="khaprehalfguru" horiz-adv-x="1224" 
d="M876 337q-138 -66 -295 -66q-168 0 -294 102.5t-209 307.5q76 64 109.5 126t33.5 134q0 45 -13 96t-36 91h-187v146h305q44 -80 69 -167t25 -165v-13h492v345h363v-146h-198v-1128h-165v337zM876 513v275h-520q-27 -66 -85 -119q64 -132 137.5 -190t173.5 -58
q73 0 141 20t153 72zM1278 -503q-51 129 -139.5 202t-234.5 73h-26q-10 0 -19 -1l-9 155q18 2 51 2q192 0 320.5 -99t198.5 -289z" />
    <glyph glyph-name="gaprehalfguru" horiz-adv-x="1536" 
d="M718 836v292h-733v146h1566v-146h-198v-1128h-165v1128h-305v-790q0 -136 -40.5 -204.5t-107 -101t-172.5 -32.5q-118 0 -224.5 65.5t-184.5 192.5t-78 270q0 97 50.5 173t137.5 105.5t242 29.5h212zM718 690h-179q-121 0 -177.5 -11.5t-88.5 -50t-32 -111.5
q0 -81 51 -173.5t123.5 -145t146.5 -52.5q65 0 96 19t45.5 57.5t14.5 137.5v330zM1590 -503q-51 129 -139.5 202t-234.5 73h-26q-10 0 -19 -1l-9 155q18 2 51 2q192 0 320.5 -99t198.5 -289z" />
    <glyph glyph-name="ghaprehalfguru" horiz-adv-x="1550" 
d="M1565 1274v-146h-198v-1128h-165v307q-65 -35 -150 -35q-102 0 -173.5 46t-111.5 138q-46 -92 -120.5 -138t-176.5 -46q-147 0 -232 90t-160 319q76 64 109.5 126t33.5 134q0 45 -13 96t-36 91h-187v146h305q44 -80 69 -167t25 -165q0 -176 -123 -281q33 -120 88 -180
t132 -60q80 0 135 57t84 172q-33 232 -33 392q0 100 29 151.5t85 51.5q57 0 84.5 -48.5t27.5 -155.5q0 -152 -43 -396q29 -112 83 -168t132 -56q49 0 81 17t56 48v788h363zM1604 -503q-51 129 -139.5 202t-234.5 73h-26q-10 0 -19 -1l-9 155q18 2 51 2q192 0 320.5 -99
t198.5 -289z" />
    <glyph glyph-name="ngaprehalfguru" horiz-adv-x="1185" 
d="M833 330q55 49 83 107.5t28 125.5q0 64 -31 103t-89.5 56.5t-206.5 17.5h-374l-60 60v328h-198v146h1215v-146h-852v-242h313q166 0 255 -31.5t141 -101t52 -184.5q0 -100 -49.5 -194.5t-140.5 -164.5q39 -59 97 -184l-159 -43q-37 90 -72 149q-69 -29 -144.5 -43
t-157.5 -14q-195 0 -296 66.5t-101 193.5q0 98 79.5 161.5t218.5 63.5q128 0 238 -54t211 -176zM701 253q-69 80 -148.5 120.5t-168.5 40.5q-66 0 -99.5 -23t-33.5 -63q0 -58 60 -84.5t177 -26.5q58 0 111 9t102 27zM848 0zM1254 -503q-51 129 -139.5 202t-234.5 73h-26
q-10 0 -19 -1l-9 155q18 2 51 2q192 0 320.5 -99t198.5 -289z" />
    <glyph glyph-name="caprehalfguru" horiz-adv-x="1345" 
d="M1162 1128v-775q0 -134 -43 -207t-118.5 -109.5t-198.5 -36.5q-242 0 -406 170.5t-190 425.5h-35q-52 0 -79 20.5t-27 57.5q0 46 34.5 100.5t88 93t96.5 38.5q42 0 65 -29t23 -85v-51h625v387h-1012v146h1375v-146h-198zM997 596h-625q11 -121 73.5 -225t159 -163
t203.5 -59q83 0 122.5 23.5t53 68t13.5 134.5v221zM897 0zM1290 -503q-51 129 -139.5 202t-234.5 73h-26q-10 0 -19 -1l-9 155q18 2 51 2q192 0 320.5 -99t198.5 -289z" />
    <glyph glyph-name="chaprehalfguru" horiz-adv-x="1299" 
d="M803 587q213 0 315 -76t102 -211q0 -158 -139 -229t-434 -71q-287 0 -419.5 71t-132.5 224q0 63 38.5 115t115.5 86q-72 32 -108 82.5t-36 119.5q0 77 47 133.5t119 80.5t227 24h431v192h-944v146h1329v-146h-220v-278l-60 -60h-565q-113 0 -156 -23.5t-43 -74.5
q0 -54 46 -79.5t156 -25.5h331zM581 140v307h-78q-125 0 -184.5 -41t-59.5 -108q0 -81 80 -117.5t242 -40.5zM736 447v-307q167 4 243.5 41.5t76.5 120.5q0 44 -27.5 76t-81.5 50.5t-170 18.5h-41zM1094 1274zM649 0zM921 0zM1233 -503q-51 129 -139.5 202t-234.5 73h-26
q-10 0 -19 -1l-9 155q18 2 51 2q192 0 320.5 -99t198.5 -289z" />
    <glyph glyph-name="japrehalfguru" horiz-adv-x="1253" 
d="M382 741h523v387h-920v146h1283v-146h-198v-1128h-165v596h-523v-596h-165v596h-36q-52 0 -79 20.5t-27 57.5q0 46 34.5 100.5t88 93t96.5 38.5q42 0 65 -29t23 -85v-51zM1307 -503q-51 129 -139.5 202t-234.5 73h-26q-10 0 -19 -1l-9 155q18 2 51 2q192 0 320.5 -99
t198.5 -289z" />
    <glyph glyph-name="jhaprehalfguru" horiz-adv-x="1216" 
d="M594 310q171 13 257 65.5t86 144.5q0 94 -84 137t-273 43q-227 0 -467 -80l-51 136q122 39 267 64q-63 51 -100 128t-49 180h-195v146h1246v-146h-181q-15 -112 -57.5 -193t-113.5 -131q113 -38 170 -109t57 -175q0 -128 -93.5 -214.5t-271.5 -120.5q74 -46 144 -107
l-113 -106q-142 132 -234 184q-39 -3 -118 -3q-119 0 -185 33t-66 91q0 46 41.5 71t116.5 25q63 0 122.5 -12.5t144.5 -50.5zM619 843q49 0 106.5 20.5t99.5 83t58 181.5h-536q9 -80 32.5 -136.5t63 -90.5t83 -46t93.5 -12zM420 299zM892 118zM1074 -503q-51 129 -139.5 202
t-234.5 73h-26q-10 0 -19 -1l-9 155q18 2 51 2q192 0 320.5 -99t198.5 -289z" />
    <glyph glyph-name="nyaprehalfguru" horiz-adv-x="1162" 
d="M1009 548v-146h-419q-116 0 -154 -30.5t-38 -82.5q0 -71 66 -106t199 -35q167 0 320 48l44 -150q-167 -46 -384 -46q-199 0 -304.5 73t-105.5 201q0 94 71 151q-101 24 -164.5 87.5t-63.5 175.5q0 93 54.5 153t155.5 80q-66 116 -135 207h-166v146h1192v-146h-198v-280
l-60 -60h-483q-71 0 -111 -8.5t-62 -34t-22 -63.5q0 -54 35 -83t99 -40t204 -11h430zM348 1128q68 -104 112 -194h354v194h-466zM598 0zM1068 -503q-51 129 -139.5 202t-234.5 73h-26q-10 0 -19 -1l-9 155q18 2 51 2q192 0 320.5 -99t198.5 -289z" />
    <glyph glyph-name="ttaprehalfguru" horiz-adv-x="1178" 
d="M830 863v265h-845v146h1208v-146h-198v-351l-60 -60h-78q-152 0 -223.5 -8t-131 -34.5t-117 -74.5t-128.5 -135q86 -169 181.5 -242t221.5 -73q98 0 175.5 20t208.5 80l57 -145q-122 -57 -224 -81t-217 -24q-196 0 -335 111t-255 368q131 172 235 251t202.5 106t249.5 27
h73zM597 0zM1093 -503q-51 129 -139.5 202t-234.5 73h-26q-10 0 -19 -1l-9 155q18 2 51 2q192 0 320.5 -99t198.5 -289z" />
    <glyph glyph-name="tthaprehalfguru" horiz-adv-x="1352" 
d="M594 898v230h-609v146h1382v-146h-609v-230q249 -58 381.5 -191t132.5 -294q0 -205 -150.5 -309t-445.5 -104q-293 0 -444.5 104.5t-151.5 308.5q0 164 134 295.5t380 189.5zM676 775q-209 -48 -320.5 -145t-111.5 -222q0 -129 103.5 -193.5t328.5 -64.5
q223 0 327.5 65.5t104.5 194.5q0 122 -113 219.5t-319 145.5zM758 1274zM914 0zM664 752zM1116 -503q-51 129 -139.5 202t-234.5 73h-26q-10 0 -19 -1l-9 155q18 2 51 2q192 0 320.5 -99t198.5 -289z" />
    <glyph glyph-name="ddaprehalfguru" horiz-adv-x="1223" 
d="M856 223q44 34 66 81.5t22 109.5q0 82 -60.5 149.5t-169.5 99.5q-125 -24 -230 -24q-229 0 -229 116q0 104 179 104q148 0 297 -54q82 35 123 99.5t41 157.5q0 38 -4 66h-906v146h1253v-146h-183q6 -36 6 -67q0 -108 -41 -186t-136 -134q118 -61 173.5 -143t55.5 -193
q0 -192 -159.5 -298.5t-443.5 -106.5q-215 0 -326.5 66.5t-111.5 193.5q0 98 77.5 161.5t215.5 63.5q142 0 269 -68t222 -194zM718 162q-84 88 -170 132.5t-175 44.5q-69 0 -102.5 -22t-33.5 -62q0 -57 67.5 -85t202.5 -28q65 0 117.5 5t93.5 15zM576 0zM795 0zM996 -503
q-51 129 -139.5 202t-234.5 73h-26q-10 0 -19 -1l-9 155q18 2 51 2q192 0 320.5 -99t198.5 -289z" />
    <glyph glyph-name="ddhaprehalfguru" horiz-adv-x="1323" 
d="M207 656h-36q-52 0 -79 20.5t-27 57.5q0 46 34.5 100.5t88 93t96.5 38.5q42 0 65 -29t23 -85v-51h603v327h-990v146h1353v-146h-198v-412l-60 -60h-708v-22q0 -116 29.5 -206t89.5 -154q98 105 212.5 158t245.5 53q136 0 212.5 -63t76.5 -162q0 -127 -104.5 -193.5
t-307.5 -66.5q-191 0 -331 79.5t-214 226t-74 332.5v18zM606 191q49 -25 106.5 -37t122.5 -12q121 0 179.5 26.5t58.5 84.5q0 40 -34.5 63t-104.5 23q-85 0 -167 -37t-161 -111zM1270 -503q-51 129 -139.5 202t-234.5 73h-26q-10 0 -19 -1l-9 155q18 2 51 2q192 0 320.5 -99
t198.5 -289z" />
    <glyph glyph-name="nnaprehalfguru" horiz-adv-x="1274" 
d="M702 747l61 122q-198 121 -346 259h-432v146h1304v-146h-653q215 -163 566 -313l-72 -140q-126 57 -231 115l-86 -169l-76 -32q-74 30 -158 30q-86 0 -157 -38t-162 -144q101 -166 204.5 -226.5t248.5 -60.5q113 0 200 20t236 80l57 -145q-132 -57 -245 -81t-241 -24
q-229 0 -378 99.5t-272 349.5q138 178 251 248.5t244 70.5q72 0 137 -21zM1170 -503q-51 129 -139.5 202t-234.5 73h-26q-10 0 -19 -1l-9 155q18 2 51 2q192 0 320.5 -99t198.5 -289z" />
    <glyph glyph-name="taprehalfguru" horiz-adv-x="1110" 
d="M26 132l67 150q98 -64 199.5 -98.5t215.5 -34.5q152 0 237.5 61t85.5 177q0 92 -57.5 161t-171.5 115q-125 -24 -231 -24q-229 0 -229 116q0 104 179 104q148 0 297 -54q82 33 123 93.5t41 149.5q0 44 -7 80h-790v146h1140v-146h-183q6 -43 6 -82q0 -105 -40 -177.5
t-136 -127.5q122 -67 175 -154t53 -202q0 -179 -132.5 -282t-355.5 -103q-131 0 -252.5 33t-233.5 99zM702 0zM900 -503q-51 129 -139.5 202t-234.5 73h-26q-10 0 -19 -1l-9 155q18 2 51 2q192 0 320.5 -99t198.5 -289z" />
    <glyph glyph-name="thaprehalfguru" horiz-adv-x="1224" 
d="M876 338q-80 -38 -148.5 -52.5t-146.5 -14.5q-168 0 -294 102.5t-209 307.5q76 64 109.5 126t33.5 134q0 45 -13 96t-36 91h-187v146h1254v-146h-198v-1128h-165v338zM347 1128q37 -98 37 -186q0 -35 -5 -70h497v256h-529zM876 513v218h-551q-19 -29 -54 -62
q64 -132 137.5 -190t173.5 -58q73 0 141 20t153 72zM1278 -503q-51 129 -139.5 202t-234.5 73h-26q-10 0 -19 -1l-9 155q18 2 51 2q192 0 320.5 -99t198.5 -289z" />
    <glyph glyph-name="daprehalfguru" horiz-adv-x="1263" 
d="M372 741h543v387h-930v146h1293v-146h-198v-472l-60 -60h-648q1 -223 97 -334.5t287 -111.5q96 0 180.5 22.5t173.5 67.5l57 -146q-187 -94 -414 -94q-263 0 -404.5 151t-141.5 423v22h-36q-52 0 -79 20.5t-27 57.5q0 46 34.5 100.5t88 93t96.5 38.5q42 0 65 -29t23 -85
v-51zM1132 -503q-51 129 -139.5 202t-234.5 73h-26q-10 0 -19 -1l-9 155q18 2 51 2q192 0 320.5 -99t198.5 -289z" />
    <glyph glyph-name="dhaprehalfguru" horiz-adv-x="1214" 
d="M866 333q-135 -62 -285 -62q-168 0 -294 102.5t-209 307.5q76 64 109.5 126t33.5 134q0 45 -13 96t-36 91h-187v146h1244v-146h-198v-1128h-165v333zM347 1128q37 -98 37 -186q0 -171 -113 -273q64 -132 137.5 -190t173.5 -58q77 0 145.5 22t138.5 64v621h-519z
M1268 -503q-51 129 -139.5 202t-234.5 73h-26q-10 0 -19 -1l-9 155q18 2 51 2q192 0 320.5 -99t198.5 -289z" />
    <glyph glyph-name="naprehalfguru" horiz-adv-x="1328" 
d="M664 775q-204 -52 -312 -150t-108 -226q0 -122 66 -186t191 -64l-10 -149q-131 0 -223 51t-140 144.5t-48 201.5q0 170 130.5 303.5t371.5 197.5v230h-597v146h1358v-146h-597v-230q242 -64 372 -197.5t130 -303.5q0 -106 -46.5 -199t-139 -145.5t-225.5 -52.5l-10 149
q125 0 191 64t66 186q0 128 -108 226t-312 150zM746 1274zM664 0zM930 0zM662 752zM1095 -503q-51 129 -139.5 202t-234.5 73h-26q-10 0 -19 -1l-9 155q18 2 51 2q192 0 320.5 -99t198.5 -289z" />
    <glyph glyph-name="paprehalfguru" horiz-adv-x="1214" 
d="M866 333q-135 -62 -285 -62q-168 0 -294 102.5t-209 307.5q76 64 109.5 126t33.5 134q0 45 -13 96t-36 91h-187v146h305q44 -80 69 -167t25 -165q0 -171 -113 -273q64 -132 137.5 -190t173.5 -58q74 0 140 20t144 66v767h363v-146h-198v-1128h-165v333zM1268 -503
q-51 129 -139.5 202t-234.5 73h-26q-10 0 -19 -1l-9 155q18 2 51 2q192 0 320.5 -99t198.5 -289z" />
    <glyph glyph-name="phaprehalfguru" horiz-adv-x="1185" 
d="M837 861v267h-852v146h1215v-146h-198v-353l-60 -60h-361q-145 0 -208 -16.5t-97.5 -55.5t-34.5 -112q0 -63 28.5 -125t86.5 -124q98 101 211.5 152t242.5 51q135 0 212 -62.5t77 -162.5q0 -128 -101.5 -194t-302.5 -66q-171 0 -304.5 65.5t-224 195.5t-90.5 280
q0 69 27 131.5t87.5 108t143.5 63t215 17.5h288zM468 191q45 -25 101 -37t123 -12q119 0 180.5 26.5t61.5 84.5q0 42 -35.5 64t-104.5 22q-84 0 -165.5 -37t-160.5 -111zM1128 -503q-51 129 -139.5 202t-234.5 73h-26q-10 0 -19 -1l-9 155q18 2 51 2q192 0 320.5 -99
t198.5 -289z" />
    <glyph glyph-name="baprehalfguru" horiz-adv-x="1246" 
d="M1261 1274v-146h-198v-1128h-165v193q-123 -51 -270 -51q-184 0 -322 92t-222 273q42 61 109.5 114.5t159.5 99.5q-117 50 -175 151.5t-58 255.5h-135v146h1276zM898 802v326h-610q0 -119 35 -191t94.5 -103.5t181.5 -31.5h299zM898 352v309h-258q-85 0 -143.5 -16.5
t-114 -52.5t-105.5 -94q60 -106 145 -156t206 -50q154 0 270 60zM1300 -503q-51 129 -139.5 202t-234.5 73h-26q-10 0 -19 -1l-9 155q18 2 51 2q192 0 320.5 -99t198.5 -289z" />
    <glyph glyph-name="bhaprehalfguru" horiz-adv-x="1182" 
d="M839 814q14 34 21.5 69.5t7.5 73.5q0 102 -31 171h-852v146h1212v-146h-190q23 -72 23 -180q0 -71 -20 -133.5t-59 -115.5q48 -67 72.5 -137.5t24.5 -145.5q0 -202 -136 -309t-389 -107q-137 0 -261 33t-236 99l67 150q109 -71 211.5 -102.5t223.5 -31.5q179 0 268.5 69
t89.5 207q0 43 -10.5 84t-30.5 80q-72 -63 -165.5 -94t-207.5 -31q-165 0 -255.5 64.5t-90.5 177.5q0 110 89 176.5t250 66.5q109 0 202.5 -33.5t171.5 -100.5zM756 698q-63 52 -135.5 78t-153.5 26q-88 0 -132 -26t-44 -69q0 -98 179 -98q91 0 162.5 22t123.5 67zM535 0z
M759 0zM980 -503q-51 129 -139.5 202t-234.5 73h-26q-10 0 -19 -1l-9 155q18 2 51 2q192 0 320.5 -99t198.5 -289z" />
    <glyph glyph-name="maprehalfguru" horiz-adv-x="1220" 
d="M267 1274q63 -162 95 -314t33 -280h477v594h363v-146h-198v-1128h-165v534h-479q-9 -183 -55.5 -276t-121.5 -93q-51 0 -74.5 29.5t-23.5 89.5q0 67 32 152.5t93 152.5q-14 289 -105 539h-153v146h282zM1274 -503q-51 129 -139.5 202t-234.5 73h-26q-10 0 -19 -1l-9 155
q18 2 51 2q192 0 320.5 -99t198.5 -289z" />
    <glyph glyph-name="yaprehalfguru" horiz-adv-x="1424" 
d="M1076 613h-266v-334q-101 -33 -229 -33q-168 0 -294 105.5t-209 317.5q77 68 110 131t33 136q0 46 -13 98.5t-36 93.5h-187v146h1454v-146h-198v-1128h-165v613zM645 759h431v369h-730q38 -102 38 -193q0 -174 -113 -278q63 -137 136.5 -199t174.5 -62q31 0 63 4v359z
M1478 -503q-51 129 -139.5 202t-234.5 73h-26q-10 0 -19 -1l-9 155q18 2 51 2q192 0 320.5 -99t198.5 -289z" />
    <glyph glyph-name="raprehalfguru" horiz-adv-x="1185" 
d="M837 836v292h-852v146h1215v-146h-198v-775q0 -137 -44.5 -209.5t-121 -108t-201.5 -35.5q-131 0 -253.5 62.5t-214 192.5t-91.5 273q0 107 56 177t149.5 100.5t275.5 30.5h280zM837 690h-260q-133 0 -198 -13t-101.5 -51.5t-36.5 -108.5q0 -83 65.5 -175t155 -142.5
t180.5 -50.5q85 0 125 23t55 65t15 138v315zM737 0zM1130 -503q-51 129 -139.5 202t-234.5 73h-26q-10 0 -19 -1l-9 155q18 2 51 2q192 0 320.5 -99t198.5 -289z" />
    <glyph glyph-name="laprehalfguru" horiz-adv-x="1380" 
d="M1141 1128q-31 -163 -128 -316q142 -79 214.5 -185.5t72.5 -229.5q0 -108 -50 -201.5t-146 -144.5t-232 -51h-12l-10 150h22q128 0 196 64.5t68 176.5q0 93 -53 171.5t-161 134.5q-106 -114 -232 -185q-128 72 -234 185q-101 -53 -156.5 -130t-55.5 -168
q0 -117 67.5 -183t196.5 -66h22l-10 -150h-12q-137 0 -233 51.5t-145.5 144.5t-49.5 200q0 123 73.5 232t214.5 184q-102 154 -129 316h-254v146h1410v-146h-254zM407 1128q44 -274 283 -441q116 77 188.5 191t94.5 250h-566zM1141 1274zM690 0zM982 0zM448 666zM690 658z
M1136 -503q-51 129 -139.5 202t-234.5 73h-26q-10 0 -19 -1l-9 155q18 2 51 2q192 0 320.5 -99t198.5 -289z" />
    <glyph glyph-name="vaprehalfguru" horiz-adv-x="1162" 
d="M1009 548v-146h-365q-81 0 -118.5 -2.5t-66.5 -15t-45 -37t-16 -58.5q0 -71 66 -106t199 -35q167 0 320 48l44 -150q-167 -46 -384 -46q-199 0 -304.5 73t-105.5 201q0 94 71 151q-101 24 -164.5 87.5t-63.5 175.5q0 67 29 117.5t83 81t121 39t180 8.5h325v194h-829v146
h1192v-146h-198v-280l-60 -60h-483q-71 0 -111 -8.5t-62 -34t-22 -63.5q0 -54 35 -83t99 -40t204 -11h430zM598 0zM1068 -503q-51 129 -139.5 202t-234.5 73h-26q-10 0 -19 -1l-9 155q18 2 51 2q192 0 320.5 -99t198.5 -289z" />
    <glyph glyph-name="saprehalfguru" horiz-adv-x="1220" 
d="M-15 1274h1250v-146h-198v-1128h-165v534h-479q-9 -183 -55.5 -276t-121.5 -93q-51 0 -74.5 29.5t-23.5 89.5q0 67 32 152.5t93 152.5q-14 289 -105 539h-153v146zM313 1128q79 -246 82 -448h477v448h-559zM1274 -503q-51 129 -139.5 202t-234.5 73h-26q-10 0 -19 -1
l-9 155q18 2 51 2q192 0 320.5 -99t198.5 -289z" />
    <glyph glyph-name="haprehalfguru" horiz-adv-x="1180" 
d="M540 683q-35 4 -78 4q-118 0 -169.5 -42t-51.5 -127q0 -84 66 -177t155.5 -142.5t187.5 -49.5q78 0 115.5 24.5t52 65.5t14.5 136v753h-847v146h1210v-146h-198v-775q0 -144 -49 -217t-123.5 -104.5t-192.5 -31.5q-132 0 -255.5 66t-212 192t-88.5 270q0 100 44.5 169.5
t125.5 104t221 34.5q48 0 85 -6zM732 0zM1125 -503q-51 129 -139.5 202t-234.5 73h-26q-10 0 -19 -1l-9 155q18 2 51 2q192 0 320.5 -99t198.5 -289z" />
    <glyph glyph-name="kanuktaprehalfguru" horiz-adv-x="1273" 
d="M1000 0q-9 119 -30 222t-54 189q-85 -109 -198.5 -163.5t-247.5 -54.5q-185 0 -291.5 95t-106.5 260q0 163 112 259.5t288 96.5q135 0 241 -47.5t192 -146.5q26 94 26 228q0 91 -20 190h-926v146h1303v-146h-211q6 -28 12.5 -88.5t6.5 -100.5q0 -214 -85 -378
q58 -99 96.5 -239t58.5 -322h-166zM848 555q-74 101 -164.5 152t-198.5 51q-115 0 -180 -55.5t-65 -155.5q0 -97 62 -152.5t169 -55.5q120 0 214 54t163 162zM1050 1274zM1396 -503q-51 129 -139.5 202t-234.5 73h-26q-10 0 -19 -1l-9 155q18 2 51 2q192 0 320.5 -99
t198.5 -289zM216 147q49 0 81 -32.5t32 -84.5q0 -53 -31 -85t-82 -32q-50 0 -81.5 32.5t-31.5 84.5t32 84.5t81 32.5zM216 305z" />
    <glyph glyph-name="khanuktaprehalfguru" horiz-adv-x="1224" 
d="M876 337q-138 -66 -295 -66q-168 0 -294 102.5t-209 307.5q76 64 109.5 126t33.5 134q0 45 -13 96t-36 91h-187v146h305q44 -80 69 -167t25 -165v-13h492v345h363v-146h-198v-1128h-165v337zM876 513v275h-520q-27 -66 -85 -119q64 -132 137.5 -190t173.5 -58
q73 0 141 20t153 72zM1278 -503q-51 129 -139.5 202t-234.5 73h-26q-10 0 -19 -1l-9 155q18 2 51 2q192 0 320.5 -99t198.5 -289zM340 216q49 0 81 -32.5t32 -84.5q0 -53 -31 -85t-82 -32q-50 0 -81.5 32.5t-31.5 84.5t32 84.5t81 32.5z" />
    <glyph glyph-name="ganuktaprehalfguru" horiz-adv-x="1536" 
d="M718 836v292h-733v146h1566v-146h-198v-1128h-165v1128h-305v-790q0 -136 -40.5 -204.5t-107 -101t-172.5 -32.5q-118 0 -224.5 65.5t-184.5 192.5t-78 270q0 97 50.5 173t137.5 105.5t242 29.5h212zM718 690h-179q-121 0 -177.5 -11.5t-88.5 -50t-32 -111.5
q0 -81 51 -173.5t123.5 -145t146.5 -52.5q65 0 96 19t45.5 57.5t14.5 137.5v330zM1590 -503q-51 129 -139.5 202t-234.5 73h-26q-10 0 -19 -1l-9 155q18 2 51 2q192 0 320.5 -99t198.5 -289zM258 -46q49 0 81 -32.5t32 -84.5q0 -53 -31 -85t-82 -32q-50 0 -81.5 32.5
t-31.5 84.5t32 84.5t81 32.5zM258 112z" />
    <glyph glyph-name="ghanuktaprehalfguru" horiz-adv-x="1550" 
d="M1565 1274v-146h-198v-1128h-165v307q-65 -35 -150 -35q-102 0 -173.5 46t-111.5 138q-46 -92 -120.5 -138t-176.5 -46q-147 0 -232 90t-160 319q76 64 109.5 126t33.5 134q0 45 -13 96t-36 91h-187v146h305q44 -80 69 -167t25 -165q0 -176 -123 -281q33 -120 88 -180
t132 -60q80 0 135 57t84 172q-33 232 -33 392q0 100 29 151.5t85 51.5q57 0 84.5 -48.5t27.5 -155.5q0 -152 -43 -396q29 -112 83 -168t132 -56q49 0 81 17t56 48v788h363zM1604 -503q-51 129 -139.5 202t-234.5 73h-26q-10 0 -19 -1l-9 155q18 2 51 2q192 0 320.5 -99
t198.5 -289zM386 134q49 0 81 -32.5t32 -84.5q0 -53 -31 -85t-82 -32q-50 0 -81.5 32.5t-31.5 84.5t32 84.5t81 32.5zM386 292z" />
    <glyph glyph-name="nganuktaprehalfguru" horiz-adv-x="1185" 
d="M833 330q55 49 83 107.5t28 125.5q0 64 -31 103t-89.5 56.5t-206.5 17.5h-374l-60 60v328h-198v146h1215v-146h-852v-242h313q166 0 255 -31.5t141 -101t52 -184.5q0 -100 -49.5 -194.5t-140.5 -164.5q39 -59 97 -184l-159 -43q-37 90 -72 149q-69 -29 -144.5 -43
t-157.5 -14q-195 0 -296 66.5t-101 193.5q0 98 79.5 161.5t218.5 63.5q128 0 238 -54t211 -176zM701 253q-69 80 -148.5 120.5t-168.5 40.5q-66 0 -99.5 -23t-33.5 -63q0 -58 60 -84.5t177 -26.5q58 0 111 9t102 27zM848 0zM1254 -503q-51 129 -139.5 202t-234.5 73h-26
q-10 0 -19 -1l-9 155q18 2 51 2q192 0 320.5 -99t198.5 -289zM230 13q49 0 81 -32.5t32 -84.5q0 -53 -31 -85t-82 -32q-50 0 -81.5 32.5t-31.5 84.5t32 84.5t81 32.5zM230 171z" />
    <glyph glyph-name="canuktaprehalfguru" horiz-adv-x="1345" 
d="M1162 1128v-775q0 -134 -43 -207t-118.5 -109.5t-198.5 -36.5q-242 0 -406 170.5t-190 425.5h-35q-52 0 -79 20.5t-27 57.5q0 46 34.5 100.5t88 93t96.5 38.5q42 0 65 -29t23 -85v-51h625v387h-1012v146h1375v-146h-198zM997 596h-625q11 -121 73.5 -225t159 -163
t203.5 -59q83 0 122.5 23.5t53 68t13.5 134.5v221zM897 0zM1290 -503q-51 129 -139.5 202t-234.5 73h-26q-10 0 -19 -1l-9 155q18 2 51 2q192 0 320.5 -99t198.5 -289zM234 145q49 0 81 -32.5t32 -84.5q0 -53 -31 -85t-82 -32q-50 0 -81.5 32.5t-31.5 84.5t32 84.5t81 32.5z
M234 303z" />
    <glyph glyph-name="chanuktaprehalfguru" horiz-adv-x="1299" 
d="M803 587q213 0 315 -76t102 -211q0 -158 -139 -229t-434 -71q-287 0 -419.5 71t-132.5 224q0 63 38.5 115t115.5 86q-72 32 -108 82.5t-36 119.5q0 77 47 133.5t119 80.5t227 24h431v192h-944v146h1329v-146h-220v-278l-60 -60h-565q-113 0 -156 -23.5t-43 -74.5
q0 -54 46 -79.5t156 -25.5h331zM581 140v307h-78q-125 0 -184.5 -41t-59.5 -108q0 -81 80 -117.5t242 -40.5zM736 447v-307q167 4 243.5 41.5t76.5 120.5q0 44 -27.5 76t-81.5 50.5t-170 18.5h-41zM1094 1274zM649 0zM921 0zM1233 -503q-51 129 -139.5 202t-234.5 73h-26
q-10 0 -19 -1l-9 155q18 2 51 2q192 0 320.5 -99t198.5 -289zM290 -52q49 0 81 -32.5t32 -84.5q0 -53 -31 -85t-82 -32q-50 0 -81.5 32.5t-31.5 84.5t32 84.5t81 32.5zM290 106z" />
    <glyph glyph-name="januktaprehalfguru" horiz-adv-x="1283" 
d="M382 741h553v387h-950v146h1313v-146h-198v-1128h-165v596h-553v-596h-165v596h-36q-52 0 -79 20.5t-27 57.5q0 46 34.5 100.5t88 93t96.5 38.5q42 0 65 -29t23 -85v-51zM658 216q49 0 81 -32.5t32 -84.5q0 -53 -31 -85t-82 -32q-50 0 -81.5 32.5t-31.5 84.5t32 84.5
t81 32.5zM1337 -503q-51 129 -139.5 202t-234.5 73h-26q-10 0 -19 -1l-9 155q18 2 51 2q192 0 320.5 -99t198.5 -289z" />
    <glyph glyph-name="jhanuktaprehalfguru" horiz-adv-x="1216" 
d="M594 310q171 13 257 65.5t86 144.5q0 94 -84 137t-273 43q-227 0 -467 -80l-51 136q122 39 267 64q-63 51 -100 128t-49 180h-195v146h1246v-146h-181q-15 -112 -57.5 -193t-113.5 -131q113 -38 170 -109t57 -175q0 -128 -93.5 -214.5t-271.5 -120.5q74 -46 144 -107
l-113 -106q-142 132 -234 184q-39 -3 -118 -3q-119 0 -185 33t-66 91q0 46 41.5 71t116.5 25q63 0 122.5 -12.5t144.5 -50.5zM619 843q49 0 106.5 20.5t99.5 83t58 181.5h-536q9 -80 32.5 -136.5t63 -90.5t83 -46t93.5 -12zM420 299zM892 118zM1074 -503q-51 129 -139.5 202
t-234.5 73h-26q-10 0 -19 -1l-9 155q18 2 51 2q192 0 320.5 -99t198.5 -289zM314 63q49 0 81 -32.5t32 -84.5q0 -53 -31 -85t-82 -32q-50 0 -81.5 32.5t-31.5 84.5t32 84.5t81 32.5zM314 221z" />
    <glyph glyph-name="nyanuktaprehalfguru" horiz-adv-x="1162" 
d="M1009 548v-146h-419q-116 0 -154 -30.5t-38 -82.5q0 -71 66 -106t199 -35q167 0 320 48l44 -150q-167 -46 -384 -46q-199 0 -304.5 73t-105.5 201q0 94 71 151q-101 24 -164.5 87.5t-63.5 175.5q0 93 54.5 153t155.5 80q-66 116 -135 207h-166v146h1192v-146h-198v-280
l-60 -60h-483q-71 0 -111 -8.5t-62 -34t-22 -63.5q0 -54 35 -83t99 -40t204 -11h430zM348 1128q68 -104 112 -194h354v194h-466zM598 0zM1068 -503q-51 129 -139.5 202t-234.5 73h-26q-10 0 -19 -1l-9 155q18 2 51 2q192 0 320.5 -99t198.5 -289zM251 -5q49 0 81 -32.5
t32 -84.5q0 -53 -31 -85t-82 -32q-50 0 -81.5 32.5t-31.5 84.5t32 84.5t81 32.5zM251 153z" />
    <glyph glyph-name="ttanuktaprehalfguru" horiz-adv-x="1178" 
d="M830 863v265h-845v146h1208v-146h-198v-351l-60 -60h-78q-152 0 -223.5 -8t-131 -34.5t-117 -74.5t-128.5 -135q86 -169 181.5 -242t221.5 -73q98 0 175.5 20t208.5 80l57 -145q-122 -57 -224 -81t-217 -24q-196 0 -335 111t-255 368q131 172 235 251t202.5 106t249.5 27
h73zM597 0zM1093 -503q-51 129 -139.5 202t-234.5 73h-26q-10 0 -19 -1l-9 155q18 2 51 2q192 0 320.5 -99t198.5 -289zM254 -17q49 0 81 -32.5t32 -84.5q0 -53 -31 -85t-82 -32q-50 0 -81.5 32.5t-31.5 84.5t32 84.5t81 32.5zM254 141z" />
    <glyph glyph-name="tthanuktaprehalfguru" horiz-adv-x="1352" 
d="M594 898v230h-609v146h1382v-146h-609v-230q249 -58 381.5 -191t132.5 -294q0 -205 -150.5 -309t-445.5 -104q-293 0 -444.5 104.5t-151.5 308.5q0 164 134 295.5t380 189.5zM676 775q-209 -48 -320.5 -145t-111.5 -222q0 -129 103.5 -193.5t328.5 -64.5
q223 0 327.5 65.5t104.5 194.5q0 122 -113 219.5t-319 145.5zM758 1274zM914 0zM664 752zM1116 -503q-51 129 -139.5 202t-234.5 73h-26q-10 0 -19 -1l-9 155q18 2 51 2q192 0 320.5 -99t198.5 -289zM248 -80q49 0 81 -32.5t32 -84.5q0 -53 -31 -85t-82 -32
q-50 0 -81.5 32.5t-31.5 84.5t32 84.5t81 32.5zM248 78z" />
    <glyph glyph-name="ddanuktaprehalfguru" horiz-adv-x="1165" 
d="M875 220q70 -85 140 -189l-152 -71q-59 106 -137 217q-69 -11 -146 -11q-123 0 -191 14.5t-118 37.5q69 -92 122 -189l-153 -67q-84 176 -187 346l75 116q119 -58 221 -84t218 -26q159 0 239 42t80 126q0 72 -59.5 123.5t-173.5 77.5q-125 -24 -227 -24q-229 0 -229 116
q0 104 179 104q148 0 297 -54q82 34 123 94.5t41 147.5q0 37 -4 61h-848v146h1195v-146h-182q5 -37 5 -63q0 -104 -40.5 -178.5t-130.5 -124.5q116 -49 169.5 -119t53.5 -168q0 -87 -45 -150.5t-135 -104.5zM1109 -503q-51 129 -139.5 202t-234.5 73h-26q-10 0 -19 -1
l-9 155q18 2 51 2q192 0 320.5 -99t198.5 -289z" />
    <glyph glyph-name="ddhanuktaprehalfguru" horiz-adv-x="1323" 
d="M207 656h-36q-52 0 -79 20.5t-27 57.5q0 46 34.5 100.5t88 93t96.5 38.5q42 0 65 -29t23 -85v-51h603v327h-990v146h1353v-146h-198v-412l-60 -60h-708v-22q0 -116 29.5 -206t89.5 -154q98 105 212.5 158t245.5 53q136 0 212.5 -63t76.5 -162q0 -127 -104.5 -193.5
t-307.5 -66.5q-191 0 -331 79.5t-214 226t-74 332.5v18zM606 191q49 -25 106.5 -37t122.5 -12q121 0 179.5 26.5t58.5 84.5q0 40 -34.5 63t-104.5 23q-85 0 -167 -37t-161 -111zM1270 -503q-51 129 -139.5 202t-234.5 73h-26q-10 0 -19 -1l-9 155q18 2 51 2q192 0 320.5 -99
t198.5 -289zM252 97q49 0 81 -32.5t32 -84.5q0 -53 -31 -85t-82 -32q-50 0 -81.5 32.5t-31.5 84.5t32 84.5t81 32.5zM252 255z" />
    <glyph glyph-name="nnanuktaprehalfguru" horiz-adv-x="1274" 
d="M702 747l61 122q-198 121 -346 259h-432v146h1304v-146h-653q215 -163 566 -313l-72 -140q-126 57 -231 115l-86 -169l-76 -32q-74 30 -158 30q-86 0 -157 -38t-162 -144q101 -166 204.5 -226.5t248.5 -60.5q113 0 200 20t236 80l57 -145q-132 -57 -245 -81t-241 -24
q-229 0 -378 99.5t-272 349.5q138 178 251 248.5t244 70.5q72 0 137 -21zM1170 -503q-51 129 -139.5 202t-234.5 73h-26q-10 0 -19 -1l-9 155q18 2 51 2q192 0 320.5 -99t198.5 -289zM254 -17q49 0 81 -32.5t32 -84.5q0 -53 -31 -85t-82 -32q-50 0 -81.5 32.5t-31.5 84.5
t32 84.5t81 32.5zM254 141z" />
    <glyph glyph-name="tanuktaprehalfguru" horiz-adv-x="1110" 
d="M26 132l67 150q98 -64 199.5 -98.5t215.5 -34.5q152 0 237.5 61t85.5 177q0 92 -57.5 161t-171.5 115q-125 -24 -231 -24q-229 0 -229 116q0 104 179 104q148 0 297 -54q82 33 123 93.5t41 149.5q0 44 -7 80h-790v146h1140v-146h-183q6 -43 6 -82q0 -105 -40 -177.5
t-136 -127.5q122 -67 175 -154t53 -202q0 -179 -132.5 -282t-355.5 -103q-131 0 -252.5 33t-233.5 99zM702 0zM900 -503q-51 129 -139.5 202t-234.5 73h-26q-10 0 -19 -1l-9 155q18 2 51 2q192 0 320.5 -99t198.5 -289zM219 -51q49 0 81 -32.5t32 -84.5q0 -53 -31 -85
t-82 -32q-50 0 -81.5 32.5t-31.5 84.5t32 84.5t81 32.5zM219 107z" />
    <glyph glyph-name="thanuktaprehalfguru" horiz-adv-x="1224" 
d="M876 338q-80 -38 -148.5 -52.5t-146.5 -14.5q-168 0 -294 102.5t-209 307.5q76 64 109.5 126t33.5 134q0 45 -13 96t-36 91h-187v146h1254v-146h-198v-1128h-165v338zM347 1128q37 -98 37 -186q0 -35 -5 -70h497v256h-529zM876 513v218h-551q-19 -29 -54 -62
q64 -132 137.5 -190t173.5 -58q73 0 141 20t153 72zM1278 -503q-51 129 -139.5 202t-234.5 73h-26q-10 0 -19 -1l-9 155q18 2 51 2q192 0 320.5 -99t198.5 -289zM340 216q49 0 81 -32.5t32 -84.5q0 -53 -31 -85t-82 -32q-50 0 -81.5 32.5t-31.5 84.5t32 84.5t81 32.5z" />
    <glyph glyph-name="danuktaprehalfguru" horiz-adv-x="1263" 
d="M372 741h543v387h-930v146h1293v-146h-198v-472l-60 -60h-648q1 -223 97 -334.5t287 -111.5q96 0 180.5 22.5t173.5 67.5l57 -146q-187 -94 -414 -94q-263 0 -404.5 151t-141.5 423v22h-36q-52 0 -79 20.5t-27 57.5q0 46 34.5 100.5t88 93t96.5 38.5q42 0 65 -29t23 -85
v-51zM1132 -503q-51 129 -139.5 202t-234.5 73h-26q-10 0 -19 -1l-9 155q18 2 51 2q192 0 320.5 -99t198.5 -289zM241 84q49 0 81 -32.5t32 -84.5q0 -53 -31 -85t-82 -32q-50 0 -81.5 32.5t-31.5 84.5t32 84.5t81 32.5zM241 242z" />
    <glyph glyph-name="dhanuktaprehalfguru" horiz-adv-x="1214" 
d="M866 333q-135 -62 -285 -62q-168 0 -294 102.5t-209 307.5q76 64 109.5 126t33.5 134q0 45 -13 96t-36 91h-187v146h1244v-146h-198v-1128h-165v333zM347 1128q37 -98 37 -186q0 -171 -113 -273q64 -132 137.5 -190t173.5 -58q77 0 145.5 22t138.5 64v621h-519z
M1268 -503q-51 129 -139.5 202t-234.5 73h-26q-10 0 -19 -1l-9 155q18 2 51 2q192 0 320.5 -99t198.5 -289zM340 216q49 0 81 -32.5t32 -84.5q0 -53 -31 -85t-82 -32q-50 0 -81.5 32.5t-31.5 84.5t32 84.5t81 32.5z" />
    <glyph glyph-name="nanuktaprehalfguru" horiz-adv-x="1328" 
d="M664 775q-204 -52 -312 -150t-108 -226q0 -122 66 -186t191 -64l-10 -149q-131 0 -223 51t-140 144.5t-48 201.5q0 170 130.5 303.5t371.5 197.5v230h-597v146h1358v-146h-597v-230q242 -64 372 -197.5t130 -303.5q0 -106 -46.5 -199t-139 -145.5t-225.5 -52.5l-10 149
q125 0 191 64t66 186q0 128 -108 226t-312 150zM746 1274zM664 0zM930 0zM662 752zM1095 -503q-51 129 -139.5 202t-234.5 73h-26q-10 0 -19 -1l-9 155q18 2 51 2q192 0 320.5 -99t198.5 -289zM248 -80q49 0 81 -32.5t32 -84.5q0 -53 -31 -85t-82 -32q-50 0 -81.5 32.5
t-31.5 84.5t32 84.5t81 32.5zM248 78z" />
    <glyph glyph-name="panuktaprehalfguru" horiz-adv-x="1214" 
d="M866 333q-135 -62 -285 -62q-168 0 -294 102.5t-209 307.5q76 64 109.5 126t33.5 134q0 45 -13 96t-36 91h-187v146h305q44 -80 69 -167t25 -165q0 -171 -113 -273q64 -132 137.5 -190t173.5 -58q74 0 140 20t144 66v767h363v-146h-198v-1128h-165v333zM1268 -503
q-51 129 -139.5 202t-234.5 73h-26q-10 0 -19 -1l-9 155q18 2 51 2q192 0 320.5 -99t198.5 -289zM340 216q49 0 81 -32.5t32 -84.5q0 -53 -31 -85t-82 -32q-50 0 -81.5 32.5t-31.5 84.5t32 84.5t81 32.5z" />
    <glyph glyph-name="phanuktaprehalfguru" horiz-adv-x="1185" 
d="M837 861v267h-852v146h1215v-146h-198v-353l-60 -60h-361q-145 0 -208 -16.5t-97.5 -55.5t-34.5 -112q0 -63 28.5 -125t86.5 -124q98 101 211.5 152t242.5 51q135 0 212 -62.5t77 -162.5q0 -128 -101.5 -194t-302.5 -66q-171 0 -304.5 65.5t-224 195.5t-90.5 280
q0 69 27 131.5t87.5 108t143.5 63t215 17.5h288zM468 191q45 -25 101 -37t123 -12q119 0 180.5 26.5t61.5 84.5q0 42 -35.5 64t-104.5 22q-84 0 -165.5 -37t-160.5 -111zM1128 -503q-51 129 -139.5 202t-234.5 73h-26q-10 0 -19 -1l-9 155q18 2 51 2q192 0 320.5 -99
t198.5 -289zM209 36q49 0 81 -32.5t32 -84.5q0 -53 -31 -85t-82 -32q-50 0 -81.5 32.5t-31.5 84.5t32 84.5t81 32.5zM209 194z" />
    <glyph glyph-name="banuktaprehalfguru" horiz-adv-x="1246" 
d="M1261 1274v-146h-198v-1128h-165v193q-123 -51 -270 -51q-184 0 -322 92t-222 273q42 61 109.5 114.5t159.5 99.5q-117 50 -175 151.5t-58 255.5h-135v146h1276zM898 802v326h-610q0 -119 35 -191t94.5 -103.5t181.5 -31.5h299zM898 352v309h-258q-85 0 -143.5 -16.5
t-114 -52.5t-105.5 -94q60 -106 145 -156t206 -50q154 0 270 60zM1300 -503q-51 129 -139.5 202t-234.5 73h-26q-10 0 -19 -1l-9 155q18 2 51 2q192 0 320.5 -99t198.5 -289zM256 145q49 0 81 -32.5t32 -84.5q0 -53 -31 -85t-82 -32q-50 0 -81.5 32.5t-31.5 84.5t32 84.5
t81 32.5zM256 303z" />
    <glyph glyph-name="bhanuktaprehalfguru" horiz-adv-x="1182" 
d="M839 814q14 34 21.5 69.5t7.5 73.5q0 102 -31 171h-852v146h1212v-146h-190q23 -72 23 -180q0 -71 -20 -133.5t-59 -115.5q48 -67 72.5 -137.5t24.5 -145.5q0 -202 -136 -309t-389 -107q-137 0 -261 33t-236 99l67 150q109 -71 211.5 -102.5t223.5 -31.5q179 0 268.5 69
t89.5 207q0 43 -10.5 84t-30.5 80q-72 -63 -165.5 -94t-207.5 -31q-165 0 -255.5 64.5t-90.5 177.5q0 110 89 176.5t250 66.5q109 0 202.5 -33.5t171.5 -100.5zM756 698q-63 52 -135.5 78t-153.5 26q-88 0 -132 -26t-44 -69q0 -98 179 -98q91 0 162.5 22t123.5 67zM535 0z
M759 0zM980 -503q-51 129 -139.5 202t-234.5 73h-26q-10 0 -19 -1l-9 155q18 2 51 2q192 0 320.5 -99t198.5 -289zM219 -51q49 0 81 -32.5t32 -84.5q0 -53 -31 -85t-82 -32q-50 0 -81.5 32.5t-31.5 84.5t32 84.5t81 32.5zM219 107z" />
    <glyph glyph-name="manuktaprehalfguru" horiz-adv-x="1220" 
d="M267 1274q63 -162 95 -314t33 -280h477v594h363v-146h-198v-1128h-165v534h-479q-9 -183 -55.5 -276t-121.5 -93q-51 0 -74.5 29.5t-23.5 89.5q0 67 32 152.5t93 152.5q-14 289 -105 539h-153v146h282zM1274 -503q-51 129 -139.5 202t-234.5 73h-26q-10 0 -19 -1l-9 155
q18 2 51 2q192 0 320.5 -99t198.5 -289zM562 216q49 0 81 -32.5t32 -84.5q0 -53 -31 -85t-82 -32q-50 0 -81.5 32.5t-31.5 84.5t32 84.5t81 32.5z" />
    <glyph glyph-name="yanuktaprehalfguru" horiz-adv-x="1424" 
d="M1076 613h-266v-334q-101 -33 -229 -33q-168 0 -294 105.5t-209 317.5q77 68 110 131t33 136q0 46 -13 98.5t-36 93.5h-187v146h1454v-146h-198v-1128h-165v613zM645 759h431v369h-730q38 -102 38 -193q0 -174 -113 -278q63 -137 136.5 -199t174.5 -62q31 0 63 4v359z
M1478 -503q-51 129 -139.5 202t-234.5 73h-26q-10 0 -19 -1l-9 155q18 2 51 2q192 0 320.5 -99t198.5 -289zM340 193q49 0 81 -32.5t32 -84.5q0 -53 -31 -85t-82 -32q-50 0 -81.5 32.5t-31.5 84.5t32 84.5t81 32.5zM340 351z" />
    <glyph glyph-name="ranuktaprehalfguru" horiz-adv-x="1185" 
d="M837 836v292h-852v146h1215v-146h-198v-775q0 -137 -44.5 -209.5t-121 -108t-201.5 -35.5q-131 0 -253.5 62.5t-214 192.5t-91.5 273q0 107 56 177t149.5 100.5t275.5 30.5h280zM837 690h-260q-133 0 -198 -13t-101.5 -51.5t-36.5 -108.5q0 -83 65.5 -175t155 -142.5
t180.5 -50.5q85 0 125 23t55 65t15 138v315zM737 0zM1130 -503q-51 129 -139.5 202t-234.5 73h-26q-10 0 -19 -1l-9 155q18 2 51 2q192 0 320.5 -99t198.5 -289zM223 15q49 0 81 -32.5t32 -84.5q0 -53 -31 -85t-82 -32q-50 0 -81.5 32.5t-31.5 84.5t32 84.5t81 32.5z
M223 173z" />
    <glyph glyph-name="lanuktaprehalfguru" horiz-adv-x="1380" 
d="M1141 1128q-31 -163 -128 -316q142 -79 214.5 -185.5t72.5 -229.5q0 -108 -50 -201.5t-146 -144.5t-232 -51h-12l-10 150h22q128 0 196 64.5t68 176.5q0 93 -53 171.5t-161 134.5q-106 -114 -232 -185q-128 72 -234 185q-101 -53 -156.5 -130t-55.5 -168
q0 -117 67.5 -183t196.5 -66h22l-10 -150h-12q-137 0 -233 51.5t-145.5 144.5t-49.5 200q0 123 73.5 232t214.5 184q-102 154 -129 316h-254v146h1410v-146h-254zM407 1128q44 -274 283 -441q116 77 188.5 191t94.5 250h-566zM1141 1274zM690 0zM982 0zM448 666zM690 658z
M1136 -503q-51 129 -139.5 202t-234.5 73h-26q-10 0 -19 -1l-9 155q18 2 51 2q192 0 320.5 -99t198.5 -289zM248 -80q49 0 81 -32.5t32 -84.5q0 -53 -31 -85t-82 -32q-50 0 -81.5 32.5t-31.5 84.5t32 84.5t81 32.5zM248 78z" />
    <glyph glyph-name="vanuktaprehalfguru" horiz-adv-x="1162" 
d="M1009 548v-146h-365q-81 0 -118.5 -2.5t-66.5 -15t-45 -37t-16 -58.5q0 -71 66 -106t199 -35q167 0 320 48l44 -150q-167 -46 -384 -46q-199 0 -304.5 73t-105.5 201q0 94 71 151q-101 24 -164.5 87.5t-63.5 175.5q0 67 29 117.5t83 81t121 39t180 8.5h325v194h-829v146
h1192v-146h-198v-280l-60 -60h-483q-71 0 -111 -8.5t-62 -34t-22 -63.5q0 -54 35 -83t99 -40t204 -11h430zM598 0zM1068 -503q-51 129 -139.5 202t-234.5 73h-26q-10 0 -19 -1l-9 155q18 2 51 2q192 0 320.5 -99t198.5 -289zM251 -5q49 0 81 -32.5t32 -84.5q0 -53 -31 -85
t-82 -32q-50 0 -81.5 32.5t-31.5 84.5t32 84.5t81 32.5zM251 153z" />
    <glyph glyph-name="sanuktaprehalfguru" horiz-adv-x="1235" 
d="M-15 1274h1265v-146h-198v-1128h-165v534h-494q-9 -183 -55.5 -276t-121.5 -93q-51 0 -74.5 29.5t-23.5 89.5q0 67 32 152.5t93 152.5q-14 289 -105 539h-153v146zM313 1128q79 -246 82 -448h492v448h-574zM575 216q49 0 81 -32.5t32 -84.5q0 -53 -31 -85t-82 -32
q-50 0 -81.5 32.5t-31.5 84.5t32 84.5t81 32.5zM1289 -503q-51 129 -139.5 202t-234.5 73h-26q-10 0 -19 -1l-9 155q18 2 51 2q192 0 320.5 -99t198.5 -289z" />
    </font>
</defs>
</svg>
