<?xml version="1.0" standalone="no"?>
<!DOCTYPE svg PUBLIC "-//W3C//DTD SVG 1.1//EN" "http://www.w3.org/Graphics/SVG/1.1/DTD/svg11.dtd" >
<svg xmlns="http://www.w3.org/2000/svg" xmlns:xlink="http://www.w3.org/1999/xlink" version="1.1">
<metadata>
Created by FontForge 20170731 at Wed Sep 20 01:00:56 2017
 By Aleksey,,,
Copyright 2017 Google Inc. All Rights Reserved.
</metadata>
<defs>
<font id="NotoSansTamil-Regular" horiz-adv-x="572" >
  <font-face 
    font-family="Noto Sans Tamil"
    font-weight="400"
    font-stretch="normal"
    units-per-em="1000"
    panose-1="2 11 5 2 4 5 4 2 2 4"
    ascent="800"
    descent="-200"
    bbox="-491 -321 2188 870"
    underline-thickness="50"
    underline-position="-175"
    unicode-range="U+000D-1133C"
  />
<missing-glyph horiz-adv-x="600" 
d="M94 0v714h411v-714h-411zM145 51h309v612h-309v-612z" />
    <glyph glyph-name=".notdef" horiz-adv-x="600" 
d="M94 0v714h411v-714h-411zM145 51h309v612h-309v-612z" />
    <glyph glyph-name=".null" horiz-adv-x="0" 
 />
    <glyph glyph-name="nonmarkingreturn" horiz-adv-x="333" 
 />
    <glyph glyph-name="NULL" horiz-adv-x="0" 
 />
    <glyph glyph-name="CR" unicode="&#xd;" horiz-adv-x="260" 
 />
    <glyph glyph-name="space" unicode=" " horiz-adv-x="260" 
 />
    <glyph glyph-name="exclam.tamil" unicode="!" horiz-adv-x="269" 
d="M106 201l-25 513h107l-25 -513h-57zM134 -12q-28 0 -45 17t-17 51q0 32 16 50t46 18q29 0 45.5 -18t16.5 -50q0 -33 -17 -50.5t-45 -17.5z" />
    <glyph glyph-name="quotedbl.tamil" unicode="&#x22;" horiz-adv-x="426" 
d="M95 542l-25 258h111l-25 -258h-61zM270 542l-25 258h111l-25 -258h-61z" />
    <glyph glyph-name="numbersign.tamil" unicode="#" horiz-adv-x="646" 
d="M112 0l40 209h-127v67h140l31 160h-134v67h146l40 211h72l-40 -211h142l40 211h72l-40 -211h127v-67h-140l-30 -160h135v-67h-148l-40 -209h-72l40 209h-142l-40 -209h-72zM236 276h143l30 160h-142z" />
    <glyph glyph-name="percent.tamil" unicode="%" horiz-adv-x="831" 
d="M195 276q-70 0 -108 58t-38 167q0 224 146 224q72 0 111 -58t39 -166q0 -111 -38.5 -168t-111.5 -57zM179 0l396 714h77l-396 -714h-77zM195 339q77 0 77 162q0 161 -77 161q-38 0 -55.5 -40.5t-17.5 -120.5t17.5 -121t55.5 -41zM632 -12q-69 0 -107.5 58t-38.5 167
q0 223 146 223q72 0 111 -58t39 -165q0 -225 -150 -225zM632 51q77 0 77 162q0 160 -77 160q-38 0 -55.5 -40t-17.5 -120q0 -82 17.5 -122t55.5 -40z" />
    <glyph glyph-name="quotesingle.tamil" unicode="'" horiz-adv-x="250" 
d="M95 542l-25 258h111l-25 -258h-61z" />
    <glyph glyph-name="parenleft.tamil" unicode="(" horiz-adv-x="321" 
d="M61 283q0 144 36.5 277.5t110.5 239.5h82q-69 -110 -104.5 -244t-35.5 -274t34.5 -275t105.5 -251h-82q-74 108 -110.5 244.5t-36.5 282.5z" />
    <glyph glyph-name="parenright.tamil" unicode=")" horiz-adv-x="321" 
d="M260 273q0 -144 -36.5 -277.5t-110.5 -239.5h-82q69 110 104.5 244t35.5 274t-34.5 275t-105.5 251h82q74 -108 110.5 -244.5t36.5 -282.5z" />
    <glyph glyph-name="asterisk.tamil" unicode="*" horiz-adv-x="551" 
d="M325 800l-21 -192l192 54l14 -94l-187 -14l122 -159l-87 -47l-83 180l-82 -180l-88 47l121 159l-186 14l14 94l192 -54l-21 192h100z" />
    <glyph glyph-name="plus.tamil" unicode="+" 
d="M250 111v206h-199v71h199v207h72v-207h199v-71h-199v-206h-72z" />
    <glyph glyph-name="comma.tamil" unicode="," horiz-adv-x="250" 
d="M177 116l7 -11q-14 -53 -37.5 -116t-48.5 -118h-67q14 59 27.5 126t21.5 119h97z" />
    <glyph glyph-name="hyphen.tamil" unicode="-" horiz-adv-x="322" 
d="M40 262v82h242v-82h-242z" />
    <glyph glyph-name="period.tamil" unicode="." horiz-adv-x="268" 
d="M134 -12q-26 0 -44 16t-18 52q0 38 18 53t44 15t44 -15t18 -53q0 -36 -18 -52t-44 -16z" />
    <glyph glyph-name="slash.tamil" unicode="/" horiz-adv-x="393" 
d="M21 -244l266 1044h85l-266 -1044h-85z" />
    <glyph glyph-name="zero.tamil" unicode="0" 
d="M286 -12q-116 0 -176 94t-60 275q0 187 58 277.5t178 90.5q116 0 176.5 -93.5t60.5 -274.5q0 -186 -58.5 -277.5t-178.5 -91.5zM286 63q50 0 80 26.5t45 69.5t19.5 95t4.5 103q0 49 -5 100.5t-20.5 95.5t-45 70.5t-78.5 26.5q-51 0 -80.5 -26.5t-44 -70t-19 -95
t-4.5 -101.5q0 -59 5.5 -111.5t21 -94t44.5 -65t77 -23.5z" />
    <glyph glyph-name="one.tamil" unicode="1" 
d="M356 0h-86v499q0 81 3 123q-14 -15 -38 -35l-99 -82l-46 59l193 150h73v-714z" />
    <glyph glyph-name="two.tamil" unicode="2" 
d="M49 0v73l187 189q52 54 89 96t56.5 82.5t19.5 88.5q0 57 -34.5 89t-91.5 32q-53 0 -90 -17.5t-81 -50.5l-47 59q101 84 218 84q63 0 111.5 -21.5t76.5 -64.5t28 -105q0 -56 -23.5 -105.5t-64.5 -97.5t-94 -100l-149 -147v-4h361v-80h-472z" />
    <glyph glyph-name="three.tamil" unicode="3" 
d="M242 -12q-119 0 -197 39v82q46 -23 98 -35t100 -12q181 0 181 142q0 127 -200 127h-69v75h70q85 0 132 36.5t47 98.5q0 51 -35 80.5t-96 29.5q-53 0 -92.5 -14.5t-86.5 -45.5l-44 60q48 36 103.5 55t118.5 19q60 0 110.5 -18.5t81 -58t30.5 -101.5q0 -67 -38.5 -111.5
t-109.5 -59.5v-4q83 -10 126.5 -54t43.5 -116q0 -77 -37 -124t-99.5 -68.5t-137.5 -21.5z" />
    <glyph glyph-name="four.tamil" unicode="4" 
d="M364 0v162h-343v75l336 481h92v-477h104v-79h-104v-162h-85zM107 241h257v225q0 30 1 69.5t4 88.5h-4q-8 -19 -18.5 -38.5t-24.5 -39.5z" />
    <glyph glyph-name="five.tamil" unicode="5" 
d="M249 -12q-58 0 -106.5 10t-79.5 29v83q41 -23 92.5 -35t94.5 -12q83 0 129.5 40.5t46.5 114.5q0 146 -179 146q-53 0 -122 -15l-44 28l26 337h359v-80h-283l-17 -207q30 6 57.5 8.5t51.5 2.5q69 0 123.5 -23.5t86 -70.5t31.5 -117q0 -79 -33.5 -132.5t-94 -80
t-139.5 -26.5z" />
    <glyph glyph-name="six.tamil" unicode="6" 
d="M297 -12q-65 0 -111 25.5t-75 70t-43 101.5t-14 120q0 420 327 420q52 0 88 -9v-75q-36 12 -86 12q-115 0 -175 -70.5t-66 -219.5h6q55 84 169 84q98 0 152.5 -60.5t54.5 -157.5q0 -71 -27 -125.5t-77.5 -85t-122.5 -30.5zM296 62q68 0 104.5 44t36.5 123q0 71 -35.5 110
t-102.5 39q-46 0 -81 -19t-55 -49t-20 -63q0 -47 18.5 -89t52.5 -69t82 -27z" />
    <glyph glyph-name="seven.tamil" unicode="7" 
d="M137 0l293 634h-386v80h479v-68l-290 -646h-96z" />
    <glyph glyph-name="eight.tamil" unicode="8" 
d="M289 -12q-67 0 -121 19.5t-86 62t-32 111.5q0 125 148 192q-65 37 -95 81.5t-30 100.5q0 59 30 96.5t78.5 55.5t104.5 18t105 -18t79 -55.5t30 -97.5q0 -54 -33 -97.5t-103 -78.5q44 -22 79.5 -48.5t57 -61.5t21.5 -84q0 -65 -32 -109t-85 -65.5t-116 -21.5zM290 412
q65 27 94.5 60.5t29.5 78.5q0 54 -38.5 78.5t-90.5 24.5q-58 0 -92 -28t-34 -75q0 -39 17 -63t46.5 -41t67.5 -35zM287 59q61 0 105 30t44 94q0 46 -33 81t-113 66l-19 7q-71 -31 -103 -68t-32 -89q0 -56 39 -88.5t112 -32.5z" />
    <glyph glyph-name="nine.tamil" unicode="9" 
d="M190 -12q-17 0 -45.5 3t-44.5 7v75q39 -13 88 -13q117 0 176.5 70.5t64.5 219.5h-6q-54 -83 -170 -83q-97 0 -151 59.5t-54 156.5q0 71 27 126t78 85.5t123 30.5q63 0 109 -25.5t75.5 -69.5t43.5 -99.5t14 -115.5q0 -216 -82 -321.5t-246 -105.5zM272 337q45 0 80.5 18.5
t56 48t20.5 63.5q0 45 -18 87.5t-52.5 69.5t-82.5 27q-67 0 -104 -44t-37 -123q0 -71 35 -109t102 -38z" />
    <glyph glyph-name="colon.tamil" unicode=":" horiz-adv-x="268" 
d="M134 414q-26 0 -44 16t-18 52q0 38 18 53t44 15t44 -15t18 -53q0 -36 -18 -52t-44 -16zM134 -12q-26 0 -44 16t-18 52q0 38 18 53t44 15t44 -15t18 -53q0 -36 -18 -52t-44 -16z" />
    <glyph glyph-name="semicolon.tamil" unicode=";" horiz-adv-x="268" 
d="M134 414q-26 0 -44 16t-18 52q0 38 18 53t44 15t44 -15t18 -53q0 -36 -18 -52t-44 -16zM177 116l7 -11q-14 -53 -37.5 -116t-48.5 -118h-67q14 59 27.5 126t21.5 119h97z" />
    <glyph glyph-name="less.tamil" unicode="&#x3c;" 
d="M521 116l-471 207v50l471 235v-78l-376 -178l376 -158v-78z" />
    <glyph glyph-name="equal.tamil" unicode="=" 
d="M57 416v71h458v-71h-458zM57 217v71h458v-71h-458z" />
    <glyph glyph-name="greater.tamil" unicode="&#x3e;" 
d="M50 116v78l377 157l-377 179v78l471 -235v-50z" />
    <glyph glyph-name="question.tamil" unicode="?" horiz-adv-x="445" 
d="M216 725q91 0 144 -48.5t53 -134.5q0 -44 -12 -75.5t-36.5 -59.5t-60.5 -60q-32 -27 -49 -47t-23.5 -40t-6.5 -49v-9h-68v18q0 38 7 65t24.5 52t51.5 53q31 26 50.5 47.5t28.5 45t9 58.5q0 47 -28.5 76.5t-83.5 29.5q-40 0 -77 -12.5t-71 -29.5l-30 71q39 20 85 34.5
t93 14.5zM195 -12q-25 0 -43.5 16t-18.5 52q0 38 18.5 53t43.5 15t43.5 -15t18.5 -53q0 -36 -18.5 -52t-43.5 -16z" />
    <glyph glyph-name="bracketleft.tamil" unicode="[" horiz-adv-x="318" 
d="M80 -244v1044h198v-68h-111v-908h111v-68h-198z" />
    <glyph glyph-name="backslash.tamil" unicode="\" horiz-adv-x="393" 
d="M287 -244l-266 1044h85l266 -1044h-85z" />
    <glyph glyph-name="bracketright.tamil" unicode="]" horiz-adv-x="323" 
d="M40 -244v68h111v908h-111v68h198v-1044h-198z" />
    <glyph glyph-name="asciicircum.tamil" unicode="^" 
d="M39 268l225 451h50l218 -451h-79l-164 359l-171 -359h-79z" />
    <glyph glyph-name="underscore.tamil" unicode="_" horiz-adv-x="444" 
d="M-2 -154v64h448v-64h-448z" />
    <glyph glyph-name="braceleft.tamil" unicode="{" horiz-adv-x="369" 
d="M330 -244q-76 1 -125 41.5t-49 132.5v197q0 62 -32.5 87.5t-93.5 25.5v75q62 0 94 25.5t32 87.5v198q0 92 49 132t125 42v-73q-40 -1 -62.5 -19t-22.5 -77v-200q0 -65 -29.5 -101.5t-85.5 -48.5v-6q115 -25 115 -150v-201q0 -58 22.5 -76t62.5 -19v-73z" />
    <glyph glyph-name="bar.tamil" unicode="|" horiz-adv-x="551" 
d="M239 -244v1044h73v-1044h-73z" />
    <glyph glyph-name="braceright.tamil" unicode="}" horiz-adv-x="369" 
d="M40 800q50 -1 89.5 -19t62 -55.5t22.5 -99.5v-198q0 -62 32 -87t93 -25v-76q-61 0 -93 -25.5t-32 -86.5v-198q0 -92 -49.5 -132.5t-124.5 -41.5v73q40 1 62.5 19t22.5 77v200q0 64 29.5 101t84.5 49v6q-55 12 -84.5 49t-29.5 101v200q0 59 -22.5 77t-62.5 19v73z" />
    <glyph glyph-name="asciitilde.tamil" unicode="~" 
d="M270 319q-36 16 -58 22t-45 6q-30 0 -61 -17.5t-56 -42.5v78q50 53 120 53q28 0 57 -6t71 -24q40 -17 62 -23t50 -6q30 0 57.5 16.5t53.5 42.5v-79q-25 -25 -54 -38.5t-66 -13.5q-29 0 -57.5 6.5t-73.5 25.5z" />
    <glyph glyph-name="uni00A0.tamil" unicode="&#xa0;" horiz-adv-x="260" 
 />
    <glyph glyph-name="sfthyphen.tamil" unicode="&#xad;" horiz-adv-x="322" 
d="M40 262v82h242v-82h-242z" />
    <glyph glyph-name="uni00B2" unicode="&#xb2;" horiz-adv-x="312" 
d="M15 369v54l115 112q40 39 61 63.5t28.5 44t7.5 41.5q0 32 -18.5 48t-48.5 16t-55 -12t-50 -31l-35 46q29 25 63.5 40t77.5 15q64 0 100.5 -31.5t36.5 -86.5q0 -50 -30 -89t-85 -91l-81 -77h195v-62h-282z" />
    <glyph glyph-name="uni00B3" unicode="&#xb3;" horiz-adv-x="329" 
d="M146 361q-37 0 -69 6.5t-62 21.5v63q70 -34 131 -34q52 0 76 20.5t24 55.5q0 36 -28.5 52.5t-80.5 16.5h-57v55h57q50 0 73.5 19t23.5 51t-20 46.5t-50 14.5q-31 0 -58 -10.5t-53 -27.5l-36 46q31 23 65 36t81 13q71 0 107 -31t36 -79q0 -39 -20 -64t-54 -37v-2
q86 -20 86 -101q0 -58 -42 -94.5t-130 -36.5z" />
    <glyph glyph-name="multiply.tamil" unicode="&#xd7;" 
d="M457 574l50 -51l-171 -171l170 -169l-50 -51l-170 171l-168 -171l-52 51l171 169l-172 170l52 52l169 -172z" />
    <glyph glyph-name="divide.tamil" unicode="&#xf7;" 
d="M286 462q-26 0 -41.5 16t-15.5 45q0 60 57 60q55 0 55 -60q-1 -30 -15.5 -45.5t-39.5 -15.5zM51 317v71h470v-71h-470zM286 121q-57 0 -57 61q0 60 57 60q55 0 55 -60q0 -29 -15 -45t-40 -16z" />
    <glyph glyph-name="uni0951" unicode="&#x951;" horiz-adv-x="0" 
d="M-314 870h72v-211h-72v211z" />
    <glyph glyph-name="uni0952" unicode="&#x952;" horiz-adv-x="0" 
d="M-65 -182h-426v71h426v-71z" />
    <glyph glyph-name="danda.tamil" unicode="&#x964;" horiz-adv-x="350" 
d="M176 -49v652h86v-652h-86z" />
    <glyph glyph-name="dbldanda.tamil" unicode="&#x965;" horiz-adv-x="570" 
d="M396 -49v652h86v-652h-86zM176 -49v652h86v-652h-86z" />
    <glyph glyph-name="anusvaratamil" unicode="&#xb82;" horiz-adv-x="352" 
d="M56 722q0 53 33.5 87t86.5 34t86.5 -34t33.5 -87t-33.5 -86.5t-86.5 -33.5t-86.5 33.5t-33.5 86.5zM116 722q0 -27 16.5 -44.5t43.5 -17.5q26 0 43 17.5t17 44.5q0 28 -17 45.5t-43 17.5q-27 0 -43.5 -17.5t-16.5 -45.5z" />
    <glyph glyph-name="visargatamil" unicode="&#xb83;" horiz-adv-x="896" 
d="M450 477q-81 0 -129 50t-48 134q0 83 49 132.5t126 49.5q78 0 126 -49.5t48 -132.5q0 -56 -22 -97.5t-61 -64t-89 -22.5zM449 548q38 0 64.5 28.5t26.5 85.5q0 56 -27 83t-65 27q-40 0 -66.5 -28t-26.5 -84q0 -57 27 -84.5t67 -27.5zM222 -11q-82 0 -129.5 50.5
t-47.5 133.5t49 132.5t126 49.5q78 0 126 -49.5t48 -132.5q0 -56 -22 -97.5t-61 -64t-89 -22.5zM679 -11q-81 0 -129 50t-48 134q0 83 49 132.5t126 49.5q78 0 126 -49.5t48 -132.5q0 -56 -22 -97.5t-61 -64t-89 -22.5zM221 60q38 0 64.5 28.5t26.5 85.5q0 56 -27 83t-65 27
q-40 0 -66.5 -28t-26.5 -84q0 -57 27 -84.5t67 -27.5zM678 60q38 0 64.5 28.5t26.5 85.5q0 56 -27.5 83t-64.5 27q-40 0 -66.5 -28t-26.5 -84q0 -57 27 -84.5t67 -27.5z" />
    <glyph glyph-name="atamil" unicode="&#xb85;" horiz-adv-x="1121" 
d="M321 -124q-145 0 -218.5 51.5t-73.5 132.5q0 25 11 49t34 40q12 9 27.5 15t40 9t64.5 3h515q9 35 9 75q0 72 -31 134.5t-98 91.5q11 -18 18 -38.5t7 -42.5q0 -70 -42 -112.5t-121 -42.5q-68 0 -115.5 38t-47.5 114q0 62 29 100t75.5 55.5t98.5 17.5q77 0 135.5 -26
t98 -71t59.5 -101t20 -116q0 -40 -6 -76h137v378h86v-708h-86v258h-158q-33 -74 -98 -125t-154 -77t-195 -26h-21zM379 397q0 -37 22.5 -62.5t63.5 -25.5q37 0 60 23.5t23 67.5q0 28 -7.5 51.5t-26.5 44.5q-10 1 -21 1q-47 0 -80.5 -25t-33.5 -75zM344 -51q138 0 224 43.5
t127 111.5h-478q-31 0 -47.5 -1t-25 -4t-15.5 -9q-15 -12 -15 -34q0 -49 53 -78t160 -29h17z" />
    <glyph glyph-name="aatamil" unicode="&#xb86;" horiz-adv-x="1313" 
d="M379 397q0 -37 22.5 -62.5t63.5 -25.5q37 0 60 23.5t23 67.5q0 28 -7.5 51.5t-26.5 44.5q-10 1 -21 1q-47 0 -80.5 -25t-33.5 -75zM344 -51q138 0 224 43.5t127 111.5h-478q-31 0 -47.5 -1t-25 -4t-15.5 -9q-15 -12 -15 -34q0 -49 53 -78t160 -29h17zM321 -124
q-145 0 -218.5 51.5t-73.5 132.5q0 25 11 49t34 40q12 9 27.5 15t40 9t64.5 3h515q9 35 9 75q0 72 -31 134.5t-98 91.5q11 -18 18 -38.5t7 -42.5q0 -70 -42 -112.5t-121 -42.5q-68 0 -115.5 38t-47.5 114q0 62 29 100t75.5 55.5t98.5 17.5q77 0 135.5 -26t98 -71t59.5 -101
t20 -116q0 -40 -6 -76h137v378h86v-484q19 12 46.5 21t65.5 9q41 0 78.5 -18t61.5 -54.5t24 -92.5q0 -77 -46 -134.5t-131.5 -89.5t-203.5 -32h-6q-130 0 -202 43.5t-72 123.5q0 28 14.5 54t45 42.5t76.5 16.5q26 0 54 -5.5t53 -15.5l-14 -65q-22 7 -44.5 12t-42.5 5
q-31 0 -48 -12t-17 -35q0 -24 18.5 -45t62.5 -34t120 -13h7q85 0 151 21.5t103.5 63.5t37.5 101q0 43 -25 68.5t-69 25.5q-32 0 -56.5 -8.5t-41.5 -21.5v-125h-86v228h-158q-33 -74 -98 -125t-154 -77t-195 -26h-21z" />
    <glyph glyph-name="itamil" unicode="&#xb87;" horiz-adv-x="1126" 
d="M256 -321q-98 0 -152.5 50t-54.5 137q0 62 28.5 111t76.5 85q-38 74 -58 151.5t-20 165.5q0 87 29.5 170t90 149t153 105.5t218.5 39.5q243 0 358 -136q57 -67 85 -158t28 -227v-322h-86v272q0 143 -25.5 241t-83.5 158q-47 49 -114 73t-162 24q-84 0 -157.5 -25.5
t-129 -75.5t-87 -123t-31.5 -169q0 -82 16 -146t46 -127q54 24 119.5 36.5t135.5 12.5q64 0 119 -9t100 -25q17 65 17 133q0 71 -19 119.5t-49 78t-63 41.5q14 -20 22.5 -44.5t8.5 -52.5q0 -65 -42 -106.5t-121 -41.5q-45 0 -82 19t-59 54t-22 81q0 57 29.5 94.5t80.5 55.5
t114 18q96 0 160 -39t96.5 -109t32.5 -164q0 -36 -5.5 -81t-20.5 -92q67 -41 100.5 -98t33.5 -117q0 -87 -54.5 -137t-157.5 -50q-114 0 -218 52q-55 -25 -110.5 -38.5t-113.5 -13.5zM368 399q0 -37 22.5 -62t63.5 -25q37 0 60 23t23 67q0 51 -34 95h-8q-54 0 -90.5 -24.5
t-36.5 -73.5zM481 79q-71 0 -127 -11.5t-97 -31.5q34 -61 91.5 -121.5t128.5 -103.5q67 41 119.5 105t79.5 131q-43 17 -93.5 24.5t-101.5 7.5zM824 -129q0 41 -20.5 76.5t-55.5 61.5q-31 -73 -81 -133.5t-113 -103.5q31 -11 64.5 -16t70.5 -5q73 0 104 33.5t31 86.5z
M134 -128q0 -55 31.5 -88t102.5 -33q36 0 69.5 4t65.5 18q-61 36 -116.5 95.5t-95.5 125.5q-29 -27 -43 -58t-14 -64z" />
    <glyph glyph-name="iitamil" unicode="&#xb88;" horiz-adv-x="707" 
d="M88 0v554h594v-72h-199v-482h-86v482h-223v-482h-86zM286 214q-27 0 -45.5 18t-18.5 46q0 27 18 45t46 18q27 0 45 -18t18 -45q0 -28 -18 -46t-45 -18zM594 214q-27 0 -45.5 18t-18.5 46q0 27 18 45t46 18q27 0 45 -18t18 -45q0 -28 -18 -46t-45 -18z" />
    <glyph glyph-name="utamil" unicode="&#xb89;" horiz-adv-x="1067" 
d="M298 566q107 0 174 -29.5t98.5 -79t31.5 -108.5q0 -78 -37 -121.5t-103 -63.5t-153 -29l-80 -8q-55 -5 -69 -12t-14 -20q0 -23 36 -23h868v-72h-859q-71 0 -100 27t-29 67q0 45 36.5 70t127.5 34l77 7q91 9 136.5 30.5t61 51t15.5 62.5q0 59 -43.5 99t-124.5 47
q16 -21 25.5 -47t9.5 -56q0 -65 -41.5 -106.5t-121.5 -41.5q-72 0 -117.5 42t-45.5 112q0 57 31 94.5t85.5 55.5t124.5 18zM136 399q0 -37 21 -62t65 -25q38 0 60.5 23t22.5 67q0 25 -8 49t-27 46h-7q-54 0 -90.5 -24.5t-36.5 -73.5z" />
    <glyph glyph-name="uutamil" unicode="&#xb8a;" horiz-adv-x="1540" 
d="M298 566q107 0 174 -29.5t98.5 -79t31.5 -108.5q0 -78 -37 -121.5t-103 -63.5t-153 -29l-80 -8q-37 -3 -54 -7.5t-22.5 -10t-5.5 -14.5q0 -12 7.5 -17.5t27.5 -5.5h1312v-72h-1303q-71 0 -100 27t-29 67q0 45 36.5 70t127.5 34l72 7q70 7 113 21t66 33.5t31 42.5t8 47
q0 59 -43.5 99t-124.5 47q16 -21 25.5 -47t9.5 -56q0 -65 -42 -106.5t-121 -41.5q-45 0 -82 19t-59 54t-22 81q0 57 31 94.5t85.5 55.5t124.5 18zM858 132q-44 0 -81 20t-59.5 63t-22.5 110q0 83 34 136.5t88 79t114 25.5q54 0 91.5 -13.5t67.5 -36.5v38h404v-68h-118v-342
h-82v342h-135v-342h-82v285q-25 29 -57 48t-83 19q-68 0 -111.5 -36.5t-53.5 -97.5q21 17 45.5 26.5t49.5 9.5q59 0 94.5 -35t35.5 -93q0 -64 -37.5 -101t-101.5 -37zM136 399q0 -37 22.5 -62t63.5 -25q37 0 60 23t23 67q0 25 -8 49t-27 46h-7q-54 0 -90.5 -24.5
t-36.5 -73.5zM850 333q-42 0 -80 -41q6 -53 30 -74.5t58 -21.5q28 0 46 17.5t18 49.5q0 33 -20 51.5t-52 18.5z" />
    <glyph glyph-name="etamil" unicode="&#xb8e;" horiz-adv-x="801" 
d="M249 -12q-53 0 -97 26t-69.5 81.5t-25.5 143.5q0 77 25 134t68 95q47 43 117.5 64.5t183.5 21.5h333v-72h-170v-482h-86v482h-89q-65 0 -107.5 -7.5t-70 -21t-47.5 -30.5q-58 -51 -73 -132q26 17 56.5 27t63.5 10q72 0 116.5 -44t44.5 -119q0 -83 -46.5 -130t-126.5 -47z
M247 258q-31 0 -58.5 -12.5t-52.5 -33.5q4 -86 37 -121t80 -35q41 0 64 25.5t23 73.5q0 49 -26 76t-67 27z" />
    <glyph glyph-name="eetamil" unicode="&#xb8f;" horiz-adv-x="801" 
d="M249 -12q-53 0 -97 26t-69.5 81.5t-25.5 143.5q0 77 25 134t68 95q47 43 117.5 64.5t183.5 21.5h333v-72h-170v-482l-222 -212l-57 53l193 183v458h-89q-65 0 -107.5 -7.5t-70 -21t-47.5 -30.5q-58 -51 -73 -132q26 17 56.5 27t63.5 10q72 0 116.5 -44t44.5 -119
q0 -83 -46.5 -130t-126.5 -47zM247 258q-31 0 -58.5 -12.5t-52.5 -33.5q4 -83 37 -119.5t81 -36.5q38 0 62 25.5t24 73.5q0 49 -26 76t-67 27z" />
    <glyph glyph-name="aitamil" unicode="&#xb90;" horiz-adv-x="1022" 
d="M338 -321q-92 0 -153 31t-91.5 82.5t-30.5 112.5q0 55 18.5 94.5t49.5 65.5q52 43 131.5 56.5t169.5 13.5h89q113 0 187.5 12.5t114.5 48.5q48 45 48 138q0 79 -41.5 119t-103.5 40q-59 0 -91 -36q-19 -23 -27 -53.5t-8 -84.5v-114h-87v92q0 60 -16.5 104.5t-55 69.5
t-104.5 25q-23 0 -37.5 -1.5t-28.5 -4.5q58 -12 95.5 -50.5t37.5 -97.5q0 -72 -46.5 -115t-122.5 -43q-85 0 -128.5 46.5t-43.5 114.5q0 70 37 119.5t98.5 75.5t132.5 26q66 0 109.5 -16t69.5 -41.5t41 -53.5q24 53 68.5 82t109.5 29q75 0 126 -29.5t77.5 -82t26.5 -119.5
t-20 -114t-56 -78q-38 -33 -91.5 -50t-117 -23.5t-132.5 -6.5h-94q-100 0 -163 -10.5t-98 -44.5q-19 -20 -27.5 -45t-8.5 -56q0 -54 25.5 -88.5t68.5 -50.5t95 -16q42 0 73 8t54 28q25 22 35.5 53.5t10.5 85.5v62h87v-36q0 -41 5 -73.5t17 -57.5q16 -34 47 -52t80 -18
q32 0 60 13t45.5 44.5t17.5 85.5q0 28 -7 63t-18 58l85 29q13 -34 20 -69t7 -84q0 -69 -27.5 -116.5t-75 -72t-106.5 -24.5q-58 0 -96.5 16t-62 41.5t-35.5 53.5q-29 -54 -84.5 -82.5t-133.5 -28.5zM142 348q0 -43 21 -69.5t71 -26.5q39 0 63.5 22t24.5 61q0 51 -39 81
t-98 32q-23 -21 -33 -46.5t-10 -53.5z" />
    <glyph glyph-name="otamil" unicode="&#xb92;" horiz-adv-x="985" 
d="M409 -321q-55 0 -100.5 18.5t-73 57.5t-27.5 100q0 40 14.5 83t45.5 81l74 -36q-25 -37 -36 -66t-11 -61q0 -42 17.5 -64.5t45 -31t58.5 -8.5q67 0 106.5 34t70.5 86q6 10 14 22.5t15 22.5q-87 32 -121.5 88t-34.5 121q0 73 43.5 133.5t117.5 98.5l81 -39
q-12 -25 -18.5 -47.5t-6.5 -50.5q0 -35 16.5 -60.5t65.5 -25.5q41 0 62 31.5t21 78.5q0 77 -43 132t-121 84t-181 29q-136 0 -227 -36t-127 -102q22 14 49 22t52 8q66 0 107 -40t41 -113q0 -77 -43.5 -121t-120.5 -44q-48 0 -89.5 23.5t-67 69t-25.5 112.5q0 66 29.5 118
t76.5 88q67 51 152.5 71t191.5 20q127 0 217.5 -35t146.5 -96q34 -37 50.5 -85t16.5 -94q0 -33 -7.5 -67t-26.5 -62.5t-51 -45.5t-82 -17q-42 0 -77.5 14t-56.5 45t-21 80q0 18 3.5 38.5t11.5 37.5q-40 -28 -59.5 -65t-19.5 -80q0 -36 10 -63.5t29 -47.5q30 -32 77.5 -46
t132.5 -14h80v-71h-86q-27 0 -47.5 1t-36.5 3q-9 -11 -17.5 -25t-14.5 -24q-41 -80 -101.5 -124t-163.5 -44zM230 312q-27 0 -52 -12t-47 -32q0 -69 31 -102.5t77 -33.5q35 0 56 23t21 66t-23.5 67t-62.5 24z" />
    <glyph glyph-name="ootamil" unicode="&#xb93;" horiz-adv-x="985" 
d="M317 -7q57 0 92.5 -21t52.5 -53.5t17 -66.5q0 -30 -9.5 -54.5t-25.5 -44.5q53 9 86 38t63 81q9 15 16 26t13 19q-87 32 -121.5 88t-34.5 121q0 73 43.5 133.5t117.5 98.5l81 -39q-12 -25 -18.5 -47.5t-6.5 -50.5q0 -35 16.5 -60.5t65.5 -25.5q41 0 62 31.5t21 78.5
q0 77 -43 132t-121 84t-181 29q-136 0 -227 -36t-127 -102q22 14 49 22t52 8q66 0 107 -40t41 -113q0 -77 -43.5 -121t-120.5 -44q-48 0 -89.5 23.5t-67 69t-25.5 112.5q0 66 29.5 118t76.5 88q67 51 152.5 71t191.5 20q127 0 217.5 -35t146.5 -96q34 -37 50.5 -85t16.5 -94
q0 -33 -7.5 -67t-26.5 -62.5t-51 -45.5t-82 -17q-42 0 -77.5 14t-56.5 45t-21 80q0 18 3.5 38.5t11.5 37.5q-40 -28 -59.5 -65t-19.5 -80q0 -36 10 -63.5t29 -47.5q30 -32 77.5 -46t132.5 -14h80v-71h-86q-27 0 -48 1t-37 3q-9 -10 -16.5 -22.5t-14.5 -26.5
q-41 -80 -101.5 -124t-163.5 -44h-21q-53 0 -98.5 12t-76.5 37q-26 21 -41 50.5t-15 69.5q0 65 45 105t115 40zM230 312q-27 0 -52 -12t-47 -32q0 -69 31 -102.5t77 -33.5q35 0 56 23t21 66t-23.5 67t-62.5 24zM238 -155q0 -37 18.5 -57.5t46 -29t54.5 -9.5q39 40 39 90
q0 35 -18 60t-64 25q-17 0 -34.5 -7t-29.5 -24.5t-12 -47.5z" />
    <glyph glyph-name="autamil" unicode="&#xb94;" horiz-adv-x="2051" 
d="M409 -321q-55 0 -100.5 18.5t-73 57.5t-27.5 100q0 40 14.5 83t45.5 81l74 -36q-25 -37 -36 -66t-11 -61q0 -42 17.5 -64.5t45 -31t58.5 -8.5q67 0 106.5 34t70.5 86q6 10 14 22.5t15 22.5q-87 32 -121.5 88t-34.5 121q0 73 43.5 133.5t117.5 98.5l81 -39
q-12 -25 -18.5 -47.5t-6.5 -50.5q0 -35 16.5 -60.5t65.5 -25.5q41 0 62 31.5t21 78.5q0 77 -43 132t-121 84t-181 29q-136 0 -227 -36t-127 -102q22 14 49 22t52 8q66 0 107 -40t41 -113q0 -77 -43.5 -121t-120.5 -44q-48 0 -89.5 23.5t-67 69t-25.5 112.5q0 66 29.5 118
t76.5 88q67 51 152.5 71t191.5 20q127 0 217.5 -35t146.5 -96q34 -37 50.5 -85t16.5 -94q0 -33 -7.5 -67t-26.5 -62.5t-51 -45.5t-82 -17q-42 0 -77.5 14t-56.5 45t-21 80q0 18 3.5 38.5t11.5 37.5q-40 -28 -59.5 -65t-19.5 -80q0 -36 10 -63.5t29 -47.5q30 -32 77.5 -46
t132.5 -14h80v-71h-86q-27 0 -47.5 1t-36.5 3q-9 -11 -17.5 -25t-14.5 -24q-41 -80 -101.5 -124t-163.5 -44zM230 312q-27 0 -52 -12t-47 -32q0 -69 31 -102.5t77 -33.5q35 0 56 23t21 66t-23.5 67t-62.5 24zM1230 -12q-53 0 -97 26t-69.5 82.5t-25.5 146.5q0 82 24.5 142.5
t67.5 100.5t97 60t112 20q63 0 108.5 -17.5t82.5 -46.5v52h504v-72h-170v-482h-86v482h-174v-482h-86v407q-34 41 -77.5 63t-104.5 22q-88 0 -145 -56.5t-70 -145.5q26 17 57 27.5t64 10.5q72 0 116.5 -44t44.5 -119q0 -83 -46.5 -130t-126.5 -47zM1228 258q-30 0 -58 -12.5
t-52 -33.5q4 -86 37 -121t79 -35q41 0 64 25.5t23 73.5q0 49 -26 76t-67 27z" />
    <glyph glyph-name="katamil" unicode="&#xb95;" horiz-adv-x="825" 
d="M261 -12q-61 0 -108.5 19t-75.5 56t-28 89t26.5 91t84.5 60v251h523v-72h-187v-154h16q78 0 126 -11.5t82 -37.5q26 -20 41 -52.5t15 -74.5q0 -76 -45.5 -118t-128.5 -42q-23 0 -50 3t-50 10l19 67q33 -10 73 -10q96 0 96 94q0 46 -25.5 67.5t-65 28t-80.5 6.5h-23v-32
q0 -68 -11.5 -106t-32.5 -63q-31 -38 -79.5 -53.5t-111.5 -15.5zM239 482v-160q42 6 93 6h79v154h-172zM135 153q0 -47 38 -70t96 -23q43 0 75 13t49.5 46.5t17.5 93.5v45h-86q-51 0 -86.5 -6t-60.5 -20q-43 -25 -43 -79z" />
    <glyph glyph-name="ngatamil" unicode="&#xb99;" horiz-adv-x="1044" 
d="M88 0v554h516v-72h-174v-158q20 12 52 25t76 13q75 0 117.5 -42.5t42.5 -118.5q0 -36 -10 -69t-26 -60h188v482h86v-554h-612v72h251q17 25 27 55.5t10 64.5q0 53 -25 75t-64 22q-32 0 -61.5 -13t-51.5 -30v-102h-86v338h-170v-482h-86z" />
    <glyph glyph-name="catamil" unicode="&#xb9a;" horiz-adv-x="723" 
d="M261 -12q-61 0 -108.5 19t-75.5 56t-28 89t26.5 90.5t84.5 60.5v251h523v-72h-187v-154h187v-70h-187v-32q0 -68 -11.5 -106t-32.5 -63q-31 -38 -79.5 -53.5t-111.5 -15.5zM239 482v-160q42 6 93 6h79v154h-172zM269 60q43 0 75 13.5t49.5 47t17.5 92.5v45h-86
q-51 0 -86.5 -6t-60.5 -20q-43 -25 -43 -79q0 -47 38 -70t96 -23z" />
    <glyph glyph-name="jatamil" unicode="&#xb9c;" horiz-adv-x="1022" 
d="M331 566q66 0 109.5 -16t69.5 -41.5t41 -53.5q24 53 68.5 82t109.5 29q75 0 126 -29.5t77.5 -82t26.5 -119.5t-20 -114t-56 -78q-38 -33 -91.5 -50t-117 -23.5t-132.5 -6.5h-94q-100 0 -163 -10.5t-98 -44.5q-19 -20 -27.5 -45t-8.5 -56q0 -59 22 -92.5t54.5 -48
t64.5 -14.5q44 0 76 12.5t58 35t52 52.5q42 46 80 77.5t83 47.5t110 16q47 0 92 -17.5t74 -54.5t29 -95q0 -67 -45 -107t-114 -40q-57 0 -93 21t-52.5 53t-16.5 66q0 28 8.5 50t22.5 41q-29 -13 -55.5 -38t-51.5 -56q-50 -62 -107.5 -99.5t-144.5 -37.5q-83 0 -134.5 31.5
t-75.5 83.5t-24 111q0 55 18.5 94.5t49.5 65.5q52 43 131.5 56.5t169.5 13.5h89q113 0 188 12t114 49q48 45 48 138q0 79 -41.5 119t-103.5 40q-59 0 -91 -36q-19 -23 -27 -53.5t-8 -84.5v-114h-87v88q0 97 -39.5 150t-136.5 53q-23 0 -37.5 -1.5t-28.5 -4.5
q58 -12 95.5 -50.5t37.5 -97.5q0 -72 -46.5 -115t-122.5 -43q-85 0 -128.5 46.5t-43.5 114.5q0 70 37 119.5t98.5 75.5t132.5 26zM142 348q0 -43 21 -69.5t71 -26.5q39 0 63.5 22t24.5 61q0 51 -39 81t-98 32q-23 -21 -33 -46.5t-10 -53.5zM707 -168q0 -34 18.5 -59
t63.5 -25q26 0 51 17t25 62q0 37 -18 57t-45.5 28.5t-55.5 10.5q-39 -40 -39 -91z" />
    <glyph glyph-name="nyatamil" unicode="&#xb9e;" horiz-adv-x="1210" 
d="M503 -12q-53 0 -96.5 26t-69.5 81.5t-26 143.5q0 77 25 134t68 95q47 43 117.5 64.5t183.5 21.5h333v-72h-170v-198q19 13 47.5 24t64.5 11q81 0 131.5 -61.5t50.5 -174.5q0 -111 -43 -188.5t-117 -125t-167.5 -69t-194.5 -21.5h-27q-124 0 -215.5 26t-155 72t-101.5 106
t-55.5 128t-17.5 138v21q0 69 18.5 138.5t48.5 132.5t64 113l74 -44q-57 -86 -88 -173t-31 -174v-13q0 -84 27 -155.5t83.5 -125t145 -83.5t212.5 -30h13q128 0 227 35t155.5 107.5t56.5 185.5q0 80 -29 121.5t-81 41.5q-28 0 -52 -11t-44 -25v-211h-86v482h-89
q-65 0 -107.5 -7.5t-70 -21t-47.5 -30.5q-58 -51 -73 -132q26 17 56.5 27t62.5 10q73 0 117.5 -44t44.5 -119q0 -83 -46.5 -130t-126.5 -47zM500 258q-30 0 -57.5 -12.5t-52.5 -33.5q4 -83 36.5 -119.5t81.5 -36.5q38 0 62 25.5t24 73.5q0 49 -26.5 76t-67.5 27z" />
    <glyph glyph-name="ttatamil" unicode="&#xb9f;" horiz-adv-x="693" 
d="M88 0v554h86v-482h502v-72h-588z" />
    <glyph glyph-name="nnatamil" unicode="&#xba3;" horiz-adv-x="1648" 
d="M249 -12q-53 0 -97 26t-69.5 82.5t-25.5 146.5q0 99 43.5 171.5t122.5 112t185 39.5q69 0 128.5 -15.5t115.5 -49.5q91 65 214 65q64 0 115 -16t96 -48q28 16 61.5 27.5t80 18t114.5 6.5h298v-72h-170v-482h-86v482h-65q-53 0 -94.5 -5.5t-80.5 -24.5q49 -49 77 -116
t28 -147q0 -100 -43.5 -150.5t-119.5 -50.5q-57 0 -93.5 26t-54 70.5t-17.5 101.5q0 76 24 142.5t80 125.5q-36 21 -73.5 30t-74.5 9q-45 0 -84 -8.5t-76 -30.5q55 -51 86 -117.5t31 -147.5q0 -100 -43.5 -150.5t-118.5 -50.5q-58 0 -94.5 26t-54 70.5t-17.5 101.5
q0 79 24 147t72 117q-43 23 -92 32.5t-103 9.5q-110 0 -176 -56.5t-82 -145.5q26 18 57 28t64 10q72 0 116.5 -44t44.5 -119q0 -83 -46.5 -130t-126.5 -47zM996 189q0 -69 21 -101t57 -32q32 0 49.5 19t24.5 48t7 59q0 73 -24.5 132.5t-59.5 95.5q-37 -36 -56 -95.5
t-19 -125.5zM581 189q0 -69 21 -101t58 -32q31 0 48.5 19t24.5 48t7 59q0 69 -23 125.5t-67 99.5q-38 -43 -53.5 -101.5t-15.5 -116.5zM247 258q-31 0 -58.5 -12.5t-52.5 -33.5q5 -86 37.5 -121t79.5 -35q41 0 64 25.5t23 73.5q0 49 -26 76t-67 27z" />
    <glyph glyph-name="tatamil" unicode="&#xba4;" horiz-adv-x="825" 
d="M261 -12q-61 0 -108.5 19t-75.5 56t-28 89t26.5 91t84.5 60v251h523v-72h-187v-154q82 -2 145.5 -24.5t99.5 -72.5t36 -133q0 -67 -25 -112.5t-71 -79.5q-49 -35 -118.5 -48.5t-177.5 -13.5h-113q-42 0 -65 -6t-40 -17t-25.5 -31t-8.5 -53q0 -30 3 -54l-82 -4
q-3 18 -5 39.5t-2 38.5q0 44 15.5 74.5t41.5 49.5t58.5 27t82.5 8h109q89 0 146 7.5t92 23t58 40.5q41 44 41 118q0 59 -28 91.5t-73 45.5t-94 15v-31q0 -68 -11.5 -106t-32.5 -63q-31 -38 -79.5 -53.5t-111.5 -15.5zM239 482v-160q42 6 93 6h79v154h-172zM135 153
q0 -47 38 -70t96 -23q43 0 75 13.5t49.5 47t17.5 92.5v45h-86q-51 0 -86.5 -6t-60.5 -20q-43 -25 -43 -79z" />
    <glyph glyph-name="natamil" unicode="&#xba8;" horiz-adv-x="789" 
d="M88 0v554h521v-72h-175v-156q25 15 55.5 25.5t67.5 10.5q51 0 92.5 -26t66.5 -77t25 -125q0 -90 -26.5 -142t-72.5 -86q-49 -35 -118 -48.5t-177 -13.5h-75q-42 0 -65 -6t-40 -17t-25.5 -31t-8.5 -53q0 -30 3 -54l-82 -4q-3 18 -5 39.5t-2 38.5q0 44 15.5 74.5t41.5 49.5
t58.5 27t82.5 8h93q82 0 133.5 7t83.5 22.5t55 40.5q20 22 32.5 57t12.5 88q0 77 -30.5 117.5t-88.5 40.5q-27 0 -54 -11.5t-48 -27.5v-250h-86v482h-174v-482h-86z" />
    <glyph glyph-name="nnnatamil" unicode="&#xba9;" horiz-adv-x="1234" 
d="M249 -12q-53 0 -97 26t-69.5 82.5t-25.5 146.5q0 99 43.5 171.5t122.5 112t185 39.5q70 0 130.5 -16t117.5 -51q29 16 62.5 28.5t81.5 19.5t118 7h299v-72h-170v-482h-86v482h-66q-55 0 -99 -6.5t-83 -26.5q51 -47 81.5 -113.5t30.5 -146.5q0 -100 -43.5 -150.5
t-118.5 -50.5q-58 0 -94.5 26t-54 70.5t-17.5 101.5q0 154 98 263q-43 24 -92.5 33.5t-104.5 9.5q-110 0 -176 -56.5t-82 -145.5q26 18 57 28t64 10q72 0 116.5 -44t44.5 -119q0 -83 -46.5 -130t-126.5 -47zM581 189q0 -69 21 -101t58 -32q31 0 48.5 19t24.5 48t7 59
q0 135 -88 224q-35 -38 -53 -97t-18 -120zM247 258q-31 0 -58.5 -12.5t-52.5 -33.5q5 -86 37.5 -121t79.5 -35q41 0 64 25.5t23 73.5q0 49 -26 76t-67 27z" />
    <glyph glyph-name="patamil" unicode="&#xbaa;" horiz-adv-x="778" 
d="M88 0v554h86v-482h430v482h86v-554h-602z" />
    <glyph glyph-name="matamil" unicode="&#xbae;" horiz-adv-x="858" 
d="M580 566q74 0 122.5 -38.5t71.5 -107t23 -158.5q0 -70 -15 -120t-48 -82q-35 -34 -85.5 -47t-136.5 -13h-424v554h86v-482h226v283q0 61 11 98t34 62t55 38t80 13zM578 494q-17 0 -33 -5.5t-27 -17.5q-16 -18 -24 -44.5t-8 -88.5v-266h47q67 0 105.5 19t54.5 62t16 114
q0 63 -13.5 114.5t-42.5 82t-75 30.5z" />
    <glyph glyph-name="yatamil" unicode="&#xbaf;" horiz-adv-x="963" 
d="M240 -11q-72 0 -111 47q-11 14 -20.5 33.5t-15 50.5t-5.5 82v352h86v-331q0 -47 4 -84t24 -57q10 -10 23 -15.5t33 -5.5q27 0 51 13t45 42v438h86v-482h349v482h86v-554h-521v35q-19 -18 -47 -32t-67 -14z" />
    <glyph glyph-name="ratamil" unicode="&#xbb0;" horiz-adv-x="640" 
d="M231 -212l-57 53l193 183v458h-193v-482h-86v554h535v-72h-170v-482z" />
    <glyph glyph-name="rratamil" unicode="&#xbb1;" horiz-adv-x="869" 
d="M570 566q114 0 174.5 -84t60.5 -238q0 -122 -31 -199.5t-84 -121.5q-58 -47 -136 -63t-166 -16h-118q-42 0 -65 -6t-40 -17t-25.5 -31t-8.5 -53q0 -30 3 -54l-82 -4q-3 18 -5 39.5t-2 38.5q0 44 15.5 74.5t41.5 49.5t58.5 27t82.5 8h123q93 0 159 13.5t108.5 48.5
t62.5 100.5t20 168.5q0 91 -19.5 145t-54 78t-79.5 24q-26 0 -49.5 -8.5t-39.5 -27.5q-20 -23 -28 -54t-8 -85v-319h-86v321q0 49 -5 83t-20 57q-10 15 -26 24t-39 9t-38.5 -8.5t-26.5 -22.5q-16 -23 -20.5 -57.5t-4.5 -78.5v-327h-86v341q0 73 11 112.5t42 70.5
q42 42 116 42q100 0 144 -94q21 41 63.5 67.5t107.5 26.5z" />
    <glyph glyph-name="latamil" unicode="&#xbb2;" horiz-adv-x="1013" 
d="M249 -12q-53 0 -97 26t-69.5 82t-25.5 146q0 108 41.5 180t110.5 108t150 36q48 0 98 -13t88 -51q42 -41 57 -100t15 -150q0 -52 8 -91.5t33 -65.5q30 -33 86 -33q33 0 60 16t43 54t16 105q0 99 -35.5 175t-89.5 135l78 53q62 -79 98 -166t36 -190q0 -128 -54.5 -192
t-158.5 -64q-88 0 -140 50q-66 61 -67 212q0 36 -4 74t-16 72.5t-38 58.5q-20 18 -48 27.5t-69 9.5q-90 0 -145.5 -56t-69.5 -146q27 18 57.5 28t63.5 10q72 0 116.5 -44t44.5 -119q0 -83 -46.5 -130t-126.5 -47zM247 258q-31 0 -58.5 -12.5t-52.5 -33.5q4 -86 37 -121
t80 -35q41 0 64 25.5t23 73.5q0 49 -26 76t-67 27z" />
    <glyph glyph-name="llatamil" unicode="&#xbb3;" horiz-adv-x="1070" 
d="M249 -12q-53 0 -97 26t-69.5 82.5t-25.5 146.5q0 82 24.5 142.5t67.5 100.5t97 60t112 20q63 0 108.5 -17.5t82.5 -46.5v52h504v-72h-170v-482h-86v482h-174v-482h-86v407q-34 41 -77.5 63t-104.5 22q-88 0 -145 -56.5t-70 -145.5q26 17 57 27.5t64 10.5q72 0 116.5 -44
t44.5 -119q0 -83 -46.5 -130t-126.5 -47zM247 258q-30 0 -58 -12.5t-52 -33.5q4 -86 37 -121t79 -35q41 0 64 25.5t23 73.5q0 49 -26 76t-67 27z" />
    <glyph glyph-name="lllatamil" unicode="&#xbb4;" horiz-adv-x="858" 
d="M220 -61q16 0 35 -1.5t35 -3.5l-8 -67q-21 3 -49 3q-37 0 -60.5 -12.5t-23.5 -42.5q0 -27 19.5 -41.5t49 -19.5t58.5 -5h25q77 0 116 26.5t62 72.5q3 6 6 10q-37 17 -60 51t-25 91h-312v554h86v-482h226v283q0 61 11 98t34 62t55 38t80 13q74 0 122.5 -38.5t71.5 -107
t23 -158.5q0 -70 -15 -120t-48 -82q-35 -34 -85.5 -47t-136.5 -13h-27q1 -29 10.5 -49.5t31.5 -31.5q13 -6 33 -9.5t51 -3.5h128v-72h-179q-4 -7 -8 -16q-22 -42 -52.5 -73.5t-79 -48.5t-126.5 -17h-25q-47 0 -89.5 10.5t-68.5 28.5q-19 14 -33.5 38t-14.5 58
q0 58 43.5 91.5t113.5 33.5zM578 494q-17 0 -33 -5.5t-27 -17.5q-16 -18 -24 -44.5t-8 -88.5v-266h47q67 0 105.5 19t54.5 62t16 114q0 63 -13.5 114.5t-42.5 82t-75 30.5z" />
    <glyph glyph-name="vatamil" unicode="&#xbb5;" horiz-adv-x="1044" 
d="M249 -12q-53 0 -97 26t-69.5 82.5t-25.5 146.5q0 107 42.5 179t112.5 108t152 36q102 0 165 -39t92.5 -104t29.5 -143q0 -64 -14 -114t-34 -94h267v482h86v-554h-441l-4 63q23 35 37.5 86.5t14.5 119.5q0 107 -55 165t-148 58q-92 0 -149.5 -56.5t-70.5 -145.5
q26 17 57 27.5t64 10.5q72 0 116.5 -44t44.5 -119q0 -83 -46.5 -130t-126.5 -47zM247 258q-30 0 -58 -12.5t-52 -33.5q4 -86 37 -121t79 -35q39 0 63 25.5t24 73.5q0 49 -26 76t-67 27z" />
    <glyph glyph-name="shatamil" unicode="&#xbb6;" horiz-adv-x="1172" 
d="M301 -12q-104 0 -161 59q-27 29 -40.5 72t-13.5 110v325h86v-309q0 -68 10 -101.5t29 -53.5q16 -16 38.5 -22.5t51.5 -6.5q28 0 50.5 6.5t39.5 22.5q19 20 29 53.5t10 101.5v309h656v-321q0 -127 -54 -186q-56 -59 -161 -59q-104 0 -161 59q-27 29 -40.5 72.5
t-13.5 112.5v250h-140v-251q0 -68 -13.5 -111.5t-40.5 -72.5q-56 -59 -161 -59zM871 61q28 0 50 6.5t39 22.5q20 20 30 53.5t10 101.5v237h-258v-237q0 -68 10 -101.5t29 -53.5q16 -16 38.5 -22.5t51.5 -6.5z" />
    <glyph glyph-name="ssatamil" unicode="&#xbb7;" horiz-adv-x="1345" 
d="M249 -12q-53 0 -97 26t-69.5 82.5t-25.5 146.5q0 107 42.5 179t112.5 108t152 36q102 0 165 -39t92.5 -104t29.5 -143q0 -64 -14 -114t-34 -94h314l28 112q-92 8 -151 57t-59 143q0 50 20.5 91.5t59.5 66t94 24.5q57 0 92 -22t51.5 -58.5t16.5 -79.5q0 -35 -5.5 -72
t-15.5 -78q50 8 84 29.5t56 42.5h81v-328h-285l-72 -284l-79 22l66 262h-384l-4 63q23 35 37.5 86.5t14.5 119.5q0 107 -55 165t-148 58q-92 0 -149.5 -56.5t-70.5 -145.5q26 17 57 27.5t64 10.5q72 0 116.5 -42.5t44.5 -120.5q0 -83 -46.5 -130t-126.5 -47zM818 382
q0 -63 40 -94t104 -35q20 87 20 150q0 43 -19 67t-54 24q-41 0 -66 -28t-25 -84zM247 258q-30 0 -58 -12.5t-52 -33.5q4 -86 37 -121t79 -35q39 0 63 25.5t24 73.5q0 49 -26 76t-67 27zM1192 247q-26 -22 -67 -40.5t-95 -23.5l-28 -111h186v81q0 23 1 48t3 46z" />
    <glyph glyph-name="satamil" unicode="&#xbb8;" horiz-adv-x="1285" 
d="M249 -12q-53 0 -97 26t-69.5 82t-25.5 146q0 108 41.5 180t110.5 108t150 36q68 0 119 -25.5t89 -79.5q18 44 56 74.5t96 30.5q37 0 66.5 -11t51.5 -34q25 -27 38.5 -68.5t13.5 -109.5v-88q0 -55 8 -94.5t33 -65.5q30 -33 85 -33q33 0 60.5 16t43.5 54t16 105
q0 99 -35.5 175t-90.5 135l78 53q62 -79 98.5 -166t36.5 -190q0 -128 -54.5 -192t-158.5 -64q-88 0 -140 50q-32 30 -49.5 83t-17.5 129v38q0 65 -4.5 102t-14.5 59q-11 24 -28.5 34.5t-40.5 10.5q-21 0 -36.5 -9t-25.5 -22q-15 -19 -22 -45.5t-7 -66.5v-351h-86v293
q0 63 -17.5 100.5t-42.5 59.5q-28 23 -56.5 31t-65.5 8q-90 0 -145.5 -56t-69.5 -146q27 18 58 28t63 10q72 0 116.5 -44t44.5 -119q0 -83 -46.5 -130t-126.5 -47zM247 258q-31 0 -58.5 -12.5t-52.5 -33.5q4 -86 37 -121t80 -35q39 0 63 25.5t24 73.5q0 49 -26 76t-67 27z
" />
    <glyph glyph-name="hatamil" unicode="&#xbb9;" horiz-adv-x="1619" 
d="M249 -12q-53 0 -97 26t-69.5 82.5t-25.5 146.5q0 107 42.5 179t112.5 108t152 36q102 0 165 -39t92.5 -104t29.5 -143q0 -64 -14 -114t-34 -94h233v269q0 73 11 112.5t42 70.5q42 42 116 42q100 0 144 -94q21 41 63.5 67.5t107.5 26.5q114 0 174.5 -84t60.5 -238
q0 -122 -31 -199.5t-84 -121.5q-58 -47 -136 -63t-166 -16h-866q-42 0 -65 -6t-40 -17t-25.5 -31t-8.5 -53q0 -30 3 -54l-82 -4q-3 18 -5 39.5t-2 38.5q0 44 15.5 74.5t41.5 49.5t58.5 27t82.5 8h871q93 0 159 13.5t108.5 48.5t62.5 100.5t20 168.5q0 91 -19.5 145t-54 78
t-78.5 24q-27 0 -50.5 -8.5t-39.5 -27.5q-20 -23 -28 -54t-8 -85v-319h-86v321q0 49 -5 83t-20 57q-10 15 -26 24t-39 9t-38.5 -8.5t-26.5 -22.5q-16 -23 -20.5 -57t-4.5 -78v-328h-407l-4 63q23 35 37.5 86.5t14.5 119.5q0 107 -55 165t-148 58q-92 0 -149.5 -56.5
t-70.5 -145.5q26 17 57 27.5t64 10.5q72 0 116.5 -44t44.5 -119q0 -83 -46.5 -130t-126.5 -47zM247 258q-30 0 -58 -12.5t-52 -33.5q4 -86 37 -121t79 -35q39 0 63 25.5t24 73.5q0 49 -26 76t-67 27z" />
    <glyph glyph-name="aavowelsigntamil" unicode="&#xbbe;" horiz-adv-x="640" 
d="M88 0v554h535v-72h-170v-482h-86v482h-193v-482h-86z" />
    <glyph glyph-name="ivowelsigntamil" unicode="&#xbbf;" horiz-adv-x="262" 
d="M-79 843q109 0 177 -70q23 -23 40 -57.5t26.5 -89t9.5 -137.5v-489h-86v471q0 71 -6.5 118.5t-18.5 78t-29 50.5q-21 26 -50.5 38t-64.5 12q-65 0 -99.5 -36.5t-34.5 -94.5q0 -28 8 -60.5t25 -61.5h-91q-13 30 -20.5 59.5t-7.5 61.5q0 72 31 117.5t81.5 67.5t109.5 22z
" />
    <glyph glyph-name="iivowelsigntamil" unicode="&#xbc0;" horiz-adv-x="0" 
d="M-168 843q86 0 131 -34.5t45 -90.5q0 -63 -38 -93.5t-93 -30.5q-59 0 -93.5 29.5t-34.5 81.5q0 14 3 31.5t11 35.5q-58 -16 -85.5 -55.5t-27.5 -90.5q0 -28 7 -50.5t19 -40.5l-84 -6q-9 20 -14 44t-5 51q0 58 27.5 108t84.5 80.5t147 30.5zM-185 719q0 -34 17.5 -48.5
t44.5 -14.5q29 0 45 16t16 41q0 35 -28 51t-72 16h-4q-10 -15 -14.5 -30.5t-4.5 -30.5z" />
    <glyph glyph-name="uvowelsigntamil" unicode="&#xbc1;" horiz-adv-x="502" 
d="M294 217q-58 0 -95.5 18.5t-58.5 48t-29.5 64.5t-8.5 68q0 19 1 35.5t3 30.5h-325v72h447q68 0 108.5 -11t68.5 -34q26 -22 42 -53.5t16 -77.5q0 -74 -47.5 -117.5t-121.5 -43.5zM187 419q0 -58 23.5 -93.5t79.5 -35.5q44 0 66 25.5t22 63.5q0 25 -9 43.5t-25 31.5
q-16 14 -43 21t-91 7h-18q-3 -13 -4 -28.5t-1 -34.5z" />
    <glyph glyph-name="uuvowelsigntamil" unicode="&#xbc2;" horiz-adv-x="844" 
d="M402 13q-104 0 -187.5 27.5t-136.5 64.5l42 69q46 -34 115 -61t164 -27q86 0 154 31t107.5 101.5t39.5 189.5q0 82 -28.5 145t-84 99.5t-137.5 36.5q-87 0 -143 -39t-80 -96h21q68 0 108.5 -11t68.5 -34q26 -22 42 -53.5t16 -77.5q0 -74 -47.5 -117.5t-121.5 -43.5
q-70 0 -112 29.5t-61 77t-19 100.5q0 29 5 58h-346v72h357q21 61 63.5 108.5t105.5 74.5t146 27q106 0 180.5 -45t114 -125t39.5 -186q0 -142 -50.5 -229t-137.5 -126.5t-197 -39.5zM207 419q0 -67 26.5 -98t76.5 -31q44 0 66 25.5t22 63.5q0 25 -9 43.5t-25 31.5
q-16 14 -43 21t-91 7h-18q-5 -31 -5 -63z" />
    <glyph glyph-name="evowelsigntamil" unicode="&#xbc6;" horiz-adv-x="901" 
d="M400 -12q-100 0 -177.5 50.5t-121.5 141.5t-44 213q0 112 36.5 196t97 140.5t134.5 85t150 28.5q80 0 136 -20t96 -55q37 -34 60.5 -79t34.5 -111t11 -163v-415h-86v365q0 137 -16.5 217t-62.5 127q-57 59 -173 59q-51 0 -109 -20t-108.5 -65t-82.5 -118t-32 -180
q0 -109 37.5 -182.5t97.5 -110.5q-10 21 -15.5 45.5t-5.5 54.5q0 42 19 77.5t58 57.5t98 22q73 0 121.5 -46t48.5 -130q0 -65 -27.5 -106t-73 -60t-101.5 -19zM335 171q0 -30 8 -58t25 -52q21 -3 43 -3q51 0 81.5 28t30.5 87q0 45 -24.5 74.5t-68.5 29.5t-69.5 -28
t-25.5 -78z" />
    <glyph glyph-name="eevowelsigntamil" unicode="&#xbc7;" horiz-adv-x="720" 
d="M451 -12q-81 0 -152.5 27.5t-126 81.5t-85.5 134t-31 184t32.5 184t90 134.5t133.5 82t163 27.5q60 0 109.5 -18t79 -56.5t29.5 -101.5q0 -79 -47.5 -121t-121.5 -42q-77 0 -119 42.5t-42 109.5q0 33 11 61t28 49q-71 -15 -130 -58.5t-94.5 -115.5t-35.5 -174
q0 -99 30.5 -170t82 -115t116.5 -63q-14 23 -22.5 51.5t-8.5 63.5q0 69 44 115t126 46q73 0 121 -44.5t48 -128.5q0 -65 -30 -106t-81.5 -60t-116.5 -19zM443 665q0 -45 23 -68t60 -23q41 0 63.5 26.5t22.5 66.5q0 54 -37.5 79.5t-92.5 25.5q-21 -25 -30 -51.5t-9 -55.5z
M420 171q0 -65 35 -113h9q59 0 96.5 28t37.5 87q0 44 -21.5 73.5t-66.5 29.5q-39 0 -64.5 -26.5t-25.5 -78.5z" />
    <glyph glyph-name="aivowelsigntamil" unicode="&#xbc8;" horiz-adv-x="1160" 
d="M249 -12q-53 0 -97 26t-69.5 82.5t-25.5 146.5q0 99 43.5 171.5t122 112t185.5 39.5q68 0 127 -15t113 -47q38 30 83.5 46t96.5 16q94 0 153 -39.5t87 -104.5t28 -142q0 -70 -13.5 -123t-34 -94.5t-43.5 -74.5l-72 44q31 45 53 102.5t22 141.5q0 98 -49 157t-138 59
q-69 0 -119 -32q60 -51 91.5 -121.5t31.5 -149.5q0 -100 -43.5 -150.5t-118.5 -50.5q-58 0 -94.5 26t-54 70.5t-17.5 101.5q0 86 26 150t69 115q-43 23 -91.5 32t-102.5 9q-110 0 -176 -56.5t-82 -145.5q27 18 58 28t63 10q72 0 116.5 -44t44.5 -119q0 -83 -46.5 -130
t-126.5 -47zM581 189q0 -69 21 -101t58 -32q31 0 48.5 19t24.5 48t7 59q0 70 -23.5 127t-68.5 101q-35 -46 -51 -101.5t-16 -119.5zM247 258q-31 0 -58.5 -12.5t-52.5 -33.5q5 -86 38 -121t80 -35q40 0 63 25.5t23 73.5q0 49 -26 76t-67 27z" />
    <glyph glyph-name="ovowelsigntamil" unicode="&#xbca;" horiz-adv-x="1707" 
d="M400 -12q-100 0 -177.5 50.5t-121.5 141.5t-44 213q0 112 36.5 196t97 140.5t134.5 85t150 28.5q80 0 136 -20t96 -55q37 -34 60.5 -79t34.5 -111t11 -163v-415h-86v365q0 137 -16.5 217t-62.5 127q-57 59 -173 59q-51 0 -109 -20t-108.5 -65t-82.5 -118t-32 -180
q0 -109 37.5 -182.5t97.5 -110.5q-10 21 -15.5 45.5t-5.5 54.5q0 42 19 77.5t58 57.5t98 22q73 0 121.5 -46t48.5 -130q0 -65 -27.5 -106t-73 -60t-101.5 -19zM335 171q0 -30 8 -58t25 -52q21 -3 43 -3q51 0 81.5 28t30.5 87q0 45 -24.5 74.5t-68.5 29.5t-69.5 -28
t-25.5 -78zM982 297q-29 0 -48 18.5t-19 48.5q0 29 19 48t48 19t48 -19t19 -48q0 -30 -19.5 -48.5t-47.5 -18.5zM1155 0v554h535v-72h-170v-482h-86v482h-193v-482h-86z" />
    <glyph glyph-name="oovowelsigntamil" unicode="&#xbcb;" horiz-adv-x="1510" 
d="M451 -12q-81 0 -152.5 27.5t-126 81.5t-85.5 134t-31 184t32.5 184t90 134.5t133.5 82t163 27.5q60 0 109.5 -18t79 -56.5t29.5 -101.5q0 -79 -47.5 -121t-121.5 -42q-77 0 -119 42.5t-42 109.5q0 33 11 61t28 49q-71 -15 -130 -58.5t-94.5 -115.5t-35.5 -174
q0 -99 30.5 -170t82 -115t116.5 -63q-14 23 -22.5 51.5t-8.5 63.5q0 69 44 115t126 46q73 0 121 -44.5t48 -128.5q0 -65 -30 -106t-81.5 -60t-116.5 -19zM443 665q0 -45 23 -68t60 -23q41 0 63.5 26.5t22.5 66.5q0 54 -37.5 79.5t-92.5 25.5q-21 -25 -30 -51.5t-9 -55.5z
M420 171q0 -65 35 -113h9q59 0 96.5 28t37.5 87q0 44 -21.5 73.5t-66.5 29.5q-39 0 -64.5 -26.5t-25.5 -78.5zM799 297q-29 0 -48 18.5t-19 48.5q0 29 19 48t48 19t48 -19t19 -48q0 -30 -19.5 -48.5t-47.5 -18.5zM958 0v554h535v-72h-170v-482h-86v482h-193v-482h-86z" />
    <glyph glyph-name="auvowelsigntamil" unicode="&#xbcc;" horiz-adv-x="2150" 
d="M400 -12q-100 0 -177.5 50.5t-121.5 141.5t-44 213q0 112 36.5 196t97 140.5t134.5 85t150 28.5q80 0 136 -20t96 -55q37 -34 60.5 -79t34.5 -111t11 -163v-415h-86v365q0 137 -16.5 217t-62.5 127q-57 59 -173 59q-51 0 -109 -20t-108.5 -65t-82.5 -118t-32 -180
q0 -109 37.5 -182.5t97.5 -110.5q-10 21 -15.5 45.5t-5.5 54.5q0 42 19 77.5t58 57.5t98 22q73 0 121.5 -46t48.5 -130q0 -65 -27.5 -106t-73 -60t-101.5 -19zM335 171q0 -30 8 -58t25 -52q21 -3 43 -3q51 0 81.5 28t30.5 87q0 45 -24.5 74.5t-68.5 29.5t-69.5 -28
t-25.5 -78zM983 297q-29 0 -48 18.5t-19 48.5q0 29 19 48t48 19t48 -19t19 -48q0 -30 -19.5 -48.5t-47.5 -18.5zM1329 -12q-53 0 -97 26t-69.5 82.5t-25.5 146.5q0 82 24.5 142.5t67.5 100.5t97 60t112 20q63 0 108.5 -17.5t82.5 -46.5v52h504v-72h-170v-482h-86v482h-174
v-482h-86v407q-34 41 -77.5 63t-104.5 22q-88 0 -145 -56.5t-70 -145.5q26 17 57 27.5t64 10.5q72 0 116.5 -44t44.5 -119q0 -83 -46.5 -130t-126.5 -47zM1327 258q-30 0 -58 -12.5t-52 -33.5q4 -86 37 -121t79 -35q41 0 64 25.5t23 73.5q0 49 -26 76t-67 27z" />
    <glyph glyph-name="viramatamil" unicode="&#xbcd;" horiz-adv-x="0" 
d="M-278 678q-29 0 -48 18.5t-19 48.5q0 29 19 48t48 19t48 -19t19 -48q0 -30 -19.5 -48.5t-47.5 -18.5z" />
    <glyph glyph-name="ohmsigntamil" unicode="&#xbd0;" horiz-adv-x="1141" 
d="M89 -131q0 29 12.5 72t39.5 80l69 -35q-23 -34 -31 -65t-8 -53q0 -48 31 -73t85.5 -34.5t125.5 -9.5q80 0 134.5 8t92 27t65.5 52.5t54 85.5q-76 33 -107 87t-31 115q0 73 43.5 133.5t117.5 98.5l81 -39q-12 -25 -18.5 -46t-6.5 -52q0 -35 17 -60.5t66 -25.5
q41 0 61.5 31.5t20.5 78.5q0 116 -108 180t-311 64q-125 0 -209 -16t-135.5 -42t-78.5 -55q19 12 43 19t52 7q62 0 101.5 -40t39.5 -113q0 -77 -44.5 -121t-127.5 -44q-43 0 -82.5 21.5t-65 64t-25.5 104.5q0 58 24.5 104t66.5 80q55 44 124 67.5t148 32t167 8.5
q148 0 261 -33.5t184 -113.5q29 -33 45.5 -73.5t16.5 -89.5q0 -33 -7.5 -67t-26.5 -62.5t-51.5 -45.5t-82.5 -17q-43 0 -78 14t-56 45t-21 80q0 18 3.5 38.5t11.5 37.5q-40 -28 -59.5 -65t-19.5 -80q0 -36 10 -63.5t29 -47.5q30 -32 77.5 -46t132.5 -14h81v-71h-87
q-34 0 -58 2t-42 5l-18 -32q-31 -57 -67 -94t-83.5 -57.5t-112 -28.5t-151.5 -8h-3q-158 0 -239.5 44t-81.5 146zM131 267q0 -59 30.5 -87t68.5 -28q40 0 62.5 23t22.5 65q0 44 -23.5 68t-61.5 24q-27 0 -52 -12t-46 -33q-1 -9 -1 -20zM490 94q-19 0 -31.5 12.5t-12.5 31.5
q0 20 12.5 32.5t31.5 12.5q20 0 32.5 -12.5t12.5 -32.5q0 -19 -12.5 -31.5t-32.5 -12.5zM508 49q53 0 84 -40q30 -39 30 -90q0 -30 -10 -50.5t-23 -30.5q-16 -13 -37 -18.5t-57 -5.5h-216v228h61v-181h83v90q0 36 7 54t24 30q22 14 54 14zM508 0q-25 0 -25 -30v-109h28
q29 0 39.5 15t10.5 44q0 35 -14.5 57.5t-38.5 22.5z" />
    <glyph glyph-name="aulengthmarktamil" unicode="&#xbd7;" horiz-adv-x="1070" 
d="M249 -12q-53 0 -97 26t-69.5 82.5t-25.5 146.5q0 82 24.5 142.5t67.5 100.5t97 60t112 20q63 0 108.5 -17.5t82.5 -46.5v52h504v-72h-170v-482h-86v482h-174v-482h-86v407q-34 41 -77.5 63t-104.5 22q-88 0 -145 -56.5t-70 -145.5q26 17 57 27.5t64 10.5q72 0 116.5 -44
t44.5 -119q0 -83 -46.5 -130t-126.5 -47zM247 258q-30 0 -58 -12.5t-52 -33.5q4 -86 37 -121t79 -35q41 0 64 25.5t23 73.5q0 49 -26 76t-67 27z" />
    <glyph glyph-name="zerotamil" unicode="&#xbe6;" horiz-adv-x="650" 
d="M327 -12q-80 0 -140.5 36t-94 101.5t-33.5 153.5q0 87 34 151.5t94 100t139 35.5q87 0 146 -40t89 -105t30 -142q0 -87 -33.5 -152.5t-92.5 -102t-138 -36.5zM326 493q-85 0 -131.5 -58t-46.5 -157t46 -158t131 -59q83 0 130 57.5t47 159.5q0 100 -47 157.5t-129 57.5z
" />
    <glyph glyph-name="onetamil" unicode="&#xbe7;" horiz-adv-x="825" 
d="M261 -12q-61 0 -108.5 19t-75.5 56t-28 89t26.5 91t84.5 60v251h523v-72h-187v-154h16q78 0 126 -11.5t82 -37.5q26 -20 41 -52.5t15 -74.5q0 -76 -45.5 -118t-128.5 -42q-23 0 -50 3t-50 10l19 67q33 -10 73 -10q96 0 96 94q0 46 -25.5 67.5t-65 28t-80.5 6.5h-23v-32
q0 -68 -11.5 -106t-32.5 -63q-31 -38 -79.5 -53.5t-111.5 -15.5zM239 482v-160q42 6 93 6h79v154h-172zM135 153q0 -47 38 -70t96 -23q43 0 75 13t49.5 46.5t17.5 93.5v45h-86q-51 0 -86.5 -6t-60.5 -20q-43 -25 -43 -79z" />
    <glyph glyph-name="twotamil" unicode="&#xbe8;" horiz-adv-x="1067" 
d="M323 566q94 0 156 -29.5t92.5 -79t30.5 -108.5q0 -78 -37 -121.5t-103 -63.5t-153 -29l-80 -8q-55 -5 -69 -12t-14 -20q0 -23 36 -23h868v-72h-859q-71 0 -100 27t-29 67q0 36 23 59t77 35q-45 38 -68 83t-23 91q0 93 65.5 148.5t186.5 55.5zM158 362q0 -47 26.5 -89.5
t72.5 -71.5l46 4q91 9 136.5 30.5t61 51t15.5 62.5q0 62 -51 103t-137 41q-84 0 -127 -35t-43 -96z" />
    <glyph glyph-name="threetamil" unicode="&#xbe9;" horiz-adv-x="985" 
d="M88 0v554h516v-72h-174v-158q20 12 52 25t76 13q75 0 117.5 -42.5t42.5 -118.5q0 -36 -10 -69t-26 -60h286v-72h-624v72h251q17 25 27 55.5t10 64.5q0 53 -25 75t-64 22q-32 0 -61.5 -13t-51.5 -30v-102h-86v338h-170v-482h-86z" />
    <glyph glyph-name="fourtamil" unicode="&#xbea;" horiz-adv-x="941" 
d="M261 -12q-61 0 -108.5 19t-75.5 56t-28 89t26.5 90.5t84.5 60.5v251h503v-72h-167v-154h281v226h86v-296h-367v-32q0 -67 -11.5 -105.5t-32.5 -63.5q-31 -38 -79.5 -53.5t-111.5 -15.5zM239 482v-160q42 6 93 6h79v154h-172zM269 60q43 0 75 13.5t49.5 47t17.5 92.5v45
h-86q-48 0 -85 -6t-62 -20q-43 -25 -43 -79q0 -47 38 -70t96 -23z" />
    <glyph glyph-name="fivetamil" unicode="&#xbeb;" horiz-adv-x="1051" 
d="M361 0v554h522v-72h-175v-198q19 14 47 24.5t65 10.5q54 0 95 -28.5t64 -81.5t23 -125q0 -106 -35.5 -182.5t-96.5 -126t-138.5 -73t-161.5 -23.5h-11q-128 0 -221 43t-153 119t-88.5 176t-28.5 214v48q0 73 17.5 151.5t55.5 152t99 132.5t147 93.5t200 34.5
q87 0 155.5 -16t127.5 -43t115 -60l-46 -72q-47 32 -99 58.5t-115 42t-142 15.5q-88 0 -165.5 -32t-137 -96.5t-93 -160t-33.5 -223.5v-12q0 -142 42.5 -252.5t132 -173t230.5 -62.5h11q102 0 179.5 36t121 108.5t43.5 183.5q0 80 -28 121.5t-81 41.5q-28 0 -52.5 -11.5
t-44.5 -24.5v-211h-86v482h-175v-482h-86z" />
    <glyph glyph-name="sixtamil" unicode="&#xbec;" horiz-adv-x="1006" 
d="M261 -12q-61 0 -108.5 19t-75.5 56t-28 89t26.5 90.5t84.5 60.5v251h523v-72h-187v-154h489v-70h-89v-258h-81v258h-119v-258h-81v258h-119v-32q0 -67 -11.5 -105.5t-32.5 -63.5q-31 -38 -79.5 -53.5t-111.5 -15.5zM239 482v-160q42 6 93 6h79v154h-172zM269 60
q43 0 75 13.5t49.5 47t17.5 92.5v45h-86q-51 0 -86.5 -6t-60.5 -20q-43 -25 -43 -79q0 -47 38 -70t96 -23z" />
    <glyph glyph-name="seventamil" unicode="&#xbed;" horiz-adv-x="801" 
d="M249 -12q-53 0 -97 26t-69.5 81.5t-25.5 143.5q0 77 25 134t68 95q47 43 117.5 64.5t183.5 21.5h333v-72h-170v-482h-86v482h-89q-65 0 -107.5 -7.5t-70 -21t-47.5 -30.5q-58 -51 -73 -132q26 17 56.5 27t63.5 10q72 0 116.5 -44t44.5 -119q0 -83 -46.5 -130t-126.5 -47z
M247 258q-31 0 -58.5 -12.5t-52.5 -33.5q4 -86 37 -121t80 -35q41 0 64 25.5t23 73.5q0 49 -26 76t-67 27z" />
    <glyph glyph-name="eighttamil" unicode="&#xbee;" horiz-adv-x="1121" 
d="M321 -124q-145 0 -218.5 51.5t-73.5 132.5q0 25 11 49t34 40q12 9 27.5 15t40 9t64.5 3h182q-40 38 -65.5 84.5t-25.5 105.5q0 89 59.5 144.5t166.5 55.5q95 0 160.5 -43t99 -114.5t33.5 -156.5q0 -20 -1.5 -39t-4.5 -37h137v378h86v-708h-86v258h-157q-33 -74 -98 -125
t-155 -77t-197 -26h-19zM385 362q0 -61 33 -107.5t78 -78.5h225q5 19 7 37.5t2 37.5q0 71 -26 125.5t-73 85.5t-109 31q-56 0 -96.5 -31.5t-40.5 -99.5zM344 -51q138 0 224.5 43.5t127.5 111.5h-479q-31 0 -47.5 -1t-25 -4t-15.5 -9q-15 -12 -15 -34q0 -49 53 -78t160 -29
h17z" />
    <glyph glyph-name="ninetamil" unicode="&#xbef;" horiz-adv-x="1155" 
d="M261 -12q-61 0 -108.5 19t-75.5 56t-28 89t26.5 90.5t84.5 60.5v251h523v-72h-187v-154h165q15 0 27 -1q35 28 81 43.5t98 15.5q81 0 134 -27.5t79 -74t26 -105.5q0 -56 -17 -100.5t-49 -90.5l-69 43q49 68 49 142q0 71 -43.5 107t-111.5 36q-23 0 -43.5 -2.5t-39.5 -8.5
q55 -18 90.5 -58.5t35.5 -106.5q0 -68 -34 -110t-109 -42q-43 0 -80 16.5t-59 53t-22 94.5q0 31 9 58t22 48h-139v-32q0 -67 -11.5 -105.5t-32.5 -63.5q-31 -38 -79.5 -53.5t-111.5 -15.5zM239 482v-160q42 6 93 6h79v154h-172zM269 60q43 0 75 13.5t49.5 47t17.5 92.5v45
h-86q-51 0 -86.5 -6t-60.5 -20q-43 -25 -43 -79q0 -47 38 -70t96 -23zM679 145q0 -48 23.5 -68.5t61.5 -20.5q34 0 50.5 22t16.5 59q0 38 -16.5 62.5t-43 38t-56.5 18.5q-17 -20 -26.5 -48t-9.5 -63z" />
    <glyph glyph-name="tentamil" unicode="&#xbf0;" horiz-adv-x="875" 
d="M257 -12q-74 0 -116 42q-31 31 -42 70.5t-11 112.5v341h86v-327q0 -44 4.5 -78.5t20.5 -57.5q11 -14 26.5 -22.5t38.5 -8.5t39 9t26 24q15 23 20 57.5t5 83.5v320h86v-318q0 -53 8 -85.5t28 -54.5q16 -20 38.5 -28t44.5 -8q48 0 84.5 30.5t56.5 102.5t20 197
q0 114 -19 187.5t-52 115t-76.5 58.5t-91.5 17q-47 0 -89 -13.5t-73 -30.5l-25 71q44 23 93.5 35.5t101.5 12.5q41 0 84 -9.5t81 -34.5q46 -29 80 -79.5t53.5 -130t19.5 -197.5v-2q0 -205 -63.5 -303.5t-183.5 -98.5q-57 0 -98.5 26.5t-61.5 67.5q-22 -46 -57.5 -70
t-85.5 -24z" />
    <glyph glyph-name="hundredtamil" unicode="&#xbf1;" horiz-adv-x="887" 
d="M354 0v438q-21 29 -45 42t-51 13q-20 0 -33 -5.5t-23 -15.5q-20 -20 -24 -57t-4 -84v-331h-86v352q0 51 5.5 82t15 50.5t20.5 33.5q39 47 111 47q39 0 67 -14t47 -32v35h516v-72h-170v-482h-86v482h-174v-482h-86z" />
    <glyph glyph-name="thousandtamil" unicode="&#xbf2;" horiz-adv-x="965" 
d="M261 -12q-61 0 -108.5 19t-75.5 56t-28 89t26.5 90.5t84.5 60.5v251h523v-72h-187v-154h347v-70h-129v-109q23 12 46 18.5t57 6.5q39 0 70.5 -18.5t49.5 -50t18 -72.5q0 -47 -14 -78.5t-38 -53.5q-37 -33 -94 -45t-136 -12h-401q-42 0 -65 -6t-40 -17t-25.5 -31t-8.5 -53
q0 -30 3 -54l-82 -4q-3 18 -5 39.5t-2 38.5q0 44 15.5 74.5t41.5 49.5t58.5 27t82.5 8h420q79 0 116.5 8.5t58.5 26.5q16 13 22.5 31.5t6.5 43.5q0 28 -17.5 55t-60.5 27q-25 0 -44 -8t-33 -17v-83h-82v258h-136v-32q0 -67 -11.5 -105.5t-32.5 -63.5q-31 -38 -79.5 -53.5
t-111.5 -15.5zM239 482v-160q42 6 93 6h79v154h-172zM269 60q43 0 75 13.5t49.5 47t17.5 92.5v45h-86q-51 0 -86.5 -6t-60.5 -20q-43 -25 -43 -79q0 -47 38 -70t96 -23z" />
    <glyph glyph-name="daysigntamil" unicode="&#xbf3;" horiz-adv-x="985" 
d="M249 -12q-53 0 -97 26t-69.5 82.5t-25.5 146.5q0 107 42.5 179t112.5 108t152 36q102 0 165 -39t92.5 -104t29.5 -143q0 -64 -14 -114t-34 -94h365v-72h-453l-4 63q23 35 37.5 86.5t14.5 119.5q0 107 -55 165t-148 58q-92 0 -149.5 -56.5t-70.5 -145.5q26 17 57 27.5
t64 10.5q72 0 116.5 -44t44.5 -119q0 -83 -46.5 -130t-126.5 -47zM247 258q-30 0 -58 -12.5t-52 -33.5q4 -86 37 -121t79 -35q39 0 63 25.5t24 73.5q0 49 -26 76t-67 27z" />
    <glyph glyph-name="monthsigntamil" unicode="&#xbf4;" horiz-adv-x="1268" 
d="M580 566q9 0 18 -1q14 113 133 138q13 48 44.5 79t73 46t84.5 15q97 0 149.5 -48.5t52.5 -125.5q0 -28 -6.5 -58.5t-20.5 -56.5h143v-58h-225v38q16 28 25 56t9 68q0 57 -33 91.5t-92 34.5q-42 0 -79 -17.5t-56 -57.5h22q44 0 68.5 -7t42.5 -22q31 -26 31 -78
q0 -51 -32 -79.5t-79 -28.5q-55 0 -92 36.5t-37 111.5v4q-31 -10 -46 -35t-15 -61q69 -29 101.5 -105t32.5 -183q0 -70 -15 -120t-48 -82q-35 -34 -85.5 -47t-136.5 -13h-424v554h86v-482h226v283q0 61 11 98t34 62t55 38t80 13zM787 640q0 -87 63 -87q22 0 37 10.5t15 36.5
q0 31 -21 43q-19 11 -65 11h-29v-14zM578 494q-17 0 -33 -5.5t-27 -17.5q-16 -18 -24 -44.5t-8 -88.5v-266h47q67 0 105.5 19t54.5 62t16 114q0 63 -13.5 114.5t-42.5 82t-75 30.5z" />
    <glyph glyph-name="yearsigntamil" unicode="&#xbf5;" horiz-adv-x="2223" 
d="M504 -12q-54 0 -97.5 26t-69 82.5t-25.5 146.5q0 107 42.5 179t112 108t152.5 36q101 0 164.5 -39t93 -104t29.5 -143q0 -64 -13.5 -114t-34.5 -94h199v482h491v-72h-159v-180q17 8 36.5 12.5t43.5 4.5q58 0 98.5 -29.5t62 -78.5t21.5 -106q0 -118 -54 -199.5
t-151 -131.5t-226 -72.5t-279 -22.5h-34q-225 0 -384.5 42.5t-260 119t-147.5 180t-47 225.5v37q0 90 27.5 173t88 153.5t160.5 123t244 81.5t339 29h55q170 0 297 -19t217.5 -52.5t151.5 -78.5q62 -45 98 -98t53 -110t22.5 -114t5.5 -110q0 -59 8 -99.5t33 -66.5
q30 -33 86 -33q33 0 60 16t43 54t16 105q0 99 -35.5 175t-89.5 135l78 53q62 -79 98 -166t36 -190q0 -128 -54.5 -192t-158.5 -64q-88 0 -140 50q-32 30 -49.5 83.5t-17.5 122.5q0 148 -40 244t-130 158q-94 64 -247 92t-377 28q-388 0 -589 -120.5t-201 -374.5v-12
q0 -107 39 -198.5t127 -160t233 -106.5t358 -38h20q195 0 336 34.5t217.5 110t76.5 199.5q0 62 -28.5 104.5t-80.5 42.5q-18 0 -34.5 -4.5t-30.5 -12.5v-230h-86v482h-160v-482h-373l-4 63q23 35 37.5 86.5t14.5 119.5q0 107 -55 165t-148 58q-92 0 -149.5 -56.5
t-70.5 -145.5q26 17 57 27.5t64 10.5q72 0 116.5 -44t44.5 -119q0 -83 -46.5 -130t-126.5 -47zM501 258q-30 0 -57.5 -12.5t-51.5 -33.5q4 -86 37 -121t79 -35q39 0 63 25.5t24 73.5q0 49 -26 76t-68 27z" />
    <glyph glyph-name="debitsigntamil" unicode="&#xbf6;" horiz-adv-x="871" 
d="M328 -11q-72 0 -111 47q-11 14 -20.5 33.5t-15 50.5t-5.5 82v352h86v-331q0 -47 4 -84t24 -57q10 -10 23 -15.5t33 -5.5q27 0 51 13t45 42v438h86v-533q0 -33 -2.5 -59t-6.5 -46h178v412h86v-484h-284q-74 -165 -263 -165q-56 0 -101 18.5t-71 53t-26 82.5q0 44 31 64
q13 10 33 14.5t63 4.5h268q4 19 6.5 44t2.5 63v12q-19 -18 -47 -32t-67 -14zM236 -249q63 0 104.5 22.5t69.5 70.5h-251q-17 0 -27.5 -5t-10.5 -19q0 -29 29.5 -49t85.5 -20z" />
    <glyph glyph-name="creditsigntamil" unicode="&#xbf7;" horiz-adv-x="1397" 
d="M249 -12q-53 0 -97 26t-69.5 81.5t-25.5 143.5q0 77 25 134t68 95q47 43 117.5 64.5t183.5 21.5h333v-72h-170v-268h99q14 46 46 75.5t72.5 44t82.5 14.5q97 0 149.5 -49t52.5 -126q0 -27 -6.5 -57.5t-20.5 -56.5h165v278h72v-337h-320v38q16 28 25.5 56t9.5 68
q0 57 -33 91.5t-92 34.5q-42 0 -79 -17t-55 -57h24q38 0 60 -6t39 -17q40 -26 40 -84q0 -53 -32.5 -81.5t-79.5 -28.5q-52 0 -90.5 36.5t-38.5 112.5v12h-90v-158h-86v482h-89q-65 0 -107.5 -7.5t-70 -21t-47.5 -30.5q-58 -51 -73 -132q26 17 56.5 27t63.5 10
q72 0 116.5 -44t44.5 -119q0 -83 -46.5 -130t-126.5 -47zM247 258q-31 0 -58.5 -12.5t-52.5 -33.5q4 -86 37 -121t80 -35q41 0 64 25.5t23 73.5q0 49 -26 76t-67 27zM768 144q0 -88 63 -88q21 0 36 11t15 37q0 32 -21 43q-18 11 -64 11h-28q-1 -7 -1 -14z" />
    <glyph glyph-name="asabovesigntamil" unicode="&#xbf8;" horiz-adv-x="1965" 
d="M400 -12q-100 0 -177.5 50t-121.5 139t-44 206q0 111 36.5 197t101 144.5t150 88.5t183.5 30q108 0 198.5 -33.5t158 -96t107.5 -147.5q99 -2 160.5 -41t90 -103t28.5 -142q0 -64 -14 -114t-34 -94h314l28 112q-92 8 -151 57t-59 143q0 50 20.5 91.5t59.5 66t94 24.5
q57 0 92 -22t51.5 -58.5t16.5 -79.5q0 -35 -5.5 -72t-15.5 -78q50 8 84 29.5t56 42.5h81v-328h-285l-72 -284l-79 22l66 262h-384l-4 63q23 35 37.5 86.5t14.5 119.5q0 100 -45 157.5t-121 69.5q14 -41 20.5 -85.5t6.5 -89.5q0 -107 -46.5 -168.5t-142.5 -61.5q-45 0 -86 19
t-66.5 61.5t-25.5 113.5q0 74 29.5 130t79.5 92t110 50q-36 60 -86.5 108t-121.5 75.5t-168 27.5q-70 0 -136.5 -23t-120 -71.5t-85.5 -122.5t-32 -176t36.5 -174t95.5 -109q-10 21 -15.5 45t-5.5 55q0 42 19.5 77.5t58.5 57.5t97 22q73 0 121.5 -46t48.5 -130
q0 -65 -27.5 -106t-73 -60t-101.5 -19zM1438 382q0 -63 40 -94t104 -35q20 87 20 150q0 43 -19 67t-54 24q-41 0 -66 -28t-25 -84zM763 282q0 -64 25 -93.5t67 -29.5q53 0 78 44.5t25 117.5q0 46 -9 91t-24 81q-77 -14 -119.5 -70t-42.5 -141zM335 171q0 -30 8.5 -59
t25.5 -51q11 -2 21 -2.5t21 -0.5q51 0 81.5 28t30.5 87q0 44 -24.5 74t-68.5 30t-69.5 -28t-25.5 -78zM1812 247q-26 -22 -67 -40.5t-95 -23.5l-28 -111h186v81q0 23 1 48t3 46z" />
    <glyph glyph-name="rupeesigntamil" unicode="&#xbf9;" horiz-adv-x="1050" 
d="M361 0v515h522v-72h-175v-179q19 13 47 24t65 11q81 0 131.5 -61.5t50.5 -169.5q0 -104 -36 -178t-98 -120.5t-142 -68.5t-167 -22h-20q-125 0 -214.5 40.5t-146 110.5t-83.5 158.5t-27 185.5v25q0 95 23 181.5t65.5 158t101.5 122t131 73.5q16 38 47 62t69.5 35.5
t73.5 11.5q101 0 148 -39.5t47 -101.5q0 -23 -5 -45t-17 -42h129v-57h-214v30q16 22 26 44t10 54q0 44 -28.5 71t-93.5 27q-40 0 -68.5 -11t-47.5 -28q16 3 34 3q55 0 82 -29t27 -67q0 -50 -31 -75.5t-78 -25.5q-55 0 -84 29.5t-34 78.5q-66 -35 -117.5 -105t-80.5 -162
t-29 -195v-21q0 -87 22.5 -163t70 -133.5t122 -90.5t177.5 -33h11q109 0 189 33.5t124 103t44 178.5q0 77 -28 116.5t-81 39.5q-28 0 -52.5 -10.5t-44.5 -24.5v-192h-86v443h-175v-443h-86zM440 679q0 -71 57 -71q21 0 34.5 10t13.5 30q0 21 -14.5 33t-40.5 12q-24 0 -50 -7
v-7z" />
    <glyph glyph-name="numsigntamil" unicode="&#xbfa;" horiz-adv-x="1214" 
d="M88 0v554h455q9 123 134 149q13 48 44.5 79t73 46t84.5 15q97 0 149.5 -48.5t52.5 -125.5q0 -28 -6.5 -58.5t-20.5 -56.5h143v-58h-225v38q16 28 25 56t9 68q0 57 -33 91.5t-92 34.5q-42 0 -79 -17.5t-56 -57.5h22q44 0 68.5 -7t42.5 -22q31 -26 31 -78q0 -51 -32 -79.5
t-79 -28.5q-55 0 -92 36.5t-37 111.5v4q-31 -10 -46 -35.5t-15 -62.5v-66h-175v-156q25 15 55.5 25.5t67.5 10.5q51 0 92.5 -26t66.5 -77t25 -125q0 -90 -26.5 -142t-72.5 -86q-49 -35 -118 -48.5t-177 -13.5h-75q-42 0 -65 -6t-40 -17t-25.5 -31t-8.5 -53q0 -30 3 -54
l-82 -4q-3 18 -5 39.5t-2 38.5q0 44 15.5 74.5t41.5 49.5t58.5 27t82.5 8h93q82 0 133.5 7t83.5 22.5t55 40.5q20 22 32.5 57t12.5 88q0 77 -30.5 117.5t-88.5 40.5q-27 0 -54 -11.5t-48 -27.5v-250h-86v482h-174v-482h-86zM733 640q0 -87 63 -87q22 0 37 10.5t15 36.5
q0 31 -21 43q-19 11 -65 11h-29v-14z" />
    <glyph glyph-name="uni1CDA" unicode="&#x1cda;" horiz-adv-x="0" 
d="M-377 870h68v-211h-68v211zM-247 870h68v-211h-68v211z" />
    <glyph glyph-name="uni200B" unicode="&#x200b;" horiz-adv-x="0" 
 />
    <glyph glyph-name="uni200C" unicode="&#x200c;" horiz-adv-x="0" 
d="M-29 -244v997h58v-997h-58z" />
    <glyph glyph-name="uni200D" unicode="&#x200d;" horiz-adv-x="0" 
d="M-29 -244v809l-92 -91l-40 40l121 117l-121 117l40 40l121 -119l121 119l40 -40l-121 -117l121 -117l-40 -40l-92 91v-809h-58z" />
    <glyph glyph-name="uni2010" unicode="&#x2010;" horiz-adv-x="322" 
d="M40 262v82h242v-82h-242z" />
    <glyph glyph-name="endash.tamil" unicode="&#x2013;" horiz-adv-x="500" 
d="M40 262v82h420v-82h-420z" />
    <glyph glyph-name="emdash.tamil" unicode="&#x2014;" horiz-adv-x="1000" 
d="M40 262v82h920v-82h-920z" />
    <glyph glyph-name="quoteleft.tamil" unicode="&#x2018;" horiz-adv-x="232" 
d="M46 555l-6 11q14 53 37.5 116t48.5 118h66q-14 -60 -27 -126.5t-21 -118.5h-98z" />
    <glyph glyph-name="quoteright.tamil" unicode="&#x2019;" horiz-adv-x="232" 
d="M186 800l6 -11q-14 -53 -37.5 -116t-47.5 -118h-67q14 59 27 126t21 119h98z" />
    <glyph glyph-name="quotedblleft.tamil" unicode="&#x201c;" horiz-adv-x="420" 
d="M234 555l-6 11q14 53 37.5 116t48.5 118h66q-14 -60 -27 -126.5t-21 -118.5h-98zM46 555l-6 11q14 53 37.5 116t48.5 118h66q-14 -60 -27 -126.5t-21 -118.5h-98z" />
    <glyph glyph-name="quotedblright.tamil" unicode="&#x201d;" horiz-adv-x="420" 
d="M374 800l6 -11q-14 -53 -37.5 -116t-47.5 -118h-67q14 59 27 126t21 119h98zM186 800l6 -11q-14 -53 -37.5 -116t-47.5 -118h-67q14 59 27 126t21 119h98z" />
    <glyph glyph-name="ellipsis.tamil" unicode="&#x2026;" horiz-adv-x="804" 
d="M134 -12q-26 0 -44 16t-18 52q0 38 18 53t44 15t44 -15t18 -53q0 -36 -18 -52t-44 -16zM402 -12q-26 0 -44 16t-18 52q0 38 18 53t44 15t44 -15t18 -53q0 -36 -18 -52t-44 -16zM670 -12q-26 0 -44 16t-18 52q0 38 18 53t44 15t44 -15t18 -53q0 -36 -18 -52t-44 -16z" />
    <glyph glyph-name="uni2074" unicode="&#x2074;" horiz-adv-x="360" 
d="M210 369v96h-195v52l197 283h73v-275h61v-60h-61v-96h-75zM85 525h125v93q0 21 1 49t2 52q-5 -11 -21 -36t-27 -41z" />
    <glyph glyph-name="uni2082" unicode="&#x2082;" horiz-adv-x="312" 
d="M15 -217v54l115 112q40 39 61 63.5t28.5 44t7.5 41.5q0 32 -18.5 48t-48.5 16t-55 -12t-50 -31l-35 46q29 25 63.5 40t77.5 15q64 0 100.5 -31.5t36.5 -86.5q0 -50 -30 -89t-85 -91l-81 -77h195v-62h-282z" />
    <glyph glyph-name="uni2083" unicode="&#x2083;" horiz-adv-x="329" 
d="M146 -225q-37 0 -69 6.5t-62 21.5v63q70 -34 131 -34q52 0 76 20.5t24 55.5q0 36 -28.5 52.5t-80.5 16.5h-57v55h57q50 0 73.5 19t23.5 51t-20 46.5t-50 14.5q-31 0 -58 -10.5t-53 -27.5l-36 46q31 23 65 36t81 13q71 0 107 -31t36 -79q0 -39 -20 -64t-54 -37v-2
q86 -20 86 -101q0 -58 -42 -94.5t-130 -36.5z" />
    <glyph glyph-name="uni2084" unicode="&#x2084;" horiz-adv-x="360" 
d="M210 -217v96h-195v52l197 283h73v-275h61v-60h-61v-96h-75zM85 -61h125v93q0 21 1 49t2 52q-5 -11 -21 -36t-27 -41z" />
    <glyph glyph-name="uni20B9.tamil" unicode="&#x20b9;" 
d="M284 0l-212 277l10 73h36q51 0 78.5 10t43.5 30q10 13 17.5 32.5t10.5 48.5h-196v66h195q-4 29 -12.5 48.5t-21.5 32.5q-16 16 -37.5 23t-59.5 7h-64v66h441v-66h-208q21 -20 34 -47t18 -64h156v-66h-155q-6 -82 -53 -129.5t-131 -60.5l219 -281h-109z" />
    <glyph glyph-name="minus.tamil" unicode="&#x2212;" 
d="M50 317v71h471v-71h-471z" />
    <glyph glyph-name="uni25CC" unicode="&#x25cc;" horiz-adv-x="562" 
d="M281 424q-32 0 -32 32q0 31 32 31q31 0 31 -31q0 -32 -31 -32zM138 369q-32 0 -32 32q0 31 32 31q31 0 31 -31q0 -32 -31 -32zM423 369q-32 0 -32 32q0 31 32 31t32 -31q0 -32 -32 -32zM89 231q-32 0 -32 33q0 31 32 31t32 -31q0 -33 -32 -33zM472 231q-31 0 -31 33
q0 31 31 31q32 0 32 -31q0 -33 -32 -33zM138 95q-32 0 -32 32q0 31 32 31q31 0 31 -31q0 -32 -31 -32zM423 95q-32 0 -32 32q0 31 32 31t32 -31q0 -32 -32 -32zM281 40q-32 0 -32 32t32 32q31 0 31 -32t-31 -32z" />
    <glyph glyph-name="uniA8F3" unicode="&#xa8f3;" horiz-adv-x="479" 
d="M239 292q-99 0 -150 49t-51 128q0 43 8 72l79 -13q-3 -12 -4.5 -27t-1.5 -25q0 -63 35 -87.5t85 -24.5q52 0 86.5 24.5t34.5 87.5q0 12 -2 26t-4 26l78 13q4 -13 6.5 -32.5t2.5 -39.5q0 -79 -51 -128t-151 -49zM239 414q-27 0 -44.5 17t-17.5 45q0 27 17.5 45t44.5 18
t45 -18t18 -45q0 -28 -18 -45t-45 -17zM440 69l-49 -67l-251 182l50 66z" />
    <glyph glyph-name="u11303" unicode="&#x11303;" horiz-adv-x="363" 
d="M46 436q0 56 37 93t98 37t98.5 -37t37.5 -93t-37 -92.5t-99 -36.5q-61 0 -98 37t-37 92zM117 437q0 -28 16.5 -46.5t47.5 -18.5q32 0 48.5 18.5t16.5 46.5t-17 46t-48 18t-47.5 -18t-16.5 -46zM46 117q0 55 37 92.5t98 37.5t98.5 -37.5t37.5 -92.5t-37 -92t-99 -37
q-61 0 -98 37t-37 92zM117 118q0 -28 16.5 -46.5t47.5 -18.5q32 0 48.5 18.5t16.5 46.5q0 27 -17 45.5t-48 18.5t-47.5 -18.5t-16.5 -45.5z" />
    <glyph glyph-name="u1133C" unicode="&#x1133c;" horiz-adv-x="0" 
d="M-430 -146q0 26 17 43.5t40 17.5q24 0 41 -17.5t17 -43.5q0 -25 -17 -42.5t-41 -17.5q-23 0 -40 17.5t-17 42.5zM-242 -146q0 26 17 43.5t40 17.5q24 0 41 -17.5t17 -43.5q0 -25 -17 -42.5t-41 -17.5q-23 0 -40 17.5t-17 42.5z" />
    <glyph glyph-name="tchatamil" horiz-adv-x="1851" 
d="M261 -12q-61 0 -108.5 19t-75.5 56t-28 89t26.5 90.5t84.5 60.5v251h523v-72h-187v-154h181q33 62 95 98t145 36q85 0 139.5 -31.5t81 -83t26.5 -113.5q0 -49 -13 -91.5t-30 -70.5h302l28 112q-92 8 -151 57t-59 143q0 50 20.5 91.5t59.5 66t94 24.5q57 0 92 -22
t51.5 -58.5t16.5 -79.5q0 -35 -5.5 -72t-15.5 -78q50 8 84 29.5t56 42.5h81v-328h-285l-72 -284l-79 22l66 262h-369l-4 63q19 25 32.5 66t13.5 90q0 81 -46.5 126t-121.5 45q-47 0 -84 -15t-65 -50q52 -4 81.5 -15.5t52.5 -27.5q29 -21 46 -54.5t17 -77.5
q0 -75 -37.5 -118.5t-119.5 -43.5q-41 0 -77 19.5t-58.5 63t-22.5 114.5q0 38 8 73h-155v-32q0 -68 -11.5 -106t-32.5 -63q-31 -38 -79.5 -53.5t-111.5 -15.5zM1324 382q0 -63 40 -94t104 -35q20 87 20 150q0 43 -19 67t-54 24q-41 0 -66 -28t-25 -84zM239 482v-160
q42 6 93 6h79v154h-172zM269 60q43 0 75 13.5t49.5 47t17.5 92.5v45h-86q-51 0 -86.5 -6t-60.5 -20q-43 -25 -43 -79q0 -47 38 -70t96 -23zM718 169q0 -61 27 -87t64 -26q35 0 52 23.5t17 57.5q0 45 -19.5 71.5t-53 38t-74.5 11.5q-6 -22 -9.5 -42t-3.5 -47zM1698 247
q-26 -22 -67 -40.5t-95 -23.5l-28 -111h186v81q0 23 1 48t3 46z" />
    <glyph glyph-name="kaprehalftamil" horiz-adv-x="825" 
d="M261 -12q-61 0 -108.5 19t-75.5 56t-28 89t26.5 91t84.5 60v251h523v-72h-187v-154h16q78 0 126 -11.5t82 -37.5q26 -20 41 -52.5t15 -74.5q0 -76 -45.5 -118t-128.5 -42q-23 0 -50 3t-50 10l19 67q33 -10 73 -10q96 0 96 94q0 46 -25.5 67.5t-65 28t-80.5 6.5h-23v-32
q0 -68 -11.5 -106t-32.5 -63q-31 -38 -79.5 -53.5t-111.5 -15.5zM239 482v-160q42 6 93 6h79v154h-172zM135 153q0 -47 38 -70t96 -23q43 0 75 13t49.5 46.5t17.5 93.5v45h-86q-51 0 -86.5 -6t-60.5 -20q-43 -25 -43 -79zM432 678q-29 0 -48 18.5t-19 48.5q0 29 19 48t48 19
t48 -19t19 -48q0 -30 -19.5 -48.5t-47.5 -18.5z" />
    <glyph glyph-name="ngaprehalftamil" horiz-adv-x="1044" 
d="M88 0v554h516v-72h-174v-158q20 12 52 25t76 13q75 0 117.5 -42.5t42.5 -118.5q0 -36 -10 -69t-26 -60h188v482h86v-554h-612v72h251q17 25 27 55.5t10 64.5q0 53 -25 75t-64 22q-32 0 -61.5 -13t-51.5 -30v-102h-86v338h-170v-482h-86zM522 678q-29 0 -48 18.5t-19 48.5
q0 29 19 48t48 19t48 -19t19 -48q0 -30 -19.5 -48.5t-47.5 -18.5z" />
    <glyph glyph-name="caprehalftamil" horiz-adv-x="723" 
d="M261 -12q-61 0 -108.5 19t-75.5 56t-28 89t26.5 90.5t84.5 60.5v251h523v-72h-187v-154h187v-70h-187v-32q0 -68 -11.5 -106t-32.5 -63q-31 -38 -79.5 -53.5t-111.5 -15.5zM239 482v-160q42 6 93 6h79v154h-172zM269 60q43 0 75 13.5t49.5 47t17.5 92.5v45h-86
q-51 0 -86.5 -6t-60.5 -20q-43 -25 -43 -79q0 -47 38 -70t96 -23zM432 678q-29 0 -48 18.5t-19 48.5q0 29 19 48t48 19t48 -19t19 -48q0 -30 -19.5 -48.5t-47.5 -18.5z" />
    <glyph glyph-name="japrehalftamil" horiz-adv-x="1022" 
d="M331 566q66 0 109.5 -16t69.5 -41.5t41 -53.5q24 53 68.5 82t109.5 29q75 0 126 -29.5t77.5 -82t26.5 -119.5t-20 -114t-56 -78q-38 -33 -91.5 -50t-117 -23.5t-132.5 -6.5h-94q-100 0 -163 -10.5t-98 -44.5q-19 -20 -27.5 -45t-8.5 -56q0 -59 22 -92.5t54.5 -48
t64.5 -14.5q44 0 76 12.5t58 35t52 52.5q42 46 80 77.5t83 47.5t110 16q47 0 92 -17.5t74 -54.5t29 -95q0 -67 -45 -107t-114 -40q-57 0 -93 21t-52.5 53t-16.5 66q0 28 8.5 50t22.5 41q-29 -13 -55.5 -38t-51.5 -56q-50 -62 -107.5 -99.5t-144.5 -37.5q-83 0 -134.5 31.5
t-75.5 83.5t-24 111q0 55 18.5 94.5t49.5 65.5q52 43 131.5 56.5t169.5 13.5h89q113 0 188 12t114 49q48 45 48 138q0 79 -41.5 119t-103.5 40q-59 0 -91 -36q-19 -23 -27 -53.5t-8 -84.5v-114h-87v88q0 97 -39.5 150t-136.5 53q-23 0 -37.5 -1.5t-28.5 -4.5
q58 -12 95.5 -50.5t37.5 -97.5q0 -72 -46.5 -115t-122.5 -43q-85 0 -128.5 46.5t-43.5 114.5q0 70 37 119.5t98.5 75.5t132.5 26zM142 348q0 -43 21 -69.5t71 -26.5q39 0 63.5 22t24.5 61q0 51 -39 81t-98 32q-23 -21 -33 -46.5t-10 -53.5zM707 -168q0 -34 18.5 -59
t63.5 -25q26 0 51 17t25 62q0 37 -18 57t-45.5 28.5t-55.5 10.5q-39 -40 -39 -91zM502 678q-29 0 -48 18.5t-19 48.5q0 29 19 48t48 19t48 -19t19 -48q0 -30 -19.5 -48.5t-47.5 -18.5z" />
    <glyph glyph-name="nyaprehalftamil" horiz-adv-x="1210" 
d="M503 -12q-53 0 -96.5 26t-69.5 81.5t-26 143.5q0 77 25 134t68 95q47 43 117.5 64.5t183.5 21.5h333v-72h-170v-198q19 13 47.5 24t64.5 11q81 0 131.5 -61.5t50.5 -174.5q0 -111 -43 -188.5t-117 -125t-167.5 -69t-194.5 -21.5h-27q-124 0 -215.5 26t-155 72t-101.5 106
t-55.5 128t-17.5 138v21q0 69 18.5 138.5t48.5 132.5t64 113l74 -44q-57 -86 -88 -173t-31 -174v-13q0 -84 27 -155.5t83.5 -125t145 -83.5t212.5 -30h13q128 0 227 35t155.5 107.5t56.5 185.5q0 80 -29 121.5t-81 41.5q-28 0 -52 -11t-44 -25v-211h-86v482h-89
q-65 0 -107.5 -7.5t-70 -21t-47.5 -30.5q-58 -51 -73 -132q26 17 56.5 27t62.5 10q73 0 117.5 -44t44.5 -119q0 -83 -46.5 -130t-126.5 -47zM500 258q-30 0 -57.5 -12.5t-52.5 -33.5q4 -83 36.5 -119.5t81.5 -36.5q38 0 62 25.5t24 73.5q0 49 -26.5 76t-67.5 27zM606 678
q-29 0 -48 18.5t-19 48.5q0 29 19 48t48 19t48 -19t19 -48q0 -30 -19.5 -48.5t-47.5 -18.5z" />
    <glyph glyph-name="ttaprehalftamil" horiz-adv-x="693" 
d="M88 0v554h86v-482h502v-72h-588zM347 678q-29 0 -48 18.5t-19 48.5q0 29 19 48t48 19t48 -19t19 -48q0 -30 -19.5 -48.5t-47.5 -18.5z" />
    <glyph glyph-name="nnaprehalftamil" horiz-adv-x="1649" 
d="M249 -12q-53 0 -97 26t-69.5 82.5t-25.5 146.5q0 99 43.5 171.5t122.5 112t185 39.5q69 0 128.5 -15.5t115.5 -49.5q91 65 214 65q64 0 115 -16t96 -48q28 16 61.5 27.5t80 18t114.5 6.5h298v-72h-170v-482h-86v482h-65q-53 0 -94.5 -5.5t-80.5 -24.5q49 -49 77 -116
t28 -147q0 -100 -43.5 -150.5t-119.5 -50.5q-57 0 -93.5 26t-54 70.5t-17.5 101.5q0 76 24 142.5t80 125.5q-36 21 -73.5 30t-74.5 9q-45 0 -84 -8.5t-76 -30.5q55 -51 86 -117.5t31 -147.5q0 -100 -43.5 -150.5t-118.5 -50.5q-58 0 -94.5 26t-54 70.5t-17.5 101.5
q0 79 24 147t72 117q-43 23 -92 32.5t-103 9.5q-110 0 -176 -56.5t-82 -145.5q26 18 57 28t64 10q72 0 116.5 -44t44.5 -119q0 -83 -46.5 -130t-126.5 -47zM996 189q0 -69 21 -101t57 -32q32 0 49.5 19t24.5 48t7 59q0 73 -24.5 132.5t-59.5 95.5q-37 -36 -56 -95.5
t-19 -125.5zM581 189q0 -69 21 -101t58 -32q31 0 48.5 19t24.5 48t7 59q0 69 -23 125.5t-67 99.5q-38 -43 -53.5 -101.5t-15.5 -116.5zM247 258q-31 0 -58.5 -12.5t-52.5 -33.5q5 -86 37.5 -121t79.5 -35q41 0 64 25.5t23 73.5q0 49 -26 76t-67 27zM825 678q-29 0 -48 18.5
t-19 48.5q0 29 19 48t48 19t48 -19t19 -48q0 -30 -19.5 -48.5t-47.5 -18.5z" />
    <glyph glyph-name="taprehalftamil" horiz-adv-x="825" 
d="M261 -12q-61 0 -108.5 19t-75.5 56t-28 89t26.5 91t84.5 60v251h523v-72h-187v-154q82 -2 145.5 -24.5t99.5 -72.5t36 -133q0 -67 -25 -112.5t-71 -79.5q-49 -35 -118.5 -48.5t-177.5 -13.5h-113q-42 0 -65 -6t-40 -17t-25.5 -31t-8.5 -53q0 -30 3 -54l-82 -4
q-3 18 -5 39.5t-2 38.5q0 44 15.5 74.5t41.5 49.5t58.5 27t82.5 8h109q89 0 146 7.5t92 23t58 40.5q41 44 41 118q0 59 -28 91.5t-73 45.5t-94 15v-31q0 -68 -11.5 -106t-32.5 -63q-31 -38 -79.5 -53.5t-111.5 -15.5zM239 482v-160q42 6 93 6h79v154h-172zM135 153
q0 -47 38 -70t96 -23q43 0 75 13.5t49.5 47t17.5 92.5v45h-86q-51 0 -86.5 -6t-60.5 -20q-43 -25 -43 -79zM435 678q-29 0 -48 18.5t-19 48.5q0 29 19 48t48 19t48 -19t19 -48q0 -30 -19.5 -48.5t-47.5 -18.5z" />
    <glyph glyph-name="naprehalftamil" horiz-adv-x="789" 
d="M88 0v554h521v-72h-175v-156q25 15 55.5 25.5t67.5 10.5q51 0 92.5 -26t66.5 -77t25 -125q0 -90 -26.5 -142t-72.5 -86q-49 -35 -118 -48.5t-177 -13.5h-75q-42 0 -65 -6t-40 -17t-25.5 -31t-8.5 -53q0 -30 3 -54l-82 -4q-3 18 -5 39.5t-2 38.5q0 44 15.5 74.5t41.5 49.5
t58.5 27t82.5 8h93q82 0 133.5 7t83.5 22.5t55 40.5q20 22 32.5 57t12.5 88q0 77 -30.5 117.5t-88.5 40.5q-27 0 -54 -11.5t-48 -27.5v-250h-86v482h-174v-482h-86zM395 678q-29 0 -48 18.5t-19 48.5q0 29 19 48t48 19t48 -19t19 -48q0 -30 -19.5 -48.5t-47.5 -18.5z" />
    <glyph glyph-name="nnnaprehalftamil" horiz-adv-x="1234" 
d="M249 -12q-53 0 -97 26t-69.5 82.5t-25.5 146.5q0 99 43.5 171.5t122.5 112t185 39.5q70 0 130.5 -16t117.5 -51q29 16 62.5 28.5t81.5 19.5t118 7h299v-72h-170v-482h-86v482h-66q-55 0 -99 -6.5t-83 -26.5q51 -47 81.5 -113.5t30.5 -146.5q0 -100 -43.5 -150.5
t-118.5 -50.5q-58 0 -94.5 26t-54 70.5t-17.5 101.5q0 154 98 263q-43 24 -92.5 33.5t-104.5 9.5q-110 0 -176 -56.5t-82 -145.5q26 18 57 28t64 10q72 0 116.5 -44t44.5 -119q0 -83 -46.5 -130t-126.5 -47zM581 189q0 -69 21 -101t58 -32q31 0 48.5 19t24.5 48t7 59
q0 135 -88 224q-35 -38 -53 -97t-18 -120zM247 258q-31 0 -58.5 -12.5t-52.5 -33.5q5 -86 37.5 -121t79.5 -35q41 0 64 25.5t23 73.5q0 49 -26 76t-67 27zM618 678q-29 0 -48 18.5t-19 48.5q0 29 19 48t48 19t48 -19t19 -48q0 -30 -19.5 -48.5t-47.5 -18.5z" />
    <glyph glyph-name="paprehalftamil" horiz-adv-x="778" 
d="M88 0v554h86v-482h430v482h86v-554h-602zM389 678q-29 0 -48 18.5t-19 48.5q0 29 19 48t48 19t48 -19t19 -48q0 -30 -19.5 -48.5t-47.5 -18.5z" />
    <glyph glyph-name="maprehalftamil" horiz-adv-x="858" 
d="M580 566q74 0 122.5 -38.5t71.5 -107t23 -158.5q0 -70 -15 -120t-48 -82q-35 -34 -85.5 -47t-136.5 -13h-424v554h86v-482h226v283q0 61 11 98t34 62t55 38t80 13zM578 494q-17 0 -33 -5.5t-27 -17.5q-16 -18 -24 -44.5t-8 -88.5v-266h47q67 0 105.5 19t54.5 62t16 114
q0 63 -13.5 114.5t-42.5 82t-75 30.5zM430 678q-29 0 -48 18.5t-19 48.5q0 29 19 48t48 19t48 -19t19 -48q0 -30 -19.5 -48.5t-47.5 -18.5z" />
    <glyph glyph-name="yaprehalftamil" horiz-adv-x="963" 
d="M240 -11q-72 0 -111 47q-11 14 -20.5 33.5t-15 50.5t-5.5 82v352h86v-331q0 -47 4 -84t24 -57q10 -10 23 -15.5t33 -5.5q27 0 51 13t45 42v438h86v-482h349v482h86v-554h-521v35q-19 -18 -47 -32t-67 -14zM481 678q-29 0 -48 18.5t-19 48.5q0 29 19 48t48 19t48 -19
t19 -48q0 -30 -19.5 -48.5t-47.5 -18.5z" />
    <glyph glyph-name="raprehalftamil" horiz-adv-x="640" 
d="M231 -212l-57 53l193 183v458h-193v-482h-86v554h535v-72h-170v-482zM320 678q-29 0 -48 18.5t-19 48.5q0 29 19 48t48 19t48 -19t19 -48q0 -30 -19.5 -48.5t-47.5 -18.5z" />
    <glyph glyph-name="rraprehalftamil" horiz-adv-x="869" 
d="M570 566q114 0 174.5 -84t60.5 -238q0 -122 -31 -199.5t-84 -121.5q-58 -47 -136 -63t-166 -16h-118q-42 0 -65 -6t-40 -17t-25.5 -31t-8.5 -53q0 -30 3 -54l-82 -4q-3 18 -5 39.5t-2 38.5q0 44 15.5 74.5t41.5 49.5t58.5 27t82.5 8h123q93 0 159 13.5t108.5 48.5
t62.5 100.5t20 168.5q0 91 -19.5 145t-54 78t-79.5 24q-26 0 -49.5 -8.5t-39.5 -27.5q-20 -23 -28 -54t-8 -85v-319h-86v321q0 49 -5 83t-20 57q-10 15 -26 24t-39 9t-38.5 -8.5t-26.5 -22.5q-16 -23 -20.5 -57.5t-4.5 -78.5v-327h-86v341q0 73 11 112.5t42 70.5
q42 42 116 42q100 0 144 -94q21 41 63.5 67.5t107.5 26.5zM434 678q-29 0 -48 18.5t-19 48.5q0 29 19 48t48 19t48 -19t19 -48q0 -30 -19.5 -48.5t-47.5 -18.5z" />
    <glyph glyph-name="laprehalftamil" horiz-adv-x="1013" 
d="M249 -12q-53 0 -97 26t-69.5 82t-25.5 146q0 108 41.5 180t110.5 108t150 36q48 0 98 -13t88 -51q42 -41 57 -100t15 -150q0 -52 8 -91.5t33 -65.5q30 -33 86 -33q33 0 60 16t43 54t16 105q0 99 -35.5 175t-89.5 135l78 53q62 -79 98 -166t36 -190q0 -128 -54.5 -192
t-158.5 -64q-88 0 -140 50q-66 61 -67 212q0 36 -4 74t-16 72.5t-38 58.5q-20 18 -48 27.5t-69 9.5q-90 0 -145.5 -56t-69.5 -146q27 18 57.5 28t63.5 10q72 0 116.5 -44t44.5 -119q0 -83 -46.5 -130t-126.5 -47zM247 258q-31 0 -58.5 -12.5t-52.5 -33.5q4 -86 37 -121
t80 -35q41 0 64 25.5t23 73.5q0 49 -26 76t-67 27zM507 678q-29 0 -48 18.5t-19 48.5q0 29 19 48t48 19t48 -19t19 -48q0 -30 -19.5 -48.5t-47.5 -18.5z" />
    <glyph glyph-name="llaprehalftamil" horiz-adv-x="1070" 
d="M249 -12q-53 0 -97 26t-69.5 82.5t-25.5 146.5q0 82 24.5 142.5t67.5 100.5t97 60t112 20q63 0 108.5 -17.5t82.5 -46.5v52h504v-72h-170v-482h-86v482h-174v-482h-86v407q-34 41 -77.5 63t-104.5 22q-88 0 -145 -56.5t-70 -145.5q26 17 57 27.5t64 10.5q72 0 116.5 -44
t44.5 -119q0 -83 -46.5 -130t-126.5 -47zM247 258q-30 0 -58 -12.5t-52 -33.5q4 -86 37 -121t79 -35q41 0 64 25.5t23 73.5q0 49 -26 76t-67 27zM535 678q-29 0 -48 18.5t-19 48.5q0 29 19 48t48 19t48 -19t19 -48q0 -30 -19.5 -48.5t-47.5 -18.5z" />
    <glyph glyph-name="lllaprehalftamil" horiz-adv-x="858" 
d="M220 -61q16 0 35 -1.5t35 -3.5l-8 -67q-21 3 -49 3q-37 0 -60.5 -12.5t-23.5 -42.5q0 -27 19.5 -41.5t49 -19.5t58.5 -5h25q77 0 116 26.5t62 72.5q3 6 6 10q-37 17 -60 51t-25 91h-312v554h86v-482h226v283q0 61 11 98t34 62t55 38t80 13q74 0 122.5 -38.5t71.5 -107
t23 -158.5q0 -70 -15 -120t-48 -82q-35 -34 -85.5 -47t-136.5 -13h-27q1 -29 10.5 -49.5t31.5 -31.5q13 -6 33 -9.5t51 -3.5h128v-72h-179q-4 -7 -8 -16q-22 -42 -52.5 -73.5t-79 -48.5t-126.5 -17h-25q-47 0 -89.5 10.5t-68.5 28.5q-19 14 -33.5 38t-14.5 58
q0 58 43.5 91.5t113.5 33.5zM578 494q-17 0 -33 -5.5t-27 -17.5q-16 -18 -24 -44.5t-8 -88.5v-266h47q67 0 105.5 19t54.5 62t16 114q0 63 -13.5 114.5t-42.5 82t-75 30.5zM430 678q-29 0 -48 18.5t-19 48.5q0 29 19 48t48 19t48 -19t19 -48q0 -30 -19.5 -48.5t-47.5 -18.5z
" />
    <glyph glyph-name="vaprehalftamil" horiz-adv-x="1044" 
d="M249 -12q-53 0 -97 26t-69.5 82.5t-25.5 146.5q0 107 42.5 179t112.5 108t152 36q102 0 165 -39t92.5 -104t29.5 -143q0 -64 -14 -114t-34 -94h267v482h86v-554h-441l-4 63q23 35 37.5 86.5t14.5 119.5q0 107 -55 165t-148 58q-92 0 -149.5 -56.5t-70.5 -145.5
q26 17 57 27.5t64 10.5q72 0 116.5 -44t44.5 -119q0 -83 -46.5 -130t-126.5 -47zM247 258q-30 0 -58 -12.5t-52 -33.5q4 -86 37 -121t79 -35q39 0 63 25.5t24 73.5q0 49 -26 76t-67 27zM522 678q-29 0 -48 18.5t-19 48.5q0 29 19 48t48 19t48 -19t19 -48q0 -30 -19.5 -48.5
t-47.5 -18.5z" />
    <glyph glyph-name="shaprehalftamil" horiz-adv-x="1172" 
d="M301 -12q-104 0 -161 59q-27 29 -40.5 72t-13.5 110v325h86v-309q0 -68 10 -101.5t29 -53.5q16 -16 38.5 -22.5t51.5 -6.5q28 0 50.5 6.5t39.5 22.5q19 20 29 53.5t10 101.5v309h656v-321q0 -127 -54 -186q-56 -59 -161 -59q-104 0 -161 59q-27 29 -40.5 72.5
t-13.5 112.5v250h-140v-251q0 -68 -13.5 -111.5t-40.5 -72.5q-56 -59 -161 -59zM871 61q28 0 50 6.5t39 22.5q20 20 30 53.5t10 101.5v237h-258v-237q0 -68 10 -101.5t29 -53.5q16 -16 38.5 -22.5t51.5 -6.5zM586 678q-29 0 -48 18.5t-19 48.5q0 29 19 48t48 19t48 -19
t19 -48q0 -30 -19.5 -48.5t-47.5 -18.5z" />
    <glyph glyph-name="ssaprehalftamil" horiz-adv-x="1323" 
d="M249 -12q-53 0 -97 26t-69.5 82.5t-25.5 146.5q0 107 42.5 179t112.5 108t152 36q102 0 165 -39t92.5 -104t29.5 -143q0 -64 -14 -114t-34 -94h314l28 112q-92 8 -151 57t-59 143q0 50 20.5 91.5t59.5 66t94 24.5q57 0 92 -22t51.5 -58.5t16.5 -79.5q0 -35 -5.5 -72
t-15.5 -78q50 8 84 29.5t56 42.5h81v-328h-285l-72 -284l-79 22l66 262h-384l-4 63q23 35 37.5 86.5t14.5 119.5q0 107 -55 165t-148 58q-92 0 -149.5 -56.5t-70.5 -145.5q26 17 57 27.5t64 10.5q72 0 116.5 -42.5t44.5 -120.5q0 -83 -46.5 -130t-126.5 -47zM818 382
q0 -63 40 -94t104 -35q20 87 20 150q0 43 -19 67t-54 24q-41 0 -66 -28t-25 -84zM247 258q-30 0 -58 -12.5t-52 -33.5q4 -86 37 -121t79 -35q39 0 63 25.5t24 73.5q0 49 -26 76t-67 27zM1192 247q-26 -22 -67 -40.5t-95 -23.5l-28 -111h186v81q0 23 1 48t3 46zM661 678
q-29 0 -48 18.5t-19 48.5q0 29 19 48t48 19t48 -19t19 -48q0 -30 -19.5 -48.5t-47.5 -18.5z" />
    <glyph glyph-name="saprehalftamil" horiz-adv-x="1285" 
d="M249 -12q-53 0 -97 26t-69.5 82t-25.5 146q0 108 41.5 180t110.5 108t150 36q68 0 119 -25.5t89 -79.5q18 44 56 74.5t96 30.5q37 0 66.5 -11t51.5 -34q25 -27 38.5 -68.5t13.5 -109.5v-88q0 -55 8 -94.5t33 -65.5q30 -33 85 -33q33 0 60.5 16t43.5 54t16 105
q0 99 -35.5 175t-90.5 135l78 53q62 -79 98.5 -166t36.5 -190q0 -128 -54.5 -192t-158.5 -64q-88 0 -140 50q-32 30 -49.5 83t-17.5 129v38q0 65 -4.5 102t-14.5 59q-11 24 -28.5 34.5t-40.5 10.5q-21 0 -36.5 -9t-25.5 -22q-15 -19 -22 -45.5t-7 -66.5v-351h-86v293
q0 63 -17.5 100.5t-42.5 59.5q-28 23 -56.5 31t-65.5 8q-90 0 -145.5 -56t-69.5 -146q27 18 58 28t63 10q72 0 116.5 -44t44.5 -119q0 -83 -46.5 -130t-126.5 -47zM247 258q-31 0 -58.5 -12.5t-52.5 -33.5q4 -86 37 -121t80 -35q39 0 63 25.5t24 73.5q0 49 -26 76t-67 27z
M642 678q-29 0 -48 18.5t-19 48.5q0 29 19 48t48 19t48 -19t19 -48q0 -30 -19.5 -48.5t-47.5 -18.5z" />
    <glyph glyph-name="haprehalftamil" horiz-adv-x="1619" 
d="M249 -12q-53 0 -97 26t-69.5 82.5t-25.5 146.5q0 107 42.5 179t112.5 108t152 36q102 0 165 -39t92.5 -104t29.5 -143q0 -64 -14 -114t-34 -94h233v269q0 73 11 112.5t42 70.5q42 42 116 42q100 0 144 -94q21 41 63.5 67.5t107.5 26.5q114 0 174.5 -84t60.5 -238
q0 -122 -31 -199.5t-84 -121.5q-58 -47 -136 -63t-166 -16h-866q-42 0 -65 -6t-40 -17t-25.5 -31t-8.5 -53q0 -30 3 -54l-82 -4q-3 18 -5 39.5t-2 38.5q0 44 15.5 74.5t41.5 49.5t58.5 27t82.5 8h871q93 0 159 13.5t108.5 48.5t62.5 100.5t20 168.5q0 91 -19.5 145t-54 78
t-78.5 24q-27 0 -50.5 -8.5t-39.5 -27.5q-20 -23 -28 -54t-8 -85v-319h-86v321q0 49 -5 83t-20 57q-10 15 -26 24t-39 9t-38.5 -8.5t-26.5 -22.5q-16 -23 -20.5 -57t-4.5 -78v-328h-407l-4 63q23 35 37.5 86.5t14.5 119.5q0 107 -55 165t-148 58q-92 0 -149.5 -56.5
t-70.5 -145.5q26 17 57 27.5t64 10.5q72 0 116.5 -44t44.5 -119q0 -83 -46.5 -130t-126.5 -47zM247 258q-30 0 -58 -12.5t-52 -33.5q4 -86 37 -121t79 -35q39 0 63 25.5t24 73.5q0 49 -26 76t-67 27zM809 678q-29 0 -48 18.5t-19 48.5q0 29 19 48t48 19t48 -19t19 -48
q0 -30 -19.5 -48.5t-47.5 -18.5z" />
    <glyph glyph-name="tchaprehalftamil" horiz-adv-x="1851" 
d="M261 -12q-61 0 -108.5 19t-75.5 56t-28 89t26.5 90.5t84.5 60.5v251h523v-72h-187v-154h181q33 62 95 98t145 36q85 0 139.5 -31.5t81 -83t26.5 -113.5q0 -49 -13 -91.5t-30 -70.5h302l28 112q-92 8 -151 57t-59 143q0 50 20.5 91.5t59.5 66t94 24.5q57 0 92 -22
t51.5 -58.5t16.5 -79.5q0 -35 -5.5 -72t-15.5 -78q50 8 84 29.5t56 42.5h81v-328h-285l-72 -284l-79 22l66 262h-369l-4 63q19 25 32.5 66t13.5 90q0 81 -46.5 126t-121.5 45q-47 0 -84 -15t-65 -50q52 -4 81.5 -15.5t52.5 -27.5q29 -21 46 -54.5t17 -77.5
q0 -75 -37.5 -118.5t-119.5 -43.5q-41 0 -77 19.5t-58.5 63t-22.5 114.5q0 38 8 73h-155v-32q0 -68 -11.5 -106t-32.5 -63q-31 -38 -79.5 -53.5t-111.5 -15.5zM1324 382q0 -63 40 -94t104 -35q20 87 20 150q0 43 -19 67t-54 24q-41 0 -66 -28t-25 -84zM239 482v-160
q42 6 93 6h79v154h-172zM269 60q43 0 75 13.5t49.5 47t17.5 92.5v45h-86q-51 0 -86.5 -6t-60.5 -20q-43 -25 -43 -79q0 -47 38 -70t96 -23zM718 169q0 -61 27 -87t64 -26q35 0 52 23.5t17 57.5q0 45 -19.5 71.5t-53 38t-74.5 11.5q-6 -22 -9.5 -42t-3.5 -47zM1698 247
q-26 -22 -67 -40.5t-95 -23.5l-28 -111h186v81q0 23 1 48t3 46zM909 678q-29 0 -48 18.5t-19 48.5q0 29 19 48t48 19t48 -19t19 -48q0 -30 -19.5 -48.5t-47.5 -18.5z" />
    <glyph glyph-name="kaiivowelsigntamil" horiz-adv-x="825" 
d="M261 -12q-61 0 -108.5 19t-75.5 56t-28 89t26.5 91t84.5 60v251h523v-72h-187v-154h16q78 0 126 -11.5t82 -37.5q26 -20 41 -52.5t15 -74.5q0 -76 -45.5 -118t-128.5 -42q-23 0 -50 3t-50 10l19 67q33 -10 73 -10q96 0 96 94q0 46 -25.5 67.5t-65 28t-80.5 6.5h-23v-32
q0 -68 -11.5 -106t-32.5 -63q-31 -38 -79.5 -53.5t-111.5 -15.5zM239 482v-160q42 6 93 6h79v154h-172zM135 153q0 -47 38 -70t96 -23q43 0 75 13t49.5 46.5t17.5 93.5v45h-86q-51 0 -86.5 -6t-60.5 -20q-43 -25 -43 -79zM657 843q86 0 131 -34.5t45 -90.5q0 -63 -38 -93.5
t-93 -30.5q-59 0 -93.5 29.5t-34.5 81.5q0 14 3 31.5t11 35.5q-58 -16 -85.5 -55.5t-27.5 -90.5q0 -28 7 -50.5t19 -40.5l-84 -6q-9 20 -14 44t-5 51q0 58 27.5 108t84.5 80.5t147 30.5zM640 719q0 -34 17.5 -48.5t44.5 -14.5q29 0 45 16t16 41q0 35 -28 51t-72 16h-4
q-10 -15 -14.5 -30.5t-4.5 -30.5z" />
    <glyph glyph-name="kauvowelsigntamil" horiz-adv-x="1062" 
d="M499 -12q-61 0 -109 19t-76 56t-28 89t26.5 90.5t84.5 60.5v251h523v-72h-187v-155q101 -8 163 -50t90 -105t28 -132q0 -100 -37.5 -169t-101.5 -111.5t-144 -61.5t-165 -19h-29q-107 0 -185.5 26.5t-133 72t-87.5 103.5t-48 122t-15 127v21q0 81 20 153.5t52 135
t67 114.5l73 -44q-60 -85 -93 -176t-33 -184v-19q0 -75 22.5 -142.5t69.5 -120t122 -82.5t180 -30h12q170 0 268 71t98 214q0 99 -54 151t-139 63v-29q0 -67 -11.5 -105.5t-32.5 -63.5q-31 -38 -79.5 -53.5t-110.5 -15.5zM476 482v-160q42 6 93 6h79v154h-172zM372 153
q0 -47 38 -70t96 -23q44 0 75.5 13.5t49 47t17.5 92.5v45h-86q-51 0 -86.5 -6t-60.5 -20q-43 -25 -43 -79z" />
    <glyph glyph-name="kauuvowelsigntamil" horiz-adv-x="1332" 
d="M261 -12q-61 0 -108.5 19t-75.5 56t-28 89t26.5 90.5t84.5 60.5v251h523v-72h-187v-154h180q34 63 96 98.5t145 35.5q85 0 139.5 -31.5t81 -83t26.5 -113.5q0 -49 -13 -91.5t-30 -70.5h194v-72h-279l-4 63q19 25 32.5 66t13.5 90q0 81 -46.5 126t-121.5 45q-47 0 -84 -15
t-65 -50q52 -4 81.5 -15.5t52.5 -27.5q29 -21 46 -54.5t17 -77.5q0 -75 -37.5 -118.5t-119.5 -43.5q-41 0 -77 19.5t-58.5 63t-22.5 114.5q0 38 8 73h-155v-32q0 -67 -11.5 -105.5t-32.5 -63.5q-31 -38 -79.5 -53.5t-111.5 -15.5zM239 482v-160q42 6 93 6h79v154h-172z
M269 60q43 0 75 13.5t49.5 47t17.5 92.5v45h-86q-51 0 -86.5 -6t-60.5 -20q-43 -25 -43 -79q0 -47 38 -70t96 -23zM718 169q0 -61 27 -87t64 -26q35 0 52 23.5t17 57.5q0 45 -19.5 71.5t-53 38t-74.5 11.5q-6 -22 -9.5 -42t-3.5 -47z" />
    <glyph glyph-name="ngaiivowelsigntamil" horiz-adv-x="1044" 
d="M88 0v554h488v-72h-146v-158q20 12 52 25t76 13q75 0 117.5 -42.5t42.5 -118.5q0 -36 -10 -69t-26 -60h188v318q-70 7 -127.5 34.5t-92 76.5t-34.5 122q0 59 27 109t84 80.5t145 30.5q85 0 129.5 -34.5t44.5 -90.5q0 -63 -38.5 -93.5t-92.5 -30.5q-59 0 -93.5 29.5
t-34.5 81.5q0 14 3 31t11 34q-55 -16 -81.5 -55t-26.5 -89q0 -59 27 -93.5t68 -50.5t82 -21v93h86v-554h-612v72h251q17 25 27 55.5t10 64.5q0 53 -25 75t-64 22q-32 0 -61.5 -13t-51.5 -30v-102h-86v338h-170v-482h-86zM853 719q0 -34 17.5 -48.5t44.5 -14.5q29 0 45 16
t16 41q0 35 -28 51t-72 16h-4q-10 -15 -14.5 -30.5t-4.5 -30.5z" />
    <glyph glyph-name="ngauvowelsigntamil" horiz-adv-x="1044" 
d="M88 0v554h516v-72h-174v-158q20 12 52 25t76 13q75 0 117.5 -42.5t42.5 -118.5q0 -36 -10 -69t-26 -60h188v482h86v-837h-86v283h-526v72h251q17 25 27 55.5t10 64.5q0 53 -25 75t-64 22q-32 0 -61.5 -13t-51.5 -30v-102h-86v338h-170v-482h-86z" />
    <glyph glyph-name="ngauuvowelsigntamil" horiz-adv-x="1214" 
d="M88 0v554h516v-72h-174v-158q20 12 52 25t76 13q75 0 117.5 -42.5t42.5 -118.5q0 -36 -10 -69t-26 -60h188v482h86v-482q19 13 44.5 21t57.5 8q40 0 74.5 -16.5t55.5 -49.5t21 -84q0 -67 -32.5 -115t-93.5 -80q-79 -41 -202 -59t-285 -18h-51q-144 0 -236 12.5t-144 34.5
q-45 20 -63.5 46.5t-18.5 59.5q0 28 16.5 53t54.5 41t104 16q47 0 87 -6t74 -14l-15 -72q-32 8 -70 14.5t-72 6.5q-52 0 -72.5 -10.5t-20.5 -30.5q0 -14 17 -28t61 -25.5t123 -18t202 -6.5h13q297 0 428 56q112 48 112 141q0 43 -22 62.5t-61 19.5q-26 0 -48.5 -10
t-37.5 -22v-147h-86v148h-526v72h251q17 25 27 55.5t10 64.5q0 53 -25 75t-64 22q-32 0 -61.5 -13t-51.5 -30v-102h-86v338h-170v-482h-86z" />
    <glyph glyph-name="caiivowelsigntamil" horiz-adv-x="776" 
d="M261 -12q-61 0 -108.5 19t-75.5 56t-28 89t26.5 90.5t84.5 60.5v251h523v-72h-187v-154h187v-70h-187v-32q0 -68 -11.5 -106t-32.5 -63q-31 -38 -79.5 -53.5t-111.5 -15.5zM239 482v-160q42 6 93 6h79v154h-172zM269 60q43 0 75 13.5t49.5 47t17.5 92.5v45h-86
q-51 0 -86.5 -6t-60.5 -20q-43 -25 -43 -79q0 -47 38 -70t96 -23zM608 843q86 0 131 -34.5t45 -90.5q0 -63 -38 -93.5t-93 -30.5q-59 0 -93.5 29.5t-34.5 81.5q0 14 3 31.5t11 35.5q-58 -16 -85.5 -55.5t-27.5 -90.5q0 -28 7 -50.5t19 -40.5l-84 -6q-9 20 -14 44t-5 51
q0 58 27.5 108t84.5 80.5t147 30.5zM591 719q0 -34 17.5 -48.5t44.5 -14.5q29 0 45 16t16 41q0 35 -28 51t-72 16h-4q-10 -15 -14.5 -30.5t-4.5 -30.5z" />
    <glyph glyph-name="cauvowelsigntamil" horiz-adv-x="867" 
d="M261 -12q-61 0 -108.5 19t-75.5 56t-28 89t26.5 90.5t84.5 60.5v251h523v-72h-187v-154h347v-70h-128v-258h-83v258h-136v-32q0 -67 -11.5 -105.5t-32.5 -63.5q-31 -38 -79.5 -53.5t-111.5 -15.5zM239 482v-160q42 6 93 6h79v154h-172zM269 60q43 0 75 13.5t49.5 47
t17.5 92.5v45h-86q-51 0 -86.5 -6t-60.5 -20q-43 -25 -43 -79q0 -47 38 -70t96 -23z" />
    <glyph glyph-name="cauuvowelsigntamil" horiz-adv-x="1195" 
d="M498 -12q-60 0 -108 19t-76 56t-28 89t26.5 90.5t84.5 60.5v251h523v-72h-187v-154h348v-70h-129v-103q16 8 37 13.5t45 5.5q59 0 101.5 -43.5t42.5 -125.5q0 -88 -43.5 -150t-118.5 -101t-170.5 -57t-198.5 -18h-22q-150 0 -252.5 35.5t-166.5 94.5q-75 67 -106.5 154
t-31.5 172v25q0 82 20 152t52 130t66 112l74 -44q-60 -83 -93 -171t-33 -179v-19q0 -78 25.5 -147.5t81.5 -123t147 -84t221 -30.5h15q134 0 234 27.5t156 83t56 138.5q0 47 -23 75t-61 28q-15 0 -28.5 -4.5t-25.5 -10.5v-93h-83v258h-136v-32q0 -67 -11.5 -105.5
t-32.5 -63.5q-31 -38 -79.5 -53.5t-111.5 -15.5zM476 482v-160q42 6 93 6h79v154h-172zM506 60q44 0 75.5 13.5t49 47t17.5 92.5v45h-86q-51 0 -86.5 -6t-60.5 -20q-43 -25 -43 -79q0 -47 38.5 -70t95.5 -23z" />
    <glyph glyph-name="jaiivowelsigntamil" horiz-adv-x="1022" 
d="M331 566q66 0 109.5 -16t69.5 -41.5t41 -53.5q24 53 68.5 82t109.5 29q75 0 126 -29.5t77.5 -82t26.5 -119.5t-20 -114t-56 -78q-38 -33 -91.5 -50t-117 -23.5t-132.5 -6.5h-94q-100 0 -163 -10.5t-98 -44.5q-19 -20 -27.5 -45t-8.5 -56q0 -59 22 -92.5t54.5 -48
t64.5 -14.5q44 0 76 12.5t58 35t52 52.5q42 46 80 77.5t83 47.5t110 16q47 0 92 -17.5t74 -54.5t29 -95q0 -67 -45 -107t-114 -40q-57 0 -93 21t-52.5 53t-16.5 66q0 28 8.5 50t22.5 41q-29 -13 -55.5 -38t-51.5 -56q-50 -62 -107.5 -99.5t-144.5 -37.5q-83 0 -134.5 31.5
t-75.5 83.5t-24 111q0 55 18.5 94.5t49.5 65.5q52 43 131.5 56.5t169.5 13.5h89q113 0 188 12t114 49q48 45 48 138q0 79 -41.5 119t-103.5 40q-59 0 -91 -36q-19 -23 -27 -53.5t-8 -84.5v-114h-87v88q0 97 -39.5 150t-136.5 53q-23 0 -37.5 -1.5t-28.5 -4.5
q58 -12 95.5 -50.5t37.5 -97.5q0 -72 -46.5 -115t-122.5 -43q-85 0 -128.5 46.5t-43.5 114.5q0 70 37 119.5t98.5 75.5t132.5 26zM142 348q0 -43 21 -69.5t71 -26.5q39 0 63.5 22t24.5 61q0 51 -39 81t-98 32q-23 -21 -33 -46.5t-10 -53.5zM707 -168q0 -34 18.5 -59
t63.5 -25q26 0 51 17t25 62q0 37 -18 57t-45.5 28.5t-55.5 10.5q-39 -40 -39 -91zM854 843q86 0 131 -34.5t45 -90.5q0 -63 -38 -93.5t-93 -30.5q-59 0 -93.5 29.5t-34.5 81.5q0 14 3 31.5t11 35.5q-58 -16 -85.5 -55.5t-27.5 -90.5q0 -28 7 -50.5t19 -40.5l-84 -6
q-9 20 -14 44t-5 51q0 58 27.5 108t84.5 80.5t147 30.5zM837 719q0 -34 17.5 -48.5t44.5 -14.5q29 0 45 16t16 41q0 35 -28 51t-72 16h-4q-10 -15 -14.5 -30.5t-4.5 -30.5z" />
    <glyph glyph-name="nyaiivowelsigntamil" horiz-adv-x="1209" 
d="M503 -12q-53 0 -96.5 26t-69.5 81.5t-26 143.5q0 77 25 134t68 95q47 43 117.5 64.5t183.5 21.5h333v-72h-170v-198q19 13 47.5 24t64.5 11q81 0 131.5 -61.5t50.5 -174.5q0 -111 -43 -188.5t-117 -125t-167.5 -69t-194.5 -21.5h-27q-124 0 -215.5 26t-155 72t-101.5 106
t-55.5 128t-17.5 138v21q0 69 18.5 138.5t48.5 132.5t64 113l74 -44q-57 -86 -88 -173t-31 -174v-13q0 -84 27 -155.5t83.5 -125t145 -83.5t212.5 -30h13q128 0 227 35t155.5 107.5t56.5 185.5q0 80 -29 121.5t-81 41.5q-28 0 -52 -11t-44 -25v-211h-86v482h-89
q-65 0 -107.5 -7.5t-70 -21t-47.5 -30.5q-58 -51 -73 -132q26 17 56.5 27t62.5 10q73 0 117.5 -44t44.5 -119q0 -83 -46.5 -130t-126.5 -47zM500 258q-30 0 -57.5 -12.5t-52.5 -33.5q4 -83 36.5 -119.5t81.5 -36.5q38 0 62 25.5t24 73.5q0 49 -26.5 76t-67.5 27zM1023 843
q86 0 131 -34.5t45 -90.5q0 -63 -38 -93.5t-93 -30.5q-59 0 -93.5 29.5t-34.5 81.5q0 14 3 31.5t11 35.5q-58 -16 -85.5 -55.5t-27.5 -90.5q0 -28 7 -50.5t19 -40.5l-84 -6q-9 20 -14 44t-5 51q0 58 27.5 108t84.5 80.5t147 30.5zM1006 719q0 -34 17.5 -48.5t44.5 -14.5
q29 0 45 16t16 41q0 35 -28 51t-72 16h-4q-10 -15 -14.5 -30.5t-4.5 -30.5z" />
    <glyph glyph-name="nyauvowelsigntamil" horiz-adv-x="1226" 
d="M249 -12q-53 0 -96.5 26t-69.5 81.5t-26 143.5q0 77 25 134t68 95q47 43 117.5 64.5t183.5 21.5h333v-72h-170v-198q19 13 47.5 24t64.5 11q81 0 131.5 -60.5t50.5 -169.5q0 -50 -10.5 -93t-31.5 -80h186v638h86v-710h-316q-52 -58 -128 -94.5t-166 -53.5t-186 -17h-22
q-54 0 -104.5 8.5t-90.5 27t-63.5 48t-23.5 70.5q0 44 31 64q13 10 33 14.5t63 4.5h605q50 70 50 177q0 74 -29 114t-81 40q-28 0 -52 -11t-44 -25v-211h-86v482h-89q-65 0 -107.5 -7.5t-70 -21t-47.5 -30.5q-58 -51 -73 -132q26 17 56.5 27t63.5 10q72 0 116.5 -44
t44.5 -119q0 -83 -46.5 -130t-126.5 -47zM246 258q-30 0 -57.5 -12.5t-52.5 -33.5q4 -83 36.5 -119.5t80.5 -36.5q39 0 63 25.5t24 73.5q0 49 -26 76t-68 27zM343 -249q120 0 210.5 22.5t158.5 70.5h-556q-12 0 -23.5 -4t-11.5 -20q0 -29 52.5 -49t153.5 -20h16z" />
    <glyph glyph-name="nyauuvowelsigntamil" horiz-adv-x="1589" 
d="M249 -12q-53 0 -96.5 26t-69.5 81.5t-26 143.5q0 77 25 134t68 95q47 43 117.5 64.5t183.5 21.5h333v-72h-170v-198q19 13 47.5 24t64.5 11q81 0 131.5 -60.5t50.5 -169.5q0 -50 -10.5 -93t-31.5 -80h186v638h520v-73h-174v-637h-86v637h-174v-637h-316
q-52 -58 -128 -94.5t-166 -53.5t-186 -17h-22q-54 0 -104.5 8.5t-90.5 27t-63.5 48t-23.5 70.5q0 44 31 64q13 10 33 14.5t63 4.5h605q50 70 50 177q0 74 -29 114t-81 40q-28 0 -52 -11t-44 -25v-211h-86v482h-89q-65 0 -107.5 -7.5t-70 -21t-47.5 -30.5q-58 -51 -73 -132
q26 17 56.5 27t63.5 10q72 0 116.5 -42.5t44.5 -120.5q0 -83 -46.5 -130t-126.5 -47zM247 258q-30 0 -58 -12.5t-53 -33.5q4 -83 36.5 -119.5t80.5 -36.5q39 0 63 25.5t24 73.5q0 49 -26 76t-67 27zM343 -249q120 0 210.5 22.5t158.5 70.5h-556q-12 0 -23.5 -4t-11.5 -20
q0 -29 52.5 -49t153.5 -20h16z" />
    <glyph glyph-name="ttaivowelsigntamil" horiz-adv-x="797" 
d="M88 0v554h86v-482h237q-37 47 -62.5 101t-25.5 122q0 49 19 89t56.5 63.5t90.5 23.5q55 0 89 -22.5t49.5 -59t15.5 -79.5q0 -45 -9 -92.5t-22 -93.5l-15 -52h183v-72h-203l-79 -284l-79 22l75 262h-406zM406 286q0 -66 32 -119.5t73 -94.5h2l6 22q17 56 27 107t10 106
q0 43 -17.5 67.5t-50.5 24.5q-38 0 -60 -29t-22 -84z" />
    <glyph glyph-name="ttaiivowelsigntamil" horiz-adv-x="797" 
d="M88 0v554h86v-482h181q-27 36 -42 79t-15 90q0 61 29 113.5t85 84.5t138 32t126 -34.5t44 -90.5q0 -63 -38 -94.5t-93 -31.5q-59 0 -93.5 30t-34.5 83q0 13 2.5 28.5t9.5 31.5q-47 -19 -69.5 -58.5t-22.5 -92.5q0 -52 19 -95t52 -75h328v-72h-692zM527 347
q0 -34 17.5 -48.5t44.5 -14.5q29 0 45 16t16 42q0 34 -27.5 50t-70.5 16h-6q-10 -15 -14.5 -30.5t-4.5 -30.5z" />
    <glyph glyph-name="ttauvowelsigntamil" horiz-adv-x="1015" 
d="M355 0v554h87v-269q18 12 46.5 23t64.5 11q81 0 132 -61.5t51 -195.5q0 -101 -23.5 -170t-66 -110.5t-99 -60t-123.5 -18.5q-110 0 -189 60t-121.5 174t-42.5 277v28q0 151 37.5 264t103.5 187.5t154.5 112t190.5 37.5q82 0 142.5 -21.5t104.5 -58.5q70 -59 97 -151
t27 -235v-377h-86v334q0 84 -8 157.5t-32 131t-72 94.5q-32 24 -75 37.5t-101 13.5q-75 0 -146 -29.5t-127.5 -93.5t-90 -167t-33.5 -249q0 -235 70.5 -343t193.5 -108q118 0 172.5 71t54.5 204q0 109 -29 151.5t-81 42.5q-28 0 -52 -11t-44 -25v-211h-87z" />
    <glyph glyph-name="ttauuvowelsigntamil" horiz-adv-x="902" 
d="M355 0v554h87v-269q18 12 46.5 23t64.5 11q81 0 132 -61.5t51 -195.5q0 -101 -23.5 -170t-66 -110.5t-99 -60t-123.5 -18.5q-110 0 -189 60t-121.5 174t-42.5 277v28q0 151 37.5 263.5t104.5 187.5t156.5 112.5t192.5 37.5q116 0 188.5 -38t106.5 -101.5t34 -137.5
q0 -70 -25.5 -111t-63.5 -58t-74 -17q-74 0 -115.5 41t-41.5 103q0 64 41 104.5t110 40.5q22 0 42.5 -6.5t38.5 -16.5q-26 57 -86 89.5t-155 32.5q-77 0 -149.5 -29.5t-130 -93.5t-91 -167t-33.5 -249q0 -235 70.5 -343t192.5 -108q118 0 172.5 71t54.5 204q0 109 -29 151.5
t-81 42.5q-28 0 -52 -11t-44 -25v-211h-87zM653 524q0 -37 21 -56.5t56 -19.5q42 0 62 35t20 85q-37 34 -80 34q-34 0 -56.5 -19.5t-22.5 -58.5z" />
    <glyph glyph-name="nnaiivowelsigntamil" horiz-adv-x="1702" 
d="M249 -12q-53 0 -97 26t-69.5 82.5t-25.5 146.5q0 99 43.5 171.5t122.5 112t185 39.5q69 0 128.5 -15.5t115.5 -49.5q91 65 214 65q64 0 115 -16t96 -48q28 16 61.5 27.5t80 18t114.5 6.5h298v-72h-170v-482h-86v482h-65q-53 0 -94.5 -5.5t-80.5 -24.5q49 -49 77 -116
t28 -147q0 -100 -43.5 -150.5t-119.5 -50.5q-57 0 -93.5 26t-54 70.5t-17.5 101.5q0 76 24 142.5t80 125.5q-36 21 -73.5 30t-74.5 9q-45 0 -84 -8.5t-76 -30.5q55 -51 86 -117.5t31 -147.5q0 -100 -43.5 -150.5t-118.5 -50.5q-58 0 -94.5 26t-54 70.5t-17.5 101.5
q0 79 24 147t72 117q-43 23 -92 32.5t-103 9.5q-110 0 -176 -56.5t-82 -145.5q26 18 57 28t64 10q72 0 116.5 -44t44.5 -119q0 -83 -46.5 -130t-126.5 -47zM996 189q0 -69 21 -101t57 -32q32 0 49.5 19t24.5 48t7 59q0 73 -24.5 132.5t-59.5 95.5q-37 -36 -56 -95.5
t-19 -125.5zM581 189q0 -69 21 -101t58 -32q31 0 48.5 19t24.5 48t7 59q0 69 -23 125.5t-67 99.5q-38 -43 -53.5 -101.5t-15.5 -116.5zM247 258q-31 0 -58.5 -12.5t-52.5 -33.5q5 -86 37.5 -121t79.5 -35q41 0 64 25.5t23 73.5q0 49 -26 76t-67 27zM1534 843q86 0 131 -34.5
t45 -90.5q0 -63 -38 -93.5t-93 -30.5q-59 0 -93.5 29.5t-34.5 81.5q0 14 3 31.5t11 35.5q-58 -16 -85.5 -55.5t-27.5 -90.5q0 -28 7 -50.5t19 -40.5l-84 -6q-9 20 -14 44t-5 51q0 58 27.5 108t84.5 80.5t147 30.5zM1517 719q0 -34 17.5 -48.5t44.5 -14.5q29 0 45 16t16 41
q0 35 -28 51t-72 16h-4q-10 -15 -14.5 -30.5t-4.5 -30.5z" />
    <glyph glyph-name="nnauvowelsigntamil" horiz-adv-x="1841" 
d="M249 -12q-53 0 -97 26t-69.5 82.5t-25.5 146.5q0 99 43.5 171.5t122.5 112t185 39.5q68 0 128 -15.5t116 -49.5q91 65 214 65q61 0 110 -14.5t92 -43.5q77 58 174 58q130 0 199.5 -87.5t69.5 -252.5q0 -95 -24.5 -172t-67.5 -138h248v638h86v-710h-391
q-53 -42 -114.5 -73.5t-143 -51.5t-195.5 -30t-272 -10h-172q-157 0 -251 16t-135 50t-41 88q0 44 31 64q13 10 32.5 14.5t62.5 4.5h1149q53 59 81.5 136.5t28.5 170.5q0 97 -24.5 156t-66.5 86t-94 27q-27 0 -56 -6.5t-57 -23.5q57 -54 86 -124t29 -149
q0 -100 -43.5 -150.5t-119.5 -50.5q-57 0 -93.5 26t-54 70.5t-17.5 101.5q0 74 24.5 143t76.5 127q-35 20 -71.5 28.5t-73.5 8.5q-45 0 -84 -8.5t-76 -30.5q55 -51 86 -117.5t31 -147.5q0 -100 -43.5 -150.5t-118.5 -50.5q-58 0 -94.5 26t-54 70.5t-17.5 101.5q0 79 24 147
t72 117q-43 23 -92 32.5t-103 9.5q-110 0 -176 -56.5t-82 -145.5q26 18 57 28t64 10q72 0 116.5 -44t44.5 -119q0 -83 -46.5 -130t-126.5 -47zM996 189q0 -69 21.5 -101t56.5 -32q32 0 49.5 19t24.5 48t7 59q0 75 -25.5 135.5t-61.5 96.5q-37 -45 -54.5 -101.5t-17.5 -123.5
zM581 189q0 -69 21 -101t58 -32q31 0 48.5 19t24.5 48t7 59q0 69 -23 125.5t-67 99.5q-38 -43 -53.5 -101.5t-15.5 -116.5zM247 258q-31 0 -58.5 -12.5t-52.5 -33.5q5 -86 37.5 -121t79.5 -35q41 0 64 25.5t23 73.5q0 49 -26 76t-67 27zM593 -248q130 0 228.5 5.5t173 16.5
t131.5 28.5t106 41.5h-1076q-12 0 -23.5 -4t-11.5 -20q0 -15 18 -27.5t64 -21.5t127.5 -14t208.5 -5h54z" />
    <glyph glyph-name="nnauuvowelsigntamil" horiz-adv-x="2205" 
d="M249 -12q-53 0 -97 26t-69.5 82.5t-25.5 146.5q0 99 43.5 171.5t122.5 112t185 39.5q68 0 128 -15.5t116 -49.5q91 65 214 65q61 0 110 -14.5t92 -43.5q77 58 174 58q130 0 199.5 -87.5t69.5 -252.5q0 -95 -24.5 -172t-67.5 -138h248v638h521v-72h-174v-638h-86v638h-175
v-638h-391q-53 -42 -114.5 -73.5t-143 -51.5t-195.5 -30t-272 -10h-172q-157 0 -251 16t-135 50t-41 88q0 44 31 64q13 10 32.5 14.5t62.5 4.5h1149q53 59 81.5 136.5t28.5 170.5q0 97 -24.5 156t-66.5 86t-94 27q-27 0 -56 -6.5t-57 -23.5q57 -54 86 -124t29 -149
q0 -100 -43.5 -150.5t-119.5 -50.5q-57 0 -93.5 26t-54 70.5t-17.5 101.5q0 74 24.5 143t76.5 127q-35 20 -71.5 28.5t-73.5 8.5q-45 0 -84 -8.5t-76 -30.5q55 -51 86 -117.5t31 -147.5q0 -100 -43.5 -150.5t-118.5 -50.5q-58 0 -94.5 26t-54 70.5t-17.5 101.5q0 79 24 147
t72 117q-43 23 -92 32.5t-103 9.5q-110 0 -176 -56.5t-82 -145.5q26 18 57 28t64 10q72 0 116.5 -44t44.5 -119q0 -83 -46.5 -130t-126.5 -47zM996 189q0 -69 21.5 -101t56.5 -32q32 0 49.5 19t24.5 48t7 59q0 75 -25.5 135.5t-61.5 96.5q-37 -45 -54.5 -101.5t-17.5 -123.5
zM581 189q0 -69 21 -101t58 -32q31 0 48.5 19t24.5 48t7 59q0 69 -23 125.5t-67 99.5q-38 -43 -53.5 -101.5t-15.5 -116.5zM247 258q-31 0 -58.5 -12.5t-52.5 -33.5q5 -86 37.5 -121t79.5 -35q41 0 64 25.5t23 73.5q0 49 -26 76t-67 27zM593 -248q130 0 228.5 5.5t173 16.5
t131.5 28.5t106 41.5h-1076q-12 0 -23.5 -4t-11.5 -20q0 -15 18 -27.5t64 -21.5t127.5 -14t208.5 -5h54z" />
    <glyph glyph-name="taiivowelsigntamil" horiz-adv-x="825" 
d="M261 -12q-61 0 -108.5 19t-75.5 56t-28 89t26.5 91t84.5 60v251h523v-72h-187v-154q82 -2 145.5 -24.5t99.5 -72.5t36 -133q0 -67 -25 -112.5t-71 -79.5q-49 -35 -118.5 -48.5t-177.5 -13.5h-113q-42 0 -65 -6t-40 -17t-25.5 -31t-8.5 -53q0 -30 3 -54l-82 -4
q-3 18 -5 39.5t-2 38.5q0 44 15.5 74.5t41.5 49.5t58.5 27t82.5 8h109q89 0 146 7.5t92 23t58 40.5q41 44 41 118q0 59 -28 91.5t-73 45.5t-94 15v-31q0 -68 -11.5 -106t-32.5 -63q-31 -38 -79.5 -53.5t-111.5 -15.5zM239 482v-160q42 6 93 6h79v154h-172zM135 153
q0 -47 38 -70t96 -23q43 0 75 13.5t49.5 47t17.5 92.5v45h-86q-51 0 -86.5 -6t-60.5 -20q-43 -25 -43 -79zM657 843q86 0 131 -34.5t45 -90.5q0 -63 -38 -93.5t-93 -30.5q-59 0 -93.5 29.5t-34.5 81.5q0 14 3 31.5t11 35.5q-58 -16 -85.5 -55.5t-27.5 -90.5q0 -28 7 -50.5
t19 -40.5l-84 -6q-9 20 -14 44t-5 51q0 58 27.5 108t84.5 80.5t147 30.5zM640 719q0 -34 17.5 -48.5t44.5 -14.5q29 0 45 16t16 41q0 35 -28 51t-72 16h-4q-10 -15 -14.5 -30.5t-4.5 -30.5z" />
    <glyph glyph-name="tauvowelsigntamil" horiz-adv-x="1091" 
d="M261 -12q-61 0 -108.5 19t-75.5 56t-28 90q0 51 26.5 89.5t84.5 60.5v251h523v-72h-187v-154q130 -3 205 -72.5t75 -197.5q0 -40 -8.5 -76t-22.5 -66h172v638h86v-710h-290q-57 -80 -157.5 -122.5t-242.5 -42.5h-13q-70 0 -130 15.5t-96 49.5t-36 89q0 44 31 64
q13 10 32.5 14.5t62.5 4.5h491q32 60 32 139q0 98 -51.5 147.5t-139.5 54.5v-31q0 -67 -11.5 -105.5t-32.5 -63.5q-31 -38 -79.5 -53.5t-111.5 -15.5zM239 482v-160q42 6 93 6h79v154h-172zM135 153q0 -47 38 -70t96 -23q43 0 75 13.5t49.5 47t17.5 92.5v45h-86
q-51 0 -86.5 -6t-60.5 -20q-43 -25 -43 -79zM310 -248q106 0 180 23.5t123 68.5h-457q-12 0 -23.5 -4t-11.5 -20q0 -29 43.5 -48.5t132.5 -19.5h13z" />
    <glyph glyph-name="tauuvowelsigntamil" horiz-adv-x="1455" 
d="M261 -12q-61 0 -108.5 19t-75.5 56t-28 90q0 51 26.5 89.5t84.5 60.5v251h523v-72h-187v-154q130 -3 205 -72.5t75 -197.5q0 -40 -8.5 -76t-22.5 -66h172v638h521v-72h-174v-638h-86v638h-175v-638h-290q-57 -80 -157.5 -122.5t-242.5 -42.5h-13q-70 0 -130 15.5
t-96 49.5t-36 89q0 44 31 64q13 10 32.5 14.5t62.5 4.5h491q32 60 32 139q0 98 -51.5 147.5t-139.5 54.5v-31q0 -67 -11.5 -105.5t-32.5 -63.5q-31 -38 -79.5 -53.5t-111.5 -15.5zM239 482v-160q42 6 93 6h79v154h-172zM135 153q0 -47 38 -70t96 -23q43 0 75 13.5t49.5 47
t17.5 92.5v45h-86q-51 0 -86.5 -6t-60.5 -20q-43 -25 -43 -79zM310 -248q106 0 180 23.5t123 68.5h-457q-12 0 -23.5 -4t-11.5 -20q0 -29 43.5 -48.5t132.5 -19.5h13z" />
    <glyph glyph-name="naiivowelsigntamil" horiz-adv-x="789" 
d="M88 0v554h521v-72h-175v-156q25 15 55.5 25.5t67.5 10.5q51 0 92.5 -26t66.5 -77t25 -125q0 -90 -26.5 -142t-72.5 -86q-49 -35 -118 -48.5t-177 -13.5h-75q-42 0 -65 -6t-40 -17t-25.5 -31t-8.5 -53q0 -30 3 -54l-82 -4q-3 18 -5 39.5t-2 38.5q0 44 15.5 74.5t41.5 49.5
t58.5 27t82.5 8h93q82 0 133.5 7t83.5 22.5t55 40.5q20 22 32.5 57t12.5 88q0 77 -30.5 117.5t-88.5 40.5q-27 0 -54 -11.5t-48 -27.5v-250h-86v482h-174v-482h-86zM590 843q86 0 131 -34.5t45 -90.5q0 -63 -38 -93.5t-93 -30.5q-59 0 -93.5 29.5t-34.5 81.5q0 14 3 31.5
t11 35.5q-58 -16 -85.5 -55.5t-27.5 -90.5q0 -28 7 -50.5t19 -40.5l-84 -6q-9 20 -14 44t-5 51q0 58 27.5 108t84.5 80.5t147 30.5zM573 719q0 -34 17.5 -48.5t44.5 -14.5q29 0 45 16t16 41q0 35 -28 51t-72 16h-4q-10 -15 -14.5 -30.5t-4.5 -30.5z" />
    <glyph glyph-name="nauvowelsigntamil" horiz-adv-x="1058" 
d="M88 0v554h521v-72h-175v-156q25 15 55.5 25.5t67.5 10.5q51 0 92.5 -26t66.5 -78.5t25 -129.5q0 -62 -11 -115t-31 -97h185v638h86v-710h-307q-59 -83 -156.5 -124t-222.5 -41h-18q-56 0 -108.5 15.5t-86 49.5t-33.5 89q0 44 31 64q13 10 32.5 14.5t62.5 4.5h442
q21 41 33.5 92.5t12.5 116.5q0 164 -116 164q-27 0 -54 -11.5t-48 -27.5v-250h-86v482h-174v-482h-86zM289 -248q88 0 155.5 21.5t120.5 70.5h-409q-12 0 -23.5 -4t-11.5 -20q0 -29 40.5 -48.5t117.5 -19.5h10z" />
    </font>
</defs>
</svg>
