<?xml version="1.0" standalone="no"?>
<!DOCTYPE svg PUBLIC "-//W3C//DTD SVG 1.1//EN" "http://www.w3.org/Graphics/SVG/1.1/DTD/svg11.dtd" >
<svg xmlns="http://www.w3.org/2000/svg" xmlns:xlink="http://www.w3.org/1999/xlink" version="1.1">
<metadata>
Created by FontForge 20170731 at Wed Sep 20 01:00:32 2017
 By Aleksey,,,
Copyright 2015 Google Inc. All Rights Reserved.
</metadata>
<defs>
<font id="NotoSansMyanmar-Regular" horiz-adv-x="0" >
  <font-face 
    font-family="Noto Sans Myanmar"
    font-weight="400"
    font-stretch="normal"
    units-per-em="1000"
    panose-1="2 11 5 2 4 5 4 2 2 4"
    ascent="800"
    descent="-200"
    bbox="-861 -690 2385 1252"
    underline-thickness="50"
    underline-position="-175"
    unicode-range="U+000D-FE00"
  />
<missing-glyph horiz-adv-x="600" 
d="M94 0v714h411v-714h-411zM145 663v-612h309v612h-309z" />
    <glyph glyph-name=".notdef" horiz-adv-x="600" 
d="M94 0v714h411v-714h-411zM145 663v-612h309v612h-309z" />
    <glyph glyph-name=".null" 
 />
    <glyph glyph-name="nonmarkingreturn" horiz-adv-x="333" 
 />
    <glyph glyph-name="NULL" 
 />
    <glyph glyph-name="NULL" 
 />
    <glyph glyph-name="CR" unicode="&#xd;" horiz-adv-x="260" 
 />
    <glyph glyph-name="space" unicode=" " horiz-adv-x="260" 
 />
    <glyph glyph-name="uni00A0" unicode="&#xa0;" horiz-adv-x="260" 
 />
    <glyph glyph-name="ka" unicode="&#x1000;" horiz-adv-x="1124" 
d="M184 -10q-36 24 -65.5 65t-46.5 93t-17 110q0 86 36.5 150.5t99.5 101t141 36.5q76 0 134 -32.5t94 -87.5q39 59 98.5 89.5t133.5 30.5q86 0 148 -37t95.5 -100t33.5 -141q0 -84 -33.5 -146.5t-91.5 -96.5t-133 -34q-46 0 -79.5 6t-61.5 20l32 66q38 -19 94 -19
q82 0 132 55t50 147t-48 148.5t-137 56.5q-65 0 -111 -35t-85 -97q10 -39 10 -81q0 -94 -36.5 -161.5t-92.5 -106.5l-51 64q43 35 66 85t23 117q0 99 -50.5 157t-133.5 58q-84 0 -135 -57.5t-51 -157.5q0 -67 23 -117t66 -85z" />
    <glyph glyph-name="kha" unicode="&#x1001;" horiz-adv-x="676" 
d="M325 -10q-67 0 -123 23.5t-95 66.5t-55 102q69 46 130.5 66.5t126.5 20.5t118.5 -18.5t93.5 -49.5q9 33 9 69q0 61 -25.5 106.5t-71 70.5t-106.5 25q-66 0 -117.5 -31.5t-79.5 -93.5l-70 36q28 73 99 118t166 45q91 0 157 -37t102.5 -99.5t36.5 -140.5t-36 -141.5
t-102.5 -100.5t-157.5 -37zM147 154q30 -45 76.5 -67.5t104.5 -22.5t97.5 20t63.5 52q-33 27 -78 43.5t-105 16.5q-45 0 -85 -12.5t-74 -29.5z" />
    <glyph glyph-name="ga" unicode="&#x1002;" horiz-adv-x="668" 
d="M184 -10q-36 24 -65.5 65t-46.5 93t-17 110q0 85 36.5 150t100 101.5t143.5 36.5q81 0 144 -37t98.5 -102t35.5 -149q0 -55 -17 -107t-46 -94.5t-66 -66.5l-51 64q43 35 66 85t23 117q0 68 -24 116t-66 74t-97 26t-98 -26t-67 -74.5t-24 -115.5t23 -117t66 -85z" />
    <glyph glyph-name="gha" unicode="&#x1003;" horiz-adv-x="1125" 
d="M324 -10q-79 0 -137.5 26.5t-91 74t-32.5 109.5q0 52 22.5 94t64.5 74q24 18 37 33.5t13 35.5q0 14 -10 24.5t-27 10.5q-15 0 -29 -8.5t-31 -28.5l-50 51q30 32 54.5 46t62.5 14q37 0 63 -16t39.5 -40t13.5 -48q0 -22 -4.5 -39.5t-18 -35.5t-41.5 -42q-41 -36 -55 -64.5
t-14 -60.5q0 -58 45.5 -97t132.5 -39q53 0 94.5 26t65.5 74.5t24 115.5q0 68 -23 117.5t-66 84.5l51 64q61 -43 95 -116t34 -152q0 -43 -9 -82q36 -63 88 -97.5t110 -34.5q85 0 134.5 56.5t49.5 149.5t-50 147.5t-132 54.5q-56 0 -95 -18l-32 66q28 14 61.5 20t79.5 6
q75 0 133.5 -34.5t92 -97t33.5 -146.5q0 -78 -34 -141t-96 -100t-147 -37q-73 0 -133.5 30t-99.5 88q-36 -56 -97 -87t-139 -31z" />
    <glyph glyph-name="nga" unicode="&#x1004;" horiz-adv-x="650" 
d="M341 -10q-90 0 -154 36t-98 99t-34 144q0 79 35.5 141.5t99.5 99t151 36.5q59 0 110.5 -20.5t89 -57t54.5 -85.5l-70 -36q-26 62 -75 93.5t-111 31.5q-59 0 -102.5 -25.5t-67 -71t-23.5 -105.5t25 -106.5t68.5 -73t99.5 -26.5q62 0 111 31.5t75 93.5l70 -36
q-17 -49 -54.5 -85.5t-89 -57t-110.5 -20.5z" />
    <glyph glyph-name="ca" unicode="&#x1005;" horiz-adv-x="674" 
d="M334 -10q-85 0 -147.5 36.5t-97 99t-34.5 142.5q0 79 34.5 142t98 99.5t149.5 36.5q85 0 148.5 -36t98.5 -99t35 -143q0 -82 -36.5 -144.5t-100.5 -98t-148 -35.5zM334 63q58 0 102 25.5t68 71.5t24 106q0 93 -52.5 149.5t-140.5 56.5q-41 0 -78 -15q36 -36 59 -83
t23 -109q0 -59 -21.5 -105.5t-56.5 -82.5q35 -14 73 -14zM136 266q0 -46 16.5 -84t44.5 -65q61 59 61 148q0 42 -15.5 80t-47.5 71q-28 -28 -43.5 -66.5t-15.5 -83.5z" />
    <glyph glyph-name="cha" unicode="&#x1006;" horiz-adv-x="1127" 
d="M325 -10q-67 0 -123 23.5t-95 66.5t-55 102q69 46 130.5 66.5t126.5 20.5t118.5 -18.5t93.5 -49.5q9 33 9 69q0 61 -25.5 106.5t-71 70.5t-106.5 25q-66 0 -117.5 -31.5t-79.5 -93.5l-70 36q28 73 99 118t166 45q74 0 132 -25t97 -68q45 46 100 69.5t134 23.5
q86 0 149.5 -36t99 -98.5t35.5 -143.5q0 -82 -36.5 -144.5t-101 -98t-149.5 -35.5q-79 0 -136.5 26t-93.5 69q-38 -44 -96.5 -69.5t-133.5 -25.5zM621 269q0 -62 -23 -116q28 -39 76.5 -64t109.5 -25q91 0 144 55.5t53 146.5q0 95 -50.5 150.5t-140.5 55.5
q-59 0 -107.5 -18.5t-85.5 -68.5q24 -54 24 -116zM147 154q30 -45 76.5 -67.5t104.5 -22.5t97.5 20t63.5 52q-33 27 -78 43.5t-105 16.5q-45 0 -85 -12.5t-74 -29.5z" />
    <glyph glyph-name="ja" unicode="&#x1007;" horiz-adv-x="684" 
d="M336 -10q-96 0 -158 39t-92.5 103t-30.5 137q0 81 35.5 143.5t98.5 98t147 35.5q72 0 130 -19t92 -58t34 -99q0 -11 -1 -27.5t-2 -31.5t-1 -20q0 -32 17 -42.5t58 -10.5v-73h-18q-61 0 -93 28.5t-35 76.5q-23 -11 -57 -11q-54 0 -90.5 34t-36.5 85q0 30 13 53t33 38
q-23 3 -44 3q-57 0 -99.5 -24.5t-66 -68.5t-23.5 -102q0 -97 46 -155t149 -58q106 0 165 55l59 -60q-35 -29 -94 -49t-135 -20zM459 324q23 0 39.5 16t16.5 39t-16.5 39t-39.5 16t-39 -16t-16 -39t16 -39t39 -16z" />
    <glyph glyph-name="jha" unicode="&#x1008;" horiz-adv-x="869" 
d="M324 -10q-80 0 -140.5 36.5t-94.5 99t-34 142.5q0 79 34 142t95.5 99.5t142.5 36.5q83 0 144 -36t93.5 -99t32.5 -143q0 -73 -28 -132t-78 -95v-258q0 -85 24 -131t75 -46t74.5 46t23.5 131v753h89v-745q0 -258 -188 -258q-187 0 -187 259v207q-37 -9 -78 -9zM324 63
q86 0 134 56t48 147q0 93 -48 149.5t-133 56.5q-39 0 -75 -16q35 -36 58 -83t23 -108q0 -58 -21 -104.5t-56 -82.5q34 -15 70 -15zM136 266q0 -44 15 -81t41 -64q58 58 58 144q0 41 -14.5 78t-45.5 69q-25 -27 -39.5 -64.5t-14.5 -81.5z" />
    <glyph glyph-name="nya" unicode="&#x1009;" horiz-adv-x="661" 
d="M333 -10q-42 0 -81 13t-72 36v-308q0 -60 27 -92.5t85 -32.5h559q59 0 85.5 32.5t26.5 92.5v16h89v-3q0 -211 -205 -211h-551q-205 0 -205 214v406l70 36q26 -62 73.5 -93.5t100.5 -31.5q54 0 94 26.5t62 73t22 106.5q0 90 -46.5 146t-131.5 56q-53 0 -100.5 -31.5
t-73.5 -93.5l-70 36q17 49 54 85.5t86 57t102 20.5q85 0 145.5 -36.5t93 -99t32.5 -141.5q0 -81 -31.5 -144t-92 -99t-147.5 -36z" />
    <glyph glyph-name="nnya" unicode="&#x100a;" horiz-adv-x="1109" 
d="M333 -10q-42 0 -81 13t-72 36v-308q0 -60 27 -92.5t85 -32.5h559q59 0 85.5 32.5t26.5 92.5v16h89v-3q0 -211 -205 -211h-551q-205 0 -205 214v406l70 36q26 -62 73.5 -93.5t100.5 -31.5q54 0 94 26.5t62 73t22 106.5q0 90 -46.5 146t-131.5 56q-53 0 -100.5 -31.5
t-73.5 -93.5l-70 36q17 49 54 85.5t86 57t102 20.5q85 0 145.5 -36.5t93 -99t32.5 -141.5q0 -40 -8 -76q31 -64 76 -96.5t112 -32.5q82 0 130.5 57t48.5 149q0 93 -48.5 147.5t-128.5 54.5q-54 0 -92 -18l-32 66q28 14 60.5 20t77.5 6q74 0 131.5 -34t90 -96.5t32.5 -147.5
q0 -80 -34 -143t-95 -99t-142 -36q-68 0 -126 28.5t-96 85.5q-34 -53 -91.5 -83.5t-136.5 -30.5z" />
    <glyph glyph-name="tta" unicode="&#x100b;" horiz-adv-x="666" 
d="M333 -10q-83 0 -143.5 37t-94 100t-33.5 142q0 81 33.5 143.5t94 98t143.5 35.5q85 0 150 -44t92 -119l-70 -36q-25 62 -70 93.5t-103 31.5q-81 0 -130 -55.5t-49 -146.5q0 -95 48.5 -150.5t130.5 -55.5q58 0 103 31.5t70 93.5l70 -36v-236q-49 -36 -112.5 -58.5
t-130.5 -22.5q-43 0 -84 8.5t-79 23.5v-86q35 -13 73.5 -19.5t89.5 -6.5q64 0 125 16.5t118 46.5v-218h125v-68h-213v171q-73 -22 -155 -22q-127 0 -241 53v265q49 -40 113 -65t128 -25q84 0 155 41v91q-30 -27 -66.5 -39.5t-87.5 -12.5z" />
    <glyph glyph-name="ttha" unicode="&#x100c;" horiz-adv-x="659" 
d="M326 -10q-82 0 -143 37t-94.5 100t-33.5 142q0 81 33.5 143.5t94.5 98t143 35.5q85 0 150 -44t92 -119l-70 -36q-25 62 -69.5 93.5t-103.5 31.5q-81 0 -130 -55.5t-49 -146.5q0 -95 48 -150.5t131 -55.5q59 0 103.5 31.5t69.5 93.5l70 -36v-411q0 -209 -205 -209h-107
q-97 0 -149 38.5t-52 113.5q0 65 43.5 105t108.5 40q49 0 81 -16t63 -45l-55 -52q-17 17 -36 28t-48 11q-24 0 -45.5 -17t-21.5 -55t30.5 -58t78.5 -20h114q58 0 85 32.5t27 92.5v311q-30 -27 -66.5 -39.5t-87.5 -12.5z" />
    <glyph glyph-name="dda" unicode="&#x100d;" horiz-adv-x="666" 
d="M334 -10q-51 0 -87.5 12.5t-66.5 39.5v-91q71 -41 155 -41q65 0 128 25t113 65v-399h125v-68h-213v331q-36 -14 -74 -21t-79 -7q-67 0 -130 22.5t-113 58.5v236l70 36q25 -62 69.5 -93.5t103.5 -31.5q83 0 131 55.5t48 150.5q0 91 -49 146.5t-130 55.5
q-59 0 -103.5 -31.5t-69.5 -93.5l-70 36q27 75 92 119t150 44q82 0 143 -35.5t94.5 -98t33.5 -143.5q0 -79 -33.5 -142t-94.5 -100t-143 -37z" />
    <glyph glyph-name="ddha" unicode="&#x100e;" horiz-adv-x="677" 
d="M324 -10q-79 0 -137.5 26.5t-91 74t-32.5 109.5q0 52 22.5 94t64.5 74q24 18 37 33.5t13 35.5q0 14 -10 24.5t-27 10.5q-15 0 -29 -8.5t-31 -28.5l-50 51q30 32 54.5 46t62.5 14q37 0 63 -16t39.5 -40t13.5 -48q0 -22 -4.5 -39.5t-18 -35.5t-41.5 -42q-41 -36 -55 -64.5
t-14 -60.5q0 -58 45.5 -97t132.5 -39q91 0 145.5 58t54.5 158q0 68 -25.5 117.5t-71.5 84.5l51 64q65 -43 101 -116t36 -152q0 -82 -35.5 -147t-102 -103t-160.5 -38z" />
    <glyph glyph-name="nna" unicode="&#x100f;" horiz-adv-x="1255" 
d="M627 -10q-73 0 -114.5 35t-41.5 96q0 27 5 48t10 42.5t5 51.5q0 97 -47.5 153.5t-123.5 56.5q-77 0 -125.5 -56.5t-48.5 -150.5q0 -62 23 -107t63 -70t91 -25q15 0 28.5 1t26.5 5l21 -70q-20 -6 -40.5 -8t-48.5 -2q-72 0 -129.5 36t-91.5 99t-34 144q0 80 32.5 142.5
t92.5 98.5t141 36q55 0 99.5 -16.5t77.5 -45.5q26 27 55 44.5t75 17.5q45 0 76 -18.5t54 -44.5q32 30 76.5 46.5t99.5 16.5q82 0 141.5 -36.5t92 -99t32.5 -141.5q0 -80 -34 -143t-91.5 -99.5t-129.5 -36.5q-29 0 -49.5 2t-40.5 8l20 70q14 -4 27.5 -5t28.5 -1q51 0 91 24
t63 69.5t23 108.5q0 94 -47 150.5t-123 56.5q-79 0 -126.5 -56.5t-47.5 -153.5q0 -30 5 -51.5t10 -42.5t5 -48q0 -66 -43.5 -98.5t-113.5 -32.5zM562 129q0 -26 16.5 -45t49.5 -19q32 0 48.5 19t16.5 45q0 29 -5 47.5t-10 39.5t-5 58q0 87 39 154q-19 20 -38 32.5t-45 12.5
q-32 0 -51 -13.5t-35 -31.5q40 -66 40 -153q0 -30 -3 -48t-7.5 -31.5t-7.5 -28.5t-3 -38z" />
    <glyph glyph-name="ta" unicode="&#x1010;" horiz-adv-x="1124" 
d="M324 -10q-80 0 -140.5 36.5t-94.5 99t-34 142.5q0 79 34 142t95.5 99.5t142.5 36.5q79 0 138.5 -31.5t94.5 -84.5q39 57 99.5 86.5t132.5 29.5q85 0 147 -37t96 -100t34 -141q0 -84 -33.5 -146.5t-91.5 -97t-134 -34.5q-46 0 -79 6t-62 20l32 66q39 -18 95 -18
q82 0 132 54.5t50 147.5t-49.5 149.5t-134.5 56.5q-57 0 -109 -33.5t-87 -95.5q9 -38 9 -79q0 -80 -35 -142t-98.5 -97t-149.5 -35zM327 64q89 0 138.5 55t49.5 143q0 94 -48.5 152t-138.5 58q-54 0 -95 -25.5t-64 -72t-23 -108.5t24 -107t65 -70t92 -25z" />
    <glyph glyph-name="tha" unicode="&#x1011;" horiz-adv-x="1125" 
d="M329 -10q-83 0 -144.5 36.5t-95.5 99t-34 142.5q0 79 34.5 142t97 99.5t145.5 36.5q74 0 130.5 -28.5t92.5 -76.5q45 52 100.5 78t136.5 26q85 0 147.5 -36.5t96.5 -99.5t34 -141q0 -82 -34.5 -144.5t-98 -98t-150.5 -35.5q-78 0 -135.5 28t-94.5 79q-37 -50 -95.5 -78.5
t-132.5 -28.5zM332 64q86 0 135.5 56t49.5 146q0 92 -48.5 149t-135.5 57q-84 0 -135.5 -56t-51.5 -150q0 -62 24.5 -107t66.5 -70t95 -25zM609 268q0 -49 -13 -93q25 -51 75 -81.5t117 -30.5q88 0 139.5 56.5t51.5 146.5q0 95 -48.5 150.5t-136.5 55.5q-61 0 -110.5 -22.5
t-88.5 -86.5q14 -45 14 -95z" />
    <glyph glyph-name="da" unicode="&#x1012;" horiz-adv-x="640" 
d="M319 -10q-104 0 -173.5 40t-96.5 110l70 36q25 -60 79 -87t122 -27q49 0 92 8t69.5 28.5t26.5 58.5q0 35 -33.5 60.5t-102.5 25.5h-14v72h6q51 0 89 22t38 60q0 33 -24.5 49.5t-62.5 22t-77 5.5t-76.5 -7t-62 -22t-24.5 -41q0 -19 13 -32l-69 -38q-10 15 -18.5 32.5
t-8.5 40.5q0 61 66.5 100t179.5 39q124 0 186 -37t62 -105q0 -49 -29.5 -76.5t-78.5 -40.5v-5q70 -20 99.5 -54t29.5 -82q0 -75 -71 -115.5t-206 -40.5z" />
    <glyph glyph-name="dha" unicode="&#x1013;" horiz-adv-x="674" 
d="M334 -10q-85 0 -147.5 36.5t-97 99t-34.5 142.5q0 79 34.5 142t98 99.5t149.5 36.5t149.5 -37t98 -100t34.5 -141q0 -82 -36.5 -144.5t-100.5 -98t-148 -35.5zM146 266q0 -29 6 -55q35 32 80.5 50.5t104.5 18.5q57 0 102.5 -18t81.5 -51q6 26 6 55q0 92 -50.5 149
t-138.5 57t-140 -56t-52 -150zM337 64q52 0 92 21t65 58q-31 33 -71 49.5t-86 16.5q-90 0 -156 -66q25 -38 65.5 -58.5t90.5 -20.5z" />
    <glyph glyph-name="na" unicode="&#x1014;" horiz-adv-x="570" 
d="M267 -467v457h-34q-105 0 -152 40t-47 102q0 41 20.5 71.5t55 47.5t75.5 17q82 0 122 -50.5t47 -153.5q46 4 71 24t25 63q0 38 -41 64t-117 52q-75 26 -107.5 59t-32.5 84q0 39 22 69.5t58 48.5t78 18q46 0 76 -8.5t55 -25t52 -42.5l-52 -56q-33 33 -60 46.5t-67 13.5
q-32 0 -55 -17t-23 -43q0 -31 30.5 -49.5t93.5 -39.5q56 -19 95.5 -40.5t59.5 -52.5t20 -79q0 -76 -50 -115t-129 -46v-459h-89zM231 63h36v1q0 69 -25.5 99.5t-63.5 30.5q-26 0 -46 -15t-20 -48q0 -31 30.5 -49.5t88.5 -18.5z" />
    <glyph glyph-name="pa" unicode="&#x1015;" horiz-adv-x="676" 
d="M338 -10q-82 0 -146 37t-100.5 102t-36.5 149q0 82 35 154t94 114l51 -64q-43 -35 -66 -84.5t-23 -117.5q0 -100 53 -158t139 -58t138.5 58.5t52.5 157.5q0 68 -24.5 117.5t-71.5 84.5l50 64q42 -28 73 -70t48 -93t17 -105q0 -85 -37 -150t-101 -101.5t-145 -36.5z" />
    <glyph glyph-name="pha" unicode="&#x1016;" horiz-adv-x="675" 
d="M337 -10q-82 0 -145.5 37t-100 102t-36.5 149q0 82 35 154t94 114l51 -64q-43 -35 -66 -84.5t-23 -117.5q0 -66 24 -114.5t67 -75t100 -26.5q39 0 74 13q-33 37 -56 90t-23 120q0 86 35 149.5t106 108.5q72 -47 109.5 -117.5t37.5 -149.5q0 -85 -37 -150t-101 -101.5
t-145 -36.5zM412 287q0 -48 16 -92t48 -76q29 28 46 69t17 92q0 50 -18.5 90.5t-46.5 72.5q-34 -32 -48 -68t-14 -88z" />
    <glyph glyph-name="ba" unicode="&#x1017;" horiz-adv-x="676" 
d="M338 -10q-82 0 -146 37t-100.5 102t-36.5 149q0 82 34.5 154t92.5 114l58 -51q-6 -17 -6 -34q0 -42 29.5 -71.5t71.5 -29.5q41 0 70.5 29.5t29.5 71.5q0 20 -7 35l58 52q41 -28 71.5 -70.5t47 -94t16.5 -105.5q0 -85 -37 -150t-101 -101.5t-145 -36.5zM335 286
q-57 0 -101.5 32.5t-63.5 82.5q-24 -52 -24 -121q0 -100 53 -158t139 -58t138.5 58.5t52.5 157.5q0 73 -28 127q-17 -52 -62.5 -86.5t-103.5 -34.5z" />
    <glyph glyph-name="bha" unicode="&#x1018;" horiz-adv-x="1124" 
d="M304 -10q-60 0 -111 20.5t-88 57t-55 85.5l70 36q26 -62 75 -93.5t111 -31.5q56 0 99 26.5t67.5 73t24.5 106.5q0 90 -51.5 146t-139.5 56q-62 0 -111 -31.5t-75 -93.5l-70 36q18 49 55 85.5t88 57t111 20.5q80 0 141 -32t97 -86q42 58 106 88t144 30q86 0 148 -37
t95.5 -100t33.5 -141q0 -84 -34 -146.5t-93.5 -96.5t-138.5 -34q-59 0 -92 7.5t-57 17.5l32 66q45 -18 110 -18q82 0 132 55t50 147t-50 148.5t-135 56.5q-76 0 -128.5 -32t-85.5 -96q9 -35 9 -74q0 -81 -34 -144t-97.5 -99t-152.5 -36z" />
    <glyph glyph-name="ma" unicode="&#x1019;" horiz-adv-x="676" 
d="M338 -10q-82 0 -146 37t-100.5 102t-36.5 149q0 82 35 154t94 114l51 -64q-43 -35 -66 -84.5t-23 -117.5q0 -36 8 -68q35 32 80 50t103 18q57 0 102.5 -18t81.5 -51q8 32 8 69q0 68 -24.5 117.5t-71.5 84.5l50 64q42 -28 73 -70t48 -93t17 -105q0 -85 -37 -150
t-101 -101.5t-145 -36.5zM337 209q-89 0 -155 -65q25 -38 65 -59t91 -21t90.5 21t64.5 59q-30 32 -70 48.5t-86 16.5z" />
    <glyph glyph-name="ya" unicode="&#x101a;" horiz-adv-x="1126" 
d="M333 -10q-79 0 -142 37t-99.5 102t-36.5 149q0 82 35 154t94 114l51 -64q-43 -35 -66 -84.5t-23 -117.5q0 -66 24 -114.5t66 -75t97 -26.5q53 0 95 26.5t65.5 75t23.5 114.5q0 68 -23.5 117.5t-67.5 84.5l50 64q40 -28 70 -70t46.5 -93t16.5 -105q0 -44 -10 -85
q35 -62 87 -95.5t109 -33.5q85 0 134.5 56.5t49.5 149.5t-50 147.5t-132 54.5q-56 0 -95 -18l-32 66q28 14 61.5 20t79.5 6q75 0 133.5 -34.5t92 -97t33.5 -146.5q0 -78 -34 -141t-96 -100t-147 -37q-73 0 -133.5 29.5t-99.5 87.5q-36 -55 -95 -86t-132 -31z" />
    <glyph glyph-name="ra" unicode="&#x101b;" horiz-adv-x="689" 
d="M509 -467v733q0 60 -22.5 106.5t-63.5 73t-96 26.5q-66 0 -111 -36t-62 -100q130 -12 204 -96.5t74 -230.5q-23 -7 -51 -13t-58 -6q-81 0 -141 36t-93.5 99t-33.5 143t34 143t95 99t142 36q84 0 144.5 -36.5t93.5 -99t33 -142.5v-667h125v-68h-213zM326 64q12 0 24 1
q-9 91 -63 142t-141 58q0 -89 47.5 -145t132.5 -56z" />
    <glyph glyph-name="la" unicode="&#x101c;" horiz-adv-x="1126" 
d="M309 -10q-74 0 -131.5 34.5t-90 97t-32.5 146.5q0 78 33 141t93.5 100t144.5 37q76 0 130.5 -33.5t90 -91.5t55.5 -131q29 -110 77.5 -167.5t130.5 -57.5q48 0 86.5 25t61 71.5t22.5 108.5q0 94 -49 148t-128 54q-55 0 -92 -18l-32 66q28 14 60.5 20t77.5 6
q73 0 130.5 -34t90.5 -96.5t33 -147.5q0 -80 -33.5 -142.5t-93.5 -99t-137 -36.5q-116 0 -181 66.5t-102 188.5t-85 174t-118 52q-79 0 -127 -56.5t-48 -148.5t48.5 -147t128.5 -55q55 0 92 18l32 -66q-28 -14 -60.5 -20t-77.5 -6z" />
    <glyph glyph-name="wa" unicode="&#x101d;" horiz-adv-x="674" 
d="M334 -10q-85 0 -147.5 36.5t-97 99t-34.5 142.5q0 79 34.5 142t98 99.5t149.5 36.5t149.5 -37t98 -100t34.5 -141q0 -82 -36.5 -144.5t-100.5 -98t-148 -35.5zM337 64q57 0 100 25.5t66.5 71t23.5 105.5q0 92 -50.5 149t-138.5 57t-140 -56t-52 -150q0 -62 24.5 -107
t68 -70t98.5 -25z" />
    <glyph glyph-name="sa" unicode="&#x101e;" horiz-adv-x="1127" 
d="M305 -10q-89 0 -158 45t-97 118l70 36q27 -62 75 -93.5t111 -31.5q58 0 101.5 27.5t67 74t23.5 104.5q0 60 -24 105.5t-67 71t-101 25.5q-63 0 -111 -31.5t-75 -93.5l-70 36q28 74 97 118.5t157 44.5t151.5 -36t98.5 -98t35 -139q0 -40 -9 -77q35 -56 84 -93.5t122 -37.5
q60 0 104 26t67.5 72.5t23.5 106.5q0 92 -52 147t-139 55q-60 0 -100 -18l-32 66q29 14 64 20t82 6q78 0 138.5 -34.5t95 -97t34.5 -146.5q0 -82 -37 -144.5t-102 -98t-150 -35.5q-76 0 -138 30t-103 89q-34 -53 -94 -86t-143 -33z" />
    <glyph glyph-name="ha" unicode="&#x101f;" horiz-adv-x="1124" 
d="M331 -10q-80 0 -142.5 37t-98 102t-35.5 149q0 82 35 154t94 114l51 -64q-43 -35 -66 -84.5t-23 -117.5q0 -100 51.5 -158t133.5 -58q83 0 134 58t51 158q0 68 -24 117.5t-67 84.5l51 64q59 -42 92 -107q38 51 96.5 79t126.5 28q85 0 147 -36.5t96 -99.5t34 -142
q0 -84 -33.5 -146.5t-92 -97t-133.5 -34.5q-46 0 -79 6t-62 20l32 66q39 -18 95 -18q84 0 133.5 55.5t49.5 146.5q0 60 -22.5 106.5t-64 72.5t-99.5 26q-64 0 -110 -33t-82 -94q7 -37 7 -78q0 -75 -35.5 -137.5t-97.5 -100.5t-143 -38z" />
    <glyph glyph-name="lla" unicode="&#x1020;" horiz-adv-x="666" 
d="M333 -10q-83 0 -143.5 37t-94 100t-33.5 142q0 81 33.5 143.5t94 98t143.5 35.5q85 0 150 -44t92 -119l-70 -36q-25 62 -70 93.5t-103 31.5q-81 0 -130 -55.5t-49 -146.5q0 -95 48.5 -150.5t130.5 -55.5q58 0 103 31.5t70 93.5l70 -36v-226q-47 -29 -107.5 -50
t-124.5 -21q-43 0 -84 7t-79 20v-174q0 -49 27 -76.5t85 -27.5h83q57 0 84 27.5t27 77.5v13h89v-2q0 -188 -205 -188h-74q-205 0 -205 190v277q54 -31 115.5 -50.5t126.5 -19.5q42 0 80.5 9.5t73.5 25.5v77q-30 -27 -66.5 -39.5t-87.5 -12.5z" />
    <glyph glyph-name="a_m" unicode="&#x1021;" horiz-adv-x="1068" 
d="M300 -10q-97 0 -161.5 39.5t-89.5 110.5l70 36q23 -60 71 -87t110 -27q89 0 129 25.5t40 69.5q0 34 -29.5 60t-91.5 26h-12v72h5q45 0 79 22t34 60q0 32 -21.5 48.5t-55 22.5t-69.5 6t-69 -7.5t-54 -23t-21 -39.5q0 -19 13 -32l-69 -38q-11 16 -19 33t-8 40
q0 61 61.5 100t165.5 39q77 0 128.5 -17.5t76.5 -48.5q34 29 86 47.5t123 18.5q86 0 151.5 -36t102.5 -99t37 -143q0 -79 -33 -142t-93.5 -99.5t-141.5 -36.5q-30 0 -58 6t-51 13q0 144 73.5 229.5t202.5 97.5q-18 65 -68.5 100t-125.5 35q-57 0 -101 -17.5t-79 -51.5
q-1 -46 -25.5 -72.5t-74.5 -42.5v-5q64 -20 91.5 -53.5t27.5 -82.5q0 -75 -66.5 -115.5t-190.5 -40.5zM736 64q92 0 138.5 56t46.5 145q-89 -9 -143 -60t-59 -141h8.5h8.5z" />
    <glyph glyph-name="a_shn" unicode="&#x1022;" horiz-adv-x="1123" 
d="M170 -10q-38 0 -62.5 14t-54.5 46l50 51q17 -20 31 -28.5t29 -8.5q17 0 27 10.5t10 24.5q0 20 -13 35.5t-37 33.5q-42 32 -64.5 74t-22.5 94q0 62 32.5 109.5t91 74t137.5 26.5q77 0 137.5 -30.5t97.5 -85.5q39 57 99.5 86.5t132.5 29.5q85 0 147 -37t96 -100t34 -141
q0 -84 -33.5 -146.5t-92 -97t-133.5 -34.5q-46 0 -79.5 6t-61.5 20l32 66q39 -18 95 -18q82 0 132 54.5t50 147.5t-49.5 149.5t-134.5 56.5q-57 0 -109 -33.5t-88 -96.5q10 -39 10 -84q0 -79 -34 -152t-95 -116l-51 64q43 35 66 84.5t23 117.5q0 67 -24 115.5t-65.5 74.5
t-94.5 26q-87 0 -132.5 -39t-45.5 -97q0 -32 14 -60.5t55 -64.5q28 -24 41.5 -42t18 -35.5t4.5 -39.5q0 -24 -13.5 -48t-39.5 -40t-63 -16z" />
    <glyph glyph-name="i_m" unicode="&#x1023;" horiz-adv-x="1100" 
d="M184 -10q-36 24 -65.5 65t-46.5 93t-17 110q0 86 35.5 150.5t97 101t138.5 36.5q71 0 133 -37t91 -105q33 71 93.5 106.5t130.5 35.5q76 0 137.5 -36t97.5 -101t36 -151q0 -54 -16.5 -106t-45.5 -94t-67 -68l-51 64q43 35 66 85t23 117q0 100 -50 158t-130 58
q-88 0 -134 -61.5t-46 -176.5v-115h-88v109q0 112 -44.5 178t-135.5 66q-79 0 -129.5 -57.5t-50.5 -158.5q0 -67 23 -117t66 -85zM828 -467l-49 55q32 26 49 62.5t17 85.5q0 72 -35 110.5t-89 38.5q-63 0 -97 -43t-34 -126v-87h-80v88q0 79 -34 123.5t-96 44.5
q-55 0 -90 -37.5t-35 -107.5q0 -51 16.5 -88.5t46.5 -63.5l-45 -55q-42 31 -70 86t-28 123q0 62 27 109.5t73 74t105 26.5q51 0 98 -24t71 -78q25 51 71 76.5t101 25.5q57 0 103 -26.5t73.5 -75t27.5 -112.5q0 -38 -9.5 -73t-26.5 -64h99v-68h-160z" />
    <glyph glyph-name="ii" unicode="&#x1024;" horiz-adv-x="1343" 
d="M1164 -467v691q0 90 -17.5 158.5t-57 123t-106.5 104.5q-47 35 -74.5 66t-39 64t-11.5 75q0 51 25.5 94t70 69t101.5 26q72 0 121 -31.5t72 -88.5l-68 -36q-35 89 -120 89q-54 0 -85.5 -36t-31.5 -86q0 -39 18.5 -68t68.5 -67q84 -63 132.5 -130.5t69 -148t20.5 -183.5
v-685h-88zM184 -10q-36 24 -65.5 65t-46.5 93t-17 110q0 86 35.5 150.5t97 101t138.5 36.5q74 0 132 -31.5t93 -86.5q80 118 225 118q89 0 149.5 -38t91 -105t30.5 -155v-506q0 -209 -205 -209h-542q-124 0 -184.5 34.5t-60.5 113.5q0 89 84 134t236 45q113 0 207 -21
t163 -53l-39 -67q-60 29 -144 47.5t-187 18.5q-230 0 -230 -100q0 -33 24 -50t62 -23t81 -6h535q57 0 84.5 32t27.5 90v516q0 108 -47.5 167.5t-134.5 59.5q-63 0 -107.5 -35t-81.5 -96q9 -39 9 -82q0 -92 -36.5 -160.5t-92.5 -107.5l-51 64q43 35 66 85t23 117
q0 100 -49.5 157.5t-130.5 57.5q-80 0 -130 -57.5t-50 -157.5q0 -67 23 -117t66 -85z" />
    <glyph glyph-name="u_m" unicode="&#x1025;" horiz-adv-x="661" 
d="M333 -10q-51 0 -87.5 12.5t-66.5 39.5v-311q0 -60 27 -92.5t85 -32.5h114q48 0 78.5 20t30.5 58t-21.5 55t-45.5 17q-29 0 -48 -11t-36 -28l-55 52q31 29 63 45t81 16q65 0 108.5 -40t43.5 -105q0 -75 -52 -113.5t-149 -38.5h-107q-205 0 -205 209v411l70 36
q25 -62 70 -93.5t103 -31.5q82 0 130.5 55.5t48.5 150.5q0 91 -49 146.5t-130 55.5q-58 0 -103 -31.5t-70 -93.5l-70 36q27 75 92 119t150 44q83 0 143.5 -35.5t94 -98t33.5 -143.5q0 -79 -33.5 -142t-94 -100t-143.5 -37z" />
    <glyph glyph-name="uu" unicode="&#x1026;" horiz-adv-x="661" 
d="M333 -10q-51 0 -87.5 12.5t-66.5 39.5v-311q0 -60 27 -92.5t85 -32.5h114q48 0 78.5 20t30.5 58t-21.5 55t-45.5 17q-29 0 -48 -11t-36 -28l-55 52q31 29 63 45t81 16q65 0 108.5 -40t43.5 -105q0 -75 -52 -113.5t-149 -38.5h-107q-205 0 -205 209v411l70 36
q25 -62 70 -93.5t103 -31.5q82 0 130.5 55.5t48.5 150.5q0 91 -49 146.5t-130 55.5q-58 0 -103 -31.5t-70 -93.5l-70 36q27 75 92 119t150 44q83 0 143.5 -35.5t94 -98t33.5 -143.5q0 -79 -33.5 -142t-94 -100t-143.5 -37zM332 626q-54 0 -95 25t-63.5 67.5t-22.5 95.5
q0 52 22.5 94.5t63.5 68t97 25.5q57 0 98.5 -26t63.5 -70t22 -96t-23 -93.5t-64.5 -66t-98.5 -24.5zM231 812q0 -7 1 -14q19 18 44.5 29t58.5 11q32 0 57 -10t46 -28v8q0 54 -27.5 90.5t-75.5 36.5q-49 0 -76.5 -35t-27.5 -88zM335 693q28 0 49.5 13t34.5 34q-18 15 -39 24
t-45 9q-23 0 -44 -9t-41 -25q29 -46 85 -46z" />
    <glyph glyph-name="e_m" unicode="&#x1027;" horiz-adv-x="631" 
d="M326 -10q-83 0 -144 36t-94 99t-33 142q0 81 33.5 144t94.5 99t143 36q93 0 157 -45t93 -119q-50 -33 -109.5 -56.5t-125.5 -23.5q-60 0 -104.5 16t-76.5 39q-8 -17 -11 -41t-3 -50q0 -23 4 -46.5t10 -40.5q32 23 76.5 39t104.5 16q66 0 125.5 -23.5t109.5 -56.5
q-29 -74 -93 -119t-157 -45zM344 372q30 0 65.5 9t67.5 29q-50 62 -152 62q-51 0 -82 -15t-49 -38q26 -20 60 -33.5t90 -13.5zM325 64q102 0 152 62q-32 20 -67.5 29t-65.5 9q-56 0 -90 -13t-60 -34q18 -23 49 -38t82 -15z" />
    <glyph glyph-name="e_mon" unicode="&#x1028;" horiz-adv-x="687" 
d="M356 -467q-81 0 -140.5 36.5t-92 102.5t-32.5 153v429q0 84 32 150t91.5 104t141.5 38q84 0 146 -36t96 -98.5t34 -143.5q0 -49 -15.5 -98t-44 -90t-67.5 -65.5t-87 -24.5q-39 0 -68.5 24t-29.5 68q0 30 11.5 53t35.5 49t24 52q0 14 -8 25.5t-25 11.5q-18 0 -30 -12.5
t-23 -37.5l-57 29q20 42 45.5 66.5t70.5 24.5q46 0 76.5 -28.5t30.5 -75.5q0 -28 -13.5 -54.5t-35.5 -52.5t-22 -48q0 -10 5 -17t17 -7q28 0 51.5 20t39.5 52t25 68.5t9 70.5q0 94 -50 151t-135 57q-87 0 -136.5 -60t-49.5 -163v-433q0 -104 50 -163.5t135 -59.5
q57 0 98.5 27t64.5 72t23 97v4h85v-4q0 -70 -33.5 -129.5t-95.5 -96.5t-147 -37z" />
    <glyph glyph-name="o_m" unicode="&#x1029;" horiz-adv-x="1369" 
d="M296 -467q-205 0 -205 214v1042q0 214 205 214h772q205 0 205 -214v-29h-89v45q0 60 -27 92.5t-85 32.5h-780q-58 0 -85 -32.5t-27 -92.5v-1074q0 -60 27 -92.5t85 -32.5h780q58 0 85 32.5t27 92.5v311q-36 -25 -80.5 -38.5t-96.5 -13.5q-139 0 -220 119
q-34 -53 -91.5 -86t-136.5 -33q-90 0 -154.5 45t-90.5 118l70 36q48 -125 176 -125q54 0 95 27.5t64 74t23 104.5q0 60 -23.5 105.5t-64.5 71t-94 25.5q-128 0 -176 -125l-70 36q26 74 90.5 118.5t153.5 44.5q82 0 144 -36t96.5 -98t34.5 -139q0 -40 -10 -78
q33 -55 77 -92.5t110 -37.5q60 0 104 26t67.5 72.5t23.5 106.5q0 92 -52 147t-139 55q-54 0 -90 -18l-32 66q27 14 59.5 20t76.5 6q78 0 138.5 -34.5t95 -97t34.5 -146.5q0 -63 -23 -117v-404q0 -214 -205 -214h-772z" />
    <glyph glyph-name="au" unicode="&#x102a;" horiz-adv-x="2452" 
d="M326 -10q-81 0 -142.5 37t-96.5 100.5t-35 141.5t35.5 140.5t97 99.5t141.5 37q95 0 157 -45t85 -118l-70 -36q-22 62 -64 93.5t-110 31.5q-50 0 -91 -25t-65.5 -70.5t-24.5 -106.5q0 -36 9 -69q40 31 90 49.5t100 18.5q70 0 123.5 -20.5t110.5 -66.5q-20 -88 -85 -140
t-165 -52zM345 196q-46 0 -87.5 -17t-75.5 -44q22 -32 57 -51.5t84 -19.5q60 0 97.5 22.5t60.5 67.5q-24 17 -55.5 29.5t-80.5 12.5zM916 -467q-205 0 -205 214v1042q0 214 205 214h772q205 0 205 -214v-29h-89v45q0 60 -27 92.5t-85 32.5h-780q-58 0 -85 -32.5t-27 -92.5
v-1074q0 -60 27 -92.5t85 -32.5h780q58 0 85 32.5t27 92.5v311q-36 -25 -80.5 -38.5t-96.5 -13.5q-139 0 -220 119q-34 -53 -91.5 -86t-136.5 -33q-90 0 -154.5 45t-90.5 118l70 36q48 -125 176 -125q54 0 95 27.5t64 74t23 104.5q0 60 -23.5 105.5t-64.5 71t-94 25.5
q-128 0 -176 -125l-70 36q26 74 90.5 118.5t153.5 44.5q82 0 144 -36t96.5 -98t34.5 -139q0 -40 -10 -78q33 -55 77 -92.5t110 -37.5q60 0 104 26t67.5 72.5t23.5 106.5q0 92 -52 147t-139 55q-54 0 -90 -18l-32 66q27 14 59.5 20t76.5 6q78 0 138.5 -34.5t95 -97
t34.5 -146.5q0 -63 -23 -117v-404q0 -214 -205 -214h-772zM2112 -10q-45 0 -77.5 6t-60.5 20l32 66q38 -18 92 -18q82 0 129.5 56.5t47.5 150.5q0 59 -24.5 104.5t-68.5 71.5t-104 26q-58 0 -114.5 -28.5t-110.5 -91.5l-52 55q54 63 120 100.5t156 37.5q84 0 149.5 -36.5
t103 -99t37.5 -140.5q0 -82 -34 -145t-91.5 -99t-129.5 -36zM2163 626q-51 28 -83 77.5t-32 115.5q0 57 24 98t65 63t93 22q51 0 91.5 -21t63.5 -60l-57 -44q-16 27 -41 42.5t-56 15.5q-49 0 -76 -34t-27 -82q0 -53 24.5 -87t54.5 -54z" />
    <glyph glyph-name="_tall_aa" unicode="&#x102b;" horiz-adv-x="267" 
d="M91 0v780q0 71 -29.5 113.5t-90.5 42.5q-54 0 -87 -37t-33 -112v-16h-85v14q0 67 25.5 115.5t72 75.5t107.5 27q97 0 151 -63t54 -174v-766h-85z" />
    <glyph glyph-name="_aa" unicode="&#x102c;" horiz-adv-x="455" 
d="M146 -10q-45 0 -77.5 6t-60.5 20l32 66q38 -18 92 -18q82 0 129.5 56.5t47.5 150.5q0 59 -24.5 104.5t-68.5 71.5t-104 26q-58 0 -114.5 -28.5t-110.5 -91.5l-52 55q54 63 120 100.5t156 37.5q84 0 149.5 -36.5t103 -99t37.5 -140.5q0 -82 -34 -145t-91.5 -99t-129.5 -36
z" />
    <glyph glyph-name="_i" unicode="&#x102d;" 
d="M-306 626q-54 0 -95 25t-63.5 67.5t-22.5 95.5q0 52 22.5 94.5t63.5 68t97 25.5q57 0 98.5 -26t63.5 -70t22 -96t-23 -93.5t-64.5 -66t-98.5 -24.5zM-303 693q45 0 74 32.5t29 82.5q0 54 -27.5 90.5t-75.5 36.5q-49 0 -76.5 -35t-27.5 -88q0 -51 28 -85t76 -34z" />
    <glyph glyph-name="_ii" unicode="&#x102e;" 
d="M-306 626q-54 0 -95 25t-63.5 67.5t-22.5 95.5q0 52 22.5 94.5t63.5 68t97 25.5q57 0 98.5 -26t63.5 -70t22 -96t-23 -93.5t-64.5 -66t-98.5 -24.5zM-407 812q0 -7 1 -14q19 18 44.5 29t58.5 11q32 0 57 -10t46 -28v8q0 54 -27.5 90.5t-75.5 36.5q-49 0 -76.5 -35
t-27.5 -88zM-303 693q28 0 49.5 13t34.5 34q-18 15 -39 24t-45 9q-23 0 -44 -9t-41 -25q29 -46 85 -46z" />
    <glyph glyph-name="_u" unicode="&#x102f;" 
d="M-368 -467v418h89v-350h125v-68h-214z" />
    <glyph glyph-name="_uu" unicode="&#x1030;" 
d="M-287 -467v418h88v-350h125v-68h-213zM-448 -467v418h88v-418h-88z" />
    <glyph glyph-name="_e" unicode="&#x1031;" horiz-adv-x="618" 
d="M326 -10q-81 0 -142.5 37t-96.5 100.5t-35 141.5t35.5 140.5t97 99.5t141.5 37q95 0 157 -45t85 -118l-70 -36q-22 62 -64 93.5t-110 31.5q-50 0 -91 -25t-65.5 -70.5t-24.5 -106.5q0 -36 9 -69q40 31 90 49.5t100 18.5q70 0 123.5 -20.5t110.5 -66.5q-20 -88 -85 -140
t-165 -52zM345 196q-46 0 -87.5 -17t-75.5 -44q22 -32 57 -51.5t84 -19.5q60 0 97.5 22.5t60.5 67.5q-24 17 -55.5 29.5t-80.5 12.5z" />
    <glyph glyph-name="_ai" unicode="&#x1032;" 
d="M-196 607l-200 196l51 55l198 -194z" />
    <glyph glyph-name="_ii_mon" unicode="&#x1033;" 
d="M-320 626q-58 0 -103.5 24.5t-71 67t-25.5 96.5q0 52 26 95t71 68t103 25q56 0 101.5 -24.5t72 -67t26.5 -96.5q0 -56 -26 -98t-71.5 -66t-102.5 -24zM-320 682q58 0 95.5 36t37.5 96q0 38 -18 68t-48 47.5t-67 17.5t-67 -17t-48 -47t-18 -69q0 -58 37.5 -95t95.5 -37z
M-320 726q-38 0 -63.5 25t-25.5 63q0 39 25.5 64t63.5 25t63.5 -25t25.5 -64t-25.5 -63.5t-63.5 -24.5zM-321 771q20 0 32 12t12 31q0 20 -12.5 32t-31.5 12q-17 0 -29.5 -12t-12.5 -32q0 -19 11.5 -31t30.5 -12z" />
    <glyph glyph-name="_o_mon" unicode="&#x1034;" 
d="M-410 607l-49 57l196 194l50 -55z" />
    <glyph glyph-name="_e_above" unicode="&#x1035;" 
d="M-300 626q-60 0 -101.5 24.5t-63.5 67t-22 96.5t24 96.5t67.5 67t104.5 24.5q50 0 96 -26.5t65 -74.5l-64 -33q-11 30 -39 48.5t-62 18.5q-54 0 -83 -35t-29 -86q0 -7 1 -14q22 17 49 27t62 10q57 0 99 -23.5t71 -54.5q-17 -61 -64.5 -97t-110.5 -36zM-298 771
q-23 0 -46 -7.5t-44 -25.5q14 -21 35 -33t50 -12t51.5 13.5t37.5 36.5q-17 13 -38 20.5t-46 7.5z" />
    <glyph glyph-name="anusvara" unicode="&#x1036;" 
d="M-324 628q-49 0 -79 27.5t-30 78.5q0 50 30 78t79 28q48 0 79.5 -28t31.5 -77q0 -51 -31.5 -79t-79.5 -28zM-323 681q23 0 38 14t15 39t-15 39t-38 14t-38 -14t-15 -39t13.5 -39t39.5 -14z" />
    <glyph glyph-name="dot_below" unicode="&#x1037;" 
d="M-324 -322q-49 0 -79 27.5t-30 78.5q0 50 30 78t79 28q48 0 79.5 -28t31.5 -77q0 -51 -31.5 -79t-79.5 -28zM-323 -269q23 0 38 13.5t15 39.5q0 25 -15 39t-38 14t-38 -14t-15 -39q0 -53 53 -53z" />
    <glyph glyph-name="visarga" unicode="&#x1038;" horiz-adv-x="346" 
d="M172 324q-49 0 -79 27.5t-30 78.5q0 50 30 78t79 28q48 0 79.5 -28t31.5 -77q0 -51 -31.5 -79t-79.5 -28zM173 377q23 0 38 13.5t15 39.5q0 25 -15 39t-38 14t-38 -14t-15 -39q0 -53 53 -53zM172 -11q-49 0 -79 27.5t-30 78.5q0 50 30 78t79 28q48 0 79.5 -28t31.5 -77
q0 -51 -31.5 -79t-79.5 -28zM173 42q23 0 38 14t15 39t-15 39t-38 14t-38 -14t-15 -39t13.5 -39t39.5 -14z" />
    <glyph glyph-name="virama" unicode="&#x1039;" 
d="M-353 -416v125h-125v68h125v125h74v-125h125v-68h-125v-125h-74z" />
    <glyph glyph-name="asat" unicode="&#x103a;" 
d="M-371 626q-51 28 -83 77.5t-32 115.5q0 57 24 98t65 63t93 22q51 0 91.5 -21t63.5 -60l-57 -44q-16 27 -41 42.5t-56 15.5q-49 0 -76 -34t-27 -82q0 -53 24.5 -87t54.5 -54z" />
    <glyph glyph-name="medial_ya" unicode="&#x103b;" horiz-adv-x="257" 
d="M176 -467l-341 121v499h85v-456l171 -62v901h85v-1003z" />
    <glyph glyph-name="medial_ra" unicode="&#x103c;" horiz-adv-x="229" 
d="M296 -466q-205 0 -205 214v1041q0 214 205 214h322q206 0 206 -214v-29h-89v46q0 59 -27.5 92t-84.5 33h-331q-58 0 -84.5 -33t-26.5 -92v-1074q0 -60 26.5 -93t84.5 -33h331q57 0 84.5 33t27.5 93v421h89v-405q0 -214 -206 -214h-322z" />
    <glyph glyph-name="medial_wa" unicode="&#x103d;" 
d="M-328 -425q-55 0 -95.5 24.5t-63 67.5t-22.5 96t22.5 96t63.5 67.5t97 24.5q58 0 99 -26t63 -69.5t22 -96.5q0 -49 -22.5 -91t-64 -67.5t-99.5 -25.5zM-325 -357q45 0 74 32.5t29 82.5q0 54 -27.5 89.5t-75.5 35.5q-49 0 -77 -34.5t-28 -88.5q0 -50 28.5 -83.5
t76.5 -33.5z" />
    <glyph glyph-name="medial_ha" unicode="&#x103e;" 
d="M-482 -467v68h125v350h88v-418h-213z" />
    <glyph glyph-name="great_sa" unicode="&#x103f;" horiz-adv-x="1584" 
d="M305 -10q-89 0 -158 45t-97 118l70 36q27 -62 75 -93.5t111 -31.5q58 0 101.5 27.5t67 74t23.5 104.5q0 60 -24 105.5t-67 71t-101 25.5q-63 0 -111 -31.5t-75 -93.5l-70 36q28 74 97 118.5t157 44.5t151.5 -36t98.5 -98t35 -139q0 -48 -13 -92q34 -50 81 -83t115 -33
q60 0 104 26t67.5 72.5t23.5 106.5q0 92 -52 147t-139 55q-60 0 -100 -18l-32 66q29 14 64 20t82 6q78 0 138.5 -34.5t95 -97t34.5 -146.5q0 -45 -12 -86q35 -50 81.5 -83.5t115.5 -33.5q60 0 103.5 26t67.5 72.5t24 106.5q0 92 -52 147t-139 55q-59 0 -100 -18l-32 66
q29 14 64 20t82 6q78 0 138.5 -34.5t95 -97t34.5 -146.5q0 -82 -37 -144.5t-102 -98t-150 -35.5q-73 0 -133 28t-101 82q-38 -51 -99 -80.5t-138 -29.5q-73 0 -133 27.5t-101 81.5q-35 -49 -93 -79t-137 -30z" />
    <glyph glyph-name="zero_m" unicode="&#x1040;" horiz-adv-x="652" 
d="M323 -10q-81 0 -141 36t-93.5 99t-33.5 143q0 78 33 141t93.5 100t144.5 37t144.5 -37t93.5 -100t33 -141q0 -77 -33 -140t-94.5 -100.5t-146.5 -37.5zM326 64q54 0 94.5 25.5t63 71t22.5 105.5q0 92 -48 149t-131 57t-132 -56.5t-49 -149.5q0 -62 23 -107t64 -70t93 -25
z" />
    <glyph glyph-name="one_m" unicode="&#x1041;" horiz-adv-x="623" 
d="M297 -10q-85 0 -150.5 45t-91.5 118l70 36q25 -62 70 -93.5t103 -31.5q83 0 131 56t48 150q0 91 -48.5 146.5t-130.5 55.5q-58 0 -103 -31.5t-70 -93.5l-70 36q26 74 91.5 118.5t150.5 44.5q83 0 144 -36t94 -99t33 -142q0 -81 -34 -144t-95 -99t-142 -36z" />
    <glyph glyph-name="two_m" unicode="&#x1042;" horiz-adv-x="675" 
d="M314 -467q-81 0 -142 35t-95 95.5t-34 138.5v2h85v-4q0 -56 24 -101t66.5 -70.5t96.5 -25.5q85 0 134.5 58.5t49.5 170.5v704h85v-701q0 -94 -33.5 -161.5t-94 -104t-142.5 -36.5z" />
    <glyph glyph-name="three_m" unicode="&#x1043;" horiz-adv-x="618" 
d="M380 -467l-330 620l70 36q25 -62 69.5 -93.5t103.5 -31.5q83 0 131 55.5t48 150.5q0 91 -49 146.5t-130 55.5q-59 0 -103.5 -31.5t-69.5 -93.5l-70 36q27 75 92 119t150 44q82 0 143 -36.5t94.5 -99t33.5 -141.5q0 -81 -33.5 -144t-94.5 -99t-143 -36q-39 0 -79 15
q23 -35 49.5 -78.5t45.5 -79.5l169 -314h-97z" />
    <glyph glyph-name="four_m" unicode="&#x1044;" horiz-adv-x="618" 
d="M141 -467l169 314q12 22 28.5 50.5t34 57t32.5 50.5q-40 -15 -79 -15q-82 0 -143 37t-94.5 100t-33.5 142q0 81 33.5 143.5t94.5 98t143 35.5q86 0 151 -45t91 -118l-70 -36q-25 62 -70 93.5t-103 31.5q-82 0 -130.5 -55.5t-48.5 -146.5q0 -94 48 -150t131 -56
q58 0 103 31.5t70 93.5l70 -36l-330 -620h-97z" />
    <glyph glyph-name="five_m" unicode="&#x1045;" horiz-adv-x="675" 
d="M314 -467q-82 0 -143 35t-94.5 96t-33.5 138v2h85v-4q0 -56 23.5 -101t66 -70.5t97.5 -25.5q85 0 134.5 58.5t49.5 170.5v437q0 94 -45.5 150.5t-130.5 56.5q-55 0 -98 -24t-66 -67q9 8 26.5 11t35.5 3q37 0 68 -17.5t50 -48t19 -70.5t-20 -72.5t-54 -51.5t-76 -19
q-69 0 -111 44.5t-42 117.5q0 80 35 139t96 92t138 33q82 0 140 -36t89 -98.5t31 -143.5v-433q0 -94 -33.5 -161.5t-94 -104t-142.5 -36.5zM208 188q30 0 51 21t21 50q0 30 -21 51t-51 21q-29 0 -50 -21t-21 -51q0 -29 21 -50t50 -21z" />
    <glyph glyph-name="six_m" unicode="&#x1046;" horiz-adv-x="720" 
d="M377 -10q-92 0 -156 36.5t-97 102.5t-33 153v419q0 145 76 223.5t210 78.5q89 0 154 -33t101 -93.5t36 -141.5v-3h-85v5q0 55 -24.5 99.5t-70 70.5t-108.5 26q-94 0 -149 -56t-55 -176v-415q0 -110 53.5 -168t153.5 -58q59 0 104.5 24.5t70.5 68t25 100.5q0 14 -7 26.5
t-24 12.5q-26 0 -48.5 -7t-47 -14.5t-53.5 -7.5q-67 0 -106.5 40.5t-39.5 104.5q0 38 17 69.5t50 50.5t80 19q36 0 65 -12.5t51 -44.5l-61 -32q-7 11 -22 16.5t-28 5.5q-32 0 -49.5 -22t-17.5 -50q0 -35 19.5 -56.5t47.5 -21.5q25 0 48 8.5t48 17t57 8.5q51 0 78.5 -31
t27.5 -78q0 -75 -34.5 -135t-99.5 -95t-157 -35z" />
    <glyph glyph-name="seven_m" unicode="&#x1047;" horiz-adv-x="646" 
d="M357 -467q-77 0 -118 44.5t-41 112.5q0 34 7.5 64.5t26.5 65t52 80.5t83 112q43 56 74 99.5t48 87t17 97.5q0 50 -23 91t-64.5 65t-96.5 24q-54 0 -96 -26.5t-66.5 -76.5t-24.5 -121q0 -69 26.5 -116t55.5 -65l-42 -53q-29 11 -57.5 44t-48 81.5t-19.5 107.5q0 91 33 157
t93.5 102t144.5 36q78 0 139 -32t96 -89t35 -134q0 -40 -13.5 -83t-46.5 -98t-92 -131q-66 -85 -110.5 -154.5t-44.5 -132.5q0 -46 20.5 -69t57.5 -23q54 0 80 62l63 -45q-28 -47 -62.5 -65.5t-85.5 -18.5z" />
    <glyph glyph-name="eight_m" unicode="&#x1048;" horiz-adv-x="652" 
d="M200 -11q-69 41 -107 114t-38 155q0 86 35.5 150.5t97 101t138.5 36.5q76 0 137.5 -36t97.5 -101t36 -151q0 -55 -17 -107t-46 -94.5t-66 -66.5l-51 64q43 35 66 85t23 117q0 101 -50 158.5t-130 57.5q-42 0 -77 -15q36 -36 59 -84.5t23 -115.5q0 -135 -131 -268z
M136 256q0 -48 14.5 -87t39.5 -70q24 33 42 71.5t18 85.5q0 43 -14 86t-46 73q-54 -60 -54 -159z" />
    <glyph glyph-name="nine_m" unicode="&#x1049;" horiz-adv-x="720" 
d="M377 -467q-136 0 -211 79t-75 223v419q0 86 33 152t96.5 103t156.5 37q91 0 156.5 -35t100 -95t34.5 -135q0 -46 -27.5 -77.5t-78.5 -31.5q-33 0 -57.5 7.5t-47 15t-48.5 7.5q-29 0 -49 -20t-20 -54q0 -28 18 -50t51 -22q13 0 28 5.5t22 16.5l61 -32q-22 -32 -51 -44.5
t-65 -12.5q-48 0 -81 19.5t-49.5 51t-16.5 68.5q0 63 39.5 104t106.5 41q31 0 55 -7.5t47 -14.5t47 -7q18 0 25.5 12.5t7.5 26.5q0 57 -26 100t-71.5 67.5t-104.5 24.5q-101 0 -155 -58.5t-54 -166.5v-415q0 -119 56 -175t150 -56q64 0 109.5 25.5t70.5 70t25 99.5v5h83v-3
q0 -83 -36.5 -143t-102 -92.5t-152.5 -32.5z" />
    <glyph glyph-name="little_section" unicode="&#x104a;" horiz-adv-x="270" 
d="M91 0v536h88v-536h-88z" />
    <glyph glyph-name="big_section" unicode="&#x104b;" horiz-adv-x="462" 
d="M91 0v536h88v-536h-88zM282 0v536h88v-536h-88z" />
    <glyph glyph-name="locative" unicode="&#x104c;" horiz-adv-x="666" 
d="M363 626q-51 28 -83 77.5t-32 115.5q0 57 24 98t65 63t93 22q51 0 91.5 -21t63.5 -60l-57 -44q-16 27 -41 42.5t-56 15.5q-49 0 -76 -34t-27 -82q0 -53 24.5 -87t54.5 -54zM334 -10q-51 0 -87.5 12.5t-66.5 39.5v-91q71 -41 155 -41q65 0 128 25t113 65v-253
q0 -214 -205 -214h-119q-75 0 -117.5 36.5t-42.5 91.5q0 53 35 88t92 35q42 0 70.5 -14t58.5 -46l-50 -51q-35 38 -68 38q-23 0 -38 -13.5t-15 -33.5q0 -29 22.5 -43.5t80.5 -14.5h96q58 0 85 32.5t27 92.5v133q-36 -14 -74 -21t-79 -7q-67 0 -130 22.5t-113 58.5v236l70 36
q25 -62 69.5 -93.5t103.5 -31.5q83 0 131 55.5t48 150.5q0 91 -49 146.5t-130 55.5q-59 0 -103.5 -31.5t-69.5 -93.5l-70 36q27 75 92 119t150 44q82 0 143 -35.5t94.5 -98t33.5 -143.5q0 -79 -33.5 -142t-94.5 -100t-143 -37z" />
    <glyph glyph-name="completed" unicode="&#x104d;" horiz-adv-x="892" 
d="M256 -467q-96 0 -148.5 38.5t-52.5 113.5q0 43 20 75.5t54.5 51t77.5 18.5q48 0 80.5 -16t63.5 -45l-55 -52q-18 17 -36.5 28t-47.5 11q-24 0 -45.5 -17t-21.5 -55t30 -58t79 -20h347q59 0 85.5 32.5t26.5 92.5v493q0 90 -17.5 158t-57 123t-106.5 105q-46 34 -73.5 65
t-39.5 64.5t-12 75.5q0 51 25.5 94t70.5 69t101 26q72 0 121 -31.5t72 -88.5l-68 -36q-35 89 -120 89q-53 0 -85 -35t-32 -87q0 -73 71 -123q89 -64 141 -133t74.5 -152t22.5 -189v-471q0 -214 -204 -214h-341zM509 -267v533q0 60 -22.5 106.5t-63.5 73t-96 26.5
q-66 0 -111 -36t-62 -100q130 -12 204 -96.5t74 -230.5q-23 -7 -51 -13t-58 -6q-81 0 -141 36t-93.5 99t-33.5 143t34 143t95 99t142 36q84 0 144.5 -36.5t93.5 -99t33 -142.5v-535h-88zM326 64q12 0 23 1q-5 87 -61.5 139.5t-141.5 60.5q0 -89 47.5 -145t132.5 -56z" />
    <glyph glyph-name="aforementioned" unicode="&#x104e;" horiz-adv-x="659" 
d="M326 -10q-82 0 -143 37t-94.5 100t-33.5 142q0 81 33.5 143.5t94.5 98t143 35.5q86 0 151 -45t91 -118l-70 -36q-25 62 -70 93.5t-103 31.5q-82 0 -130.5 -55.5t-48.5 -146.5q0 -94 48 -150t131 -56q58 0 103 31.5t70 93.5l70 -36v-620h-88v504q-31 -23 -70 -35t-84 -12z
" />
    <glyph glyph-name="genitive" unicode="&#x104f;" horiz-adv-x="1137" 
d="M958 0v329q0 86 -16 142.5t-49 92.5t-86 62q-80 39 -117.5 87t-37.5 117q0 48 25.5 87.5t69 62.5t96.5 23q75 0 124 -32t72 -89l-65 -34q-35 89 -123 89q-33 0 -58.5 -15t-40.5 -39t-15 -51q0 -46 25 -76t86 -60q80 -40 123 -96t59 -130t16 -167v-303h-88zM326 -10
q-83 0 -144 36t-94 99t-33 142q0 81 33.5 144t94.5 99t143 36q63 0 113.5 -21.5t85.5 -59.5q20 38 56 59.5t85 21.5q83 0 129.5 -51t46.5 -133v-362h-88v363q0 49 -22.5 79t-67.5 30q-32 0 -57.5 -22.5t-30.5 -67.5q-50 -33 -109.5 -56.5t-125.5 -23.5q-60 0 -104.5 16
t-76.5 39q-8 -17 -11 -41t-3 -50q0 -23 4 -46.5t10 -40.5q32 23 76.5 39t104.5 16q66 0 125.5 -23.5t109.5 -56.5q-29 -74 -93 -119t-157 -45zM344 372q30 0 65.5 9t67.5 29q-50 62 -152 62q-51 0 -82 -15t-49 -38q26 -20 60 -33.5t90 -13.5zM325 64q102 0 152 62
q-32 20 -67.5 29t-65.5 9q-56 0 -90 -13t-60 -34q18 -23 49 -38t82 -15z" />
    <glyph glyph-name="sha_skt" unicode="&#x1050;" horiz-adv-x="668" 
d="M184 -10q-36 24 -65.5 65t-46.5 93t-17 110q0 85 36.5 150t100 101.5t143.5 36.5q81 0 144 -37t98.5 -102t35.5 -149q0 -55 -17 -107t-46 -94.5t-66 -66.5l-51 64q43 35 66 85t23 117q0 68 -24 116t-66 74t-97 26t-98 -26t-67 -74.5t-24 -115.5t23 -117t66 -85zM336 193
q-26 0 -43.5 16t-17.5 52t17.5 51.5t43.5 15.5q28 0 45.5 -15.5t17.5 -51.5q0 -35 -18 -51.5t-45 -16.5z" />
    <glyph glyph-name="ssa_skt" unicode="&#x1051;" horiz-adv-x="676" 
d="M338 -10q-82 0 -146 37t-100.5 102t-36.5 149q0 82 35 154t94 114l51 -64q-43 -35 -66 -84.5t-23 -117.5q0 -100 53 -158t139 -58t138.5 58.5t52.5 157.5q0 68 -24.5 117.5t-71.5 84.5l50 64q42 -28 73 -70t48 -93t17 -105q0 -85 -37 -150t-101 -101.5t-145 -36.5z
M336 208q-26 0 -43.5 16t-17.5 52t17.5 51.5t43.5 15.5q28 0 45.5 -15.5t17.5 -51.5q0 -35 -18 -51.5t-45 -16.5z" />
    <glyph glyph-name="vocR_skt" unicode="&#x1052;" horiz-adv-x="661" 
d="M336 -10q-87 0 -150 35.5t-97 100t-34 152.5q0 82 35 154t94 114l51 -64q-43 -35 -66 -84.5t-23 -117.5q0 -104 53.5 -160t140.5 -56q83 0 128 39t45 97q0 31 -12.5 56.5t-34.5 44.5q-37 33 -56.5 55.5t-27 42t-7.5 43.5q0 40 31 72t87 32q39 0 64 -14t56 -46l-50 -51
q-17 20 -32 28.5t-31 8.5q-18 0 -29 -10.5t-11 -24.5q0 -17 11 -30t31 -30q40 -33 61.5 -58.5t30.5 -53t9 -65.5q0 -63 -33 -110.5t-93.5 -73.5t-140.5 -26z" />
    <glyph glyph-name="vocRR_skt" unicode="&#x1053;" horiz-adv-x="661" 
d="M330 -10q-82 0 -142 26t-92.5 73t-32.5 111q0 39 9.5 66.5t31.5 52.5t60 57q20 17 31 30.5t11 30.5q0 14 -10.5 24.5t-28.5 10.5q-16 0 -31 -8.5t-33 -28.5l-50 51q31 32 56 46t64 14t65.5 -16t40 -40t13.5 -48q0 -22 -4.5 -39.5t-19 -35t-43.5 -42.5q-43 -37 -57.5 -65
t-14.5 -60q0 -58 45.5 -97t134.5 -39t134.5 39t45.5 97q0 60 -48 102q-39 34 -58 56t-25.5 41t-6.5 43q0 40 31 72t87 32q39 0 64 -14t56 -46l-50 -51q-17 20 -32 28.5t-31 8.5q-18 0 -29 -10.5t-11 -24.5q0 -25 33 -51q52 -41 81 -82.5t29 -103.5t-34 -109t-95.5 -74
t-143.5 -27z" />
    <glyph glyph-name="vocL_skt" unicode="&#x1054;" horiz-adv-x="660" 
d="M341 -10q-85 0 -149.5 37t-100.5 99.5t-36 140.5t35.5 141.5t99.5 100.5t151 37q100 0 170.5 -52t92.5 -140q-69 -46 -124.5 -66.5t-122.5 -20.5q-58 0 -110 18.5t-92 49.5q-9 -33 -9 -69q0 -61 25 -106.5t68.5 -70.5t99.5 -25q67 0 114.5 31.5t72.5 93.5l70 -36
q-26 -73 -93 -118t-162 -45zM338 472q-54 0 -91.5 -20t-60.5 -51q33 -27 76.5 -44t97.5 -17q46 0 83 12.5t66 29.5q-54 90 -171 90z" />
    <glyph glyph-name="vocLL_skt" unicode="&#x1055;" horiz-adv-x="651" 
d="M242 -10q-87 0 -137 74t-50 203q0 78 35 141.5t99.5 100.5t153.5 37q63 0 117 -23.5t91.5 -66.5t52.5 -102q-66 -46 -124.5 -66.5t-120.5 -20.5q-63 0 -114.5 19t-90.5 49q-8 -31 -8 -69q0 -52 9 -98t30 -75t59 -29q28 0 44.5 19.5t16.5 48.5v10h85v-10q0 -32 15.5 -50
t41.5 -18q27 0 42.5 20.5t17.5 57.5l89 -15q0 -59 -36 -98t-101 -39q-41 0 -67 12t-46 38q-38 -50 -104 -50zM340 472q-57 0 -95.5 -19t-61.5 -51q33 -27 76.5 -44.5t102.5 -17.5q41 0 78.5 12.5t68.5 29.5q-57 90 -169 90z" />
    <glyph glyph-name="_vocR_skt" unicode="&#x1056;" horiz-adv-x="369" 
d="M95 -10q-79 0 -140 36t-95 103l64 42q28 -52 72 -79.5t101 -27.5q65 0 102.5 30t37.5 76q0 31 -27.5 55.5t-73.5 48.5q-46 23 -75.5 59.5t-29.5 88.5q0 32 16 60.5t45.5 46t70.5 17.5q43 0 74 -12.5t62 -49.5l-53 -51q-20 25 -39 34t-40 9q-24 0 -39 -16.5t-15 -34.5
q0 -34 19.5 -52t51.5 -35q38 -21 68.5 -42.5t48.5 -52t18 -78.5q0 -52 -27.5 -91t-78 -61.5t-118.5 -22.5z" />
    <glyph glyph-name="_vocRR_skt" unicode="&#x1057;" horiz-adv-x="373" 
d="M-29 -10q-63 0 -97 39t-34 99l76 14q2 -37 17 -57.5t42 -20.5q26 0 41.5 18t15.5 50v10h85v-10q0 -29 15 -48.5t41 -19.5q32 0 50 23t18 55q0 43 -25.5 73.5t-62.5 50.5q-58 32 -88 68.5t-30 87.5q0 32 16 60.5t45.5 46t70.5 17.5q43 0 74 -12.5t62 -49.5l-53 -51
q-20 25 -39 34t-40 9q-24 0 -39 -16.5t-15 -34.5q0 -29 19 -49t57 -42q35 -20 64.5 -44t47.5 -59t18 -84q0 -71 -39.5 -114t-99.5 -43q-39 0 -64.5 12.5t-43.5 37.5q-20 -26 -46 -38t-59 -12z" />
    <glyph glyph-name="_vocL_skt" unicode="&#x1058;" 
d="M-326 -467q-64 0 -109.5 28t-70 75.5t-24.5 105.5t25 105.5t71 75.5t108 28q74 0 124 -40t67 -115q-47 -31 -78 -44.5t-53.5 -16.5t-45.5 -3q-37 0 -71 10t-63 33q-3 -17 -3 -36q0 -61 34.5 -100.5t90.5 -39.5q83 0 122 84l60 -30q-20 -55 -65 -87.5t-119 -32.5z
M-325 -111q-36 0 -61 -15t-40 -40q22 -18 49.5 -28t62.5 -10q28 0 52.5 8t46.5 18q-37 67 -110 67z" />
    <glyph glyph-name="_vocLL_skt" unicode="&#x1059;" 
d="M-395 -467q-59 0 -97 51t-38 154q0 60 25 108.5t71 76.5t108 28q71 0 123 -40.5t68 -114.5q-47 -31 -77.5 -44.5t-53.5 -16.5t-46 -3q-36 0 -70 10t-64 33q-3 -20 -3 -43q0 -33 5.5 -63.5t18.5 -50t35 -19.5q15 0 25 14t10 37v7h71v-7q0 -24 10.5 -37.5t28.5 -13.5
q36 0 39 58l62 -10q0 -55 -25 -84.5t-73 -29.5q-25 0 -44.5 8.5t-34.5 29.5q-26 -38 -74 -38zM-325 -111q-36 0 -61.5 -14.5t-40.5 -40.5q23 -18 50.5 -28t62.5 -10q28 0 52.5 8t46.5 18q-37 67 -110 67z" />
    <glyph glyph-name="nga_mon" unicode="&#x105a;" horiz-adv-x="618" 
d="M326 -10q-82 0 -143 37t-94.5 100t-33.5 142q0 81 33.5 143.5t94.5 98t143 35.5q86 0 151 -45t91 -118l-70 -36q-25 62 -70 93.5t-103 31.5q-82 0 -130.5 -55.5t-48.5 -146.5q0 -94 48 -150t131 -56q58 0 103 31.5t70 93.5l70 -36q-26 -73 -91 -118t-151 -45zM397 -467
q-53 0 -81 28t-28 66q0 32 17.5 60.5t54.5 62.5t37 72q0 28 -20 45.5t-48 17.5q-32 0 -51.5 -19.5t-24.5 -49.5h-80q1 58 43 97t111 39q66 0 108 -38t42 -95q0 -33 -16.5 -61t-54.5 -64q-38 -38 -38 -64q0 -18 13 -25t27 -7q18 0 33 9l32 -57q-15 -10 -36 -13.5t-40 -3.5z
" />
    <glyph glyph-name="jha_mon" unicode="&#x105b;" horiz-adv-x="869" 
d="M326 -10q-82 0 -143 37t-94.5 100t-33.5 142q0 81 35.5 143.5t98.5 98t147 35.5q74 0 132 -19.5t91.5 -59t33.5 -98.5q0 -24 -2 -41.5t-2 -36.5q0 -32 17 -42.5t57 -10.5h25v298h89v-745q0 -258 -203 -258q-202 0 -202 259v202q-24 -4 -46 -4zM461 -217q0 -85 27.5 -131
t86.5 -46q58 0 85.5 46t27.5 131v382h-43q-61 0 -92.5 28t-31.5 79q-12 -7 -27.5 -10t-32.5 -3q-54 0 -90.5 33.5t-36.5 85.5q0 30 12.5 53.5t32.5 37.5q-23 3 -44 3q-85 0 -137 -55t-52 -147q0 -94 48 -150t131 -56q73 0 123 49l53 -60q-17 -16 -40 -29v-241zM460 324
q23 0 39 16t16 39t-16 39t-39 16t-39 -16t-16 -39t16 -39t39 -16z" />
    <glyph glyph-name="bba_mon" unicode="&#x105c;" horiz-adv-x="669" 
d="M334 -10q-85 0 -147.5 36.5t-97 99t-34.5 142.5q0 79 34.5 142t98 99.5t149.5 36.5q85 0 148.5 -36t98.5 -99t35 -143q0 -82 -36.5 -144.5t-100.5 -98t-148 -35.5zM337 64q57 0 100 25.5t67 71t24 105.5q0 93 -51.5 149.5t-138.5 56.5q-88 0 -140 -56t-52 -150
q0 -62 24.5 -107t68 -70t98.5 -25zM336 167q-49 0 -79 27.5t-30 78.5q0 50 30 78t79 28q48 0 79.5 -27.5t31.5 -77.5q0 -51 -31.5 -79t-79.5 -28zM337 220q23 0 38 14t15 39t-15 39t-38 14t-38 -14t-15 -39t13.5 -39t39.5 -14z" />
    <glyph glyph-name="bbe_mon" unicode="&#x105d;" horiz-adv-x="659" 
d="M326 -10q-76 0 -137.5 37t-97.5 102t-36 149q0 82 35 154t94 114l51 -64q-43 -35 -66 -84.5t-23 -117.5q0 -36 7 -67q30 27 75 47t97 20q101 0 174 -65q6 30 6 65q0 68 -22.5 117.5t-65.5 84.5l50 64q39 -28 68.5 -70t45.5 -93t16 -105q0 -77 -29 -139v-397
q0 -209 -205 -209h-97q-97 0 -149 38.5t-52 113.5q0 65 43.5 105t108.5 40q49 0 81 -16t63 -45l-55 -52q-17 17 -36 28t-48 11q-24 0 -45.5 -17t-21.5 -55t30.5 -58t78.5 -20h104q57 0 84.5 32t27.5 90v307q-66 -45 -154 -45zM325 209q-44 0 -79.5 -18.5t-64.5 -46.5
q25 -38 62 -59t83 -21q50 0 87.5 21t59.5 60q-27 29 -65.5 46.5t-82.5 17.5z" />
    <glyph glyph-name="_medialNa_mon" unicode="&#x105e;" 
d="M-416 -467q-68 0 -109.5 38.5t-41.5 99.5q0 72 57 114t158 45v130h88v-137q46 -9 88.5 -26t73.5 -38l-42 -60q-60 39 -120 54v-62q0 -77 -40 -117.5t-112 -40.5zM-480 -333q0 -34 20.5 -50t43.5 -16q64 0 64 80v81q-62 -3 -95 -27.5t-33 -67.5z" />
    <glyph glyph-name="_medialMa_mon" unicode="&#x105f;" 
d="M-329 -467q-105 0 -161.5 40t-56.5 112q0 67 52.5 106t142.5 39v130h88v-206q-16 3 -36.5 4.5t-40.5 1.5q-119 0 -119 -80q0 -79 139 -79q49 0 98 15t99 48l42 -60q-52 -32 -116 -51.5t-131 -19.5z" />
    <glyph glyph-name="_medialLa_mon" unicode="&#x1060;" 
d="M-528 -467l234 418h86l-196 -350h276v-68h-400z" />
    <glyph glyph-name="sha_skn" unicode="&#x1061;" horiz-adv-x="689" 
d="M225 -467v68h125v391q-14 -2 -27 -2q-81 0 -141.5 36t-93.5 99t-33 144t34 143.5t95 98t143 35.5q83 0 143.5 -36.5t94 -99t33.5 -141.5v-736h-89v733q0 61 -23 107.5t-63.5 73t-94.5 26.5q-65 0 -111 -35t-62 -102q90 -8 153.5 -50.5t96.5 -112t33 -159.5v0v-481h-213z
M327 64h11.5t10.5 1q-3 88 -58.5 139.5t-143.5 60.5q0 -91 47 -146t133 -55z" />
    <glyph glyph-name="eu_skn" unicode="&#x1062;" horiz-adv-x="336" 
d="M157 0v468h-126v68h214v-536h-88z" />
    <glyph glyph-name="hathi_skn" unicode="&#x1063;" horiz-adv-x="661" 
d="M334 -10q-51 0 -87.5 12.5t-66.5 39.5v-509h-88v620l70 36q25 -62 69.5 -93.5t103.5 -31.5q83 0 131 55.5t48 150.5q0 91 -49 146.5t-130 55.5q-59 0 -103.5 -31.5t-69.5 -93.5l-70 36q27 75 92 119t150 44q82 0 143 -35.5t94.5 -98t33.5 -143.5q0 -79 -33.5 -142
t-94.5 -100t-143 -37z" />
    <glyph glyph-name="kepho_skn" unicode="&#x1064;" horiz-adv-x="401" 
d="M157 0v468h-126v68h214v-468h125v-68h-213z" />
    <glyph glyph-name="tha_wpk" unicode="&#x1065;" horiz-adv-x="667" 
d="M331 -10q-60 0 -111 20.5t-88.5 57t-54.5 85.5l69 36q27 -62 76 -93.5t111 -31.5q57 0 100.5 27t68 73.5t24.5 105.5q0 60 -23.5 105.5t-67 71t-102.5 25.5q-62 0 -111 -31.5t-76 -93.5l-69 36q17 49 54.5 85.5t88.5 57t111 20.5q85 0 149.5 -35.5t100.5 -98t36 -143.5
q0 -85 -35.5 -147.5t-99.5 -97t-151 -34.5z" />
    <glyph glyph-name="pwa_wpk" unicode="&#x1066;" horiz-adv-x="653" 
d="M159 -467v68h126v392q-68 10 -119.5 48.5t-81 99t-29.5 137.5q0 82 35 154t94 114l51 -64q-43 -35 -66 -84.5t-23 -117.5q0 -100 50 -158t132 -58q80 0 129 58.5t49 157.5q0 68 -22.5 117.5t-65.5 84.5l50 64q40 -28 69 -70t45 -93t16 -105q0 -77 -29 -137.5t-79.5 -98.5
t-116.5 -49v-460h-214z" />
    <glyph glyph-name="eu_wpk" unicode="&#x1067;" horiz-adv-x="434" 
d="M194 -11q-67 0 -107 37.5t-40 104.5t41 104.5t106 37.5q22 0 40 -5.5t32 -14.5v283h77v-405q0 -67 -40.5 -104.5t-108.5 -37.5zM194 60q34 0 53 19t19 52t-20 52t-52 19q-30 0 -50 -19t-20 -52t18.5 -52t51.5 -19z" />
    <glyph glyph-name="ue_wpk" unicode="&#x1068;" horiz-adv-x="336" 
d="M190 651q-49 0 -79 28t-30 79q0 50 30 77.5t79 27.5q48 0 80 -27.5t32 -77.5q0 -51 -31.5 -79t-80.5 -28zM191 704q24 0 39 14.5t15 39.5t-15.5 38.5t-38.5 13.5t-38 -13.5t-15 -38.5t14 -39.5t39 -14.5zM31 0v68h126v468h88v-536h-214z" />
    <glyph glyph-name="tone1_wpk" unicode="&#x1069;" horiz-adv-x="423" 
d="M206 -13q-66 0 -109.5 39t-43.5 101q0 39 12.5 68t44 54.5t88.5 56.5t73.5 56t16.5 50q0 26 -22 45.5t-53 19.5q-25 0 -50 -11t-50 -40l-52 51q35 41 72.5 55t83.5 14q47 0 81.5 -19t53 -50t18.5 -68q0 -43 -13.5 -71.5t-45 -53t-85.5 -55.5q-44 -25 -67.5 -48.5
t-23.5 -55.5q0 -29 22 -48t52 -19q27 0 51 10.5t50 39.5l52 -51q-34 -41 -70 -55.5t-86 -14.5z" />
    <glyph glyph-name="tone2_wpk" unicode="&#x106a;" horiz-adv-x="434" 
d="M193 -11q-66 0 -106 37.5t-40 104.5h77q0 -33 18.5 -52t52.5 -19q32 0 51.5 21t19.5 69v386h77v-391q0 -77 -39.5 -116.5t-110.5 -39.5z" />
    <glyph glyph-name="tone3_wpk" unicode="&#x106b;" horiz-adv-x="434" 
d="M266 0v385q0 48 -19.5 69t-51.5 21q-34 0 -52.5 -19.5t-18.5 -51.5h-77q0 69 40 105.5t106 36.5q71 0 110.5 -39.5t39.5 -115.5v-391h-77z" />
    <glyph glyph-name="tone4_wpk" unicode="&#x106c;" horiz-adv-x="434" 
d="M241 -11q-71 0 -110.5 40t-39.5 116v391h77v-386q0 -48 19.5 -69t51.5 -21q35 0 53.5 19t18.5 52h76q0 -67 -40 -104.5t-106 -37.5z" />
    <glyph glyph-name="tone5_wpk" unicode="&#x106d;" horiz-adv-x="423" 
d="M217 -13q-49 0 -85 14.5t-71 55.5l52 51q26 -29 50 -39.5t51 -10.5q30 0 52 19t22 48q0 32 -24 55.5t-67 48.5q-53 31 -85 55.5t-45.5 53t-13.5 71.5q0 37 18.5 68t53 50t81.5 19q46 0 84 -14t72 -55l-52 -51q-25 29 -50 40t-50 11q-31 0 -53 -19.5t-22 -45.5
q0 -25 16.5 -50t73.5 -56t88.5 -56.5t44 -54.5t12.5 -68q0 -62 -43.5 -101t-109.5 -39z" />
    <glyph glyph-name="nna_epk" unicode="&#x106e;" horiz-adv-x="1253" 
d="M184 -10q-36 24 -65.5 65t-46.5 93t-17 110q0 86 32.5 151t88.5 101t125 36q34 0 64.5 -9t57.5 -25q53 34 124 34q67 0 118.5 -32.5t84.5 -85.5q72 118 204 118q77 0 131.5 -37.5t83.5 -100.5t29 -139q0 -83 -29 -146t-81 -98t-119 -35q-41 0 -70 6t-55 20l32 66
q33 -18 78 -18q69 0 111 54t42 148q0 92 -42 149t-113 57q-56 0 -94.5 -35.5t-71.5 -97.5q10 -40 10 -81q0 -96 -34.5 -162.5t-86.5 -105.5l-52 64q40 35 60.5 85t20.5 117q0 105 -44 160.5t-115 55.5q-31 0 -63 -14q30 -39 47 -90.5t17 -109.5q0 -54 -16.5 -106t-45.5 -94
t-67 -68l-52 64q43 35 66 85t23 117q0 105 -43 161t-110 56q-68 0 -111.5 -57t-43.5 -160q0 -67 23 -117t66 -85z" />
    <glyph glyph-name="ywa_epk" unicode="&#x106f;" horiz-adv-x="1102" 
d="M326 -10q-78 0 -139.5 36.5t-96.5 101.5t-35 150q0 82 35 154t94 114l51 -64q-43 -35 -66 -84.5t-23 -117.5q0 -100 50 -158t130 -58q81 0 130.5 58t49.5 158q0 68 -23 117.5t-66 84.5l51 64q58 -41 91 -106q37 51 94 78.5t123 27.5q83 0 144 -36.5t94 -99t33 -142.5
q0 -109 -52.5 -181t-141.5 -91v-463h-214v68h126v390q-65 3 -110 25l32 66q37 -18 92 -18q80 0 128.5 55t48.5 147q0 91 -48 148t-131 57q-62 0 -107 -33t-80 -94q7 -37 7 -78q0 -74 -34.5 -137t-95.5 -101t-141 -38z" />
    <glyph glyph-name="ghwa_epk" unicode="&#x1070;" horiz-adv-x="1104" 
d="M320 -10q-77 0 -135 26.5t-90 74t-32 109.5q0 52 22.5 94t64.5 74q24 18 37 33.5t13 35.5q0 14 -10 24.5t-27 10.5q-15 0 -29 -8.5t-31 -28.5l-50 51q30 32 54.5 46t62.5 14q37 0 63 -16t39.5 -40t13.5 -48q0 -22 -4.5 -39.5t-18 -35.5t-41.5 -42q-41 -36 -55 -64.5
t-14 -60.5q0 -58 45 -97t129 -39q52 0 92.5 26t64 74.5t23.5 115.5q0 68 -23 117.5t-66 84.5l51 64q61 -43 95 -116t34 -152q0 -43 -9 -81q35 -64 84.5 -98.5t108.5 -34.5q82 0 128.5 56.5t46.5 149.5t-50 147.5t-132 54.5q-50 0 -86 -18l-32 66q27 14 58 20t74 6
q75 0 133.5 -34.5t92 -97t33.5 -146.5q0 -69 -25.5 -126.5t-74 -96t-117.5 -50.5v-462h-214v68h126v391q-57 6 -106.5 35t-83.5 81q-36 -57 -96 -87.5t-137 -30.5z" />
    <glyph glyph-name="i_gkn" unicode="&#x1071;" 
d="M-171 685q-49 0 -79 27.5t-30 78.5q0 48 30 76.5t79 28.5q48 0 79.5 -28t31.5 -76q0 -52 -31 -79.5t-80 -27.5zM-460 685q-49 0 -79.5 27.5t-30.5 78.5q0 49 30.5 77t79.5 28q48 0 79.5 -28t31.5 -76q0 -52 -31.5 -79.5t-79.5 -27.5zM-170 737q23 0 38 14.5t15 39.5
t-15 38.5t-38 13.5t-38 -13.5t-15 -38.5t13.5 -39.5t39.5 -14.5zM-459 737q23 0 38 14.5t15 39.5t-15 38.5t-38 13.5t-38.5 -13.5t-15.5 -38.5t14 -39.5t40 -14.5z" />
    <glyph glyph-name="oe_kyh" unicode="&#x1072;" 
d="M-304 626q-56 0 -97 24.5t-63.5 67t-22.5 96.5q0 52 23 95t64.5 68t97.5 25q58 0 101.5 -28.5t63.5 -79.5l-64 -33q-13 38 -41 56t-62 18q-48 0 -75.5 -34t-27.5 -85q0 -54 26 -88.5t74 -34.5q36 0 64.5 17.5t43.5 55.5l65 -31q-21 -51 -67 -80t-103 -29z" />
    <glyph glyph-name="u_kyh" unicode="&#x1073;" 
d="M-527 626l-49 56l274 267l274 -267l-50 -56l-224 218z" />
    <glyph glyph-name="ee_kyh" unicode="&#x1074;" 
d="M-302 626l-274 267l49 56l225 -218l224 218l50 -56z" />
    <glyph glyph-name="ka_shn" unicode="&#x1075;" horiz-adv-x="667" 
d="M175 -10q-39 0 -64 14t-56 46l50 51q34 -37 65 -37q18 0 28 10.5t10 24.5q0 26 -31 51q-53 42 -82.5 82.5t-29.5 103.5q0 62 32 109.5t92 74t143 26.5q77 0 141 -36t102.5 -100.5t38.5 -151.5q0 -55 -17.5 -107t-47.5 -94.5t-68 -66.5l-52 64q46 35 69.5 85t23.5 117
q0 100 -52 158.5t-135 58.5q-89 0 -134.5 -38.5t-45.5 -98.5q0 -33 15.5 -62t55.5 -62q42 -34 55 -58.5t13 -59.5q0 -24 -14 -48t-40.5 -40t-64.5 -16z" />
    <glyph glyph-name="kha_shn" unicode="&#x1076;" horiz-adv-x="672" 
d="M322 -10q-98 0 -172.5 49.5t-102.5 143.5q70 46 132 66.5t128 20.5q67 0 121 -19t95 -50q8 32 8 70q0 98 -37 148.5t-96 50.5q-55 0 -94 -51q-38 -50 -67 -71.5t-75 -21.5q-28 0 -54 12t-43.5 35.5t-17.5 56.5q0 38 14 63t46 54l51 -50q-19 -15 -28 -27t-9 -26
q0 -15 14 -23.5t32 -8.5q31 0 68 49t73.5 66.5t83.5 17.5q67 0 118.5 -33.5t81 -92.5t29.5 -137q0 -86 -35.5 -152t-102.5 -103t-161 -37zM143 154q31 -45 78 -67.5t105 -22.5q114 0 166 70q-34 27 -80 44.5t-109 17.5q-44 0 -85 -12t-75 -30z" />
    <glyph glyph-name="ga_shn" unicode="&#x1077;" horiz-adv-x="674" 
d="M172 -10q-39 0 -64 14t-56 46l50 51q33 -37 64 -37q18 0 29 11t11 25q0 26 -32 50q-54 41 -83 81.5t-29 104.5q0 62 32.5 109.5t92.5 74t143 26.5q80 0 144.5 -36t101.5 -101t37 -151q0 -56 -19 -107.5t-51.5 -92.5t-75.5 -66q-70 45 -105 108.5t-35 149.5q0 68 23 120.5
t57 88.5q-35 14 -74 14q-89 0 -135.5 -38.5t-46.5 -98.5q0 -32 14.5 -60t57.5 -63t56 -60.5t13 -57.5q0 -25 -14 -49.5t-40.5 -40t-65.5 -15.5zM407 250q0 -53 14 -89t48 -68q29 32 46 72.5t17 90.5q0 49 -16.5 91t-45.5 71q-31 -32 -47 -76t-16 -92z" />
    <glyph glyph-name="ca_shn" unicode="&#x1078;" horiz-adv-x="1125" 
d="M800 -10q80 0 140.5 36.5t94.5 99t34 142.5q0 79 -34 142t-95.5 99.5t-142.5 36.5q-79 0 -138.5 -31.5t-94.5 -84.5q-39 57 -99.5 86.5t-132.5 29.5q-85 0 -147 -37t-96 -100t-34 -141q0 -84 33.5 -146.5t91.5 -97t134 -34.5q46 0 79 6t62 20l-32 66q-39 -18 -95 -18
q-82 0 -132 54.5t-50 147.5t49.5 149.5t134.5 56.5q57 0 109 -33.5t87 -95.5q-9 -38 -9 -79q0 -80 35 -142t98.5 -97t149.5 -35zM797 64q-89 0 -138.5 55t-49.5 143q0 94 48.5 152t138.5 58q54 0 95 -25.5t64 -72t23 -108.5t-24 -107t-65 -70t-92 -25z" />
    <glyph glyph-name="za_shn" unicode="&#x1079;" horiz-adv-x="1126" 
d="M323 -10q-81 0 -141.5 36.5t-93.5 99.5t-33 142q0 80 37 143t103 99t151 36q75 0 130 -32.5t91 -84.5q34 54 93 85.5t138 31.5q82 0 143.5 -37t96 -100t34.5 -141q0 -82 -36 -144.5t-98.5 -98t-142.5 -35.5q-85 0 -145.5 36.5t-93.5 99t-33 142.5q0 38 8 73
q-32 58 -78 94t-103 36q-75 0 -125.5 -35t-68.5 -100q129 -12 202.5 -97.5t73.5 -229.5q-23 -7 -51 -13t-58 -6zM798 64q54 0 95 25.5t64 71t23 105.5q0 62 -22.5 108t-63 72t-95.5 26q-87 0 -136 -56t-49 -150q0 -92 51 -147t133 -55zM332 64h8.5h8.5q-5 90 -59 141
t-143 60q0 -89 46.5 -145t138.5 -56z" />
    <glyph glyph-name="nya_shn" unicode="&#x107a;" horiz-adv-x="1104" 
d="M315 -10q-78 0 -136.5 35.5t-91 98.5t-32.5 145q0 81 33.5 143.5t94.5 98t144 35.5q82 0 143 -35t94.5 -96.5t33.5 -141.5q0 -95 49 -152t135 -57q53 0 92.5 26t61.5 72.5t22 108.5q0 59 -21.5 104.5t-61 71.5t-93.5 26q-25 0 -43 -3.5t-33 -8.5l-31 67q25 10 50 14t66 4
q77 0 135.5 -38t90.5 -101t32 -138q0 -81 -33.5 -144t-94.5 -99t-142 -36q-56 0 -101.5 18.5t-79.5 49.5v-457h125v-68h-213v733q0 97 -47 152t-135 55q-82 0 -132 -55t-50 -152q0 -60 22 -105.5t61.5 -71t92.5 -25.5q14 0 29 2.5t28 7.5l30 -68q-19 -5 -42 -10.5t-52 -5.5z
" />
    <glyph glyph-name="da_shn" unicode="&#x107b;" horiz-adv-x="1126" 
d="M332 -10q-80 0 -142.5 35.5t-98.5 98t-36 144.5q0 78 34.5 141t96 100t143.5 37q79 0 138 -31.5t93 -85.5q36 52 91 84.5t130 32.5q85 0 151 -36t103 -99t37 -143q0 -79 -33 -142t-93 -99.5t-142 -36.5q-30 0 -58 6t-51 13q0 144 73.5 229.5t202.5 97.5q-18 65 -68.5 100
t-125.5 35q-57 0 -103 -36t-78 -94q8 -35 8 -73q0 -80 -33 -142.5t-94 -99t-145 -36.5zM329 64q83 0 133.5 55t50.5 147q0 94 -49 150t-136 56q-54 0 -95 -26t-63.5 -72t-22.5 -108q0 -60 23 -105.5t64.5 -71t94.5 -25.5zM795 64q92 0 138.5 56t46.5 145q-89 -9 -143 -60
t-59 -141h8.5h8.5z" />
    <glyph glyph-name="na_shn" unicode="&#x107c;" horiz-adv-x="1129" 
d="M309 -10q-59 0 -111.5 23.5t-91 66.5t-54.5 102q46 30 92.5 49.5t109 28.5t156.5 9h98q0 91 -51.5 147t-145.5 56q-54 0 -103.5 -31.5t-77.5 -93.5l-70 36q18 49 56 85.5t88 57t105 20.5q86 0 148.5 -35.5t96.5 -94.5q34 59 98 94.5t152 35.5q55 0 105 -20.5t87.5 -57
t56.5 -85.5l-70 -36q-28 62 -77.5 93.5t-103.5 31.5q-97 0 -150.5 -56t-53.5 -147h82q79 0 136 -5t99 -15.5t76.5 -27t69.5 -39.5q-15 -59 -54 -102t-92 -66.5t-111 -23.5q-89 0 -152.5 35t-97.5 94q-34 -59 -96 -94t-149 -35zM147 154q30 -45 74.5 -67.5t90.5 -22.5
q83 0 127 39t60 93h-92q-81 0 -129.5 -5.5t-78 -15t-52.5 -21.5zM683 196h-75q16 -54 61.5 -93t131.5 -39q46 0 90.5 22.5t74.5 67.5q-22 12 -53 21.5t-84.5 15t-145.5 5.5z" />
    <glyph glyph-name="pha_shn" unicode="&#x107d;" horiz-adv-x="1128" 
d="M324 -10q-79 0 -137.5 26.5t-91 74t-32.5 109.5q0 52 22.5 93t66.5 72q26 19 41 35.5t15 36.5q0 14 -12 24.5t-33 10.5q-15 0 -29 -8.5t-31 -28.5l-50 51q30 32 54.5 46t62.5 14q40 0 67.5 -16t42 -40t14.5 -48q0 -22 -5 -40t-20.5 -36.5t-46.5 -42.5q-41 -36 -55 -63.5
t-14 -59.5q0 -58 45.5 -97t132.5 -39q86 0 138 58t52 158q0 68 -24 117.5t-68 84.5l51 64q32 -22 55.5 -53t39.5 -67q34 55 92 87.5t130 32.5q95 0 161 -45t94 -118l-70 -36q-56 125 -187 125q-51 0 -92 -25t-65 -70t-24 -105q0 -27 5 -52q37 23 83.5 36t100.5 13
q65 0 126.5 -20.5t130.5 -66.5q-23 -88 -93 -140t-170 -52q-76 0 -136 37t-93 97q-33 -61 -94.5 -97.5t-149.5 -36.5zM806 196q-51 0 -91 -12.5t-71 -32.5q21 -38 58.5 -62.5t91.5 -24.5q58 0 99.5 22.5t71.5 67.5q-34 17 -74 29.5t-85 12.5z" />
    <glyph glyph-name="fa_shn" unicode="&#x107e;" horiz-adv-x="1099" 
d="M308 -10q-74 0 -129 26.5t-85.5 74t-30.5 109.5q0 52 21.5 93t64.5 73q24 18 38 34.5t14 36.5q0 14 -10 24.5t-28 10.5q-15 0 -29 -8.5t-31 -28.5l-50 51q30 32 54.5 46t62.5 14t64 -16t39.5 -40t13.5 -48q0 -34 -12.5 -58.5t-54.5 -60.5q-41 -36 -54 -63.5t-13 -59.5
q0 -58 41.5 -97t120.5 -39q86 0 138 58t52 158q0 68 -24 117.5t-68 84.5l51 64q32 -22 55.5 -53t39.5 -67q34 55 92 87.5t130 32.5q89 0 151.5 -45t88.5 -118l-70 -36q-51 125 -172 125q-51 0 -92 -25t-65 -70t-24 -105q0 -27 5 -52q37 23 83.5 36t100.5 13q61 0 119 -20.5
t123 -66.5q-19 -78 -72.5 -127.5t-130.5 -61.5v-460h-213v68h125v392q-61 10 -109 44.5t-77 86.5q-33 -61 -94.5 -97.5t-149.5 -36.5zM790 196q-51 0 -91 -12.5t-71 -32.5q21 -38 58.5 -62.5t91.5 -24.5q102 0 156 90q-31 17 -67.5 29.5t-76.5 12.5z" />
    <glyph glyph-name="ba_shn" unicode="&#x107f;" horiz-adv-x="677" 
d="M339 -10q-81 0 -145.5 36.5t-101.5 101.5t-37 150q0 82 39.5 154t108.5 113q141 -90 141 -257q0 -70 -22.5 -121.5t-57.5 -88.5q36 -14 75 -14q88 0 139.5 59t51.5 157q0 68 -25 118t-71 84l51 64q41 -27 72 -69t48 -93.5t17 -105.5q0 -85 -37 -150t-101 -101.5
t-145 -36.5zM136 280q0 -50 17 -91t47 -70q33 33 48 76t15 93q0 52 -13.5 88t-48.5 67q-28 -31 -46.5 -71.5t-18.5 -91.5z" />
    <glyph glyph-name="tha_shn" unicode="&#x1080;" horiz-adv-x="1124" 
d="M318 -10q-66 0 -122.5 23.5t-96 66.5t-54.5 102q69 46 130.5 66.5t126.5 20.5q59 0 108.5 -12t89.5 -32q4 24 4 49q0 61 -25 105.5t-68.5 68.5t-100.5 24q-60 0 -109.5 -31.5t-77.5 -93.5l-70 36q19 49 57 85.5t89 57t109 20.5q92 0 156 -36t97.5 -97.5t33.5 -139.5
q0 -42 -11 -81q26 -35 54.5 -63.5t64 -46t83.5 -17.5q60 0 104 26t67.5 72.5t23.5 106.5q0 92 -52 147t-139 55q-60 0 -100 -18l-32 66q29 14 64 20t82 6q78 0 138.5 -34.5t95 -97t34.5 -146.5q0 -82 -37 -144.5t-102 -98t-150 -35.5q-75 0 -133 30.5t-103 88.5
q-37 -54 -96 -86.5t-133 -32.5zM140 154q30 -45 76.5 -67.5t104.5 -22.5q57 0 95 26t60 65q-34 19 -77 30t-100 11q-45 0 -85 -12.5t-74 -29.5z" />
    <glyph glyph-name="ha_shn" unicode="&#x1081;" horiz-adv-x="653" 
d="M184 -10q-36 24 -65.5 65t-46.5 93t-17 110q0 86 36 151t97.5 101t138.5 36q76 0 137.5 -36t97.5 -101t36 -151q0 -54 -16.5 -106t-45.5 -94t-67 -68l-52 64q89 71 89 202q0 105 -50 161t-129 56t-130 -57t-51 -160q0 -67 23 -117t66 -85zM166 -467v68h125v359h88v-427
h-213z" />
    <glyph glyph-name="medial_wa_shn" unicode="&#x1082;" 
d="M-235 -469q-57 0 -103.5 24.5t-73.5 68.5t-27 105q0 78 36.5 135.5t92.5 86.5l49 -59q-41 -29 -69.5 -67.5t-28.5 -97.5q0 -54 34.5 -91t90.5 -37q35 0 65 18t48 50l57 -45q-54 -91 -171 -91z" />
    <glyph glyph-name="aa_shn" unicode="&#x1083;" horiz-adv-x="336" 
d="M157 -467v935h-126v68h214v-935h126v-68h-214z" />
    <glyph glyph-name="e_shn" unicode="&#x1084;" horiz-adv-x="592" 
d="M307 -10q-126 0 -192 41t-66 115q0 52 31.5 86.5t87.5 49.5v6q-100 29 -100 116q0 67 59.5 104.5t170.5 37.5q184 0 242 -114l-67 -37q-23 45 -64.5 62.5t-101.5 17.5q-150 0 -150 -82q0 -31 27.5 -54.5t81.5 -23.5h5v-72h-13q-62 0 -91.5 -26t-29.5 -59
q0 -45 39.5 -70.5t130.5 -25.5q60 0 109 27t72 87l70 -35q-26 -72 -90 -111.5t-161 -39.5z" />
    <glyph glyph-name="_e_above_shn" unicode="&#x1085;" 
d="M-306 626q-94 0 -134 31t-40 81q0 36 24 57t56 29v4q-26 8 -47 25.5t-21 52.5q0 40 37 68.5t120 28.5q125 0 163 -78l-58 -34q-14 26 -39.5 36.5t-63.5 10.5q-35 0 -56.5 -9t-21.5 -34q0 -21 21.5 -30.5t54.5 -9.5h4v-65h-18q-34 0 -54.5 -13.5t-20.5 -36.5
q0 -28 24.5 -39t65.5 -11q39 0 68.5 16t45.5 52l60 -30q-18 -53 -65 -77.5t-105 -24.5z" />
    <glyph glyph-name="_f_above_shn" unicode="&#x1086;" 
d="M-341 626l95 123h-6q-58 0 -94.5 33t-36.5 95q0 59 36.5 92.5t92.5 33.5q58 0 96 -34t38 -91q0 -31 -8 -63.5t-36 -70.5l-89 -118h-88zM-250 811q29 0 46 20t17 44q0 30 -17.5 47t-45.5 17q-31 0 -47.5 -17t-16.5 -47q0 -31 17.5 -47.5t46.5 -16.5z" />
    <glyph glyph-name="tone2_shn" unicode="&#x1087;" horiz-adv-x="347" 
d="M99 -152l79 141h-5q-49 0 -79.5 27.5t-30.5 78.5q0 52 31.5 79.5t76.5 27.5q49 0 81 -29.5t32 -76.5q0 -23 -10 -50.5t-30 -64.5l-72 -133h-73zM174 41q26 0 40 16.5t14 37.5q0 25 -14.5 38.5t-39.5 13.5t-39 -13.5t-14 -38.5q0 -26 14.5 -40t38.5 -14z" />
    <glyph glyph-name="tone3_shn" unicode="&#x1088;" horiz-adv-x="346" 
d="M172 325q-49 0 -79 27.5t-30 78.5q0 50 30 78t79 28q48 0 79.5 -28t31.5 -77q0 -52 -31.5 -79.5t-79.5 -27.5zM173 377q24 0 38.5 14t14.5 40q0 24 -15 38t-38 14t-38 -14t-15 -38q0 -54 53 -54zM99 -152l79 141h-5q-49 0 -79.5 27.5t-30.5 78.5q0 52 31.5 79.5
t76.5 27.5q49 0 81 -29.5t32 -76.5q0 -23 -10 -50.5t-30 -64.5l-72 -133h-73zM174 41q26 0 40 16.5t14 37.5q0 25 -14.5 38.5t-39.5 13.5t-39 -13.5t-14 -38.5q0 -26 14.5 -40t38.5 -14z" />
    <glyph glyph-name="tone5_shn" unicode="&#x1089;" horiz-adv-x="346" 
d="M172 -11q-49 0 -79 27.5t-30 78.5q0 50 30 78t79 28q48 0 79.5 -28t31.5 -77q0 -51 -31.5 -79t-79.5 -28zM173 42q24 0 38.5 14t14.5 39t-15 39t-38 14t-38 -14t-15 -39t13.5 -39t39.5 -14z" />
    <glyph glyph-name="tone6_shn" unicode="&#x108a;" horiz-adv-x="434" 
d="M172 336q-49 0 -79 27.5t-30 78.5q0 50 30 78t79 28q48 0 79.5 -27.5t31.5 -75.5v-4l141 80v-73l-133 -72q-74 -40 -119 -40zM173 389q24 0 38.5 14t14.5 39t-15 39t-38 14t-38 -14t-15 -39t13.5 -39t39.5 -14zM172 1q-49 0 -79 27.5t-30 78.5q0 50 30 78t79 28
q48 0 79.5 -27.5t31.5 -75.5v-4l141 80v-73l-133 -72q-74 -40 -119 -40zM173 54q24 0 38.5 14t14.5 39t-15 39t-38 14t-38 -14t-15 -39t13.5 -39t39.5 -14z" />
    <glyph glyph-name="ctone2_shn" unicode="&#x108b;" horiz-adv-x="346" 
d="M172 157q-49 0 -79 27.5t-30 78.5q0 50 30 78t79 28q48 0 79.5 -28t31.5 -77q0 -52 -31.5 -79.5t-79.5 -27.5zM173 210q24 0 38.5 14t14.5 39t-15 39t-38 14t-38 -14t-15 -39q0 -53 53 -53z" />
    <glyph glyph-name="ctone3_shn" unicode="&#x108c;" horiz-adv-x="654" 
d="M480 157q-49 0 -79 27.5t-30 78.5q0 50 30 78t79 28q48 0 79.5 -28t31.5 -77q0 -52 -31.5 -79.5t-79.5 -27.5zM172 157q-49 0 -79 27.5t-30 78.5q0 50 30 78t79 28q48 0 79.5 -28t31.5 -77q0 -52 -31.5 -79.5t-79.5 -27.5zM173 210q24 0 38.5 14t14.5 39t-15 39t-38 14
t-38 -14t-15 -39q0 -53 53 -53zM481 210q23 0 38 14t15 39t-15 39t-38 14t-38 -14t-15 -39q0 -53 53 -53z" />
    <glyph glyph-name="etone_shn" unicode="&#x108d;" 
d="M-572 -175v68h473v-68h-473z" />
    <glyph glyph-name="fa_rpg" unicode="&#x108e;" horiz-adv-x="673" 
d="M337 -10q-87 0 -150.5 37t-97.5 100t-34 142q0 81 35 143.5t97.5 98t145.5 35.5q86 0 150 -35.5t99.5 -98t35.5 -143.5t-35.5 -144t-99 -99t-146.5 -36zM337 473q-54 0 -94 -20t-65 -58q34 -32 75 -49.5t86 -17.5t84 17t71 47q-23 38 -63.5 59.5t-93.5 21.5zM338 64
q58 0 100 26.5t65 73t23 107.5q0 27 -5 51q-36 -29 -81.5 -47.5t-100.5 -18.5q-60 0 -106 20t-82 49q-5 -25 -5 -54q0 -94 52 -150.5t140 -56.5z" />
    <glyph glyph-name="tone5_rpg" unicode="&#x108f;" horiz-adv-x="346" 
d="M175 325q-48 0 -80 27.5t-32 79.5q0 49 32 77t80 28q49 0 79 -28t30 -78q0 -51 -30 -78.5t-79 -27.5zM174 377q53 0 53 54q0 24 -15 38t-38 14t-38 -14t-15 -38q0 -26 15 -40t38 -14zM248 -152h-73l-72 133q-20 37 -30 64.5t-10 50.5q0 47 31.5 76.5t81.5 29.5
q45 0 76.5 -27.5t31.5 -79.5q0 -51 -30.5 -78.5t-79.5 -27.5h-5zM173 41q24 0 38.5 14t14.5 40q0 25 -14 38.5t-39 13.5t-39.5 -13.5t-14.5 -38.5q0 -21 14.5 -37.5t39.5 -16.5z" />
    <glyph glyph-name="zero_shn" unicode="&#x1090;" horiz-adv-x="761" 
d="M383 -467q-136 0 -214 75.5t-78 227.5v418q0 89 34 154.5t98.5 101.5t157.5 36q91 0 155.5 -35.5t99 -101t34.5 -155.5v-428q0 -89 -34 -155t-98 -102t-155 -36zM381 -396q97 0 150.5 59.5t53.5 166.5v420q0 106 -53 166.5t-151 60.5q-101 0 -153 -61.5t-52 -165.5v-414
q0 -122 55 -177t150 -55z" />
    <glyph glyph-name="one_shn" unicode="&#x1091;" horiz-adv-x="646" 
d="M285 -467v878l-195 -102l-33 59l317 170v-879l181 103l34 -59z" />
    <glyph glyph-name="two_shn" unicode="&#x1092;" horiz-adv-x="678" 
d="M103 -467q-6 23 -9 43.5t-3 47.5q0 76 30.5 134.5t85 114t125.5 119.5q72 66 117 115t66.5 94t21.5 96q0 79 -47.5 129.5t-136.5 50.5q-53 0 -95 -24.5t-66.5 -67.5t-24.5 -98v-28h-76v278h76v-78q29 38 76 62.5t123 24.5q77 0 134.5 -30.5t89.5 -86t32 -129.5
q0 -54 -20.5 -105t-69 -109.5t-132.5 -132.5q-84 -75 -133 -129.5t-69.5 -100t-20.5 -93.5q0 -35 3.5 -58.5t9.5 -38.5h-87z" />
    <glyph glyph-name="three_shn" unicode="&#x1093;" horiz-adv-x="720" 
d="M17 -467l399 1003h94l-191 -480q14 5 31.5 8t44.5 3q137 0 206 -74.5t69 -218.5v-241h-85v237q0 226 -204 226q-27 0 -49.5 -5t-42.5 -14l-178 -444h-94z" />
    <glyph glyph-name="four_shn" unicode="&#x1094;" horiz-adv-x="734" 
d="M421 -467v569q0 39 1 87.5t2.5 92.5t4.5 69h-4q-13 -40 -24.5 -80.5t-27.5 -79.5l-262 -648h-94l399 993h94v-877l181 103l34 -59z" />
    <glyph glyph-name="five_shn" unicode="&#x1095;" horiz-adv-x="718" 
d="M324 -467q-81 0 -141.5 37.5t-93.5 102.5t-33 148q0 88 42 150.5t115 95.5t166 33h131v436h89v-436h112v-73h-112v-184q0 -93 -33 -163t-94.5 -108.5t-147.5 -38.5zM327 -393q84 0 133.5 63t49.5 177v180h-114q-123 0 -186.5 -57t-63.5 -151q0 -95 49 -153.5t132 -58.5z
" />
    <glyph glyph-name="six_shn" unicode="&#x1096;" horiz-adv-x="718" 
d="M510 -467v467h-142q-100 0 -169.5 34t-106 94.5t-36.5 140.5q0 79 33 141.5t93.5 99t141.5 36.5q86 0 147.5 -38.5t94.5 -108t33 -163.5v-163h112v-73h-112v-467h-89zM374 73h136v159q0 114 -49 177.5t-134 63.5q-83 0 -132 -55.5t-49 -146.5q0 -198 228 -198z" />
    <glyph glyph-name="seven_shn" unicode="&#x1097;" horiz-adv-x="555" 
d="M31 -467l370 930h-349v73h472l-370 -931h357v-72h-480z" />
    <glyph glyph-name="eight_shn" unicode="&#x1098;" horiz-adv-x="653" 
d="M329 -467q-79 0 -140 34.5t-95 96t-34 141.5q0 74 33.5 139.5t95.5 99.5q-59 34 -94 94.5t-35 148.5q0 75 32 145t92 114l51 -64q-43 -33 -66 -81t-23 -114q0 -97 50.5 -152.5t130.5 -55.5q79 0 129 55t50 153q0 66 -22.5 114t-66.5 81l52 64q59 -44 91 -115t32 -144
q0 -88 -36 -148.5t-94 -94.5q60 -33 95 -97t35 -142q0 -74 -32 -136t-91 -99t-140 -37zM327 -393q54 0 94.5 25t62.5 69.5t22 102.5t-21 103.5t-61 71.5t-96 26q-86 0 -134 -56t-48 -145t50 -143t131 -54z" />
    <glyph glyph-name="nine_shn" unicode="&#x1099;" horiz-adv-x="653" 
d="M184 -467q-57 41 -90.5 111.5t-33.5 148.5q0 87 35 148t94 95q-61 34 -95 99t-34 139q0 79 33.5 140.5t94 96.5t141.5 35q80 0 139 -36t91.5 -98t32.5 -138q0 -77 -35.5 -140.5t-94.5 -97.5q58 -34 94 -95t36 -148q0 -51 -15.5 -100.5t-43 -91t-64.5 -68.5l-52 64
q44 34 66.5 82t22.5 114q0 95 -49 151.5t-130 56.5q-82 0 -131.5 -57t-49.5 -151q0 -66 23 -114t66 -82zM328 75q56 0 95.5 26t61 71t21.5 103q0 59 -23 104t-63 69.5t-93 24.5q-81 0 -131 -53.5t-50 -144.5q0 -89 48 -144.5t134 -55.5z" />
    <glyph glyph-name="tone1_khm" unicode="&#x109a;" horiz-adv-x="346" 
d="M172 325q-49 0 -79 27.5t-30 78.5q0 50 30 78t79 28q48 0 79.5 -28t31.5 -77q0 -52 -31.5 -79.5t-79.5 -27.5zM173 377q24 0 38.5 14t14.5 40q0 24 -15 38t-38 14t-38 -14t-15 -38q0 -54 53 -54z" />
    <glyph glyph-name="tone3_khm" unicode="&#x109b;" horiz-adv-x="347" 
d="M99 543l79 141h-5q-49 0 -79.5 27.5t-30.5 78.5q0 52 31.5 79.5t76.5 27.5q49 0 81 -29.5t32 -76.5q0 -23 -10 -50.5t-30 -64.5l-72 -133h-73zM174 736q26 0 40 16.5t14 37.5q0 25 -14.5 38.5t-39.5 13.5t-39 -13.5t-14 -38.5q0 -26 14.5 -40t38.5 -14z" />
    <glyph glyph-name="_a_atn" unicode="&#x109c;" horiz-adv-x="434" 
d="M172 548q45 0 119 -40l133 -72v-73l-141 80v-4q0 -48 -31.5 -75.5t-79.5 -27.5q-49 0 -79 28t-30 78q0 51 30 78.5t79 27.5zM173 495q-26 0 -39.5 -14t-13.5 -39t15 -39t38 -14t38 14t15 39t-14.5 39t-38.5 14zM172 213q45 0 119 -40l133 -72v-73l-141 80v-4
q0 -48 -31.5 -75.5t-79.5 -27.5q-49 0 -79 28t-30 78q0 51 30 78.5t79 27.5zM173 160q-26 0 -39.5 -14t-13.5 -39t15 -39t38 -14t38 14t15 39t-14.5 39t-38.5 14z" />
    <glyph glyph-name="_ai_atn" unicode="&#x109d;" 
d="M-162 387v387q0 82 -38 120t-99 38q-65 0 -101 -35t-36 -93v-6h-77v6q0 60 27 105t74.5 69.5t110.5 24.5q100 0 158 -57.5t58 -166.5v-392h-77z" />
    <glyph glyph-name="sone_shn" unicode="&#x109e;" horiz-adv-x="336" 
d="M161 651q-49 0 -79 28t-30 79q0 50 30 77.5t79 27.5q48 0 79.5 -27.5t31.5 -77.5q0 -51 -31 -79t-80 -28zM162 704q23 0 38 14.5t15 39.5t-15 38.5t-38 13.5t-38 -13.5t-15 -38.5t13.5 -39.5t39.5 -14.5zM157 -467v935h-126v68h214v-935h125v-68h-213z" />
    <glyph glyph-name="exclam_shn" unicode="&#x109f;" horiz-adv-x="954" 
d="M683 -467q-81 0 -129 47.5t-48 150.5v525q0 105 -50 161t-129 56t-130 -57t-51 -160q0 -67 23 -117t66 -85l-51 -64q-36 24 -65.5 65t-46.5 93t-17 110q0 86 36 151t97.5 101t138.5 36q83 0 143.5 -37t93.5 -102t33 -149v-535q0 -116 90 -116q44 0 66 31.5t22 85.5v500
q0 122 -34 208t-118 154q-47 38 -77 65.5t-46.5 52t-23.5 50.5t-7 61q0 50 25 93t69.5 69t102.5 26q72 0 121.5 -31t71.5 -88l-68 -35q-36 87 -120 87q-52 0 -84.5 -35t-32.5 -86q0 -69 78 -128q85 -63 135.5 -130.5t73 -150t22.5 -189.5v-487q0 -95 -47.5 -146t-132.5 -51z
" />
    <glyph glyph-name="uni200B" unicode="&#x200b;" 
 />
    <glyph glyph-name="afii61664" unicode="&#x200c;" 
d="M-18 89v725h36v-725h-36z" />
    <glyph glyph-name="afii301" unicode="&#x200d;" 
d="M-18 89v579l-65 -66l-24 23l84 83l-84 82l24 24l83 -84l83 84l24 -24l-84 -82l84 -83l-24 -23l-65 66v-579h-36z" />
    <glyph glyph-name="quoteleft" unicode="&#x2018;" horiz-adv-x="347" 
d="M176 402q-50 0 -81.5 29t-31.5 77t26.5 101t104.5 115h73q-33 -27 -61 -54t-49 -56q4 1 8.5 1h8.5q49 0 79.5 -27.5t30.5 -78.5q0 -52 -31.5 -79.5t-76.5 -27.5zM173 457q25 0 39 13.5t14 38.5q0 26 -14.5 40t-38.5 14q-25 0 -39.5 -16.5t-14.5 -37.5q0 -25 14.5 -38.5
t39.5 -13.5z" />
    <glyph glyph-name="quoteright" unicode="&#x2019;" horiz-adv-x="347" 
d="M80 402q33 27 61 54t49 56q-4 -1 -8.5 -1h-8.5q-49 0 -79.5 27.5t-30.5 78.5q0 52 31.5 79.5t76.5 27.5q49 0 81 -29t32 -77t-26.5 -101t-104.5 -115h-73zM174 563q26 0 40 16.5t14 37.5q0 25 -14.5 38.5t-39.5 13.5t-39 -13.5t-14 -38.5q0 -26 14.5 -40t38.5 -14z" />
    <glyph glyph-name="quotedblleft" unicode="&#x201c;" horiz-adv-x="608" 
d="M176 402q-50 0 -81.5 29t-31.5 77t26.5 101t104.5 115h73q-33 -27 -61 -54t-49 -56q4 1 8.5 1h8.5q49 0 79.5 -27.5t30.5 -78.5q0 -52 -31.5 -79.5t-76.5 -27.5zM437 402q-49 0 -81 29t-32 77t26.5 101t104.5 115h73q-33 -27 -61 -54t-49 -56q4 1 8.5 1h8.5
q49 0 79.5 -27.5t30.5 -78.5q0 -52 -31.5 -79.5t-76.5 -27.5zM173 457q25 0 39 13.5t14 38.5q0 26 -14.5 40t-38.5 14q-25 0 -39.5 -16.5t-14.5 -37.5q0 -25 14.5 -38.5t39.5 -13.5zM434 457q25 0 39 13.5t14 38.5q0 26 -14.5 40t-38.5 14q-26 0 -40 -16.5t-14 -37.5
q0 -25 14.5 -38.5t39.5 -13.5z" />
    <glyph glyph-name="quotedblright" unicode="&#x201d;" horiz-adv-x="608" 
d="M80 402q33 27 61 54t49 56q-4 -1 -8.5 -1h-8.5q-49 0 -79.5 27.5t-30.5 78.5q0 52 31.5 79.5t76.5 27.5q49 0 81 -29t32 -77t-26.5 -101t-104.5 -115h-73zM341 402q33 27 61 54t49 56q-4 -1 -8.5 -1h-8.5q-49 0 -79.5 27.5t-30.5 78.5q0 52 31.5 79.5t76.5 27.5
q50 0 81.5 -29t31.5 -77t-26.5 -101t-104.5 -115h-73zM174 563q26 0 40 16.5t14 37.5q0 25 -14.5 38.5t-39.5 13.5t-39 -13.5t-14 -38.5q0 -26 14.5 -40t38.5 -14zM435 563q25 0 39.5 16.5t14.5 37.5q0 25 -14.5 38.5t-39.5 13.5t-39 -13.5t-14 -38.5q0 -26 14.5 -40
t38.5 -14z" />
    <glyph glyph-name="uni25CC" unicode="&#x25cc;" horiz-adv-x="594" 
d="M297 487q-26 0 -26 27q0 26 26 26t26 -26q0 -27 -26 -27zM383 470q-28 0 -28 26q0 27 28 27q25 0 25 -27q0 -26 -25 -26zM212 470q-26 0 -26 26q0 27 26 27q27 0 27 -27q0 -26 -27 -26zM455 422q-27 0 -27 26q0 27 27 27q25 0 25 -27q0 -26 -25 -26zM140 422
q-26 0 -26 25q0 28 26 28q27 0 27 -27q0 -26 -27 -26zM502 349q-26 0 -26 27q0 26 27 26q26 0 26 -26q0 -27 -27 -27zM93 349q-28 0 -28 27q0 26 27 26q26 0 26 -26q0 -27 -25 -27zM521 265q-27 0 -27 26t27 26q25 0 25 -26t-25 -26zM75 265q-27 0 -27 26t27 26q26 0 26 -26
t-26 -26zM502 180q-26 0 -26 26q0 27 26 27q27 0 27 -27q0 -26 -27 -26zM92 180q-27 0 -27 26q0 27 27 27q26 0 26 -27q0 -26 -26 -26zM455 107q-27 0 -27 26q0 27 27 27q25 0 25 -27q0 -26 -25 -26zM140 107q-26 0 -26 26q0 27 26 27q27 0 27 -27q0 -26 -27 -26zM383 60
q-28 0 -28 25q0 27 28 27q25 0 25 -27q0 -25 -25 -25zM212 60q-26 0 -26 25q0 27 26 27q27 0 27 -25q0 -27 -27 -27zM297 42q-26 0 -26 27q0 26 26 26t26 -26q0 -27 -26 -27z" />
    <glyph glyph-name="uA92E" unicode="&#xa92e;" horiz-adv-x="772" 
d="M59 231l-21 10q13 37 49 66t86 48t104.5 29t105.5 10q53 0 109 -10t106 -29.5t86.5 -48t49.5 -65.5l-21 -10q-29 33 -83.5 52.5t-119.5 27.5t-125 8q-61 0 -125 -8t-118 -27t-83 -53z" />
    <glyph glyph-name="gha_shn" unicode="&#xa9e0;" horiz-adv-x="676" 
d="M325 -10q-108 0 -174.5 45t-95.5 119q49 33 111.5 56.5t143.5 23.5q60 0 112 -16t92 -39q16 39 16 87q0 64 -26.5 111t-73 73t-106.5 26q-40 0 -68.5 -4.5t-47.5 -11.5q28 -9 46.5 -33t18.5 -59q0 -44 -32.5 -71.5t-78.5 -27.5q-51 0 -79 31.5t-28 74.5q0 52 34.5 90.5
t95.5 59.5t140 21q89 0 155.5 -35.5t103.5 -98.5t37 -145q0 -79 -37.5 -142t-104.5 -99t-154 -36zM163 333q18 0 30 12.5t12 28.5q0 18 -12 30t-30 12q-17 0 -29 -12t-12 -30q0 -16 12 -28.5t29 -12.5zM154 126q26 -32 66.5 -47t105.5 -15q48 0 85.5 14.5t63.5 40.5
q-33 20 -72.5 32.5t-95.5 12.5q-45 0 -83 -9t-70 -29z" />
    <glyph glyph-name="cha_shn" unicode="&#xa9e1;" horiz-adv-x="1127" 
d="M300 -10q-56 0 -106.5 20.5t-88 57t-56.5 85.5l70 36q28 -62 77.5 -93.5t105.5 -31.5t98.5 27t66.5 73t24 102q0 35 -9 68q-35 -30 -83.5 -48.5t-114.5 -18.5q-55 0 -114.5 20.5t-128.5 66.5q15 59 54 102t92 66.5t113 23.5q90 0 153 -37t96 -100.5t33 -141.5
q0 -33 -6 -65q36 -58 85 -97.5t125 -39.5q60 0 104 26t67.5 72.5t23.5 106.5q0 92 -52 147t-139 55q-60 0 -100 -18l-32 66q29 14 64 20t82 6q78 0 138.5 -34.5t95 -97t34.5 -146.5q0 -82 -37 -144.5t-102 -98t-150 -35.5q-77 0 -139.5 31t-103.5 91q-34 -56 -95 -89
t-145 -33zM136 382q34 -17 72 -29.5t73 -12.5q61 0 101.5 16.5t69.5 43.5q-22 32 -59 52t-90 20q-47 0 -92 -22.5t-75 -67.5z" />
    <glyph glyph-name="jha_shn" unicode="&#xa9e2;" horiz-adv-x="1127" 
d="M305 -10q-89 0 -158 45t-97 118l70 36q27 -62 75 -93.5t111 -31.5q58 0 101.5 27.5t67 74t23.5 104.5q0 60 -24 105.5t-67 71t-101 25.5q-63 0 -111 -31.5t-75 -93.5l-70 36q28 74 97 118.5t157 44.5t151.5 -36t98.5 -98t35 -139q0 -63 -23 -119q41 -43 92.5 -66
t118.5 -23q75 0 125.5 35t68.5 100q-129 12 -202.5 97.5t-73.5 229.5q23 7 51 13t58 6q82 0 142 -36.5t93 -99.5t33 -142q0 -81 -34 -144t-99 -98.5t-158 -35.5q-87 0 -149 29t-105 69q-36 -44 -91.5 -71t-130.5 -27zM795 472h-8.5h-8.5q5 -90 59 -141t143 -60
q0 89 -46.5 145t-138.5 56z" />
    <glyph glyph-name="nna_shn" unicode="&#xa9e3;" horiz-adv-x="1129" 
d="M315 -10q-101 0 -166 45t-94 119q36 28 81.5 50.5t112.5 36t168 13.5h91v12q0 96 -53 153t-141 57q-36 0 -62 -4.5t-44 -11.5q28 -8 46.5 -32.5t18.5 -59.5q0 -44 -32.5 -71.5t-78.5 -27.5q-51 0 -79 31.5t-28 74.5q0 52 34 90.5t93 59.5t133 21q83 0 145.5 -33t97.5 -90
q35 56 97.5 89.5t148.5 33.5q55 0 105 -20.5t87.5 -57t56.5 -85.5l-70 -36q-28 62 -77.5 93.5t-103.5 31.5q-92 0 -145 -51t-59 -135q1 -9 1 -19v-13h113q88 0 148.5 -7t107 -22.5t93.5 -42.5q-15 -59 -54 -102t-92 -66.5t-111 -23.5q-87 0 -149.5 33.5t-97.5 89.5
q-36 -56 -98 -89.5t-144 -33.5zM163 333q18 0 30 12.5t12 28.5q0 18 -12 30t-30 12q-17 0 -29 -12t-12 -30q0 -16 12 -28.5t29 -12.5zM154 126q50 -62 162 -62q71 0 116 33t63 87h-81q-76 0 -124 -6t-79.5 -19t-56.5 -33zM715 184h-103q18 -50 63 -85t126 -35
q46 0 90.5 22.5t74.5 67.5q-23 8 -51.5 15t-75.5 11t-124 4z" />
    <glyph glyph-name="bha_shn" unicode="&#xa9e4;" horiz-adv-x="1124" 
d="M344 -10q-85 0 -150 35.5t-102 98t-37 144.5q0 84 34.5 146.5t95 97t138.5 34.5q47 0 82 -6t64 -20l-32 -66q-41 18 -100 18q-87 0 -139 -55t-52 -147q0 -60 24 -106.5t67.5 -72.5t103.5 -26q48 0 83.5 17.5t64 46t54.5 63.5q-11 39 -11 81q0 78 33.5 139.5t98 97.5
t155.5 36q58 0 109 -20.5t89.5 -57t56.5 -85.5l-70 -36q-28 62 -77.5 93.5t-109.5 31.5q-57 0 -101 -24t-68.5 -68.5t-24.5 -105.5q0 -25 4 -49q40 20 89.5 32t108.5 12q65 0 126.5 -20.5t130.5 -66.5q-16 -59 -55 -102t-95 -66.5t-123 -23.5q-74 0 -133 32.5t-96 86.5
q-45 -58 -103 -88.5t-133 -30.5zM828 196q-57 0 -100 -11t-77 -30q22 -39 60 -65t95 -26q58 0 104.5 22.5t76.5 67.5q-34 17 -74 29.5t-85 12.5z" />
    <glyph glyph-name="saw_shn" unicode="&#xa9e5;" 
d="M-472 609l-44 57q26 18 54 32.5t61 23.5q-39 25 -62 60.5t-23 84.5q0 77 50 121.5t132 44.5q51 0 91.5 -21t63.5 -60l-57 -44q-16 27 -41 42.5t-56 15.5q-47 0 -75 -26t-28 -73q0 -31 14 -53t34.5 -36t40 -22.5t31.5 -12.5q50 -17 91 -30t84 -42l-44 -57q-43 26 -79 36
t-67 10q-34 0 -74.5 -10t-96.5 -41z" />
    <glyph glyph-name="redup_tlg" unicode="&#xa9e6;" horiz-adv-x="349" 
d="M53 693l-49 57l196 194l50 -55zM148 589l-49 57l196 194l50 -55z" />
    <glyph glyph-name="nya_tlg" unicode="&#xa9e7;" horiz-adv-x="1104" 
d="M510 -467v725q0 101 -46 157.5t-133 56.5t-132.5 -39t-45.5 -97q0 -32 14 -60.5t55 -64.5q28 -24 41.5 -42t18 -35.5t4.5 -39.5q0 -24 -13.5 -48t-39.5 -40t-63 -16q-38 0 -62.5 14t-54.5 46l50 51q17 -20 31 -28.5t29 -8.5q17 0 27 10.5t10 24.5q0 20 -13 35.5t-37 33.5
q-42 32 -64.5 74t-22.5 94q0 62 32.5 109.5t91 74t137.5 26.5q80 0 139.5 -31.5t93.5 -88.5q38 59 99 89.5t135 30.5q85 0 147 -37t96 -100t34 -141q0 -84 -33.5 -146.5t-92 -97t-133.5 -34.5q-46 0 -79.5 6t-61.5 20l32 66q39 -18 95 -18q82 0 132 54.5t50 147.5
t-49.5 149.5t-134.5 56.5q-59 0 -112.5 -36t-89.5 -103q7 -35 7 -75v-657h125v-68h-213z" />
    <glyph glyph-name="fa_tlg" unicode="&#xa9e8;" horiz-adv-x="1124" 
d="M344 -10q-85 0 -150 35.5t-102 98t-37 144.5q0 84 34.5 146.5t95 97t138.5 34.5q47 0 82 -6t64 -20l-32 -66q-41 18 -100 18q-87 0 -139 -55t-52 -147q0 -60 24 -106.5t67.5 -72.5t103.5 -26q48 0 83.5 17.5t64 46t54.5 63.5q-11 39 -11 81q0 78 33.5 139.5t98 97.5
t155.5 36q58 0 109 -20.5t89.5 -57t56.5 -85.5l-70 -36q-28 62 -77.5 93.5t-109.5 31.5q-57 0 -101 -24t-68.5 -68.5t-24.5 -105.5q0 -25 4 -49q40 20 89.5 32t108.5 12q65 0 126.5 -20.5t130.5 -66.5q-16 -59 -55 -102t-95 -66.5t-123 -23.5q-49 0 -91 14.5t-76 39.5v-511
h-213v68h125v478q-42 -44 -94 -66.5t-116 -22.5zM828 196q-57 0 -100 -11t-77 -30q22 -39 60 -65t95 -26q58 0 104.5 22.5t76.5 67.5q-34 17 -74 29.5t-85 12.5z" />
    <glyph glyph-name="ga_tlg" unicode="&#xa9e9;" horiz-adv-x="1126" 
d="M184 -10q-59 42 -94 114t-35 154q0 84 36.5 149t99 102t142.5 37q73 0 132 -31t95 -86q40 58 100 87.5t133 29.5q85 0 147 -37t96 -100t34 -141q0 -84 -33.5 -146.5t-92 -97t-133.5 -34.5q-46 0 -79.5 6t-61.5 20l32 66q39 -18 95 -18q82 0 132 54.5t50 147.5
t-49.5 149.5t-134.5 56.5q-57 0 -109 -33.5t-87 -95.5q10 -41 10 -85q0 -54 -16.5 -105t-46.5 -93t-70 -70l-50 64q44 35 67.5 84.5t23.5 117.5q0 66 -23.5 114.5t-65.5 75t-95 26.5q-55 0 -97 -26.5t-66 -75t-24 -114.5q0 -68 23 -117.5t66 -84.5zM791 193q-25 0 -43 16
t-18 52t17.5 51.5t43.5 15.5q28 0 45.5 -15.5t17.5 -51.5q0 -35 -18 -51.5t-45 -16.5z" />
    <glyph glyph-name="gha_tlg" unicode="&#xa9ea;" horiz-adv-x="1126" 
d="M309 -10q-74 0 -131.5 34.5t-90 97t-32.5 146.5q0 78 33 141t93.5 100t144.5 37q76 0 130.5 -33.5t90 -91.5t55.5 -131q29 -110 77.5 -167.5t130.5 -57.5q48 0 86.5 25t61 71.5t22.5 108.5q0 94 -49 148t-128 54q-55 0 -92 -18l-32 66q28 14 60.5 20t77.5 6
q73 0 130.5 -34t90.5 -96.5t33 -147.5q0 -80 -33.5 -142.5t-93.5 -99t-137 -36.5q-116 0 -181 66.5t-102 188.5t-85 174t-118 52q-79 0 -127 -56.5t-48 -148.5t48.5 -147t128.5 -55q55 0 92 18l32 -66q-28 -14 -60.5 -20t-77.5 -6zM806 208q-26 0 -43.5 16t-17.5 52
t17.5 51.5t43.5 15.5q28 0 45.5 -15.5t17.5 -51.5q0 -35 -18 -51.5t-45 -16.5z" />
    <glyph glyph-name="ja_tlg" unicode="&#xa9eb;" horiz-adv-x="1124" 
d="M314 -10q-75 0 -133.5 34.5t-92 97t-33.5 146.5q0 78 34 141t96 100t147 37q72 0 132.5 -29.5t99.5 -86.5q35 53 94.5 84.5t138.5 31.5q81 0 142 -36.5t95.5 -99.5t34.5 -142q0 -80 -34 -142.5t-94.5 -99t-140.5 -36.5q-86 0 -149.5 35t-98.5 97t-35 142q0 41 9 79
q-35 62 -87 95.5t-109 33.5q-85 0 -134.5 -56.5t-49.5 -149.5t50 -147.5t132 -54.5q56 0 95 18l32 -66q-29 -14 -62 -20t-79 -6zM797 64q51 0 92 25t65 70t24 107t-23 108.5t-64 72t-95 25.5q-90 0 -138.5 -58t-48.5 -152q0 -88 49.5 -143t138.5 -55zM795 206q-25 0 -43 16
t-18 52t17.5 51.5t43.5 15.5q28 0 45.5 -15.5t17.5 -51.5q0 -35 -18 -51.5t-45 -16.5z" />
    <glyph glyph-name="sa_tlg" unicode="&#xa9ec;" horiz-adv-x="1255" 
d="M333 -10q-84 0 -146.5 36.5t-97 100t-34.5 142.5q0 80 33.5 142.5t91.5 98.5t130 36q28 0 48.5 -2t40.5 -7l-21 -70q-13 5 -26.5 5.5t-28.5 0.5q-51 0 -91 -25t-63 -70.5t-23 -106.5t24 -107.5t67 -73t100 -26.5q45 0 80 20.5t54.5 55.5t19.5 78q0 28 -5 45t-10 32.5
t-5 40.5q0 47 43 81t113 34q71 0 114 -34t43 -81q0 -22 -5 -39t-10 -35t-5 -44q0 -42 20 -77t54.5 -56t79.5 -21q58 0 100.5 26.5t66.5 73t24 107.5q0 62 -23.5 107.5t-63.5 70t-91 24.5q-15 0 -28.5 -0.5t-27.5 -5.5l-20 70q20 5 40.5 7t49.5 2q73 0 131 -36.5t91 -99
t33 -141.5q0 -81 -35 -144t-98 -99t-146 -36q-69 0 -123.5 29.5t-86.5 78t-32 106.5q0 40 8 69t8 49q0 26 -21.5 38.5t-47.5 12.5q-24 0 -45 -12.5t-21 -38.5q0 -22 8 -50t8 -68q0 -58 -31.5 -107t-86.5 -78t-125 -29zM936 203q-26 0 -43.5 16t-17.5 52t17.5 51.5t43.5 15.5
q28 0 45.5 -15.5t17.5 -51.5q0 -35 -18 -51.5t-45 -16.5z" />
    <glyph glyph-name="dda_tlg" unicode="&#xa9ed;" horiz-adv-x="1124" 
d="M324 -10q-80 0 -140.5 36.5t-94.5 99t-34 142.5q0 79 34 142t95.5 99.5t142.5 36.5q79 0 138.5 -31.5t94.5 -84.5q39 57 99.5 86.5t132.5 29.5q85 0 147 -37t96 -100t34 -141q0 -84 -33.5 -146.5t-91.5 -97t-134 -34.5q-46 0 -79 6t-62 20l32 66q39 -18 95 -18
q82 0 132 54.5t50 147.5t-49.5 149.5t-134.5 56.5q-57 0 -109 -33.5t-87 -95.5q9 -38 9 -79q0 -80 -35 -142t-98.5 -97t-149.5 -35zM327 64q89 0 138.5 55t49.5 143q0 94 -48.5 152t-138.5 58q-54 0 -95 -25.5t-64 -72t-23 -108.5t24 -107t65 -70t92 -25zM333 204
q-27 0 -44.5 16.5t-17.5 51.5q0 36 17 51.5t45 15.5q25 0 44 -16t19 -51t-19 -51.5t-44 -16.5zM790 204q-26 0 -43.5 16t-17.5 52t17.5 51.5t43.5 15.5q28 0 45.5 -15.5t17.5 -51.5q0 -35 -18 -51.5t-45 -16.5z" />
    <glyph glyph-name="ddha_tlg" unicode="&#xa9ee;" horiz-adv-x="1125" 
d="M329 -10q-83 0 -144.5 36.5t-95.5 99t-34 142.5q0 79 34.5 142t97 99.5t145.5 36.5q74 0 130.5 -28.5t92.5 -76.5q45 52 100.5 78t136.5 26q85 0 147.5 -36.5t96.5 -99.5t34 -141q0 -82 -34.5 -144.5t-98 -98t-150.5 -35.5q-78 0 -135.5 28t-94.5 79q-37 -50 -95.5 -78.5
t-132.5 -28.5zM332 64q86 0 135.5 56t49.5 146q0 92 -48.5 149t-135.5 57q-84 0 -135.5 -56t-51.5 -150q0 -62 24.5 -107t66.5 -70t95 -25zM609 268q0 -49 -13 -93q25 -51 75 -81.5t117 -30.5q88 0 139.5 56.5t51.5 146.5q0 95 -48.5 150.5t-136.5 55.5q-61 0 -110.5 -22.5
t-88.5 -86.5q14 -45 14 -95zM333 204q-27 0 -44.5 16.5t-17.5 51.5q0 36 17 51.5t45 15.5q25 0 44 -16t19 -51t-19 -51.5t-44 -16.5zM784 204q-27 0 -44.5 16.5t-17.5 51.5q0 36 17 51.5t45 15.5q26 0 44.5 -16t18.5 -51t-19 -51.5t-44 -16.5z" />
    <glyph glyph-name="nna_tlg" unicode="&#xa9ef;" horiz-adv-x="668" 
d="M228 -10q-37 20 -69 60t-51.5 93t-19.5 111q0 24 3 46q-49 30 -72 77t-23 99q0 17 2 31.5t3 28.5h83q-3 -22 -4 -34.5t-1 -22.5q0 -27 9 -54t24 -42q30 72 92.5 117.5t152.5 45.5q73 0 131 -37t91.5 -102t33.5 -149q0 -54 -16 -105.5t-45.5 -94t-67.5 -68.5l-51 64
q43 35 66 85t23 117q0 98 -46 157t-123 59q-63 0 -106 -36.5t-63 -89.5q82 -33 115.5 -77.5t33.5 -97.5t-29.5 -104t-75.5 -77zM400 213q-27 0 -44.5 16.5t-17.5 51.5q0 36 17 51.5t45 15.5q26 0 44.5 -16t18.5 -51t-19 -51.5t-44 -16.5zM168 256q0 -57 17 -100.5t42 -66.5
q17 17 22.5 39.5t5.5 41.5q0 28 -20 55.5t-67 45.5v-15z" />
    <glyph glyph-name="zero_tlg" unicode="&#xa9f0;" horiz-adv-x="761" 
d="M383 -9q-136 0 -214 75.5t-78 227.5v418q0 89 34 154.5t98.5 101.5t157.5 36q91 0 155.5 -35.5t99 -101t34.5 -155.5v-428q0 -89 -34 -155t-98 -102t-155 -36zM381 62q97 0 150.5 59.5t53.5 166.5v420q0 106 -53 166.5t-151 60.5q-101 0 -153 -61.5t-52 -165.5v-414
q0 -122 55 -177t150 -55z" />
    <glyph glyph-name="one_tlg" unicode="&#xa9f1;" horiz-adv-x="711" 
d="M224 721q-56 0 -92 32.5t-36 86.5q0 45 24.5 82t75.5 59t130 22q93 0 157.5 -36.5t98.5 -94.5t34 -124h-88q0 46 -22 88.5t-67 69.5t-114 27h-14q20 -17 32 -40t12 -49q0 -49 -32 -86t-99 -37zM224 789q25 0 39 15t14 36q0 24 -15 38t-37 14q-21 0 -36 -15t-15 -37
q0 -21 13 -36t37 -15zM334 -2l151 282q25 48 36 91t11 89q0 42 -18 80t-56 62t-99 24q-54 0 -98.5 -23t-65.5 -64q14 6 29.5 8t32.5 2q37 0 68 -17.5t50 -48t19 -70.5t-20 -72.5t-54 -51.5t-76 -19q-69 0 -111 44.5t-42 117.5q0 80 35 139t96 92t138 33q85 0 143 -33.5
t87.5 -87t29.5 -112.5q0 -61 -15.5 -112t-41.5 -99l-100 -186h125v-68h-254zM244 338q30 0 51 21t21 50q0 30 -21 51t-51 21q-29 0 -50 -21t-21 -51q0 -29 21 -50t50 -21z" />
    <glyph glyph-name="two_tlg" unicode="&#xa9f2;" horiz-adv-x="659" 
d="M346 -10q-82 0 -143 35.5t-94.5 98t-33.5 143.5q0 79 33.5 142t94 100t143.5 37q30 0 55.5 -5t48.5 -14l34 195q-34 -27 -75 -41t-88 -14q-84 0 -144.5 40.5t-94 113.5t-38.5 172h83q13 -124 60 -188t134 -64q63 0 103 29t66 85.5t43 138.5h83l-87 -521l-59 -52
q-17 19 -46.5 35t-78.5 16q-83 0 -131 -56t-48 -150q0 -91 48.5 -146.5t130.5 -55.5q58 0 103 31.5t70 93.5l70 -36q-26 -73 -91 -118t-151 -45z" />
    <glyph glyph-name="three_tlg" unicode="&#xa9f3;" horiz-adv-x="739" 
d="M368 -8q-79 0 -141.5 29t-99 80t-36.5 116q0 26 2.5 44.5t6.5 36.5l80 -18q-4 -13 -5 -25t-1 -25q0 -48 23.5 -86t66.5 -60t102 -22q58 0 102 22.5t69.5 63t25.5 93.5q0 43 -19.5 76t-52.5 52t-72 19q-26 0 -44 -4t-34.5 -8.5t-39.5 -4.5q-47 0 -81 35t-34 93t34 93
t81 35q25 0 41 -4.5t32.5 -8.5t44.5 -4q41 0 73.5 18.5t52 51.5t19.5 76q0 53 -25.5 93t-70 62.5t-102.5 22.5t-101.5 -21.5t-67 -59t-23.5 -85.5q0 -14 1 -26t5 -23l-80 -18q-4 18 -6.5 36t-2.5 42q0 65 36 116t98.5 80.5t142.5 29.5t143.5 -30.5t100 -86t36.5 -129.5
q0 -62 -29.5 -110.5t-78 -76.5t-107.5 -28q-41 0 -68 7.5t-50 7.5q-26 0 -38.5 -19t-12.5 -40q0 -23 12.5 -42t38.5 -19q19 0 48 7t70 7q57 0 106 -28t78.5 -76.5t29.5 -109.5q0 -74 -36 -129.5t-98.5 -86.5t-144.5 -31z" />
    <glyph glyph-name="four_tlg" unicode="&#xa9f4;" horiz-adv-x="739" 
d="M371 -8q-81 0 -144 31t-99 86.5t-36 129.5q0 61 29.5 109.5t78.5 76.5t106 28q40 0 69 -7t49 -7q26 0 38.5 19t12.5 42q0 21 -12.5 40t-38.5 19q-22 0 -50 -7.5t-68 -7.5q-58 0 -107 28t-78.5 76.5t-29.5 110.5q0 74 36.5 129.5t100 86t143.5 30.5t142.5 -29.5
t98.5 -80.5t36 -116q0 -24 -2 -42t-7 -36l-80 18q5 11 5.5 23t0.5 26q0 48 -23.5 85.5t-66.5 59t-102 21.5q-58 0 -102.5 -22.5t-70 -62.5t-25.5 -93q0 -43 19.5 -76t52.5 -51.5t73 -18.5q28 0 45 4t32.5 8.5t40.5 4.5q47 0 81 -35t34 -93t-34 -93t-81 -35q-22 0 -39 4.5
t-35 8.5t-44 4q-39 0 -71.5 -19t-52.5 -52t-20 -76q0 -53 25.5 -93.5t70 -63t101.5 -22.5q59 0 102 22t66.5 60t23.5 86q0 13 -0.5 25t-5.5 25l80 18q5 -18 7 -36.5t2 -44.5q0 -65 -36.5 -116t-99 -80t-141.5 -29z" />
    <glyph glyph-name="five_tlg" unicode="&#xa9f5;" horiz-adv-x="740" 
d="M220 -10q-36 24 -65.5 65t-46.5 93t-17 110v454q0 88 32.5 153.5t92 102t140.5 36.5q85 0 147 -37t95.5 -97t33.5 -129v-4h-85v4q0 53 -23 97.5t-64.5 71.5t-98.5 27q-85 0 -135 -59.5t-50 -163.5v-243q37 35 87 55t108 20q81 0 144 -37t98.5 -102t35.5 -149
q0 -55 -17 -107t-46 -94.5t-66 -66.5l-51 64q43 35 66 85t23 117q0 68 -24 116t-66 74t-97 26t-98 -26t-67 -74.5t-24 -115.5t23 -117t66 -85z" />
    <glyph glyph-name="six_tlg" unicode="&#xa9f6;" horiz-adv-x="740" 
d="M384 -10q-85 0 -147 37t-95.5 97t-33.5 129v4h85v-4q0 -53 23 -97.5t64.5 -71.5t98.5 -27q85 0 135 59.5t50 163.5v243q-37 -35 -87 -55t-108 -20q-81 0 -144 37t-98.5 102t-35.5 149q0 55 17 107t46 94.5t66 66.5l51 -64q-43 -35 -66 -85t-23 -117q0 -68 24 -116t66 -74
t97 -26t98 26t67 74.5t24 115.5t-23 117t-66 85l51 64q36 -24 65.5 -65t46.5 -93t17 -110v-454q0 -88 -32.5 -153.5t-92 -102t-140.5 -36.5z" />
    <glyph glyph-name="seven_tlg" unicode="&#xa9f7;" horiz-adv-x="677" 
d="M492 4v722q0 94 -45 150.5t-128 56.5q-55 0 -98 -23.5t-66 -67.5q9 8 26.5 11t35.5 3q37 0 68 -17.5t50 -48t19 -70.5t-20 -72.5t-54 -51.5t-76 -19q-69 0 -111 44.5t-42 117.5q0 79 35 138.5t96 92.5t138 33q82 0 140 -35.5t89 -98.5t31 -144v-653h125v-68h-213z
M204 645q30 0 51 21t21 50q0 30 -21 51t-51 21q-29 0 -50 -21t-21 -51q0 -29 21 -50t50 -21z" />
    <glyph glyph-name="eight_tlg" unicode="&#xa9f8;" horiz-adv-x="744" 
d="M369 -10q-86 0 -148.5 36t-96 99t-33.5 143q0 70 27 128.5t78 96.5q-44 42 -73.5 98t-29.5 134q0 79 34 142t98.5 100t153.5 37q59 0 110.5 -20.5t89 -57t54.5 -85.5l-70 -36q-26 62 -75 93.5t-111 31.5q-89 0 -141 -54t-52 -150q0 -70 23 -118.5t62 -77.5q48 16 103 16
q84 0 147.5 -37t98.5 -100t35 -141q0 -77 -35 -140t-99 -100.5t-150 -37.5zM372 64q55 0 98 25.5t67.5 71t24.5 105.5q0 62 -24 108t-66.5 72t-98.5 26q-91 0 -141 -56.5t-50 -149.5q0 -92 52 -147t138 -55z" />
    <glyph glyph-name="nine_tlg" unicode="&#xa9f9;" horiz-adv-x="1126" 
d="M326 -10q-84 0 -144.5 37t-93.5 100t-33 142h91q0 -91 48 -147.5t127 -56.5q47 0 86.5 23t72 80.5t55.5 160.5q22 96 87.5 156.5t178.5 60.5q83 0 144 -37t94 -100t33 -141q0 -77 -33 -140t-94.5 -100.5t-146.5 -37.5q-84 0 -146 39.5t-93 105.5q-36 -65 -93.5 -105
t-139.5 -40zM801 64q54 0 94.5 25.5t63 71t22.5 105.5q0 92 -48.5 149t-130.5 57q-83 0 -132 -56.5t-49 -149.5q0 -62 23 -107t63.5 -70t93.5 -25z" />
    <glyph glyph-name="lla_tlg" unicode="&#xa9fa;" horiz-adv-x="1126" 
d="M309 -10q-73 0 -130.5 34t-90.5 96.5t-33 147.5q0 80 33.5 142.5t93 99t137.5 36.5q116 0 181 -66.5t102 -188.5t85 -174t118 -52q79 0 127 56.5t48 148.5t-48.5 147t-128.5 55q-55 0 -92 -18l-32 66q28 14 60.5 20t77.5 6q74 0 131.5 -34.5t90 -97t32.5 -146.5
q0 -78 -33 -141t-93.5 -100t-144.5 -37q-76 0 -130.5 33.5t-90 91.5t-55.5 131q-29 110 -77.5 167.5t-130.5 57.5q-48 0 -86.5 -25t-61 -71.5t-22.5 -108.5q0 -94 49 -148t128 -54q55 0 92 18l32 -66q-28 -14 -60.5 -20t-77.5 -6zM333 204q-28 0 -45.5 15.5t-17.5 51.5
q0 35 18 51.5t45 16.5q25 0 43 -16t18 -52t-17.5 -51.5t-43.5 -15.5z" />
    <glyph glyph-name="da_tlg" unicode="&#xa9fb;" horiz-adv-x="1124" 
d="M324 -10q-80 0 -140.5 36.5t-94.5 99t-34 142.5q0 79 34 142t95.5 99.5t142.5 36.5q79 0 138.5 -31.5t94.5 -84.5q39 57 99.5 86.5t132.5 29.5q85 0 147 -37t96 -100t34 -141q0 -84 -33.5 -146.5t-91.5 -97t-134 -34.5q-46 0 -79 6t-62 20l32 66q39 -18 95 -18
q82 0 132 54.5t50 147.5t-49.5 149.5t-134.5 56.5q-57 0 -109 -33.5t-87 -95.5q9 -38 9 -79q0 -80 -35 -142t-98.5 -97t-149.5 -35zM327 64q89 0 138.5 55t49.5 143q0 94 -48.5 152t-138.5 58q-54 0 -95 -25.5t-64 -72t-23 -108.5t24 -107t65 -70t92 -25zM795 206
q-25 0 -43 16t-18 52t17.5 51.5t43.5 15.5q28 0 45.5 -15.5t17.5 -51.5q0 -35 -18 -51.5t-45 -16.5z" />
    <glyph glyph-name="dha_tlg" unicode="&#xa9fc;" horiz-adv-x="1125" 
d="M329 -10q-83 0 -144.5 36.5t-95.5 99t-34 142.5q0 79 34.5 142t97 99.5t145.5 36.5q74 0 130.5 -28.5t92.5 -76.5q45 52 100.5 78t136.5 26q85 0 147.5 -36.5t96.5 -99.5t34 -141q0 -82 -34.5 -144.5t-98 -98t-150.5 -35.5q-78 0 -135.5 28t-94.5 79q-37 -50 -95.5 -78.5
t-132.5 -28.5zM332 64q86 0 135.5 56t49.5 146q0 92 -48.5 149t-135.5 57q-84 0 -135.5 -56t-51.5 -150q0 -62 24.5 -107t66.5 -70t95 -25zM609 268q0 -49 -13 -93q25 -51 75 -81.5t117 -30.5q88 0 139.5 56.5t51.5 146.5q0 95 -48.5 150.5t-136.5 55.5q-61 0 -110.5 -22.5
t-88.5 -86.5q14 -45 14 -95zM785 204q-27 0 -44.5 16.5t-17.5 51.5q0 36 17 51.5t45 15.5q25 0 44 -16t19 -51t-19 -51.5t-44 -16.5z" />
    <glyph glyph-name="ba_tlg" unicode="&#xa9fd;" horiz-adv-x="676" 
d="M338 -10q-82 0 -146 37t-100.5 102t-36.5 149q0 82 35 154t94 114l51 -64q-43 -35 -66 -84.5t-23 -117.5q0 -100 53 -158t139 -58t138.5 58.5t52.5 157.5q0 68 -24.5 117.5t-71.5 84.5l50 64q42 -28 73 -70t48 -93t17 -105q0 -85 -37 -150t-101 -101.5t-145 -36.5z
M336 208q-26 0 -43.5 16t-17.5 52t17.5 51.5t43.5 15.5q28 0 45.5 -15.5t17.5 -51.5q0 -35 -18 -51.5t-45 -16.5z" />
    <glyph glyph-name="bha_tlg" unicode="&#xa9fe;" horiz-adv-x="1126" 
d="M326 -10q-84 0 -144.5 37t-93.5 100t-33 141q0 84 33.5 146.5t93.5 97t141 34.5v-74q-80 0 -128.5 -55t-48.5 -147t48 -148.5t127 -56.5q52 0 92.5 26t72.5 86q-38 82 -38 183q0 85 17.5 146.5t46.5 101.5l64 -44q-22 -32 -34.5 -79t-12.5 -123q0 -33 5 -64l1 3
q35 115 97 180t175 65q77 0 137 -36.5t93.5 -99t33.5 -142.5q0 -128 -77 -203t-217 -75q-77 0 -137.5 28.5t-102.5 78.5q-38 -50 -90 -78.5t-121 -28.5zM613 266q-14 -51 -32 -93q34 -53 85.5 -81t110.5 -28q99 0 151 54t52 148q0 62 -22.5 108.5t-61 71.5t-86.5 25
q-80 0 -125.5 -53.5t-71.5 -151.5zM793 204q-26 0 -43.5 15.5t-17.5 51.5t18 52t43 16q27 0 45 -16.5t18 -51.5q0 -36 -17.5 -51.5t-45.5 -15.5z" />
    <glyph glyph-name="ga_khm" unicode="&#xaa60;" horiz-adv-x="1125" 
d="M184 -10q-36 24 -65.5 65t-46.5 93t-17 110q0 85 36.5 150t100 101.5t143.5 36.5q74 0 132.5 -32.5t94.5 -88.5q37 48 93 84.5t136 36.5q86 0 148.5 -36t96.5 -99t34 -143q0 -79 -33 -142t-93 -99.5t-142 -36.5q-30 0 -61.5 6t-54.5 13q0 96 35 166.5t98.5 111.5
t149.5 49q-18 65 -66.5 100t-115.5 35q-43 0 -77.5 -18.5t-62 -48t-49.5 -62.5q10 -40 10 -84q0 -55 -17 -107t-47 -94.5t-67 -66.5l-51 64q44 35 67.5 85t23.5 117q0 101 -51.5 158.5t-130.5 57.5q-55 0 -98 -26t-67 -74.5t-24 -115.5t23 -117t66 -85zM793 64
q92 0 138.5 56t46.5 145q-89 -9 -146 -60t-63 -140q6 -1 12.5 -1h11.5z" />
    <glyph glyph-name="ca_khm" unicode="&#xaa61;" horiz-adv-x="1124" 
d="M170 -10q-38 0 -62.5 14t-54.5 46l50 51q17 -20 31 -28.5t29 -8.5q17 0 27 10.5t10 24.5q0 20 -13 35.5t-37 33.5q-42 32 -64.5 74t-22.5 94q0 62 32.5 109.5t91 74t137.5 26.5q80 0 141.5 -33.5t96.5 -94.5q31 58 88.5 93t135.5 35q86 0 149.5 -37t98 -100t34.5 -141
q0 -82 -36 -144.5t-100.5 -98t-148.5 -35.5q-69 0 -124 33.5t-89 87.5q-16 -37 -39.5 -68t-53.5 -53l-51 64q40 35 65.5 84.5t25.5 117.5q0 67 -25.5 115.5t-67.5 74.5t-93 26q-87 0 -132.5 -39t-45.5 -97q0 -32 14 -60.5t55 -64.5q28 -24 41.5 -42t18 -35.5t4.5 -39.5
q0 -24 -13.5 -48t-39.5 -40t-63 -16zM786 64q58 0 100.5 25.5t66 71t23.5 105.5q0 92 -50.5 149t-138.5 57q-51 0 -91.5 -25.5t-63.5 -72t-23 -108.5q0 -60 22.5 -105.5t62.5 -71t92 -25.5z" />
    <glyph glyph-name="cha_khm" unicode="&#xaa62;" horiz-adv-x="880" 
d="M601 -10q-47 0 -78.5 18t-60 53t-65.5 88q-36 49 -68 49q-23 0 -49.5 -29.5t-55 -75t-57.5 -93.5h-76v536h88v-272q0 -26 -1.5 -53.5t-2.5 -52.5l2 -3q23 31 44.5 57.5t47 42.5t58.5 16q44 0 77.5 -23.5t67.5 -72.5q34 -50 60.5 -81t67.5 -31q38 0 68.5 28.5t48 76
t17.5 103.5q0 92 -45.5 147t-117.5 55q-17 0 -33 -1.5t-28 -5.5l-31 66q36 14 101 14q70 0 125.5 -34t87 -96t31.5 -147q0 -55 -16 -105t-46 -89t-71 -62t-90 -23z" />
    <glyph glyph-name="ja_khm" unicode="&#xaa63;" horiz-adv-x="1128" 
d="M172 -10q-39 0 -64 14t-56 46l50 51q33 -37 64 -37q18 0 29 11t11 25q0 26 -32 50q-54 41 -83 81.5t-29 104.5q0 94 64 152t204 58q83 0 147 -33.5t101 -91.5q30 57 87.5 91t136.5 34q84 0 145 -37t94 -100t33 -141q0 -83 -34 -145.5t-94 -97.5t-137 -35q-78 0 -134 32.5
t-88 88.5q-41 -79 -111 -120q-64 45 -97 108.5t-33 149.5q0 67 22 118.5t55 86.5q-41 18 -90 18q-89 0 -135.5 -38t-46.5 -98q0 -32 14.5 -60t57.5 -63t56 -60.5t13 -57.5q0 -25 -14 -49.5t-40.5 -40t-65.5 -15.5zM812 64q48 0 86.5 25.5t61 71t22.5 105.5q0 62 -22.5 108
t-63 72t-93.5 26q-57 0 -97 -27.5t-61.5 -74t-21.5 -104.5q0 -92 50.5 -147t138.5 -55zM426 249q0 -53 12 -89t40 -68q28 32 45.5 73t17.5 90q0 97 -57 157q-28 -31 -43 -74t-15 -89z" />
    <glyph glyph-name="jha_khm" unicode="&#xaa64;" horiz-adv-x="1126" 
d="M333 -10q-79 0 -142 37t-99.5 102t-36.5 149q0 82 35 154t94 114l51 -64q-43 -35 -66 -84.5t-23 -117.5q0 -66 24 -114.5t66.5 -75t96.5 -26.5t95.5 26.5t65 75t23.5 114.5q0 68 -23.5 117.5t-66.5 84.5l50 64q30 -20 53.5 -49t40.5 -63q33 52 89.5 82t133.5 30
q84 0 146 -37t96.5 -100t34.5 -141q0 -82 -36 -144.5t-99.5 -98t-144.5 -35.5t-138.5 35t-89.5 93q-35 -59 -94.5 -93.5t-135.5 -34.5zM794 64q55 0 96.5 25.5t65 71t23.5 105.5q0 92 -50 149t-134 57q-86 0 -136 -56t-50 -150q0 -92 51.5 -147t133.5 -55z" />
    <glyph glyph-name="nya_khm" unicode="&#xaa65;" horiz-adv-x="1104" 
d="M789 -10q78 0 136.5 35.5t91 98.5t32.5 145q0 81 -33.5 143.5t-94.5 98t-144 35.5q-82 0 -143 -35t-94.5 -96.5t-33.5 -141.5q0 -95 -49 -152t-135 -57q-53 0 -92.5 26t-61.5 72.5t-22 108.5q0 59 21.5 104.5t61 71.5t93.5 26q25 0 43 -3.5t33 -8.5l31 67q-25 10 -50 14
t-66 4q-77 0 -135.5 -38t-90.5 -101t-32 -138q0 -81 33.5 -144t94.5 -99t142 -36q56 0 101.5 18.5t79.5 49.5v-457h-125v-68h213v733q0 97 47 152t135 55q82 0 132 -55t50 -152q0 -60 -22 -105.5t-61.5 -71t-92.5 -25.5q-14 0 -29 2.5t-28 7.5l-30 -68q19 -5 42 -10.5
t52 -5.5z" />
    <glyph glyph-name="tta_khm" unicode="&#xaa66;" horiz-adv-x="1124" 
d="M324 -10q-80 0 -140.5 36.5t-94.5 99t-34 142.5q0 79 34 142t95.5 99.5t142.5 36.5q79 0 138.5 -31.5t94.5 -84.5q39 57 99.5 86.5t132.5 29.5q85 0 147 -37t96 -100t34 -141q0 -84 -33.5 -146.5t-91.5 -97t-134 -34.5q-46 0 -79 6t-62 20l32 66q39 -18 95 -18
q82 0 132 54.5t50 147.5t-49.5 149.5t-134.5 56.5q-57 0 -109 -33.5t-87 -95.5q9 -38 9 -79q0 -80 -35 -142t-98.5 -97t-149.5 -35zM327 64q89 0 138.5 55t49.5 143q0 94 -48.5 152t-138.5 58q-54 0 -95 -25.5t-64 -72t-23 -108.5t24 -107t65 -70t92 -25zM333 204
q-27 0 -44.5 16.5t-17.5 51.5q0 36 17 51.5t45 15.5q25 0 44 -16t19 -51t-19 -51.5t-44 -16.5z" />
    <glyph glyph-name="ttha_khm" unicode="&#xaa67;" horiz-adv-x="1125" 
d="M329 -10q-83 0 -144.5 36.5t-95.5 99t-34 142.5q0 79 34.5 142t97 99.5t145.5 36.5q74 0 130.5 -28.5t92.5 -76.5q45 52 100.5 78t136.5 26q85 0 147.5 -36.5t96.5 -99.5t34 -141q0 -82 -34.5 -144.5t-98 -98t-150.5 -35.5q-78 0 -135.5 28t-94.5 79q-37 -50 -95.5 -78.5
t-132.5 -28.5zM332 64q86 0 135.5 56t49.5 146q0 92 -48.5 149t-135.5 57q-84 0 -135.5 -56t-51.5 -150q0 -62 24.5 -107t66.5 -70t95 -25zM609 268q0 -49 -13 -93q25 -51 75 -81.5t117 -30.5q88 0 139.5 56.5t51.5 146.5q0 95 -48.5 150.5t-136.5 55.5q-61 0 -110.5 -22.5
t-88.5 -86.5q14 -45 14 -95zM333 204q-27 0 -44.5 16.5t-17.5 51.5q0 36 17 51.5t45 15.5q25 0 44 -16t19 -51t-19 -51.5t-44 -16.5z" />
    <glyph glyph-name="dda_khm" unicode="&#xaa68;" horiz-adv-x="1126" 
d="M332 -10q-80 0 -142.5 35.5t-98.5 98t-36 144.5q0 78 34.5 141t96 100t143.5 37q79 0 138 -31.5t93 -85.5q36 52 91 84.5t130 32.5q85 0 151 -36t103 -99t37 -143q0 -79 -33 -142t-93 -99.5t-142 -36.5q-30 0 -58 6t-51 13q0 144 73.5 229.5t202.5 97.5q-18 65 -68.5 100
t-125.5 35q-57 0 -103 -36t-78 -94q8 -35 8 -73q0 -80 -33 -142.5t-94 -99t-145 -36.5zM329 64q83 0 133.5 55t50.5 147q0 94 -49 150t-136 56q-54 0 -95 -26t-63.5 -72t-22.5 -108q0 -60 23 -105.5t64.5 -71t94.5 -25.5zM328 204q-26 0 -44 16.5t-18 51.5q0 36 17.5 51.5
t44.5 15.5q26 0 44.5 -16t18.5 -51t-19 -51.5t-44 -16.5zM795 64q92 0 138.5 56t46.5 145q-89 -9 -143 -60t-59 -141h8.5h8.5z" />
    </font>
</defs>
</svg>
