<?xml version="1.0" encoding="utf-8"?>
<!-- Generator: Adobe Illustrator 16.0.0, SVG Export Plug-In . SVG Version: 6.00 Build 0)  -->
<!DOCTYPE svg PUBLIC "-//W3C//DTD SVG 1.1//EN" "http://www.w3.org/Graphics/SVG/1.1/DTD/svg11.dtd">
<svg version="1.1" id="Layer_1" xmlns="http://www.w3.org/2000/svg" xmlns:xlink="http://www.w3.org/1999/xlink" x="0px" y="0px"
	 width="123.158px" height="123.157px" viewBox="0 0 123.158 123.157" enable-background="new 0 0 123.158 123.157"
	 xml:space="preserve">
<g>
	<path d="M64.487,59.958c-2.078,0-3.668,0.756-4.768,2.264c-1.1,1.51-1.65,3.457-1.65,5.838v6.008c0,2.398,0.559,4.354,1.674,5.873
		c1.115,1.516,2.711,2.275,4.791,2.275c2.018,0,3.578-0.76,4.688-2.275c1.105-1.52,1.66-3.475,1.66-5.873V68.06
		c0-2.365-0.557-4.309-1.672-5.824C68.095,60.716,66.521,59.958,64.487,59.958z"/>
	<path d="M119.657,0H3.5C1.566,0,0,1.567,0,3.5v116.157c0,1.934,1.566,3.5,3.5,3.5h116.157c1.934,0,3.5-1.566,3.5-3.5V3.5
		C123.157,1.567,121.591,0,119.657,0z M17.88,53.313h-4.278v37.912h4.278v3.527H9.118V49.786h8.762V53.313z M48.04,66.329h-7.488
		c-0.106-2.154-0.588-3.754-1.445-4.801s-2.318-1.57-4.382-1.57c-1.744,0-3.117,0.703-4.118,2.105
		c-1.002,1.404-1.503,3.242-1.503,5.518v6.965c0,2.291,0.547,4.143,1.64,5.553c1.092,1.412,2.594,2.117,4.505,2.117
		c1.852,0,3.164-0.496,3.938-1.48c0.774-0.984,1.214-2.557,1.32-4.711h7.487l0.047,0.137c-0.152,3.883-1.303,6.85-3.449,8.896
		c-2.146,2.051-5.262,3.074-9.343,3.074c-4.096,0-7.427-1.258-9.99-3.777c-2.564-2.518-3.846-5.787-3.846-9.809v-6.918
		c0-4.006,1.232-7.273,3.698-9.797c2.465-2.527,5.67-3.79,9.614-3.79c4.188,0,7.39,1.054,9.604,3.163s3.467,5.105,3.756,8.988
		L48.04,66.329z M75.866,93.001l-5.939-5.803c-0.836,0.305-1.703,0.535-2.605,0.695s-1.832,0.238-2.787,0.238
		c-4.203,0-7.609-1.324-10.219-3.971s-3.914-6.012-3.914-10.094v-5.963c0-4.066,1.301-7.426,3.902-10.08s5.996-3.983,10.184-3.983
		c4.158,0,7.541,1.329,10.15,3.983s3.914,6.014,3.914,10.08v5.963c0,1.928-0.307,3.725-0.922,5.393
		c-0.615,1.67-1.49,3.127-2.629,4.369l5.553,5.371L75.866,93.001z M104.81,87.655H82.825V54.52h7.715v27.216h14.27V87.655z
		 M114.271,94.753h-8.785v-3.527h4.303V53.313h-4.303v-3.527h8.785V94.753z"/>
</g>
</svg>
