<?xml version="1.0" encoding="utf-8"?>
<!-- Generator: Adobe Illustrator 16.0.0, SVG Export Plug-In . SVG Version: 6.00 Build 0)  -->
<!DOCTYPE svg PUBLIC "-//W3C//DTD SVG 1.1//EN" "http://www.w3.org/Graphics/SVG/1.1/DTD/svg11.dtd">
<svg version="1.1" id="Layer_1" xmlns="http://www.w3.org/2000/svg" xmlns:xlink="http://www.w3.org/1999/xlink" x="0px" y="0px"
	 width="123.158px" height="123.158px" viewBox="0 0 123.158 123.158" enable-background="new 0 0 123.158 123.158"
	 xml:space="preserve">
<g>
	<polygon points="8.947,95.099 17.754,95.099 17.754,91.553 13.453,91.553 13.453,53.441 17.754,53.441 17.754,49.896 8.947,49.896 
			"/>
	<path d="M34.687,54.172c-3.966,0-7.187,1.27-9.665,3.81c-2.479,2.539-3.717,5.822-3.717,9.849v6.955
		c0,4.042,1.288,7.328,3.866,9.858c2.577,2.532,5.925,3.798,10.043,3.798c4.103,0,7.232-1.028,9.391-3.089
		c2.158-2.058,3.313-5.04,3.466-8.944l-0.046-0.137h-7.526c-0.107,2.165-0.549,3.744-1.327,4.735
		c-0.778,0.991-2.098,1.486-3.958,1.486c-1.922,0-3.432-0.708-4.529-2.127c-1.098-1.419-1.648-3.277-1.648-5.581v-7.001
		c0-2.288,0.503-4.137,1.511-5.548c1.006-1.41,2.386-2.116,4.14-2.116c2.074,0,3.542,0.527,4.404,1.58
		c0.861,1.051,1.346,2.659,1.453,4.825h7.526l0.045-0.138c-0.29-3.904-1.548-6.916-3.774-9.036
		C42.114,55.232,38.896,54.172,34.687,54.172z"/>
	<path d="M77.816,79.725c0.617-1.677,0.927-3.483,0.927-5.422V68.31c0-4.087-1.311-7.464-3.936-10.134
		c-2.621-2.668-6.023-4.004-10.202-4.004c-4.209,0-7.622,1.336-10.237,4.004c-2.616,2.67-3.924,6.047-3.924,10.134v5.993
		c0,4.104,1.312,7.485,3.935,10.147c2.623,2.66,6.047,3.991,10.271,3.991c0.962,0,1.894-0.08,2.802-0.24s1.781-0.393,2.62-0.698
		l5.971,5.834l4.713-3.82l-5.582-5.398C76.317,82.868,77.197,81.403,77.816,79.725z M71.033,74.303c0,2.411-0.556,4.378-1.669,5.903
		c-1.114,1.526-2.685,2.287-4.713,2.287c-2.09,0-3.694-0.761-4.816-2.287c-1.12-1.525-1.681-3.492-1.681-5.903v-6.039
		c0-2.394,0.553-4.35,1.658-5.867c1.105-1.517,2.703-2.276,4.793-2.276c2.042,0,3.626,0.763,4.746,2.288
		c1.122,1.524,1.682,3.478,1.682,5.855V74.303z"/>
	<polygon points="90.795,54.652 83.039,54.652 83.039,87.962 105.138,87.962 105.138,82.013 90.795,82.013 	"/>
	<polygon points="105.818,49.896 105.818,53.441 110.144,53.441 110.144,91.553 105.818,91.553 105.818,95.099 114.649,95.099 
		114.649,49.896 	"/>
</g>
</svg>
