<?xml version="1.0" encoding="utf-8"?>
<!-- Generator: Adobe Illustrator 16.0.0, SVG Export Plug-In . SVG Version: 6.00 Build 0)  -->
<!DOCTYPE svg PUBLIC "-//W3C//DTD SVG 1.1//EN" "http://www.w3.org/Graphics/SVG/1.1/DTD/svg11.dtd">
<svg version="1.1" id="Layer_1" xmlns="http://www.w3.org/2000/svg" xmlns:xlink="http://www.w3.org/1999/xlink" x="0px" y="0px"
	 width="123.298px" height="123.304px" viewBox="0 0 123.298 123.304" enable-background="new 0 0 123.298 123.304"
	 xml:space="preserve">
<g>
	<path d="M26.731,58.532h-4.588v26.185h4.588c2.518,0,4.484-0.86,5.902-2.586c1.418-1.725,2.126-4.005,2.126-6.841v-7.386
		c0-2.813-0.708-5.08-2.126-6.797C31.216,59.388,29.249,58.532,26.731,58.532z"/>
	<path d="M119.798,0H3.5C1.567,0,0,1.567,0,3.5v116.304c0,1.933,1.567,3.5,3.5,3.5h116.298c1.933,0,3.5-1.567,3.5-3.5V3.5
		C123.298,1.567,121.73,0,119.798,0z M44.244,75.29c0,4.904-1.613,8.914-4.84,12.03c-3.228,3.114-7.236,4.673-12.029,4.673H12.661
		v-40.74h14.714c4.793,0,8.802,1.563,12.029,4.687c3.227,3.131,4.84,7.134,4.84,12.021V75.29z M78.743,58.532H59.86v8.758h15.974
		v7.274H59.86v10.152h18.827v7.276H50.377v-40.74h28.366V58.532z M112.188,58.532H93.024v9.793h16.309v7.271H93.024v16.396H83.54
		v-40.74h28.648V58.532z"/>
</g>
</svg>
