<?xml version="1.0" encoding="utf-8"?>
<!-- Generator: Adobe Illustrator 16.0.0, SVG Export Plug-In . SVG Version: 6.00 Build 0)  -->
<!DOCTYPE svg PUBLIC "-//W3C//DTD SVG 1.1//EN" "http://www.w3.org/Graphics/SVG/1.1/DTD/svg11.dtd">
<svg version="1.1" id="Layer_1" xmlns="http://www.w3.org/2000/svg" xmlns:xlink="http://www.w3.org/1999/xlink" x="0px" y="0px"
	 width="123.298px" height="123.305px" viewBox="0 0 123.298 123.305" enable-background="new 0 0 123.298 123.305"
	 xml:space="preserve">
<g>
	<path d="M27.375,51.254H12.661v40.739h14.714c4.793,0,8.802-1.559,12.029-4.673c3.227-3.116,4.84-7.126,4.84-12.03v-7.328
		c0-4.888-1.613-8.891-4.84-12.021C36.177,52.816,32.168,51.254,27.375,51.254z M34.76,75.29c0,2.836-0.708,5.116-2.126,6.841
		c-1.418,1.726-3.385,2.586-5.902,2.586h-4.588V58.532h4.588c2.518,0,4.484,0.856,5.902,2.575c1.418,1.717,2.126,3.983,2.126,6.797
		V75.29z"/>
	<polygon points="50.377,91.993 78.688,91.993 78.688,84.717 59.86,84.717 59.86,74.564 75.834,74.564 75.834,67.29 59.86,67.29 
		59.86,58.532 78.743,58.532 78.743,51.254 50.377,51.254 	"/>
	<polygon points="112.188,58.532 112.188,51.254 83.54,51.254 83.54,91.993 93.024,91.993 93.024,75.597 109.333,75.597 
		109.333,68.325 93.024,68.325 93.024,58.532 	"/>
</g>
</svg>
