<?xml version="1.0" encoding="utf-8"?>
<!-- Generator: Adobe Illustrator 16.0.0, SVG Export Plug-In . SVG Version: 6.00 Build 0)  -->
<!DOCTYPE svg PUBLIC "-//W3C//DTD SVG 1.1//EN" "http://www.w3.org/Graphics/SVG/1.1/DTD/svg11.dtd">
<svg version="1.1" id="Layer_1" xmlns="http://www.w3.org/2000/svg" xmlns:xlink="http://www.w3.org/1999/xlink" x="0px" y="0px"
	 width="123.158px" height="123.157px" viewBox="0 0 123.158 123.157" enable-background="new 0 0 123.158 123.157"
	 xml:space="preserve">
<g>
	<path d="M120.029,0.077H3.271c-1.933,0-3.5,1.567-3.5,3.5v116.757c0,1.934,1.567,3.5,3.5,3.5h116.758c1.933,0,3.5-1.566,3.5-3.5
		V3.577C123.529,1.644,121.962,0.077,120.029,0.077z M55.004,108.463H27.422V68.182h27.526v6.225H35.5v10.125h16.682v6.225H35.5
		v11.48h19.504V108.463z M57.254,51.838c-1.198,1.586-3.066,2.998-5.602,4.232c-2.537,1.236-5.741,1.854-9.614,1.854
		c-4.925,0-8.945-1.529-12.062-4.592c-3.118-3.061-4.677-7.035-4.677-11.923v-8.41c0-4.87,1.499-8.839,4.497-11.911
		c2.997-3.07,6.855-4.605,11.577-4.605c4.905,0,8.664,1.194,11.272,3.583c2.61,2.389,3.942,5.528,3.998,9.419l-0.056,0.167h-7.606
		c-0.148-2.14-0.831-3.832-2.048-5.076c-1.217-1.245-2.998-1.868-5.338-1.868c-2.473,0-4.465,0.954-5.978,2.861
		c-1.511,1.907-2.269,4.361-2.269,7.365v8.458c0,3.058,0.784,5.541,2.352,7.449c1.568,1.906,3.679,2.859,6.336,2.859
		c1.881,0,3.393-0.193,4.538-0.578c1.143-0.387,2.008-0.865,2.601-1.436v-7.447h-7.139V36.65h15.216V51.838z M86.282,108.463
		l-7.773-14.525l-7.774,14.525h-9.434l12.256-20.307L61.605,68.182h9.352l7.44,14.275l7.552-14.275h9.407L83.404,88.156
		l12.644,20.307H86.282z M96.405,40.551c0,4.943-1.596,8.977-4.786,12.103c-3.191,3.127-7.248,4.689-12.173,4.689H65.614v-40.28
		h13.832c4.925,0,8.981,1.573,12.173,4.717c3.19,3.145,4.786,7.178,4.786,12.104V40.551z"/>
	<path d="M79.031,23.289h-5.34v27.829h5.34c2.896,0,5.165-0.975,6.806-2.928s2.462-4.506,2.462-7.656v-6.715
		c0-3.114-0.821-5.647-2.462-7.6C84.196,24.265,81.927,23.289,79.031,23.289z"/>
</g>
</svg>
