<?xml version="1.0" encoding="utf-8"?>
<!-- Generator: Adobe Illustrator 16.0.0, SVG Export Plug-In . SVG Version: 6.00 Build 0)  -->
<!DOCTYPE svg PUBLIC "-//W3C//DTD SVG 1.1//EN" "http://www.w3.org/Graphics/SVG/1.1/DTD/svg11.dtd">
<svg version="1.1" id="Layer_1" xmlns="http://www.w3.org/2000/svg" xmlns:xlink="http://www.w3.org/1999/xlink" x="0px" y="0px"
	 width="123.758px" height="123.758px" viewBox="0 0 123.758 123.758" enable-background="new 0 0 123.758 123.758"
	 xml:space="preserve">
<g>
	<path d="M42.267,42.162h7.139v7.447c-0.593,0.57-1.458,1.049-2.601,1.435c-1.146,0.386-2.657,0.579-4.538,0.579
		c-2.657,0-4.768-0.953-6.336-2.861c-1.567-1.906-2.352-4.389-2.352-7.447v-8.459c0-3.003,0.758-5.457,2.269-7.364
		c1.513-1.907,3.505-2.861,5.978-2.861c2.34,0,4.121,0.623,5.338,1.868c1.217,1.244,1.899,2.937,2.048,5.076h7.606l0.056-0.166
		c-0.056-3.892-1.388-7.031-3.998-9.42c-2.608-2.389-6.367-3.582-11.272-3.582c-4.722,0-8.58,1.535-11.577,4.605
		c-2.998,3.07-4.497,7.041-4.497,11.91v8.41c0,4.889,1.559,8.863,4.677,11.924c3.116,3.062,7.137,4.592,12.062,4.592
		c3.873,0,7.077-0.617,9.614-1.854c2.535-1.234,4.403-2.646,5.602-4.231V36.573H42.267V42.162z"/>
	<path d="M91.848,21.703c-3.191-3.144-7.248-4.717-12.173-4.717H65.843v40.28h13.832c4.925,0,8.981-1.563,12.173-4.688
		c3.19-3.127,4.786-7.161,4.786-12.104v-6.668C96.634,28.882,95.038,24.848,91.848,21.703z M88.527,40.457
		c0,3.15-0.821,5.703-2.462,7.656s-3.91,2.928-6.806,2.928h-5.34v-27.83h5.34c2.896,0,5.165,0.977,6.806,2.93
		s2.462,4.486,2.462,7.601V40.457z"/>
	<polygon points="35.729,90.68 52.41,90.68 52.41,84.455 35.729,84.455 35.729,74.329 55.177,74.329 55.177,68.105 27.65,68.105 
		27.65,108.386 55.232,108.386 55.232,102.16 35.729,102.16 	"/>
	<polygon points="95.585,68.105 86.178,68.105 78.626,82.38 71.186,68.105 61.834,68.105 73.785,88.08 61.529,108.386 
		70.963,108.386 78.737,93.861 86.511,108.386 96.276,108.386 83.633,88.08 	"/>
</g>
</svg>
