<?xml version="1.0" encoding="utf-8"?>
<!-- Generator: Adobe Illustrator 16.0.0, SVG Export Plug-In . SVG Version: 6.00 Build 0)  -->
<!DOCTYPE svg PUBLIC "-//W3C//DTD SVG 1.1//EN" "http://www.w3.org/Graphics/SVG/1.1/DTD/svg11.dtd">
<svg version="1.1" id="Layer_1" xmlns="http://www.w3.org/2000/svg" xmlns:xlink="http://www.w3.org/1999/xlink" x="0px" y="0px"
	 width="123.487px" height="123.487px" viewBox="0 0 123.487 123.487" enable-background="new 0 0 123.487 123.487"
	 xml:space="preserve">
<path d="M119.987,0H3.5C1.567,0,0,1.566,0,3.5v116.487c0,1.933,1.567,3.5,3.5,3.5h116.487c1.933,0,3.5-1.567,3.5-3.5V3.5
	C123.487,1.566,121.92,0,119.987,0z M110.942,67.898c-3.132,6.11-6.399,12.149-9.564,18.238c-4.703,9.053-9.361,18.13-14.035,27.194
	c-0.223,0.43-0.416,0.869-0.646,1.291c-1.803,3.281-3.315,3.807-6.677,2.313c-8.146-3.627-16.287-7.271-24.434-10.901
	c-7.159-3.188-14.311-6.391-21.493-9.524c-3.115-1.36-5.385-3.499-7.214-6.373c-2.146-3.364-4.66-6.494-7.009-9.728
	c-2.31-3.172-4.603-6.356-6.925-9.52c-1.18-1.608-2.379-3.202-3.618-4.767c-2.193-2.769-2.387-4.948-0.393-7.786
	c4-5.693,8.095-11.314,12.117-16.99c4.155-5.867,8.271-11.768,12.411-17.641c2.606-3.705,5.238-7.387,7.853-11.084
	c2.322-3.287,4.249-3.991,8.112-2.908c8.406,2.35,16.799,4.747,25.216,7.063c8.703,2.395,17.447,4.652,26.144,7.086
	c6.565,1.837,5.952,3.05,6.888,8.459c0.66,3.807,1.218,7.631,1.763,11.463c0.67,4.729,1.277,9.467,1.922,14.207
	c0.255,1.856,0.54,3.713,0.882,6.026C111.896,65.076,111.616,66.587,110.942,67.898z"/>
<path fill-rule="evenodd" clip-rule="evenodd" d="M110.636,62.668c-0.646-4.674-1.3-9.344-1.959-14.014
	c-0.685-4.848-1.366-9.695-2.083-14.537c-0.242-1.637-0.581-3.258-0.978-5.445c-0.767,0.914-1.284,1.381-1.611,1.954
	c-4.699,8.22-9.359,16.464-14.057,24.687C84.681,64.526,79.344,73.7,74.134,82.949c-0.981,1.734-2.189,3.587-1.421,5.788
	c0.596,1.708,1.286,3.386,1.996,5.047c1.42,3.327,2.917,6.62,4.317,9.952c1.652,3.931,3.237,7.895,5.049,12.319
	c0.701-0.964,1.149-1.453,1.451-2.013c1.763-3.288,3.488-6.594,5.232-9.891c2.537-4.795,5.105-9.57,7.615-14.381
	c3.146-6.032,6.247-12.084,9.369-18.128C109.208,68.812,111.119,66.122,110.636,62.668z M91.857,75.058
	c0.274-1.277,0.691-2.523,1.019-3.794c0.278-1.082,0.55-2.172,0.766-3.271c0.072-0.367,0.02-0.778-0.058-1.148
	c-0.177-0.834-0.674-1.016-1.289-0.434c-0.394,0.372-0.735,0.832-1.014,1.31c-0.697,1.184-1.168,2.474-1.219,3.853
	c-0.021,0.623,0.194,1.248,0.263,1.878c0.031,0.262,0.04,0.591-0.08,0.807c-1.007,1.806-2.044,3.588-3.103,5.426
	c-0.406-1.135-0.539-2.258-0.351-3.438c0.363-2.325,1.164-4.51,2.081-6.671c0.972-2.291,2.128-4.474,3.564-6.497
	c0.793-1.123,1.655-2.183,2.752-2.992c0.145-0.113,0.303-0.212,0.467-0.286c0.695-0.307,1.145-0.114,1.412,0.612
	c0.327,0.888,0.288,1.835,0.09,2.746c-0.359,1.68-0.816,3.339-1.224,5.007c-0.214,0.876-0.437,1.748-0.609,2.634
	c-0.246,1.231,0.209,2.333,0.592,3.423c0.2,0.567,0.181,1.01-0.147,1.548c-1.101,1.785-2.151,3.605-3.25,5.454
	C91.733,79.224,91.404,77.186,91.857,75.058z M95.627,86.299c-0.117,0.143-0.271,0.254-0.422,0.355
	c-0.608,0.403-1.146,0.221-1.379-0.468c-0.282-0.835-0.195-1.692-0.037-2.549c0.077-0.418,0.157-0.763,0.254-1.177
	c0.084-0.31,0.781-1.896,1.586-2.856c0.353-0.426,0.767-0.874,1.36-0.699c0.611,0.181,0.701,0.802,0.724,1.349
	C97.808,82.536,97.086,84.553,95.627,86.299z"/>
<g>
	<path fill-rule="evenodd" clip-rule="evenodd" d="M81.665,113.889c-3.403-7.729-6.926-15.41-10.193-23.196
		c-1-2.381-2.709-3.656-4.854-4.529c-7.467-3.043-14.979-5.978-22.46-8.987c-9.72-3.917-19.424-7.88-29.143-11.801
		c-1.629-0.659-3.302-1.208-4.952-1.808c-0.086,0.154-0.17,0.309-0.254,0.461c0.438,0.778,0.805,1.613,1.326,2.336
		c5.419,7.492,10.991,14.878,16.241,22.485c2.391,3.462,5.195,6.116,9.112,7.602c0.847,0.323,1.693,0.642,2.521,1.012
		c5.396,2.417,10.781,4.872,16.185,7.271c7.877,3.505,15.767,6.992,23.663,10.457c1.059,0.466,2.183,0.781,3.632,1.292
		C82.127,115.325,81.968,114.575,81.665,113.889z"/>
	<path fill-rule="evenodd" clip-rule="evenodd" d="M62.967,41.484c-1.42,1.141-3.032,2.035-4.842,2.684
		c-3.368,0.939-5.823,1.941-7.354,3.01s-3.006,3.104-4.429,6.106l9.44,4.383c0.854-1.841,1.724-3.211,2.611-4.103
		c0.886-0.898,2.131-1.591,3.735-2.088c2.865-0.607,5.556-1.764,8.071-3.465c2.509-1.702,4.412-3.939,5.697-6.709
		c2.025-4.366,2.364-8.416,1.012-12.152c-1.352-3.736-4.239-6.633-8.67-8.691c-4.101-1.902-7.941-2.302-11.522-1.204
		c-3.58,1.1-6.349,3.849-8.31,8.245l-0.025,0.23l9.174,4.256c0.916-1.917,2.049-3.197,3.397-3.836
		c1.348-0.641,2.608-0.69,3.783-0.145c1.528,0.711,2.431,1.857,2.704,3.445c0.272,1.588-0.065,3.403-1.015,5.453
		C65.537,38.817,64.386,40.343,62.967,41.484z"/>
	<circle fill-rule="evenodd" clip-rule="evenodd" cx="45.911" cy="63.958" r="6.506"/>
</g>
</svg>
