<?xml version="1.0" encoding="utf-8"?>
<!-- Generator: Adobe Illustrator 16.0.0, SVG Export Plug-In . SVG Version: 6.00 Build 0)  -->
<!DOCTYPE svg PUBLIC "-//W3C//DTD SVG 1.1//EN" "http://www.w3.org/Graphics/SVG/1.1/DTD/svg11.dtd">
<svg version="1.1" id="Layer_1" xmlns="http://www.w3.org/2000/svg" xmlns:xlink="http://www.w3.org/1999/xlink" x="0px" y="0px"
	 width="123.158px" height="123.156px" viewBox="0 0 123.158 123.156" enable-background="new 0 0 123.158 123.156"
	 xml:space="preserve">
<g>
	<g>
		<path fill-rule="evenodd" clip-rule="evenodd" d="M94.025,73.717c-0.389-1.103-0.848-2.216-0.599-3.462
			c0.176-0.895,0.4-1.776,0.616-2.661c0.412-1.688,0.873-3.366,1.237-5.063c0.201-0.921,0.24-1.879-0.091-2.776
			c-0.271-0.734-0.726-0.93-1.428-0.619c-0.166,0.074-0.326,0.176-0.473,0.288c-1.108,0.82-1.979,1.891-2.781,3.025
			c-1.453,2.046-2.622,4.254-3.604,6.57c-0.929,2.185-1.738,4.394-2.104,6.744c-0.19,1.194-0.059,2.33,0.353,3.478
			c1.072-1.857,2.12-3.661,3.139-5.485c0.121-0.219,0.112-0.552,0.08-0.815c-0.069-0.638-0.286-1.271-0.265-1.899
			c0.05-1.394,0.525-2.698,1.23-3.896c0.282-0.483,0.628-0.948,1.026-1.324c0.622-0.588,1.124-0.405,1.304,0.439
			c0.078,0.374,0.132,0.789,0.058,1.161c-0.218,1.111-0.493,2.213-0.774,3.308c-0.331,1.284-0.752,2.543-1.028,3.834
			c-0.46,2.152-0.128,4.213,0.669,6.233c1.11-1.869,2.172-3.71,3.284-5.515C94.207,74.738,94.229,74.291,94.025,73.717z"/>
		<path fill-rule="evenodd" clip-rule="evenodd" d="M95.109,78.455c-0.601-0.178-1.02,0.275-1.375,0.706
			c-0.813,0.972-1.519,2.575-1.604,2.89c-0.098,0.418-0.178,0.766-0.256,1.188c-0.16,0.866-0.248,1.732,0.037,2.578
			c0.235,0.695,0.779,0.88,1.395,0.472c0.151-0.102,0.309-0.216,0.426-0.36c1.476-1.764,2.206-3.804,2.11-6.11
			C95.818,79.265,95.728,78.638,95.109,78.455z"/>
	</g>
	<path fill-rule="evenodd" clip-rule="evenodd" d="M109.64,57.306c-0.651-4.792-1.266-9.582-1.944-14.362
		c-0.55-3.876-1.114-7.743-1.781-11.592c-0.946-5.469-0.325-6.695-6.964-8.553c-8.792-2.461-17.633-4.743-26.434-7.165
		c-8.511-2.34-16.996-4.765-25.496-7.141c-3.906-1.095-5.854-0.383-8.202,2.941c-2.644,3.738-5.305,7.461-7.94,11.206
		c-4.188,5.938-8.347,11.905-12.549,17.837c-4.066,5.739-8.206,11.422-12.251,17.18c-2.017,2.869-1.821,5.072,0.396,7.872
		c1.253,1.582,2.466,3.192,3.659,4.818c2.348,3.199,4.666,6.419,7.001,9.626c2.375,3.27,4.916,6.434,7.087,9.835
		c1.849,2.906,4.144,5.069,7.294,6.444c7.262,3.169,14.494,6.407,21.731,9.63c8.237,3.671,16.469,7.355,24.705,11.023
		c3.398,1.511,4.928,0.979,6.751-2.338c0.231-0.427,0.429-0.872,0.653-1.307c4.725-9.164,9.435-18.343,14.189-27.496
		c3.201-6.156,6.506-12.262,9.672-18.44c0.682-1.326,0.966-2.854,1.313-3.926C110.187,61.061,109.898,59.183,109.64,57.306z
		 M65.233,30.473c-0.276-1.606-1.188-2.766-2.734-3.482c-1.188-0.553-2.462-0.502-3.824,0.145c-1.364,0.646-2.511,1.94-3.437,3.879
		l-9.275-4.303l0.026-0.232c1.982-4.445,4.782-7.226,8.401-8.337c3.62-1.11,7.505-0.706,11.649,1.216
		c4.48,2.083,7.4,5.011,8.768,8.789c1.366,3.777,1.024,7.872-1.023,12.287c-1.299,2.801-3.225,5.063-5.761,6.783
		c-2.544,1.722-5.264,2.891-8.161,3.505c-1.622,0.501-2.881,1.202-3.776,2.11c-0.896,0.902-1.777,2.286-2.641,4.147L43.9,52.549
		c1.438-3.036,2.93-5.094,4.478-6.174s4.029-2.094,7.437-3.044c1.829-0.655,3.459-1.561,4.896-2.714
		c1.434-1.153,2.598-2.696,3.497-4.632C65.167,33.914,65.51,32.078,65.233,30.473z M43.465,56.764c3.632,0,6.577,2.942,6.577,6.576
		s-2.945,6.579-6.577,6.579c-3.634,0-6.577-2.945-6.577-6.579S39.831,56.764,43.465,56.764z M76.775,115.144
		c-7.983-3.504-15.962-7.028-23.927-10.573c-5.462-2.427-10.907-4.909-16.364-7.353c-0.835-0.374-1.692-0.695-2.548-1.022
		c-3.961-1.503-6.796-4.187-9.213-7.686c-5.31-7.692-10.943-15.16-16.423-22.735c-0.526-0.73-0.897-1.575-1.341-2.362
		c0.085-0.153,0.171-0.311,0.257-0.467c1.669,0.606,3.361,1.162,5.007,1.828c9.827,3.966,19.639,7.971,29.467,11.932
		c7.564,3.044,15.159,6.012,22.709,9.088c2.17,0.882,3.899,2.172,4.908,4.58c3.305,7.872,6.865,15.638,10.307,23.453
		c0.307,0.694,0.468,1.452,0.832,2.623C78.982,115.934,77.845,115.614,76.775,115.144z M105.983,71.112
		c-3.157,6.111-6.294,12.229-9.474,18.329c-2.538,4.863-5.135,9.692-7.7,14.541c-1.764,3.333-3.508,6.675-5.289,10
		c-0.307,0.566-0.76,1.061-1.469,2.034c-1.831-4.473-3.435-8.481-5.104-12.456c-1.416-3.368-2.93-6.697-4.365-10.063
		c-0.718-1.68-1.416-3.375-2.02-5.104c-0.776-2.226,0.445-4.098,1.438-5.852c5.269-9.353,10.664-18.627,15.99-27.944
		c4.749-8.313,9.461-16.649,14.213-24.96c0.331-0.579,0.854-1.051,1.629-1.977c0.401,2.213,0.743,3.852,0.989,5.506
		c0.724,4.896,1.413,9.798,2.106,14.699c0.666,4.722,1.326,9.443,1.979,14.169C109.396,65.529,107.464,68.249,105.983,71.112z"/>
</g>
</svg>
