<?xml version="1.0" encoding="utf-8"?>
<!-- Generator: Adobe Illustrator 16.0.0, SVG Export Plug-In . SVG Version: 6.00 Build 0)  -->
<!DOCTYPE svg PUBLIC "-//W3C//DTD SVG 1.1//EN" "http://www.w3.org/Graphics/SVG/1.1/DTD/svg11.dtd">
<svg version="1.1" id="Layer_1" xmlns="http://www.w3.org/2000/svg" xmlns:xlink="http://www.w3.org/1999/xlink" x="0px" y="0px"
	 width="123.466px" height="123.464px" viewBox="0 0 123.466 123.464" enable-background="new 0 0 123.466 123.464"
	 xml:space="preserve">
<path d="M119.966,0H3.5C1.567,0,0,1.567,0,3.5v116.464c0,1.933,1.567,3.5,3.5,3.5h116.466c1.933,0,3.5-1.567,3.5-3.5V3.5
	C123.466,1.567,121.898,0,119.966,0z M47.6,105.054C36.438,94.06,24.629,82.425,12.815,70.787
	c5.778-5.71,11.472-11.336,17.282-17.076c6.019,5.949,12.213,12.072,18.267,18.057c16.758-16.51,33.564-33.068,50.273-49.53
	c5.296,5.217,10.841,10.676,16.742,16.488C92.724,60.896,70.072,83.063,47.6,105.054z"/>
</svg>
