<?xml version="1.0" encoding="utf-8"?>
<!-- Generator: Adobe Illustrator 16.0.0, SVG Export Plug-In . SVG Version: 6.00 Build 0)  -->
<!DOCTYPE svg PUBLIC "-//W3C//DTD SVG 1.1//EN" "http://www.w3.org/Graphics/SVG/1.1/DTD/svg11.dtd">
<svg version="1.1" id="Layer_1" xmlns="http://www.w3.org/2000/svg" xmlns:xlink="http://www.w3.org/1999/xlink" x="0px" y="0px"
	 width="122.242px" height="122.241px" viewBox="0 0 122.242 122.241" enable-background="new 0 0 122.242 122.241"
	 xml:space="preserve">
<g>
	<polygon points="69.511,72.546 77.163,72.546 73.337,62.319 	"/>
	<path d="M61.12,23.933c-20.505,0-37.188,16.682-37.188,37.188S40.615,98.308,61.12,98.308c20.506,0,37.189-16.682,37.189-37.188
		S81.626,23.933,61.12,23.933z M41.456,77.269l-3.352-3.354l12.02-11.854c-2.953-3.283-5.313-6.92-7.041-10.771h4.726
		c1.442,2.812,3.261,5.479,5.457,7.911c3.399-3.778,5.902-8.1,7.485-12.656H34.372v-4.701h16.53v-4.721h4.726v4.721h16.527v4.725
		h-6.918c-1.724,5.572-4.652,10.838-8.762,15.422l-0.068,0.07l5.997,5.928l-1.797,4.814l-7.342-7.342L41.456,77.269z M81.603,84.354
		l-2.668-7.086H67.717l-2.642,7.086h-4.727l10.629-28.34h4.722l10.628,28.34H81.603z"/>
	<path d="M118.742,0H3.5C1.567,0,0,1.567,0,3.5v115.242c0,1.933,1.567,3.5,3.5,3.5h115.242c1.933,0,3.5-1.567,3.5-3.5V3.5
		C122.242,1.567,120.675,0,118.742,0z M61.12,110.308c-27.122,0-49.188-22.065-49.188-49.188S33.998,11.933,61.12,11.933
		c27.123,0,49.189,22.065,49.189,49.188S88.243,110.308,61.12,110.308z"/>
</g>
</svg>
