<?xml version="1.0" encoding="utf-8"?>
<!-- Generator: Adobe Illustrator 16.0.0, SVG Export Plug-In . SVG Version: 6.00 Build 0)  -->
<!DOCTYPE svg PUBLIC "-//W3C//DTD SVG 1.1//EN" "http://www.w3.org/Graphics/SVG/1.1/DTD/svg11.dtd">
<svg version="1.1" id="Layer_1" xmlns="http://www.w3.org/2000/svg" xmlns:xlink="http://www.w3.org/1999/xlink" x="0px" y="0px"
	 width="122.242px" height="122.24px" viewBox="0 0 122.242 122.24" enable-background="new 0 0 122.242 122.24"
	 xml:space="preserve">
<g>
	<path d="M61.119,11.932c-27.122,0-49.188,22.065-49.188,49.188c0,27.122,22.065,49.188,49.188,49.188
		c27.123,0,49.189-22.065,49.189-49.188C110.309,33.997,88.242,11.932,61.119,11.932z M61.119,98.308
		c-20.505,0-37.188-16.683-37.188-37.188c0-20.506,16.683-37.188,37.188-37.188c20.506,0,37.189,16.683,37.189,37.188
		C98.309,81.625,81.625,98.308,61.119,98.308z"/>
	<path d="M62.404,67.988l-5.998-5.928l0.068-0.07c4.109-4.584,7.039-9.85,8.762-15.422h6.918v-4.725H55.627v-4.721h-4.725v4.721
		H34.371v4.702H60.75c-1.582,4.556-4.086,8.878-7.484,12.656c-2.197-2.432-4.016-5.101-5.457-7.911h-4.727
		c1.729,3.85,4.088,7.486,7.041,10.77l-12.02,11.854l3.352,3.354l11.811-11.808l7.342,7.343L62.404,67.988z"/>
	<path d="M70.977,56.015L60.348,84.354h4.727l2.643-7.085h11.217l2.668,7.085h4.725L75.699,56.015H70.977z M69.51,72.545
		l3.826-10.226l3.826,10.226H69.51z"/>
</g>
</svg>
