<?xml version="1.0" encoding="utf-8"?>
<!-- Generator: Adobe Illustrator 16.0.0, SVG Export Plug-In . SVG Version: 6.00 Build 0)  -->
<!DOCTYPE svg PUBLIC "-//W3C//DTD SVG 1.1//EN" "http://www.w3.org/Graphics/SVG/1.1/DTD/svg11.dtd">
<svg version="1.1" id="Layer_1" xmlns="http://www.w3.org/2000/svg" xmlns:xlink="http://www.w3.org/1999/xlink" x="0px" y="0px"
	 width="123.195px" height="123.196px" viewBox="0 0 123.195 123.196" enable-background="new 0 0 123.195 123.196"
	 xml:space="preserve">
<path d="M119.695,0H3.5C1.567,0,0,1.567,0,3.5v116.196c0,1.933,1.567,3.5,3.5,3.5h116.195c1.933,0,3.5-1.567,3.5-3.5V3.5
	C123.195,1.567,121.628,0,119.695,0z M36.625,95.459c0,1.657-1.344,3-3,3H11.961c-1.656,0-3-1.343-3-3v-8.738c0-1.657,1.344-3,3-3
	h21.664c1.656,0,3,1.343,3,3V95.459z M36.625,65.967c0,1.657-1.344,3-3,3H11.961c-1.656,0-3-1.343-3-3v-8.739c0-1.657,1.344-3,3-3
	h21.664c1.656,0,3,1.343,3,3V65.967z M36.625,36.475c0,1.657-1.344,3-3,3H11.961c-1.656,0-3-1.343-3-3v-8.738c0-1.657,1.344-3,3-3
	h21.664c1.656,0,3,1.343,3,3V36.475z M62.115,75.113c-7.452,0-13.516-6.063-13.516-13.516c0-7.452,6.063-13.515,13.516-13.515
	s13.516,6.063,13.516,13.515C75.631,69.05,69.567,75.113,62.115,75.113z M113.086,95.459c0,1.657-1.344,3-3,3H88.422
	c-1.656,0-3-1.343-3-3v-8.738c0-1.657,1.344-3,3-3h21.664c1.656,0,3,1.343,3,3V95.459z M113.086,65.967c0,1.657-1.344,3-3,3H88.422
	c-1.656,0-3-1.343-3-3v-8.739c0-1.657,1.344-3,3-3h21.664c1.656,0,3,1.343,3,3V65.967z M113.086,36.475c0,1.657-1.344,3-3,3H88.422
	c-1.656,0-3-1.343-3-3v-8.738c0-1.657,1.344-3,3-3h21.664c1.656,0,3,1.343,3,3V36.475z"/>
</svg>
