<?xml version="1.0" encoding="utf-8"?>
<!-- Generator: Adobe Illustrator 16.0.0, SVG Export Plug-In . SVG Version: 6.00 Build 0)  -->
<!DOCTYPE svg PUBLIC "-//W3C//DTD SVG 1.1//EN" "http://www.w3.org/Graphics/SVG/1.1/DTD/svg11.dtd">
<svg version="1.1" id="Layer_1" xmlns="http://www.w3.org/2000/svg" xmlns:xlink="http://www.w3.org/1999/xlink" x="0px" y="0px"
	 width="123.338px" height="123.337px" viewBox="0 0 123.338 123.337" enable-background="new 0 0 123.338 123.337"
	 xml:space="preserve">
<g>
	<path d="M34.301,24.878H12.637c-1.656,0-3,1.344-3,3v8.738c0,1.656,1.344,3,3,3h21.664c1.656,0,3-1.344,3-3v-8.738
		C37.301,26.222,35.957,24.878,34.301,24.878z"/>
	<path d="M34.301,54.37H12.637c-1.656,0-3,1.343-3,3v8.738c0,1.656,1.344,3,3,3h21.664c1.656,0,3-1.344,3-3V57.37
		C37.301,55.713,35.957,54.37,34.301,54.37z"/>
	<path d="M34.301,83.862H12.637c-1.656,0-3,1.343-3,3v8.738c0,1.656,1.344,3,3,3h21.664c1.656,0,3-1.344,3-3v-8.738
		C37.301,85.205,35.957,83.862,34.301,83.862z"/>
	<path d="M110.762,24.878H89.098c-1.656,0-3,1.344-3,3v8.738c0,1.656,1.344,3,3,3h21.664c1.656,0,3-1.344,3-3v-8.738
		C113.762,26.222,112.418,24.878,110.762,24.878z"/>
	<path d="M110.762,54.37H89.098c-1.656,0-3,1.343-3,3v8.738c0,1.656,1.344,3,3,3h21.664c1.656,0,3-1.344,3-3V57.37
		C113.762,55.713,112.418,54.37,110.762,54.37z"/>
	<path d="M110.762,83.862H89.098c-1.656,0-3,1.343-3,3v8.738c0,1.656,1.344,3,3,3h21.664c1.656,0,3-1.344,3-3v-8.738
		C113.762,85.205,112.418,83.862,110.762,83.862z"/>
	<path d="M62.792,48.224c-7.452,0-13.516,6.063-13.516,13.516s6.063,13.516,13.516,13.516s13.515-6.063,13.515-13.516
		S70.244,48.224,62.792,48.224z"/>
</g>
</svg>
