<?xml version="1.0" encoding="utf-8"?>
<!-- Generator: Adobe Illustrator 16.0.0, SVG Export Plug-In . SVG Version: 6.00 Build 0)  -->
<!DOCTYPE svg PUBLIC "-//W3C//DTD SVG 1.1//EN" "http://www.w3.org/Graphics/SVG/1.1/DTD/svg11.dtd">
<svg version="1.1" id="Layer_1" xmlns="http://www.w3.org/2000/svg" xmlns:xlink="http://www.w3.org/1999/xlink" x="0px" y="0px"
	 width="123.195px" height="123.197px" viewBox="0 0 123.195 123.197" enable-background="new 0 0 123.195 123.197"
	 xml:space="preserve">
<g>
	<path d="M119.695,0H3.5C1.567,0,0,1.567,0,3.5v116.197c0,1.933,1.567,3.5,3.5,3.5h116.195c1.933,0,3.5-1.567,3.5-3.5V3.5
		C123.195,1.567,121.628,0,119.695,0z M51.411,46.653H37.525v15.102c8.09,2.846,13.886,10.554,13.886,19.617
		c0,11.49-9.338,20.828-20.831,20.828c-11.491,0-20.828-9.338-20.828-20.828c0-9.063,5.796-16.771,13.886-19.617V25.822h13.888
		v6.944h13.886V46.653z M108.084,97.194c0,1.656-1.344,3-3,3H63.03c-1.657,0-3-1.344-3-3v-8.738c0-1.656,1.343-3,3-3h42.054
		c1.656,0,3,1.344,3,3V97.194z M108.084,72.325c0,1.657-1.344,3-3,3H63.03c-1.657,0-3-1.343-3-3v-8.738c0-1.656,1.343-3,3-3h42.054
		c1.656,0,3,1.344,3,3V72.325z M108.084,47.457c0,1.657-1.344,3-3,3H63.03c-1.657,0-3-1.343-3-3v-8.739c0-1.656,1.343-3,3-3h42.054
		c1.656,0,3,1.344,3,3V47.457z"/>
	<path d="M30.58,74.426c-3.818,0-6.942,3.124-6.942,6.945c0,3.818,3.124,6.941,6.942,6.941c3.819,0,6.945-3.123,6.945-6.941
		C37.525,77.55,34.399,74.426,30.58,74.426z"/>
</g>
</svg>
