<?xml version="1.0" encoding="utf-8"?>
<!-- Generator: Adobe Illustrator 16.0.0, SVG Export Plug-In . SVG Version: 6.00 Build 0)  -->
<!DOCTYPE svg PUBLIC "-//W3C//DTD SVG 1.1//EN" "http://www.w3.org/Graphics/SVG/1.1/DTD/svg11.dtd">
<svg version="1.1" id="Layer_1" xmlns="http://www.w3.org/2000/svg" xmlns:xlink="http://www.w3.org/1999/xlink" x="0px" y="0px"
	 width="123.338px" height="123.338px" viewBox="0 0 123.338 123.338" enable-background="new 0 0 123.338 123.338"
	 xml:space="preserve">
<g>
	<path d="M105.342,35.858H63.289c-1.657,0-3,1.343-3,3v8.739c0,1.656,1.343,3,3,3h42.053c1.657,0,3-1.344,3-3v-8.739
		C108.342,37.201,106.999,35.858,105.342,35.858z"/>
	<path d="M105.342,60.727H63.289c-1.657,0-3,1.344-3,3v8.739c0,1.657,1.343,3,3,3h42.053c1.657,0,3-1.343,3-3v-8.739
		C108.342,62.07,106.999,60.727,105.342,60.727z"/>
	<path d="M105.342,85.596H63.289c-1.657,0-3,1.344-3,3v8.738c0,1.657,1.343,3,3,3h42.053c1.657,0,3-1.343,3-3v-8.738
		C108.342,86.939,106.999,85.596,105.342,85.596z"/>
	<path d="M37.783,25.963H23.896v35.932c-8.09,2.847-13.887,10.555-13.887,19.617c0,11.49,9.338,20.828,20.829,20.828
		c11.493,0,20.831-9.338,20.831-20.828c0-9.063-5.797-16.771-13.887-19.617V46.793H51.67V32.906H37.783V25.963z M30.839,88.453
		c-3.819,0-6.942-3.123-6.942-6.941c0-3.82,3.123-6.944,6.942-6.944s6.944,3.124,6.944,6.944
		C37.783,85.33,34.658,88.453,30.839,88.453z"/>
</g>
</svg>
