<?xml version="1.0" encoding="utf-8"?>
<!-- Generator: Adobe Illustrator 16.0.0, SVG Export Plug-In . SVG Version: 6.00 Build 0)  -->
<!DOCTYPE svg PUBLIC "-//W3C//DTD SVG 1.1//EN" "http://www.w3.org/Graphics/SVG/1.1/DTD/svg11.dtd">
<svg version="1.1" id="Layer_1" xmlns="http://www.w3.org/2000/svg" xmlns:xlink="http://www.w3.org/1999/xlink" x="0px" y="0px"
	 width="122.789px" height="122.788px" viewBox="0 0 122.789 122.788" enable-background="new 0 0 122.789 122.788"
	 xml:space="preserve">
<g>
	<polygon points="44.732,74.183 44.486,74.264 22.689,36.314 8.826,36.314 8.826,95.856 22.689,95.856 22.689,57.988 22.936,57.906 
		44.732,95.856 58.514,95.856 58.514,36.314 44.732,36.314 	"/>
	<path d="M106.072,35.309H70.697c-1.658,0-3,1.343-3,3v8.708c0,1.657,1.342,3,3,3h35.375c1.656,0,3-1.343,3-3v-8.708
		C109.072,36.651,107.729,35.309,106.072,35.309z"/>
	<path d="M106.072,60.193H70.697c-1.658,0-3,1.343-3,3v8.708c0,1.656,1.342,3,3,3h35.375c1.656,0,3-1.344,3-3v-8.708
		C109.072,61.536,107.729,60.193,106.072,60.193z"/>
	<path d="M106.072,85.077H70.697c-1.658,0-3,1.344-3,3v8.707c0,1.657,1.342,3,3,3h35.375c1.656,0,3-1.343,3-3v-8.707
		C109.072,86.421,107.729,85.077,106.072,85.077z"/>
</g>
</svg>
