<?xml version="1.0" encoding="utf-8"?>
<!-- Generator: Adobe Illustrator 16.0.0, SVG Export Plug-In . SVG Version: 6.00 Build 0)  -->
<!DOCTYPE svg PUBLIC "-//W3C//DTD SVG 1.1//EN" "http://www.w3.org/Graphics/SVG/1.1/DTD/svg11.dtd">
<svg version="1.1" id="Layer_1" xmlns="http://www.w3.org/2000/svg" xmlns:xlink="http://www.w3.org/1999/xlink" x="0px" y="0px"
	 width="122.789px" height="122.789px" viewBox="0 0 122.789 122.789" enable-background="new 0 0 122.789 122.789"
	 xml:space="preserve">
<path d="M119.289,0H3.5C1.567,0,0,1.567,0,3.5v115.789c0,1.933,1.567,3.5,3.5,3.5h115.789c1.933,0,3.5-1.567,3.5-3.5V3.5
	C122.789,1.567,121.222,0,119.289,0z M58.513,95.857H44.731l-21.797-37.95l-0.245,0.082v37.868H8.826V36.314h13.863l21.797,37.95
	l0.245-0.082V36.314h13.781V95.857z M109.071,96.785c0,1.656-1.343,3-3,3H70.696c-1.657,0-3-1.344-3-3v-8.707c0-1.656,1.343-3,3-3
	h35.375c1.657,0,3,1.344,3,3V96.785z M109.071,71.901c0,1.657-1.343,3-3,3H70.696c-1.657,0-3-1.343-3-3v-8.708c0-1.656,1.343-3,3-3
	h35.375c1.657,0,3,1.344,3,3V71.901z M109.071,47.018c0,1.656-1.343,3-3,3H70.696c-1.657,0-3-1.344-3-3v-8.709c0-1.656,1.343-3,3-3
	h35.375c1.657,0,3,1.344,3,3V47.018z"/>
</svg>
