<?xml version="1.0" encoding="UTF-8" standalone="no"?>
<svg
   xmlns:dc="http://purl.org/dc/elements/1.1/"
   xmlns:cc="http://creativecommons.org/ns#"
   xmlns:rdf="http://www.w3.org/1999/02/22-rdf-syntax-ns#"
   xmlns:svg="http://www.w3.org/2000/svg"
   xmlns="http://www.w3.org/2000/svg"
   xmlns:sodipodi="http://sodipodi.sourceforge.net/DTD/sodipodi-0.dtd"
   xmlns:inkscape="http://www.inkscape.org/namespaces/inkscape"
   viewBox="-1 -256 221021.83 221021.83"
   id="svg3025"
   version="1.1"
   inkscape:version="0.92+devel unknown"
   width="3.26332cm"
   height="3.26332cm"
   sodipodi:docname="ocd_i.svg">
  <metadata
     id="metadata3035">
    <rdf:RDF>
      <cc:Work
         rdf:about="">
        <dc:format>image/svg+xml</dc:format>
        <dc:type
           rdf:resource="http://purl.org/dc/dcmitype/StillImage" />
        <dc:title></dc:title>
      </cc:Work>
    </rdf:RDF>
  </metadata>
  <defs
     id="defs3033">
    <filter
       style="color-interpolation-filters:sRGB"
       inkscape:label="Invert"
       id="filter4295">
      <feColorMatrix
         type="hueRotate"
         values="180"
         result="color1"
         id="feColorMatrix4291" />
      <feColorMatrix
         values="-1 0 0 0 1 0 -1 0 0 1 0 0 -1 0 1 -0.21 -0.72 -0.07 2 0 "
         result="color2"
         id="feColorMatrix4293" />
    </filter>
    <filter
       style="color-interpolation-filters:sRGB"
       inkscape:label="Invert"
       id="filter4301">
      <feColorMatrix
         type="hueRotate"
         values="180"
         result="color1"
         id="feColorMatrix4297" />
      <feColorMatrix
         values="-1 0 0 0 1 0 -1 0 0 1 0 0 -1 0 1 -0.21 -0.72 -0.07 2 0 "
         result="color2"
         id="feColorMatrix4299" />
    </filter>
  </defs>
  <sodipodi:namedview
     pagecolor="#ffffff"
     bordercolor="#666666"
     borderopacity="1"
     objecttolerance="10"
     gridtolerance="10"
     guidetolerance="10"
     inkscape:pageopacity="0"
     inkscape:pageshadow="2"
     inkscape:window-width="1920"
     inkscape:window-height="1140"
     id="namedview3031"
     showgrid="false"
     inkscape:zoom="5.9599"
     inkscape:cx="44.493721"
     inkscape:cy="48.408413"
     inkscape:window-x="0"
     inkscape:window-y="0"
     inkscape:window-maximized="1"
     inkscape:current-layer="svg3025"
     inkscape:document-rotation="0"
     units="cm" />
  <g
     id="g4279"
     transform="translate(12063.819,-19620.334)">
    <g
       style="filter:url(#filter4295)"
       id="g3027"
       transform="matrix(98.639206,0,0,-98.639206,16364.227,193004.34)">
      <g
         style="opacity:1"
         id="path3029">
        <path
           sodipodi:nodetypes="cccssssccscscsscscscscscscscscscsscssssssccsssccsssccssscccc"
           inkscape:connector-curvature="0"
           id="path4639"
           d="m 1639,1058 c 26.6667,-38 32.6667,-81 18,-129 L 1382,23 c -12.6667,-42.666667 -38.1667,-78.5 -76.5,-107.5 -38.3333,-29 -79.1667,-43.5 -122.5,-43.5 H 260 c -51.33333,0 -100.83333,17.83333 -148.5,53.5 C 63.833333,-38.833333 30.666667,5 12,57 c -16,44.66667 -16.6666667,87 -2,127 0,2.66667 1,11.66667 3,27 2,15.33333 3.333333,27.66667 4,37 0.666667,5.33333 -0.333333,12.5 -3,21.5 -2.666667,9 -3.666667,15.5 -3,19.5 1.333333,7.33333 4,14.33333 8,21 4,6.66667 9.5,14.5 16.5,23.5 7,9 12.5,16.83333 16.5,23.5 15.333333,25.33333 30.333333,55.83333 45,91.5 14.66667,35.66667 24.66667,66.16667 30,91.5 2,6.66667 2.16667,16.66667 0.5,30 -1.66667,13.33333 -1.83333,22.66667 -0.5,28 2,7.33333 7.66667,16.66667 17,28 9.33333,11.33333 15,19 17,23 14,24 28,54.66667 42,92 14,37.33333 22.33333,67.33333 25,90 0.66667,6 -0.16667,16.66667 -2.5,32 -2.33333,15.33333 -2.16667,24.66667 0.5,28 2.66667,8.66667 10,18.83333 22,30.5 12,11.66667 19.33333,19.16667 22,22.5 12.66667,17.33333 26.83333,45.5 42.5,84.5 15.66667,39 24.83333,71.1667 27.5,96.5 0.66667,5.3333 -0.33333,13.8333 -3,25.5 -2.66667,11.6667 -3.33333,20.5 -2,26.5 1.33333,5.3333 4.33333,11.3333 9,18 4.66667,6.6667 10.66667,14.3333 18,23 7.33333,8.6667 13,15.6667 17,21 5.33333,8 10.83333,18.1667 16.5,30.5 5.66667,12.3333 10.66667,24 15,35 4.33333,11 9.66667,23 16,36 6.33333,13 12.83333,23.6667 19.5,32 6.66667,8.3333 15.5,16.1667 26.5,23.5 11,7.3333 23,11.1667 36,11.5 13,0.3333 28.83333,-1.5 47.5,-5.5 l -1,-3 c 25.33333,6 42.33333,9 51,9 h 761 c 49.3333,0 87.3333,-18.6667 114,-56 26.6667,-37.3333 32.6667,-80.6667 18,-130 L 1225,316 C 1201,236.66667 1177.1667,185.5 1153.5,162.5 1129.8333,139.5 1087,128 1025,128 H 156 c -18,0 -30.66667,-5 -38,-15 -7.33333,-10.66667 -7.66667,-25 -1,-43 C 133,23.333333 181,0 261,0 h 923 c 19.3333,0 38,5.1666667 56,15.5 18,10.333333 29.6667,24.166667 35,41.5 l 300,987 c 4.6667,14.6667 6.3333,33.6667 5,57 25.3333,-10 45,-24.3333 59,-43 z"
           style="color:#000000;font-style:normal;font-variant:normal;font-weight:normal;font-stretch:normal;font-size:medium;line-height:normal;font-family:sans-serif;font-variant-ligatures:normal;font-variant-position:normal;font-variant-caps:normal;font-variant-numeric:normal;font-variant-alternates:normal;font-variant-east-asian:normal;font-feature-settings:normal;text-indent:0;text-align:start;text-decoration:none;text-decoration-line:none;text-decoration-style:solid;text-decoration-color:#000000;letter-spacing:normal;word-spacing:normal;text-transform:none;writing-mode:lr-tb;direction:ltr;text-orientation:mixed;dominant-baseline:auto;baseline-shift:baseline;text-anchor:start;white-space:normal;shape-padding:0;clip-rule:nonzero;display:inline;overflow:visible;visibility:visible;isolation:auto;mix-blend-mode:normal;color-interpolation:sRGB;color-interpolation-filters:linearRGB;solid-color:#000000;solid-opacity:1;vector-effect:none;fill:currentColor;fill-opacity:1;fill-rule:nonzero;stroke:none;stroke-width:1;stroke-linecap:butt;stroke-linejoin:miter;stroke-miterlimit:4;stroke-dasharray:none;stroke-dashoffset:0;stroke-opacity:1;color-rendering:auto;image-rendering:auto;shape-rendering:auto;text-rendering:auto;enable-background:accumulate" />
        <path
           style="color:#000000;font-style:normal;font-variant:normal;font-weight:normal;font-stretch:normal;font-size:medium;line-height:normal;font-family:sans-serif;font-variant-ligatures:normal;font-variant-position:normal;font-variant-caps:normal;font-variant-numeric:normal;font-variant-alternates:normal;font-variant-east-asian:normal;font-feature-settings:normal;text-indent:0;text-align:start;text-decoration:none;text-decoration-line:none;text-decoration-style:solid;text-decoration-color:#000000;letter-spacing:normal;word-spacing:normal;text-transform:none;writing-mode:lr-tb;direction:ltr;text-orientation:mixed;dominant-baseline:auto;baseline-shift:baseline;text-anchor:start;white-space:normal;shape-padding:0;clip-rule:nonzero;display:inline;overflow:visible;visibility:visible;isolation:auto;mix-blend-mode:normal;color-interpolation:sRGB;color-interpolation-filters:linearRGB;solid-color:#000000;solid-opacity:1;vector-effect:none;fill:#ffffff;fill-opacity:1;fill-rule:nonzero;stroke:none;stroke-width:1;stroke-linecap:butt;stroke-linejoin:miter;stroke-miterlimit:4;stroke-dasharray:none;stroke-dashoffset:0;stroke-opacity:1;color-rendering:auto;image-rendering:auto;shape-rendering:auto;text-rendering:auto;enable-background:accumulate"
           d="M 1499,1222 1225,316 C 1201,236.66667 1177.1667,185.5 1153.5,162.5 1129.8333,139.5 1087,128 1025,128 H 156 c -18,0 -30.66667,-5 -38,-15 -7.33333,-10.66667 -7.66667,-25 -1,-43 C 133,23.333333 181,0 261,0 h 923 c 19.3333,0 38,5.1666667 56,15.5 18,10.333333 29.6667,24.166667 35,41.5 l 300,987 c 4.6667,14.6667 6.3333,33.6667 5,57 -110.3399,239.1438 -56.4609,210.5597 -81,121 z"
           id="path4289"
           inkscape:connector-curvature="0"
           sodipodi:nodetypes="ccsssccssscccc" />
      </g>
    </g>
    <path
       transform="matrix(98.639206,0,-44.662759,98.639206,11121.303,67708.883)"
       d="M 761.06765,880.5351 1045.1075,117.50546 h 145.6884 l 285.612,763.02964 H 1308.7091 L 1256.3032,723.31745 H 980.12424 L 927.71836,880.5351 Z M 1022.573,595.97116 h 191.2815 l -95.3787,-286.66018 z"
       style="font-style:normal;font-variant:normal;font-weight:bold;font-stretch:normal;font-size:1073.27246094px;line-height:125%;font-family:ROboto;-inkscape-font-specification:'ROboto Bold';letter-spacing:0px;word-spacing:0px;fill:#ffffff;fill-opacity:1;stroke:none;stroke-width:11.1799221px;stroke-linecap:butt;stroke-linejoin:miter;stroke-opacity:1;filter:url(#filter4301)"
       id="path4275"
       inkscape:connector-curvature="0" />
  </g>
</svg>
