<?xml version="1.0" encoding="utf-8"?>
<!-- Generator: Adobe Illustrator 16.0.0, SVG Export Plug-In . SVG Version: 6.00 Build 0)  -->
<!DOCTYPE svg PUBLIC "-//W3C//DTD SVG 1.1//EN" "http://www.w3.org/Graphics/SVG/1.1/DTD/svg11.dtd">
<svg version="1.1" id="Layer_1" xmlns="http://www.w3.org/2000/svg" xmlns:xlink="http://www.w3.org/1999/xlink" x="0px" y="0px"
	 width="123.196px" height="123.196px" viewBox="0 0 123.196 123.196" enable-background="new 0 0 123.196 123.196"
	 xml:space="preserve">
<path d="M119.696,0H3.5C1.567,0,0,1.567,0,3.5v116.196c0,1.933,1.567,3.5,3.5,3.5h116.196c1.933,0,3.5-1.567,3.5-3.5V3.5
	C123.196,1.567,121.629,0,119.696,0z M38.446,111.781c0,1.657-1.343,3-3,3H13.783c-1.656,0-3-1.343-3-3v-8.738c0-1.657,1.344-3,3-3
	h21.663c1.657,0,3,1.343,3,3V111.781z M38.446,85.565c0,1.657-1.343,3-3,3H13.783c-1.656,0-3-1.343-3-3v-8.738c0-1.657,1.344-3,3-3
	h21.663c1.657,0,3,1.343,3,3V85.565z M38.446,49.52c0,1.657-1.343,3-3,3H13.783c-1.656,0-3-1.343-3-3v-8.738c0-1.657,1.344-3,3-3
	h21.663c1.657,0,3,1.343,3,3V49.52z M38.446,23.305c0,1.657-1.343,3-3,3H13.783c-1.656,0-3-1.343-3-3v-8.739c0-1.657,1.344-3,3-3
	h21.663c1.657,0,3,1.343,3,3V23.305z M62.481,108.912c-7.452,0-13.515-6.063-13.515-13.516c0-7.452,6.063-13.515,13.515-13.515
	s13.516,6.063,13.516,13.515C75.997,102.849,69.934,108.912,62.481,108.912z M62.481,45.559c-7.452,0-13.515-6.063-13.515-13.515
	s6.063-13.515,13.515-13.515s13.516,6.063,13.516,13.515S69.934,45.559,62.481,45.559z M114.178,111.053c0,1.657-1.343,3-3,3H89.516
	c-1.656,0-3-1.343-3-3v-8.738c0-1.657,1.344-3,3-3h21.662c1.657,0,3,1.343,3,3V111.053z M114.178,84.838c0,1.657-1.343,3-3,3H89.516
	c-1.656,0-3-1.343-3-3V76.1c0-1.657,1.344-3,3-3h21.662c1.657,0,3,1.343,3,3V84.838z M114.178,48.792c0,1.657-1.343,3-3,3H89.516
	c-1.656,0-3-1.343-3-3v-8.738c0-1.657,1.344-3,3-3h21.662c1.657,0,3,1.343,3,3V48.792z M114.178,22.577c0,1.657-1.343,3-3,3H89.516
	c-1.656,0-3-1.343-3-3v-8.739c0-1.657,1.344-3,3-3h21.662c1.657,0,3,1.343,3,3V22.577z"/>
</svg>
