<?xml version="1.0" encoding="utf-8"?>
<!-- Generator: Adobe Illustrator 16.0.0, SVG Export Plug-In . SVG Version: 6.00 Build 0)  -->
<!DOCTYPE svg PUBLIC "-//W3C//DTD SVG 1.1//EN" "http://www.w3.org/Graphics/SVG/1.1/DTD/svg11.dtd">
<svg version="1.1" id="Layer_1" xmlns="http://www.w3.org/2000/svg" xmlns:xlink="http://www.w3.org/1999/xlink" x="0px" y="0px"
	 width="123.338px" height="123.338px" viewBox="0 0 123.338 123.338" enable-background="new 0 0 123.338 123.338"
	 xml:space="preserve">
<g>
	<path d="M34.754,11.708H13.091c-1.656,0-3,1.343-3,3v8.739c0,1.656,1.344,3,3,3h21.663c1.657,0,3-1.344,3-3v-8.739
		C37.754,13.051,36.411,11.708,34.754,11.708z"/>
	<path d="M110.485,10.98H88.823c-1.656,0-3,1.344-3,3v8.738c0,1.657,1.344,3,3,3h21.662c1.657,0,3-1.343,3-3V13.98
		C113.485,12.324,112.143,10.98,110.485,10.98z"/>
	<path d="M34.754,37.924H13.091c-1.656,0-3,1.343-3,3v8.738c0,1.656,1.344,3,3,3h21.663c1.657,0,3-1.344,3-3v-8.738
		C37.754,39.267,36.411,37.924,34.754,37.924z"/>
	<path d="M110.485,37.195H88.823c-1.656,0-3,1.344-3,3v8.738c0,1.657,1.344,3,3,3h21.662c1.657,0,3-1.343,3-3v-8.738
		C113.485,38.539,112.143,37.195,110.485,37.195z"/>
	<path d="M34.754,73.969H13.091c-1.656,0-3,1.344-3,3v8.738c0,1.657,1.344,3,3,3h21.663c1.657,0,3-1.343,3-3v-8.738
		C37.754,75.313,36.411,73.969,34.754,73.969z"/>
	<path d="M110.485,73.242H88.823c-1.656,0-3,1.343-3,3v8.738c0,1.656,1.344,3,3,3h21.662c1.657,0,3-1.344,3-3v-8.738
		C113.485,74.585,112.143,73.242,110.485,73.242z"/>
	<path d="M34.754,100.185H13.091c-1.656,0-3,1.343-3,3v8.738c0,1.657,1.344,3,3,3h21.663c1.657,0,3-1.343,3-3v-8.738
		C37.754,101.527,36.411,100.185,34.754,100.185z"/>
	<path d="M110.485,99.457H88.823c-1.656,0-3,1.344-3,3v8.738c0,1.656,1.344,3,3,3h21.662c1.657,0,3-1.344,3-3v-8.738
		C113.485,100.801,112.143,99.457,110.485,99.457z"/>
	<path d="M61.789,18.67c-7.452,0-13.515,6.063-13.515,13.516s6.063,13.516,13.515,13.516s13.516-6.063,13.516-13.516
		S69.241,18.67,61.789,18.67z"/>
	<path d="M61.789,82.023c-7.452,0-13.515,6.063-13.515,13.515s6.063,13.516,13.515,13.516s13.516-6.063,13.516-13.516
		S69.241,82.023,61.789,82.023z"/>
</g>
</svg>
