<?xml version="1.0" encoding="utf-8"?>
<!-- Generator: Adobe Illustrator 16.0.0, SVG Export Plug-In . SVG Version: 6.00 Build 0)  -->
<!DOCTYPE svg PUBLIC "-//W3C//DTD SVG 1.1//EN" "http://www.w3.org/Graphics/SVG/1.1/DTD/svg11.dtd">
<svg version="1.1" id="Layer_1" xmlns="http://www.w3.org/2000/svg" xmlns:xlink="http://www.w3.org/1999/xlink" x="0px" y="0px"
	 width="122.828px" height="122.826px" viewBox="0 0 122.828 122.826" enable-background="new 0 0 122.828 122.826"
	 xml:space="preserve">
<path d="M119.328,0H3.5C1.567,0,0,1.567,0,3.5v115.826c0,1.933,1.567,3.5,3.5,3.5h115.828c1.933,0,3.5-1.567,3.5-3.5V3.5
	C122.828,1.567,121.261,0,119.328,0z M29.652,58.006c-8.73,0-15.834-7.104-15.834-15.835c0-8.73,7.104-15.833,15.834-15.833
	s15.834,7.103,15.834,15.833C45.486,50.903,38.383,58.006,29.652,58.006z M109.025,96.823c0,1.656-1.344,3-3,3H65.264
	c-1.656,0-3-1.344-3-3v-8.47c0-1.657,1.344-3,3-3h40.762c1.656,0,3,1.343,3,3V96.823z M109.025,71.82c0,1.657-1.344,3-3,3H65.264
	c-1.656,0-3-1.343-3-3v-8.47c0-1.657,1.344-3,3-3h40.762c1.656,0,3,1.343,3,3V71.82z M109.025,46.817c0,1.656-1.344,3-3,3H65.264
	c-1.656,0-3-1.344-3-3v-8.471c0-1.656,1.344-3,3-3h40.762c1.656,0,3,1.344,3,3V46.817z"/>
</svg>
