<?xml version="1.0" encoding="utf-8"?>
<!-- Generator: Adobe Illustrator 16.0.0, SVG Export Plug-In . SVG Version: 6.00 Build 0)  -->
<!DOCTYPE svg PUBLIC "-//W3C//DTD SVG 1.1//EN" "http://www.w3.org/Graphics/SVG/1.1/DTD/svg11.dtd">
<svg version="1.1" id="Layer_1" xmlns="http://www.w3.org/2000/svg" xmlns:xlink="http://www.w3.org/1999/xlink" x="0px" y="0px"
	 width="123.338px" height="123.338px" viewBox="0 0 123.338 123.338" enable-background="new 0 0 123.338 123.338"
	 xml:space="preserve">
<g>
	<path d="M29.99,26.851c-8.73,0-15.834,7.103-15.834,15.833S21.26,58.518,29.99,58.518s15.834-7.104,15.834-15.834
		S38.721,26.851,29.99,26.851z"/>
	<path d="M106.363,35.858H65.602c-1.656,0-3,1.343-3,3v8.47c0,1.656,1.344,3,3,3h40.762c1.656,0,3-1.344,3-3v-8.47
		C109.363,37.201,108.02,35.858,106.363,35.858z"/>
	<path d="M106.363,60.861H65.602c-1.656,0-3,1.344-3,3v8.471c0,1.656,1.344,3,3,3h40.762c1.656,0,3-1.344,3-3v-8.471
		C109.363,62.205,108.02,60.861,106.363,60.861z"/>
	<path d="M106.363,85.865H65.602c-1.656,0-3,1.343-3,3v8.469c0,1.657,1.344,3,3,3h40.762c1.656,0,3-1.343,3-3v-8.469
		C109.363,87.208,108.02,85.865,106.363,85.865z"/>
</g>
</svg>
