<?xml version="1.0" encoding="utf-8"?>
<!-- Generator: Adobe Illustrator 16.0.0, SVG Export Plug-In . SVG Version: 6.00 Build 0)  -->
<!DOCTYPE svg PUBLIC "-//W3C//DTD SVG 1.1//EN" "http://www.w3.org/Graphics/SVG/1.1/DTD/svg11.dtd">
<svg version="1.1" id="Layer_1" xmlns="http://www.w3.org/2000/svg" xmlns:xlink="http://www.w3.org/1999/xlink" x="0px" y="0px"
	 width="122.719px" height="122.72px" viewBox="0 0 122.719 122.72" enable-background="new 0 0 122.719 122.72"
	 xml:space="preserve">
<path d="M92.235,27.38l-20.088,8.281l10.505,8.089L69.484,61.081l-18.287-5.408c-3.568-1.055-7.421,0.196-9.688,3.147L14.944,93.398
	c-3.028,3.942-2.288,9.592,1.653,12.62c1.635,1.256,3.563,1.863,5.477,1.863c2.701,0,5.372-1.21,7.144-3.517l22.801-29.679
	l18.321,5.418c3.586,1.06,7.456-0.208,9.718-3.187l16.856-22.187l9.667,7.443l2.871-21.535l2.871-21.543L92.235,27.38z"/>
</svg>
