<?xml version="1.0" encoding="utf-8"?>
<!-- Generator: Adobe Illustrator 16.0.0, SVG Export Plug-In . SVG Version: 6.00 Build 0)  -->
<!DOCTYPE svg PUBLIC "-//W3C//DTD SVG 1.1//EN" "http://www.w3.org/Graphics/SVG/1.1/DTD/svg11.dtd">
<svg version="1.1" id="Layer_1" xmlns="http://www.w3.org/2000/svg" xmlns:xlink="http://www.w3.org/1999/xlink" x="0px" y="0px"
	 width="122.719px" height="122.72px" viewBox="0 0 122.719 122.72" enable-background="new 0 0 122.719 122.72"
	 xml:space="preserve">
<path d="M119.219,0H3.5C1.567,0,0,1.566,0,3.5V119.22c0,1.933,1.567,3.5,3.5,3.5h115.719c1.933,0,3.5-1.567,3.5-3.5V3.5
	C122.719,1.566,121.151,0,119.219,0z M109.452,40.639l-2.871,21.536l-9.667-7.443L80.058,76.918
	c-2.263,2.978-6.13,4.246-9.718,3.186l-18.32-5.417l-22.802,29.679c-1.772,2.307-4.442,3.518-7.144,3.518
	c-1.913,0-3.842-0.607-5.477-1.864c-3.941-3.028-4.682-8.678-1.653-12.62L41.51,58.821c2.269-2.952,6.118-4.203,9.688-3.148
	l18.286,5.407L82.652,43.75l-10.504-8.089l20.087-8.28l20.088-8.284L109.452,40.639z"/>
</svg>
