<?xml version="1.0" encoding="UTF-8" standalone="no"?>
<!-- Generator: Adobe Illustrator 16.0.0, SVG Export Plug-In . SVG Version: 6.00 Build 0)  -->

<svg
   xmlns:dc="http://purl.org/dc/elements/1.1/"
   xmlns:cc="http://creativecommons.org/ns#"
   xmlns:rdf="http://www.w3.org/1999/02/22-rdf-syntax-ns#"
   xmlns:svg="http://www.w3.org/2000/svg"
   xmlns="http://www.w3.org/2000/svg"
   xmlns:sodipodi="http://sodipodi.sourceforge.net/DTD/sodipodi-0.dtd"
   xmlns:inkscape="http://www.inkscape.org/namespaces/inkscape"
   version="1.1"
   id="Layer_1"
   x="0px"
   y="0px"
   width="123.338px"
   height="123.338px"
   viewBox="0 0 123.338 123.338"
   enable-background="new 0 0 123.338 123.338"
   xml:space="preserve"
   sodipodi:docname="word_list_i.svg"
   inkscape:version="0.92.2 (5c3e80d, 2017-08-06)"><metadata
     id="metadata17"><rdf:RDF><cc:Work
         rdf:about=""><dc:format>image/svg+xml</dc:format><dc:type
           rdf:resource="http://purl.org/dc/dcmitype/StillImage" /><dc:title></dc:title></cc:Work></rdf:RDF></metadata><defs
     id="defs15" /><sodipodi:namedview
     pagecolor="#ffffff"
     bordercolor="#666666"
     borderopacity="1"
     objecttolerance="10"
     gridtolerance="10"
     guidetolerance="10"
     inkscape:pageopacity="0"
     inkscape:pageshadow="2"
     inkscape:window-width="1920"
     inkscape:window-height="1140"
     id="namedview13"
     showgrid="false"
     inkscape:zoom="1.9134412"
     inkscape:cx="-47.558294"
     inkscape:cy="61.669001"
     inkscape:window-x="0"
     inkscape:window-y="0"
     inkscape:window-maximized="1"
     inkscape:current-layer="Layer_1" /><rect
     style="opacity:1;fill:#000000;fill-opacity:1;stroke-width:2.20001984"
     id="rect817"
     width="123.338"
     height="123.338"
     x="0"
     y="0.52261859" /><g
     id="g838"
     transform="translate(-5.7292429)"
     style="fill:#ffffff"><g
       transform="translate(53.48038,-3.2815)"
       id="g831"
       style="fill:#ffffff"><path
         inkscape:connector-curvature="0"
         id="path2"
         d="M 59.263,35.858 H 17.159 c -1.658,0 -3,1.343 -3,3 v 8.749 c 0,1.657 1.342,3 3,3 h 42.104 c 1.658,0 3,-1.343 3,-3 v -8.749 c 0,-1.657 -1.342,-3 -3,-3 z"
         style="fill:#ffffff" /><path
         inkscape:connector-curvature="0"
         id="path4"
         d="M 59.263,60.723 H 17.159 c -1.658,0 -3,1.344 -3,3 v 8.748 c 0,1.657 1.342,3 3,3 h 42.104 c 1.658,0 3,-1.343 3,-3 v -8.748 c 0,-1.657 -1.342,-3 -3,-3 z"
         style="fill:#ffffff" /><path
         inkscape:connector-curvature="0"
         id="path6"
         d="M 59.263,85.586 H 17.159 c -1.658,0 -3,1.344 -3,3 v 8.748 c 0,1.657 1.342,3 3,3 h 42.104 c 1.658,0 3,-1.343 3,-3 v -8.748 c 0,-1.656 -1.342,-3 -3,-3 z"
         style="fill:#ffffff" /></g><path
       d="m 57.23762,83.8405 c -0.176,-0.311 -0.506,-0.503 -0.863,-0.505 l -8.328,-0.05 v -60.77 c 0,-1.656 -1.344,-3 -3,-3 h -13.67 c -1.658,0 -3,1.344 -3,3 v 60.649 l -8.318,-0.053 c -0.002,0 -0.004,0 -0.006,0 -0.354,0 -0.684,0.188 -0.863,0.495 -0.18,0.308 -0.182,0.689 -0.006,1 l 8.982,15.783 8.982,15.781 c 0.176,0.311 0.506,0.503 0.863,0.506 0.002,0 0.004,0 0.006,0 0.354,0 0.684,-0.188 0.863,-0.495 l 9.174,-15.669 9.178,-15.674 c 0.18,-0.307 0.184,-0.688 0.006,-0.998 z"
       id="path8"
       inkscape:connector-curvature="0"
       style="fill:#ffffff" /></g></svg>