<?xml version="1.0" encoding="utf-8"?>
<!-- Generator: Adobe Illustrator 16.0.0, SVG Export Plug-In . SVG Version: 6.00 Build 0)  -->
<!DOCTYPE svg PUBLIC "-//W3C//DTD SVG 1.1//EN" "http://www.w3.org/Graphics/SVG/1.1/DTD/svg11.dtd">
<svg version="1.1" id="Layer_1" xmlns="http://www.w3.org/2000/svg" xmlns:xlink="http://www.w3.org/1999/xlink" x="0px" y="0px"
	 width="123.174px" height="123.172px" viewBox="0 0 123.174 123.172" enable-background="new 0 0 123.174 123.172"
	 xml:space="preserve">
<g>
	<path d="M61.588,12.049c-27.314,0-49.537,22.223-49.537,49.537s22.223,49.537,49.537,49.537s49.537-22.223,49.537-49.537
		S88.902,12.049,61.588,12.049z M61.588,99.123c-20.698,0-37.537-16.839-37.537-37.537S40.89,24.049,61.588,24.049
		s37.537,16.839,37.537,37.537S82.286,99.123,61.588,99.123z"/>
	<path d="M61.588,46.967c-8.061,0-14.619,6.559-14.619,14.619s6.559,14.618,14.619,14.618s14.619-6.558,14.619-14.618
		S69.648,46.967,61.588,46.967z"/>
</g>
</svg>
