<?xml version="1.0" encoding="utf-8"?>
<!-- Generator: Adobe Illustrator 16.0.0, SVG Export Plug-In . SVG Version: 6.00 Build 0)  -->
<!DOCTYPE svg PUBLIC "-//W3C//DTD SVG 1.1//EN" "http://www.w3.org/Graphics/SVG/1.1/DTD/svg11.dtd">
<svg version="1.1" id="Layer_1" xmlns="http://www.w3.org/2000/svg" xmlns:xlink="http://www.w3.org/1999/xlink" x="0px" y="0px"
	 width="123.167px" height="123px" viewBox="0 0 123.167 123" enable-background="new 0 0 123.167 123" xml:space="preserve">
<g>
	<path d="M61.197,63.477c-13.515,0-24.51,10.995-24.51,24.51s10.995,24.51,24.51,24.51s24.509-10.995,24.509-24.51
		S74.712,63.477,61.197,63.477z M61.197,105.496c-9.655,0-17.51-7.854-17.51-17.51s7.855-17.51,17.51-17.51
		c9.654,0,17.509,7.854,17.509,17.51S70.852,105.496,61.197,105.496z"/>
	<path d="M61.197,81.863c-3.378,0-6.126,2.747-6.126,6.123c0,3.377,2.748,6.125,6.126,6.125c3.376,0,6.123-2.748,6.123-6.125
		C67.32,84.61,64.573,81.863,61.197,81.863z"/>
	<path d="M61.197,57.268c13.515,0,24.509-10.995,24.509-24.51c0-13.515-10.994-24.509-24.509-24.509s-24.51,10.995-24.51,24.509
		C36.688,46.273,47.683,57.268,61.197,57.268z M61.197,15.249c9.654,0,17.509,7.854,17.509,17.509c0,9.655-7.854,17.51-17.509,17.51
		c-9.655,0-17.51-7.855-17.51-17.51C43.688,23.103,51.542,15.249,61.197,15.249z"/>
	<path d="M61.197,38.884c3.376,0,6.123-2.748,6.123-6.126c0-3.376-2.747-6.123-6.123-6.123c-3.378,0-6.126,2.747-6.126,6.123
		C55.071,36.136,57.819,38.884,61.197,38.884z"/>
</g>
</svg>
