<?xml version="1.0" encoding="utf-8"?>
<!-- Generator: Adobe Illustrator 16.0.0, SVG Export Plug-In . SVG Version: 6.00 Build 0)  -->
<!DOCTYPE svg PUBLIC "-//W3C//DTD SVG 1.1//EN" "http://www.w3.org/Graphics/SVG/1.1/DTD/svg11.dtd">
<svg version="1.1" id="Layer_1" xmlns="http://www.w3.org/2000/svg" xmlns:xlink="http://www.w3.org/1999/xlink" x="0px" y="0px"
	 width="123.174px" height="123.172px" viewBox="0 0 123.174 123.172" enable-background="new 0 0 123.174 123.172"
	 xml:space="preserve">
<g>
	<path d="M119.674,0H3.5C1.567,0,0,1.567,0,3.5v116.173c0,1.933,1.567,3.5,3.5,3.5h116.174c1.933,0,3.5-1.567,3.5-3.5V3.5
		C123.174,1.567,121.606,0,119.674,0z M61.587,111.123c-27.314,0-49.537-22.222-49.537-49.536c0-27.315,22.223-49.537,49.537-49.537
		s49.537,22.222,49.537,49.537C111.124,88.901,88.901,111.123,61.587,111.123z"/>
	<path d="M61.587,24.05c-20.698,0-37.537,16.839-37.537,37.537c0,20.698,16.839,37.536,37.537,37.536s37.537-16.838,37.537-37.536
		C99.124,40.889,82.285,24.05,61.587,24.05z M61.587,76.204c-8.061,0-14.619-6.557-14.619-14.617c0-8.062,6.559-14.62,14.619-14.62
		s14.619,6.559,14.619,14.62C76.206,69.647,69.647,76.204,61.587,76.204z"/>
</g>
</svg>
