<?xml version="1.0" encoding="utf-8"?>
<!-- Generator: Adobe Illustrator 16.0.0, SVG Export Plug-In . SVG Version: 6.00 Build 0)  -->
<!DOCTYPE svg PUBLIC "-//W3C//DTD SVG 1.1//EN" "http://www.w3.org/Graphics/SVG/1.1/DTD/svg11.dtd">
<svg version="1.1" id="Layer_1" xmlns="http://www.w3.org/2000/svg" xmlns:xlink="http://www.w3.org/1999/xlink" x="0px" y="0px"
	 width="123.167px" height="123px" viewBox="0 0 123.167 123" enable-background="new 0 0 123.167 123" xml:space="preserve">
<g>
	<path d="M61.614,70.319c-9.671,0-17.54,7.854-17.54,17.509c0,9.655,7.869,17.511,17.54,17.511c9.67,0,17.539-7.855,17.539-17.511
		C79.152,78.174,71.284,70.319,61.614,70.319z M61.614,93.954c-3.382,0-6.133-2.748-6.133-6.126c0-3.376,2.751-6.123,6.133-6.123
		c3.379,0,6.129,2.747,6.129,6.123C67.743,91.206,64.993,93.954,61.614,93.954z"/>
	<path d="M61.614,15.091c-9.671,0-17.54,7.854-17.54,17.509c0,9.655,7.869,17.51,17.54,17.51c9.67,0,17.539-7.855,17.539-17.51
		C79.152,22.945,71.284,15.091,61.614,15.091z M61.614,38.726c-3.382,0-6.133-2.748-6.133-6.126c0-3.376,2.751-6.123,6.133-6.123
		c3.379,0,6.129,2.747,6.129,6.123C67.743,35.978,64.993,38.726,61.614,38.726z"/>
	<path d="M119.675,0.047H3.552c-1.933,0-3.5,1.567-3.5,3.5v115.958c0,1.933,1.567,3.5,3.5,3.5h116.123c1.933,0,3.5-1.567,3.5-3.5
		V3.547C123.175,1.614,121.607,0.047,119.675,0.047z M61.614,112.339c-13.531,0-24.54-10.995-24.54-24.511
		c0-13.515,11.009-24.509,24.54-24.509c13.531,0,24.539,10.994,24.539,24.509C86.152,101.344,75.145,112.339,61.614,112.339z
		 M61.614,57.11c-13.531,0-24.54-10.995-24.54-24.51c0-13.515,11.009-24.509,24.54-24.509c13.531,0,24.539,10.995,24.539,24.509
		C86.152,46.115,75.145,57.11,61.614,57.11z"/>
</g>
</svg>
